<svg width="1110" height="1058" viewBox="0 0 1110 1058" fill="none" xmlns="http://www.w3.org/2000/svg">
<g clip-path="url(#clip0_648_1025)">
<mask id="mask0_648_1025" style="mask-type:luminance" maskUnits="userSpaceOnUse" x="-334" y="-229" width="1857" height="1535">
<path d="M1522.28 -228.226H-333.758V1305.87H1522.28V-228.226Z" fill="white"/>
</mask>
<g mask="url(#mask0_648_1025)">
<path d="M241.633 655.96L222 609.106L141.959 690.723L222 770.829L132.898 860.003L70.9796 921.971L51.3469 900.811L0 952.2L52.8571 1005.1L105.714 1058L157.061 1006.61L137.429 980.917L197.837 918.949L286.939 829.774L366.98 909.88L448.531 829.774L401.714 810.126L373.02 781.409L608.612 551.671L706.775 453.429C764.163 395.994 1046.57 92.1971 1057.14 0C963.51 7.55714 661.469 293.217 604.082 350.651L510.449 445.871L270.327 678.631L241.633 655.96Z" fill="white"/>
<path d="M708.288 816.171L662.982 829.774L743.023 909.88L823.063 829.774L912.166 918.949L974.084 980.917L952.941 1000.57L1004.29 1051.95L1057.15 999.054L1110 946.154L1060.17 894.766L1039.02 915.926L977.104 860.003L888.002 770.829L968.043 690.723L888.002 609.106L874.41 655.96L839.676 678.631L604.084 448.894L505.921 350.651C448.533 293.217 146.492 10.58 52.8594 0C61.9206 93.7086 347.349 395.994 403.227 453.429C403.227 453.429 450.043 498.771 498.37 548.649L738.492 787.454L708.288 816.171Z" fill="white"/>
</g>
</g>
<defs>
<clipPath id="clip0_648_1025">
<rect width="1110" height="1058" fill="white"/>
</clipPath>
</defs>
</svg>
