<svg width="400" height="400" viewBox="0 0 400 400" fill="none" xmlns="http://www.w3.org/2000/svg">
<g clip-path="url(#clip0_638_1001)">
<path d="M282.8 0H117.2L0 117.2V282.88L117.2 400H282.88L400 282.8V117.2L282.8 0ZM331.2 291.44C331.04 295.36 330.96 302.64 330.96 307.6V316.56L292.88 316.72C271.92 316.8 248.64 316.96 241.2 317.04C233.76 317.12 227.52 317.12 227.36 317.04C227.28 317.04 224.24 316.96 219.2 316.88V272.24L206.64 254.08H189.76L177.2 272.24V316.64C155.04 316.56 153.12 316.56 152.8 316.88C152.4 317.2 152.32 317.2 152.24 316.8L152.08 316.4H108.8H65.28V296.72V277.04H72.88H80.4L82.48 275.84C93.28 269.36 101.76 261.68 104.24 256.16C104.72 255.12 104.72 254.96 104.48 244.32C104.08 225.04 103.76 212.4 103.52 198.56C103.2 182.56 103.12 180.8 102.64 180.8C102.4 180.8 102.32 180.72 102.32 180.56C102.32 180.4 101.04 180.32 99.04 180.32C97.2 180.32 95.76 180.24 95.76 180.16C95.76 180.08 96.08 179.36 96.48 178.48C97.12 177.28 97.2 176.88 96.96 176.48C96.64 175.92 94.88 175.12 92.64 174.64L91.04 174.32V172.08V169.84H86.64H82.24V159.52V149.2H84.48H86.72L86.88 138.64C86.96 132.88 87.04 125.52 87.04 122.24V116.32L91.84 116.16C94.48 116.08 98.32 116 100.48 116H104.32V120.88C104.32 125.6 104.32 125.76 104.8 125.76C105.28 125.76 105.28 125.6 105.28 114.24V102.64L102 99.2C99.84 96.96 98.56 95.76 98.24 95.76L97.68 95.68V85.36C97.68 79.68 97.76 75.04 97.84 75.04C97.92 75.04 98.48 75.68 99.12 76.4L100.24 77.76H105.2H110.16V81.68V85.6L111.28 85.76C111.92 85.84 113.2 85.92 114.24 85.92H116.08V81.84V77.76L118.72 77.6C120.16 77.52 123.76 77.52 126.64 77.52L131.92 77.6L132 81.6L132.08 85.6H134.56H137.04V81.68V77.76H143.36H149.76V85.6V93.44L150.88 93.52L152 93.6L150.48 95.2C149.6 96.08 147.76 98.08 146.4 99.52L143.84 102.24L143.92 114C144 123.68 144.08 125.76 144.32 125.76C144.8 125.76 144.96 124.4 144.96 120.08V116.24H150.32C153.28 116.24 157.2 116.16 158.96 116.08L162.24 115.92V118.56C162.24 120 162.32 122.16 162.4 123.44L162.56 125.68L167.12 125.76H171.68V103.28V80.8L167.52 78C165.2 76.4 163.12 75.12 162.88 75.04C162.48 74.96 162.48 74.4 162.48 66.24V57.52L163.44 57.92C164.32 58.32 164.8 58.32 171.92 58.32H179.44V60.72C179.44 62.08 179.52 63.76 179.6 64.48L179.76 65.84H183.84H187.92V62.08V58.32L197.92 58.4L207.92 58.48L208.08 61.6C208.16 63.36 208.24 65.04 208.24 65.44V66.08H212.24H216.32L216.48 63.44C216.56 62 216.64 60.32 216.64 59.68V58.48H219.52C221.12 58.48 224.88 58.4 227.76 58.32L233.12 58.16V65.2V72.24L234.56 72.32L236.08 72.4L234.56 73.36C233.76 73.92 233.12 74.48 233.12 74.64C233.12 74.8 232.96 74.96 232.72 74.96C232.48 74.96 230.32 76.32 228 77.92L223.68 80.88V103.04V125.2H227.12C228.96 125.2 230.96 125.12 231.6 125.04L232.72 124.88L232.8 120.16L232.88 115.44L241.68 115.36L250.48 115.28V120.16C250.48 124.88 250.48 125.04 250.96 125.04C251.44 125.04 251.44 124.88 251.44 113.36V101.68L248.24 98.32C246.48 96.48 244.88 94.96 244.72 94.96C244.4 94.96 244.4 93.68 244.4 86.16V77.44L245.2 77.12C245.84 76.8 246.64 76.8 251.36 76.8L256.8 76.88L256.88 80.88L256.96 84.88H258C258.56 84.88 259.84 84.96 260.8 85.04L262.64 85.2V82.24C262.64 80.64 262.72 78.72 262.8 78L262.96 76.8H270.8H278.72V78.24C278.72 79.04 278.8 80.88 278.88 82.32L279.04 84.96H281.52H283.92V80.8V76.72L290.24 76.8L296.56 76.88L296.64 84.56L296.72 92.24L297.6 92.32L298.48 92.4L297.6 93.28C297.12 93.76 296.72 94.4 296.72 94.64C296.72 94.96 296.56 95.12 296.24 95.12C295.92 95.12 294.8 96.16 292.96 98.08L290.16 101.12V113.04V124.96H290.88H291.6L291.44 120.32L291.28 115.68L297.36 115.76C300.72 115.84 304.96 115.92 306.8 116L310.16 116.16V125.76C310.16 132 310.24 135.36 310.4 135.36C310.56 135.36 310.64 137.84 310.64 142.4V149.44H312.32H314L313.92 159.76L313.84 170.08L309.68 170.16L305.52 170.24L305.44 172.32L305.36 174.4L304.08 174.8C301.2 175.68 300.24 176.08 300.08 176.4C299.76 176.96 299.76 178.24 300.24 179.36C300.48 179.92 300.64 180.4 300.64 180.48C300.64 180.56 298.8 180.64 296.64 180.64H292.64V183.68C292.64 185.36 292.72 191.28 292.88 196.96C293.12 207.2 293.36 218.16 293.84 242.8L294.08 255.76L295.52 257.76C300.4 264.72 306.8 270.96 314.32 276L316.32 277.36H324H331.6V280.8C331.6 282.96 331.68 284.32 331.84 284.4C331.36 284.16 331.36 286.4 331.2 291.44Z" fill="white"/>
</g>
<defs>
<clipPath id="clip0_638_1001">
<rect width="400" height="400" fill="white"/>
</clipPath>
</defs>
</svg>
