<svg width="581" height="500" viewBox="0 0 581 500" fill="none" xmlns="http://www.w3.org/2000/svg">
<g clip-path="url(#clip0_638_146)">
<path d="M233.546 11.465L219.533 35.6688C210.156 31.9884 200.401 29.3539 190.446 27.8132V0H146.072V27.8132C136.042 29.3264 126.214 31.9615 116.773 35.6688L102.972 11.465L64.9682 32.6964L78.9809 56.9002C71.1446 63.1752 64.0245 70.2954 57.7495 78.1316L33.3333 64.9682L12.1019 102.972L36.3057 116.773C32.6701 126.238 30.0371 136.058 28.4501 146.072H0V189.809H27.8132C29.4552 199.742 32.0868 209.487 35.6688 218.896L11.465 233.546L32.6964 271.338L56.9002 257.325C63.2304 265.111 70.345 272.226 78.1316 278.556L64.1189 302.76L102.123 323.992L109.766 310.403V259.023C86.2315 243.906 69.4297 220.299 62.8554 193.11C56.2811 165.922 60.4404 137.246 74.4683 113.046C88.4961 88.8457 111.313 70.9845 138.173 63.1768C165.033 55.3691 193.869 58.216 218.684 71.1253L259.023 48.4076L263.694 45.6476L270.701 33.3333L233.546 11.465Z" fill="white"/>
<path d="M356.687 319.745C348.036 319.745 339.58 317.18 332.388 312.374C325.196 307.568 319.59 300.737 316.279 292.745C312.969 284.754 312.103 275.96 313.79 267.476C315.478 258.991 319.644 251.198 325.76 245.082C331.877 238.965 339.67 234.799 348.154 233.112C356.638 231.424 365.432 232.29 373.424 235.601C381.416 238.911 388.247 244.517 393.053 251.709C397.858 258.902 400.424 267.358 400.424 276.008C400.424 287.608 395.816 298.732 387.613 306.935C379.411 315.137 368.286 319.745 356.687 319.745ZM580.678 305.095V246.921H543.523C541.415 233.552 537.855 220.453 532.908 207.855L565.179 189.384L536.092 138.853L503.821 157.537C495.429 147.021 485.886 137.479 475.37 129.087L493.842 96.6026L443.311 67.5155L424.627 99.575C411.991 94.7952 398.902 91.3096 385.562 89.1716V52.0166H327.387V89.1716C314.55 91.1938 301.957 94.5379 289.808 99.1504H288.534L273.247 72.8234L270.063 67.3032H268.576L239.914 84.9253L218.683 96.8149L237.366 129.299C227.085 137.661 217.758 147.13 209.553 157.537L177.281 138.853L148.619 189.384L180.891 207.855C175.894 220.469 172.194 233.558 169.85 246.921H132.695V305.095H169.85C169.937 306.013 169.937 306.937 169.85 307.855C171.918 320.292 175.335 332.465 180.041 344.161L148.619 362.632L177.918 413.375L210.19 394.692C218.694 405.106 228.225 414.638 238.64 423.142L219.956 455.414L270.7 484.501L289.171 452.441C301.743 457.195 314.759 460.68 328.024 462.845V500H386.411V462.845C399.463 460.651 412.265 457.166 424.627 452.441L443.099 484.501L493.629 455.414L475.158 423.142C485.573 414.638 495.104 405.106 503.608 394.692L535.88 413.375L564.967 362.632L532.695 344.161C537.669 331.572 541.23 318.47 543.311 305.095H580.678Z" fill="white"/>
</g>
<defs>
<clipPath id="clip0_638_146">
<rect width="580.679" height="500" fill="white"/>
</clipPath>
</defs>
</svg>
