<svg width="711" height="1081" viewBox="0 0 711 1081" fill="none" xmlns="http://www.w3.org/2000/svg">
<g clip-path="url(#clip0_648_1034)">
<path d="M478.709 369.573C511.349 407.617 560.308 423.922 609.268 418.487C592.948 483.705 543.989 635.882 543.989 635.882H135.993L81.5938 521.75C108.793 532.62 135.993 532.62 163.193 521.75C223.032 505.445 266.552 461.966 288.311 407.617C364.471 413.052 413.43 434.791 478.709 369.573Z" fill="white"/>
<path d="M212.151 190.221C233.911 173.917 266.55 211.961 288.31 222.831C310.07 233.7 337.269 244.57 364.469 250.005C386.229 255.44 407.989 250.005 429.748 255.44C478.708 277.18 456.948 369.573 407.989 380.442C364.469 385.877 315.51 380.442 271.99 369.573C255.67 423.922 217.591 467.401 163.191 489.14C54.3926 510.88 32.6328 423.922 32.6328 326.094C43.5127 326.094 54.3926 320.659 65.2724 315.224C97.9121 298.919 125.112 271.745 152.311 239.135C163.191 228.266 179.511 217.396 195.831 206.526" fill="white"/>
<path d="M625.587 114.133C652.787 108.698 679.987 119.568 696.307 141.307C712.626 157.612 712.626 190.221 707.186 217.396C696.307 233.7 690.867 255.44 674.547 271.745C658.227 298.919 636.467 326.094 614.707 353.268C609.268 364.138 598.388 369.573 592.948 369.573C538.548 380.443 505.909 331.528 500.469 288.049C500.469 271.745 500.469 260.875 505.909 244.57C522.229 211.961 587.508 135.872 614.707 119.568" fill="white"/>
<path d="M451.515 43.479C495.035 32.6093 533.114 65.2186 538.554 108.698C538.554 114.133 538.554 119.568 538.554 125.002C538.554 135.872 522.234 163.047 511.354 179.351C500.475 195.656 484.155 211.961 473.275 228.265C467.835 228.265 462.395 233.7 456.955 239.135C429.755 217.396 386.236 233.7 348.156 206.526C369.916 152.177 391.676 54.3488 451.515 43.479Z" fill="white"/>
<path d="M59.8358 43.4791C152.315 27.1744 163.195 108.698 174.075 179.351C141.435 195.656 76.1556 277.179 32.6361 282.614L21.7562 255.44C-5.44349 190.221 -16.3234 54.3489 59.8358 43.4791Z" fill="white"/>
<path d="M261.113 0C364.472 0 326.392 135.872 326.392 201.091C288.313 195.656 233.913 125.003 195.834 163.047C190.394 81.5234 179.514 5.43489 255.673 0" fill="white"/>
<path d="M598.388 853.278H81.5938L119.673 668.492H565.748L598.388 853.278Z" fill="white"/>
<path d="M631.027 1081.54H48.9531L81.5928 896.757H598.387L631.027 1081.54Z" fill="white"/>
</g>
<defs>
<clipPath id="clip0_648_1034">
<rect width="711" height="1081" fill="white"/>
</clipPath>
</defs>
</svg>
