<svg width="801" height="800" viewBox="0 0 801 800" fill="none" xmlns="http://www.w3.org/2000/svg">
<g clip-path="url(#clip0_130_11550)">
<path d="M424.611 0L396.091 8.00646L371.073 45.5323V60.5437L384.579 77.0546V86.0599L373.278 97.6536C372.872 97.7103 372.466 97.7677 372.06 97.826C371.425 97.8559 370.791 97.8879 370.156 97.9218C369.047 98.0835 367.939 98.2513 366.831 98.4253C366.67 98.4352 366.508 98.4452 366.347 98.4554C366.249 98.4708 366.152 98.4863 366.054 98.5019C365.953 98.5082 365.852 98.5146 365.75 98.521C365.371 98.5832 364.991 98.6462 364.612 98.7098C363.876 98.7865 363.14 98.8658 362.404 98.9479L357.15 79.334L338.956 65.5648L313.416 55.3119L307.976 35.0139L320.256 7.37709L294.781 22.4925L280.328 65.2146L284.214 79.7143L301.532 92.1673L303.863 100.866L295.947 114.988C295.569 115.148 295.191 115.308 294.814 115.47C294.211 115.663 293.608 115.858 293.005 116.055C291.977 116.498 290.951 116.947 289.927 117.402C289.773 117.453 289.619 117.505 289.465 117.558C289.371 117.599 289.277 117.64 289.183 117.681C289.09 117.713 288.997 117.745 288.904 117.776C288.563 117.931 288.223 118.086 287.883 118.242C287.183 118.509 286.483 118.779 285.784 119.052L275.633 101.468L254.495 92.876L227.172 89.5842L216.665 71.385L221.374 41.5099L200.677 62.7054L197.774 107.712L205.279 120.713L225.232 128.259L229.734 136.058L225.744 151.748C225.419 152.001 225.094 152.254 224.77 152.509C224.237 152.852 223.705 153.196 223.175 153.543C222.295 154.237 221.42 154.935 220.548 155.639C220.414 155.728 220.28 155.818 220.146 155.907C220.069 155.969 219.992 156.031 219.916 156.093C219.831 156.15 219.746 156.206 219.661 156.263C219.37 156.502 219.079 156.742 218.788 156.982C218.183 157.421 217.579 157.861 216.977 158.304L202.622 143.947L179.979 141.117L152.734 145.008L137.876 130.15L134.693 100.075L120.185 125.903L129.032 170.13L139.646 180.745L160.872 182.868L167.239 189.235L167.447 205.426C167.202 205.75 166.957 206.075 166.714 206.4C166.283 206.873 165.855 207.347 165.428 207.823C164.759 208.72 164.096 209.62 163.438 210.524C163.33 210.647 163.221 210.77 163.113 210.893C163.054 210.974 162.996 211.054 162.937 211.134C162.871 211.21 162.804 211.285 162.738 211.361C162.515 211.672 162.292 211.983 162.07 212.294C161.603 212.87 161.138 213.447 160.675 214.026L143.091 203.875L120.489 207.002L95.1808 217.813L76.9789 207.306L66.1212 179.081L58.7961 207.782L78.7848 248.211L91.7851 255.717L112.838 252.277L120.637 256.779L125.026 272.362C124.871 272.744 124.717 273.126 124.563 273.508C124.273 274.071 123.985 274.635 123.699 275.199C123.291 276.222 122.889 277.248 122.492 278.275C122.412 278.438 122.331 278.602 122.251 278.765C122.211 278.869 122.171 278.973 122.131 279.077C122.092 279.156 122.052 279.235 122.013 279.315C121.872 279.689 121.731 280.062 121.592 280.437C121.297 281.098 121.004 281.76 120.713 282.423L101.102 277.167L80.0791 286.038L58.4294 303.031L38.1314 297.593L20.3371 273.139L20.6901 302.76L50.4612 336.638L64.961 340.523L84.4052 331.751L93.104 334.082L101.376 347.996C101.325 348.406 101.275 348.815 101.225 349.225C101.091 349.844 100.959 350.463 100.829 351.083C100.699 352.184 100.576 353.286 100.459 354.388C100.424 354.559 100.39 354.729 100.355 354.9C100.344 354.999 100.333 355.097 100.322 355.196C100.303 355.294 100.284 355.393 100.265 355.491C100.225 355.894 100.186 356.297 100.147 356.701C100.033 357.411 99.9222 358.121 99.8134 358.832H79.51L61.4995 372.842L44.9859 394.859H23.971L0.455078 375.844L8.46154 404.364L45.9874 429.383H60.9988L77.5097 415.876H86.5149L98.1087 427.177C98.1644 427.58 98.221 427.984 98.2784 428.387C98.3092 429.024 98.342 429.662 98.3769 430.299C98.5369 431.397 98.7029 432.493 98.8749 433.588C98.8857 433.762 98.8966 433.935 98.9077 434.108C98.9241 434.216 98.9405 434.323 98.957 434.431C98.9633 434.521 98.9697 434.612 98.9761 434.702C99.0401 435.09 99.1049 435.477 99.1704 435.865C99.2453 436.592 99.3228 437.319 99.403 438.046L79.7891 443.302L66.0199 461.496L55.767 487.034L35.469 492.474L7.83219 480.193L22.9476 505.671L65.6697 520.124L80.1694 516.239L92.6224 498.918L101.321 496.589L115.443 504.503C115.612 504.902 115.782 505.3 115.952 505.698C116.139 506.284 116.328 506.868 116.519 507.452C116.952 508.46 117.391 509.465 117.835 510.468C117.894 510.642 117.953 510.816 118.013 510.99C118.055 511.085 118.097 511.18 118.139 511.275C118.17 511.366 118.201 511.457 118.232 511.549C118.387 511.893 118.543 512.237 118.699 512.58C118.966 513.277 119.235 513.973 119.507 514.668L101.923 524.82L93.3311 545.958L90.0393 573.283L71.8401 583.79L41.965 579.078L63.1605 599.776L108.167 602.679L121.168 595.173L128.714 575.22L136.513 570.719L152.203 574.708C152.471 575.054 152.74 575.398 153.01 575.743C153.341 576.255 153.673 576.767 154.006 577.278C154.678 578.13 155.355 578.978 156.036 579.823C156.145 579.985 156.253 580.147 156.362 580.31C156.424 580.386 156.486 580.463 156.548 580.539C156.605 580.624 156.661 580.709 156.718 580.794C156.969 581.101 157.221 581.407 157.473 581.713C157.9 582.302 158.328 582.89 158.759 583.475L144.402 597.833L141.575 620.473L145.463 647.719L130.605 662.58L100.53 665.762L126.361 680.267L170.585 671.423L181.2 660.809L183.323 639.584L189.693 633.214L205.881 633.008C206.236 633.277 206.592 633.545 206.948 633.813C207.394 634.217 207.841 634.62 208.289 635.022C209.155 635.668 210.024 636.309 210.897 636.946C211.047 637.078 211.198 637.21 211.348 637.343C211.43 637.402 211.511 637.461 211.592 637.52C211.667 637.586 211.741 637.652 211.816 637.717C212.134 637.946 212.452 638.174 212.771 638.402C213.34 638.862 213.91 639.321 214.481 639.778L204.33 657.361L207.457 679.963L218.269 705.274L207.761 723.474L179.536 734.331L208.237 741.659L248.666 721.668L256.172 708.667L252.732 687.617L257.234 679.818L272.817 675.427C273.227 675.594 273.637 675.76 274.048 675.925C274.587 676.202 275.126 676.477 275.665 676.751C276.673 677.152 277.683 677.548 278.695 677.939C278.87 678.025 279.045 678.112 279.22 678.198C279.319 678.237 279.419 678.275 279.518 678.313C279.603 678.355 279.688 678.397 279.773 678.439C280.125 678.572 280.478 678.704 280.832 678.836C281.513 679.14 282.195 679.442 282.878 679.742L277.622 699.353L286.493 720.376L303.486 742.026L298.049 762.324L273.594 780.118L303.215 779.765L337.093 749.994L340.979 735.494L332.206 716.05L334.537 707.351L348.454 699.079C348.898 699.134 349.342 699.188 349.787 699.241C350.373 699.368 350.959 699.494 351.546 699.618C352.623 699.745 353.7 699.867 354.778 699.982C354.97 700.021 355.163 700.059 355.355 700.097C355.468 700.109 355.581 700.121 355.694 700.133C355.78 700.15 355.866 700.167 355.952 700.185C356.313 700.221 356.674 700.256 357.035 700.291C357.785 700.411 358.536 700.528 359.287 700.642V720.945L373.297 738.955L395.314 755.469V776.484L376.299 800L404.82 791.993L429.838 754.468V739.456L416.331 722.945V713.94L427.632 702.346C428.064 702.286 428.495 702.225 428.926 702.163C429.538 702.134 430.149 702.103 430.76 702.07C431.838 701.913 432.915 701.749 433.991 701.58C434.182 701.568 434.373 701.557 434.563 701.545C434.682 701.526 434.8 701.508 434.919 701.49C435 701.484 435.081 701.479 435.163 701.473C435.514 701.416 435.865 701.357 436.216 701.298C436.979 701.219 437.741 701.137 438.504 701.052L443.76 720.663L461.954 734.435L487.495 744.688L492.932 764.986L480.648 792.62L506.123 777.505L520.577 734.783L516.691 720.283L499.373 707.83L497.042 699.131L504.958 685.009C505.342 684.847 505.726 684.683 506.11 684.519C506.711 684.327 507.311 684.133 507.91 683.936C508.917 683.503 509.921 683.064 510.923 682.62C511.097 682.561 511.271 682.502 511.446 682.442C511.558 682.393 511.67 682.344 511.782 682.295C511.857 682.269 511.932 682.244 512.007 682.218C512.327 682.073 512.647 681.928 512.967 681.783C513.689 681.507 514.409 681.227 515.129 680.946L525.28 698.529L546.418 707.121L573.741 710.416L584.248 728.615L579.533 758.487L600.228 737.292L603.131 692.285L595.626 679.285L575.675 671.741L571.171 663.939L575.161 648.249C575.481 648 575.801 647.75 576.121 647.5C576.661 647.152 577.2 646.803 577.738 646.452C578.609 645.765 579.475 645.074 580.338 644.377C580.48 644.283 580.622 644.188 580.765 644.093C580.858 644.018 580.951 643.943 581.044 643.869C581.113 643.822 581.182 643.776 581.252 643.729C581.524 643.506 581.796 643.283 582.067 643.059C582.692 642.606 583.315 642.151 583.936 641.693L598.291 656.051L620.934 658.877L648.179 654.986L663.037 669.847L666.214 699.922L680.719 674.094L671.876 629.87L661.262 619.255L640.036 617.129L633.669 610.762L633.461 594.574C633.707 594.249 633.952 593.923 634.197 593.597C634.627 593.123 635.056 592.648 635.483 592.171C636.142 591.287 636.796 590.4 637.445 589.509C637.562 589.375 637.68 589.241 637.798 589.107C637.866 589.013 637.935 588.919 638.003 588.825C638.059 588.761 638.116 588.697 638.173 588.633C638.386 588.335 638.6 588.037 638.813 587.738C639.29 587.15 639.765 586.56 640.238 585.968L657.822 596.12L680.424 592.992L705.735 582.184L723.934 592.691L734.786 620.919L742.111 592.215L722.123 551.786L709.122 544.28L688.069 547.723L680.271 543.221L675.882 527.635C676.038 527.253 676.193 526.869 676.347 526.486C676.637 525.922 676.925 525.358 677.212 524.792C677.623 523.76 678.029 522.726 678.429 521.689C678.504 521.537 678.579 521.385 678.654 521.232C678.686 521.147 678.719 521.061 678.752 520.975C678.8 520.878 678.849 520.78 678.897 520.682C679.032 520.326 679.166 519.969 679.299 519.612C679.603 518.933 679.904 518.253 680.202 517.571L699.813 522.825L720.837 513.954L742.484 496.964L762.784 502.401L780.573 526.861L780.22 497.24L750.449 463.362L735.949 459.476L716.505 468.249L707.806 465.918L699.532 452.001C699.583 451.595 699.633 451.189 699.682 450.783C699.817 450.16 699.95 449.536 700.082 448.912C700.213 447.802 700.338 446.692 700.456 445.581C700.489 445.421 700.521 445.26 700.552 445.1C700.563 444.999 700.574 444.897 700.585 444.796C700.604 444.699 700.623 444.603 700.643 444.506C700.679 444.14 700.714 443.775 700.749 443.409C700.869 442.66 700.986 441.912 701.1 441.162H721.403L739.413 427.152L755.927 405.136H776.942L800.455 424.156L792.449 395.635L754.923 370.617H739.911L723.401 384.124H714.395L702.802 372.823C702.744 372.411 702.686 372 702.626 371.589C702.596 370.957 702.565 370.326 702.531 369.695C702.371 368.596 702.205 367.498 702.033 366.401C702.022 366.231 702.011 366.061 702 365.892C701.984 365.794 701.969 365.697 701.953 365.599C701.947 365.498 701.941 365.396 701.934 365.295C701.875 364.932 701.814 364.569 701.753 364.206C701.675 363.454 701.594 362.703 701.51 361.951L721.121 356.698L734.893 338.501L745.146 312.963L765.444 307.523L793.078 319.804L777.963 294.329L735.24 279.876L720.741 283.761L708.288 301.079L699.589 303.411L685.464 295.495C685.3 295.106 685.135 294.717 684.969 294.329C684.779 293.735 684.588 293.143 684.394 292.55C683.96 291.541 683.521 290.534 683.075 289.529C683.016 289.355 682.957 289.181 682.898 289.007C682.859 288.92 682.821 288.833 682.783 288.747C682.749 288.647 682.715 288.548 682.681 288.449C682.522 288.095 682.361 287.742 682.2 287.39C681.937 286.703 681.671 286.017 681.404 285.332L698.987 275.18L707.579 254.042L710.874 226.717L729.073 216.21L758.942 220.919L737.75 200.224L692.743 197.318L679.74 204.824L672.196 224.777L664.397 229.281L648.705 225.292C648.461 224.978 648.216 224.665 647.971 224.353C647.62 223.807 647.267 223.263 646.912 222.719C646.219 221.842 645.522 220.968 644.819 220.098C644.728 219.961 644.637 219.824 644.545 219.688C644.484 219.612 644.423 219.536 644.362 219.461C644.306 219.376 644.249 219.291 644.192 219.206C643.947 218.906 643.7 218.607 643.454 218.309C643.022 217.712 642.587 217.118 642.151 216.524L656.509 202.167L659.338 179.524L655.447 152.281L670.305 137.42L700.38 134.238L674.549 119.733L630.325 128.577L619.711 139.191L617.584 160.416L611.217 166.784L595.029 166.992C594.7 166.743 594.371 166.495 594.041 166.247C593.572 165.821 593.101 165.396 592.629 164.972C591.736 164.306 590.84 163.645 589.939 162.988C589.814 162.878 589.688 162.768 589.562 162.657C589.482 162.599 589.401 162.541 589.321 162.482C589.245 162.416 589.17 162.349 589.094 162.282C588.783 162.059 588.472 161.837 588.161 161.615C587.585 161.148 587.008 160.682 586.429 160.219L596.581 142.636L593.453 120.034L582.644 94.7256L593.152 76.5264L621.374 65.6687L592.673 58.3408L552.244 78.3296L544.738 91.3298L548.178 112.383L543.677 120.182L528.093 124.571C527.708 124.415 527.322 124.26 526.936 124.105C526.376 123.816 525.815 123.529 525.253 123.243C524.229 122.836 523.203 122.433 522.175 122.037C522.013 121.957 521.852 121.878 521.69 121.799C521.59 121.759 521.49 121.72 521.389 121.681C521.305 121.64 521.221 121.599 521.138 121.558C520.771 121.419 520.404 121.282 520.038 121.145C519.37 120.847 518.701 120.551 518.032 120.258L523.288 100.647L514.417 79.6239L497.425 57.9742L502.864 37.6762L527.316 19.8819L497.696 20.2349L463.817 50.006L459.932 64.5057L468.704 83.95L466.373 92.6487L452.456 100.921C452.05 100.871 451.644 100.821 451.238 100.773C450.617 100.638 449.995 100.505 449.372 100.373C448.263 100.243 447.153 100.119 446.042 100.001C445.88 99.9683 445.717 99.9354 445.555 99.9027C445.463 99.8926 445.371 99.8826 445.279 99.8726C445.173 99.8516 445.067 99.8306 444.961 99.8097C444.573 99.7715 444.184 99.7341 443.796 99.6975C443.072 99.5818 442.348 99.4687 441.623 99.3582V79.0549L427.613 61.0445L405.597 44.5308V23.5159L424.611 0ZM400.455 106.12C411.248 106.12 419.998 114.867 419.998 125.66C419.998 136.453 411.248 145.203 400.455 145.203C389.662 145.203 380.912 136.453 380.912 125.66C380.912 114.867 389.662 106.12 400.455 106.12ZM312.732 155.01L531.287 180.928L608.341 314.022L486.455 268.49L431.816 317.525L438.821 345.545L403.796 352.55C403.796 352.55 416.907 366.801 422.009 374.966C429.649 387.192 440.222 414.193 440.222 414.193L410.801 411.391L412.202 445.015L436.019 491.248L489.257 464.629L471.044 509.461L531.287 527.674L615.346 482.842L581.722 561.298H564.91V565.501L546.698 589.318L520.079 586.516L524.282 597.723L514.475 608.931L429.014 613.134L409.4 596.322L365.969 610.332H279.108L193.644 475.837V309.119L312.732 155.01ZM594.443 186.472C599.444 186.472 604.443 188.38 608.259 192.196C615.891 199.828 615.894 212.198 608.262 219.83C600.63 227.462 588.257 227.462 580.625 219.83C572.993 212.198 572.993 199.825 580.625 192.193C584.441 188.377 589.443 186.471 594.443 186.472ZM206.754 186.474C211.838 186.549 216.693 188.601 220.288 192.196C223.953 195.861 226.012 200.832 226.012 206.015C226.012 211.197 223.953 216.168 220.288 219.833C216.623 223.498 211.652 225.557 206.47 225.557C201.287 225.557 196.316 223.498 192.651 219.833C188.986 216.168 186.927 211.197 186.927 206.015C186.927 200.832 188.986 195.861 192.651 192.196C194.5 190.348 196.7 188.889 199.123 187.906C201.545 186.923 204.14 186.436 206.754 186.474ZM290.316 334.337L342.152 377.768L357.563 376.367L360.365 401.584L378.578 379.169L374.375 365.159L385.583 353.951L372.974 358.154L315.534 335.738L290.316 334.337ZM126.118 380.457C128.684 380.457 131.225 380.963 133.596 381.945C135.967 382.927 138.122 384.366 139.937 386.181C141.751 387.996 143.191 390.15 144.173 392.521C145.155 394.892 145.66 397.434 145.66 400C145.66 402.566 145.155 405.108 144.173 407.479C143.191 409.85 141.751 412.004 139.937 413.819C138.122 415.634 135.967 417.073 133.596 418.055C131.225 419.037 128.684 419.543 126.118 419.543C123.551 419.543 121.01 419.037 118.639 418.055C116.268 417.073 114.113 415.634 112.299 413.819C110.484 412.004 109.044 409.85 108.062 407.479C107.08 405.108 106.575 402.566 106.575 400C106.575 397.434 107.08 394.892 108.062 392.521C109.044 390.15 110.484 387.996 112.299 386.181C114.113 384.366 116.268 382.927 118.639 381.945C121.01 380.963 123.551 380.457 126.118 380.457ZM674.795 380.457C685.588 380.457 694.335 389.207 694.335 400C694.335 410.793 685.588 419.543 674.795 419.543C664.003 419.543 655.253 410.793 655.253 400C655.253 389.207 664.003 380.457 674.795 380.457ZM374.375 436.609L384.182 524.872L423.41 508.06L374.375 436.609ZM360.365 468.832L322.539 495.451L364.568 545.887L360.365 468.832ZM280.509 478.639L295.92 559.897L335.147 541.684L280.509 478.639ZM206.754 574.446C211.838 574.52 216.693 576.572 220.288 580.167C223.953 583.832 226.012 588.803 226.012 593.986C226.012 599.169 223.953 604.139 220.288 607.804C216.623 611.469 211.652 613.528 206.47 613.528C201.287 613.528 196.316 611.469 192.651 607.804C188.986 604.139 186.927 599.169 186.927 593.986C186.927 588.803 188.986 583.832 192.651 580.167C194.5 578.319 196.7 576.86 199.123 575.877C201.545 574.894 204.14 574.408 206.754 574.446ZM594.443 574.446C599.445 574.446 604.446 576.354 608.262 580.17C615.894 587.802 615.891 600.172 608.259 607.804C600.627 615.436 588.257 615.438 580.625 607.807C572.993 600.175 572.993 587.802 580.625 580.17C584.441 576.354 589.442 574.446 594.443 574.446ZM400.455 654.798C405.638 654.797 410.608 656.856 414.273 660.52C417.938 664.185 419.997 669.155 419.998 674.338C419.998 676.904 419.493 679.445 418.51 681.816C417.528 684.187 416.089 686.342 414.274 688.157C412.459 689.971 410.305 691.411 407.934 692.393C405.563 693.375 403.022 693.88 400.455 693.88C397.889 693.88 395.347 693.375 392.976 692.393C390.605 691.411 388.451 689.971 386.636 688.157C384.821 686.342 383.382 684.187 382.4 681.816C381.418 679.445 380.912 676.904 380.912 674.338C380.913 669.155 382.972 664.185 386.637 660.52C390.302 656.856 395.272 654.797 400.455 654.798Z" fill="white"/>
<path d="M408.357 125.661C408.357 127.757 407.524 129.766 406.042 131.248C404.56 132.73 402.551 133.563 400.455 133.563C398.359 133.563 396.349 132.73 394.867 131.248C393.385 129.766 392.553 127.757 392.553 125.661C392.553 123.565 393.385 121.555 394.867 120.073C396.349 118.591 398.359 117.759 400.455 117.759C402.551 117.759 404.56 118.591 406.042 120.073C407.524 121.555 408.357 123.565 408.357 125.661Z" fill="white"/>
<path d="M400.455 682.241C404.819 682.241 408.357 678.703 408.357 674.339C408.357 669.974 404.819 666.437 400.455 666.437C396.091 666.437 392.553 669.974 392.553 674.339C392.553 678.703 396.091 682.241 400.455 682.241Z" fill="white"/>
<path d="M600.031 211.601C599.297 212.335 598.426 212.917 597.467 213.314C596.508 213.711 595.481 213.915 594.443 213.915C593.405 213.915 592.378 213.711 591.419 213.314C590.46 212.917 589.589 212.335 588.855 211.601C587.374 210.119 586.541 208.109 586.541 206.013C586.541 203.918 587.374 201.908 588.855 200.426C589.589 199.692 590.46 199.11 591.419 198.713C592.378 198.316 593.405 198.111 594.443 198.111C595.481 198.111 596.508 198.316 597.467 198.713C598.426 199.11 599.297 199.692 600.031 200.426C601.512 201.908 602.345 203.918 602.345 206.013C602.345 208.109 601.512 210.119 600.031 211.601Z" fill="white"/>
<path d="M200.881 599.575C203.967 602.661 208.97 602.661 212.056 599.575C215.142 596.489 215.142 591.486 212.056 588.4C208.97 585.314 203.967 585.314 200.881 588.4C197.795 591.486 197.795 596.489 200.881 599.575Z" fill="white"/>
<path d="M674.795 407.903C672.699 407.903 670.689 407.07 669.207 405.588C667.725 404.106 666.893 402.096 666.893 400.001C666.893 397.905 667.725 395.895 669.207 394.413C670.689 392.931 672.699 392.099 674.795 392.099C675.832 392.099 676.86 392.303 677.819 392.7C678.777 393.097 679.648 393.679 680.382 394.413C681.116 395.147 681.698 396.018 682.095 396.977C682.492 397.935 682.697 398.963 682.697 400.001C682.697 401.038 682.492 402.066 682.095 403.025C681.698 403.983 681.116 404.855 680.382 405.588C679.648 406.322 678.777 406.904 677.819 407.301C676.86 407.698 675.832 407.903 674.795 407.903Z" fill="white"/>
<path d="M118.215 400.001C118.215 404.365 121.753 407.903 126.117 407.903C130.482 407.903 134.02 404.365 134.02 400.001C134.02 395.637 130.482 392.099 126.117 392.099C121.753 392.099 118.215 395.637 118.215 400.001Z" fill="white"/>
<path d="M588.856 599.576C588.122 598.842 587.54 597.971 587.143 597.012C586.745 596.053 586.541 595.026 586.541 593.988C586.541 592.95 586.745 591.923 587.143 590.964C587.54 590.005 588.122 589.134 588.856 588.4C590.337 586.918 592.347 586.086 594.443 586.086C596.539 586.086 598.549 586.918 600.031 588.4C600.764 589.134 601.346 590.005 601.744 590.964C602.141 591.923 602.345 592.95 602.345 593.988C602.345 595.026 602.141 596.053 601.744 597.012C601.346 597.971 600.764 598.842 600.031 599.576C598.549 601.058 596.539 601.89 594.443 601.89C592.347 601.89 590.337 601.058 588.856 599.576Z" fill="white"/>
<path d="M200.882 200.427C197.796 203.513 197.796 208.516 200.882 211.602C203.968 214.688 208.971 214.688 212.057 211.602C215.143 208.516 215.143 203.513 212.057 200.427C208.971 197.341 203.968 197.341 200.882 200.427Z" fill="white"/>
</g>
<defs>
<clipPath id="clip0_130_11550">
<rect width="800" height="800" fill="white" transform="translate(0.455078)"/>
</clipPath>
</defs>
</svg>
