<svg width="230" height="230" viewBox="0 0 230 230" fill="none" xmlns="http://www.w3.org/2000/svg">
<g clip-path="url(#clip0_183_15161)">
<path d="M104.135 229.23C103.035 229 101.935 228.75 100.815 228.55C100.145 228.43 99.4551 228.44 98.7951 228.33C97.5851 228.12 97.3251 227.63 97.6051 226.37C97.8251 225.36 98.0151 224.34 98.1551 223.32C98.2651 222.53 97.8551 221.93 97.0751 221.85C95.7851 221.72 95.3551 221.01 95.5151 219.73C95.1151 219.7 94.7851 219.67 94.3851 219.64C94.2951 220.05 94.1751 220.39 94.1651 220.74C94.1551 221.51 93.7251 221.73 93.0251 221.82C90.4251 222.14 89.9951 221.95 90.1951 219.34C90.3751 216.82 91.0451 214.32 91.5451 211.83C91.7951 210.58 92.3151 209.36 92.4251 208.11C92.6151 205.87 94.1351 204.67 95.8051 203.73C96.7351 203.21 98.0751 202.93 99.1051 203.16C101.965 203.78 104.795 203.91 107.665 203.44C109.755 203.1 111.825 202.65 113.925 202.43C115.465 202.27 117.035 202.34 118.585 202.42C118.925 202.44 119.365 202.91 119.545 203.28C120.385 204.99 120.415 206.82 120.215 208.68C119.825 212.37 119.455 216.07 119.005 219.75C118.925 220.39 118.615 221.37 118.185 221.52C117.335 221.81 116.385 221.55 115.865 220.55C115.485 219.81 115.055 219.81 114.535 220.52C114.325 220.81 113.805 221.11 113.485 221.05C112.445 220.87 111.425 220.57 110.425 220.23C109.815 220.02 109.595 220.23 109.175 220.68C107.765 222.19 107.825 223.94 107.935 225.79C108.025 227.13 107.395 228.17 106.085 228.72C105.805 228.84 105.585 229.07 105.335 229.25C104.935 229.23 104.535 229.23 104.135 229.23Z" fill="white"/>
<path d="M6.45508 120.51C6.60508 120.15 6.82508 119.81 6.88508 119.43C7.01508 118.64 7.15508 117.89 8.16508 117.84C9.13508 117.79 9.82508 118.24 9.99508 119.2C10.1851 120.32 10.8351 120.41 11.9251 120.11C11.7351 118.59 11.6351 117.05 11.3551 115.55C10.7551 112.38 12.0951 110.61 15.2851 110.67C19.4351 110.76 23.5851 110.94 27.7351 111.12C29.3451 111.19 29.7651 111.91 29.1151 113.42C28.6251 114.55 28.0951 115.67 27.5551 116.78C27.1051 117.69 27.0051 118.55 27.4351 119.53C27.7451 120.24 27.6651 121.13 28.0251 121.81C28.3151 122.36 28.9251 122.92 29.5051 123.1C30.5451 123.4 31.1751 123.96 31.5051 124.94C32.3851 127.52 31.6251 129.23 29.0351 129.89C24.8551 130.95 20.7151 132.06 16.7051 133.67C14.8251 134.43 13.6151 133.62 13.0451 131.64C12.6851 130.39 12.2351 129.17 11.8251 127.94C10.5151 128.08 10.1351 128.92 10.1051 129.79C10.0551 131.09 9.42508 131.42 8.26508 131.35C7.02508 131.28 6.91508 130.49 6.90508 129.53C6.87508 128.01 6.81508 126.49 6.73508 124.98C6.71508 124.6 6.56508 124.23 6.46508 123.85C6.45508 122.75 6.45508 121.63 6.45508 120.51ZM24.8551 111.64C24.6651 111.64 24.4851 111.63 24.2951 111.63C24.1451 112.17 23.9951 112.72 23.8451 113.26C24.2851 113.25 24.7351 113.24 25.1751 113.23C25.0651 112.69 24.9651 112.17 24.8551 111.64Z" fill="white"/>
<path d="M223.175 109.95C221.785 110.03 220.385 110.07 219.005 110.23C218.695 110.27 218.345 110.71 218.185 111.04C217.985 111.46 218.015 111.98 217.875 112.43C217.595 113.34 217.315 113.68 216.045 113.48C212.925 112.97 209.715 112.95 206.545 112.75C206.115 112.72 205.675 112.83 205.235 112.84C203.385 112.85 202.375 111.8 202.845 110.02C203.415 107.81 203.145 105.67 202.845 103.49C202.635 102.01 203.135 101.21 204.445 100.51C206.545 99.3903 208.685 98.4803 211.095 98.3703C211.505 98.3503 212.055 98.3803 212.315 98.6203C213.175 99.4303 214.075 99.2703 214.985 98.8903C217.355 97.9103 218.885 98.8703 219.145 101.53C219.175 101.88 219.185 102.24 219.205 102.67C219.555 102.69 219.855 102.71 220.165 102.72C221.735 102.75 222.515 103.44 222.715 104.98C222.875 106.16 223.035 107.34 223.205 108.52C223.175 108.99 223.175 109.47 223.175 109.95Z" fill="white"/>
<path d="M116.364 0C121.094 4.97 126.534 8.97 130.884 14.15C133.514 17.28 136.854 19.81 139.744 22.74C145.274 28.34 150.724 34.03 156.204 39.68C156.924 40.43 157.674 41.15 158.364 41.93C159.624 43.35 159.694 44.41 158.524 45.89C156.094 48.97 154.834 52.42 154.694 56.38C154.394 64.93 154.064 73.47 153.554 82.01C153.144 88.83 152.464 95.63 151.854 102.44C151.794 103.13 151.374 103.78 151.144 104.45C150.974 104.96 150.924 105.54 150.664 106C150.374 106.51 149.994 107.1 149.504 107.34C145.664 109.21 141.774 110.98 137.924 112.82C136.454 113.53 135.034 114.35 133.584 115.1C132.284 115.78 131.634 115.47 131.664 114.01C131.774 107.66 131.794 101.3 132.144 94.96C132.414 90.22 132.924 85.47 133.764 80.8C134.214 78.27 133.964 76.29 132.424 74.23C129.844 70.78 127.454 67.18 125.004 63.63C123.174 60.97 121.384 58.28 119.564 55.61C119.274 55.19 118.954 54.75 118.554 54.44C117.284 53.43 116.504 53.57 115.724 54.97C110.704 63.97 105.694 72.97 100.704 81.99C100.444 82.45 100.324 83.04 100.294 83.58C99.9942 89.41 99.6542 95.24 99.4742 101.07C99.4042 103.25 99.7942 105.44 99.8542 107.62C99.9142 109.73 99.9442 111.86 99.0342 113.86C98.3242 115.43 97.3542 115.84 95.7842 115.09C94.8842 114.66 94.0342 114.12 93.1142 113.73C90.1042 112.47 87.0842 111.21 84.0342 110.05C83.2042 109.73 82.2342 109.69 81.3342 109.67C79.7242 109.64 78.8042 108.84 78.6942 107.22C78.6842 107.06 78.6842 106.9 78.6842 106.74C78.5442 97.39 78.5342 88.03 78.2042 78.69C78.0142 73.35 77.4242 68.02 76.7842 62.71C76.2942 58.59 75.4142 54.53 74.7642 50.43C74.2442 47.19 72.6442 44.43 71.0242 41.67C69.9342 39.82 69.9542 39.24 71.5942 37.9C77.8342 32.78 84.1042 27.7 90.3742 22.61C97.6442 16.71 104.444 10.28 111.214 3.82C112.694 2.37 114.564 1.31 116.364 0ZM139.004 107.33C140.634 107.35 140.434 105.86 141.064 105C139.374 104.72 138.524 105.72 139.004 107.33ZM154.254 45.73C154.724 45.12 155.134 44.78 155.244 44.37C155.304 44.14 154.874 43.78 154.664 43.48C154.324 43.86 153.924 44.21 153.684 44.65C153.604 44.8 153.944 45.17 154.254 45.73ZM111.724 38.52C112.144 38.12 112.564 37.71 112.984 37.31C112.714 37.07 112.414 36.61 112.174 36.64C111.284 36.76 111.224 37.43 111.724 38.52Z" fill="white"/>
<path d="M58.826 126.56C58.606 123.62 58.386 120.43 58.116 117.25C57.676 111.99 57.136 106.74 56.766 101.48C56.466 97.2499 56.466 93.0099 56.126 88.7899C55.706 83.6899 55.126 78.6099 54.506 73.5299C54.246 71.3799 54.586 69.4699 55.996 67.8099C59.466 63.7299 62.936 59.6399 66.456 55.5999C66.816 55.1799 67.736 54.7099 68.016 54.8899C68.496 55.1799 68.856 55.9399 68.936 56.5499C70.386 68.5999 70.086 80.7399 70.826 92.8199C70.946 94.8499 71.406 96.8599 71.486 98.8899C71.606 102.08 71.536 105.28 71.546 108.48C71.556 110.08 71.606 110.71 73.536 111.27C78.396 112.69 83.146 114.47 87.966 116.05C92.816 117.64 97.686 119.16 102.806 120.8C102.926 119.47 103.126 118.18 103.156 116.89C103.246 111.73 103.216 106.57 103.336 101.42C103.446 96.9499 103.896 92.4799 103.806 88.0099C103.756 85.3299 104.816 83.2499 106.036 81.0999C109.716 74.5999 113.386 68.0999 117.056 61.5999C117.256 61.2499 117.476 60.9299 117.736 60.5099C119.336 61.2299 120.596 62.2599 121.416 63.7999C123.446 67.6099 125.576 71.3599 127.446 75.2499C128.526 77.4999 129.346 79.9199 129.936 82.3399C130.286 83.7999 130.226 85.4699 129.906 86.9499C129.226 90.0999 128.886 93.2399 128.916 96.4599C128.966 101.54 128.966 106.62 128.876 111.7C128.836 113.97 128.466 116.23 128.286 118.49C128.166 120.03 128.096 121.58 127.996 123.32C128.626 123.24 129.056 123.27 129.426 123.12C138.266 119.63 147.076 116.07 155.936 112.66C157.896 111.91 158.546 110.8 158.586 108.76C158.856 95.7999 159.206 82.8499 159.596 69.8999C159.746 64.9399 160.026 59.9899 160.286 55.0399C160.376 53.3699 161.116 52.6399 162.586 52.8399C163.076 52.9099 163.676 53.3099 163.946 53.7399C167.056 58.7299 170.436 63.5199 174.346 67.9099C175.016 68.6599 175.316 69.4299 175.236 70.4099C174.976 73.4299 174.886 76.4699 174.466 79.4699C173.516 86.3299 174.156 93.2099 173.956 100.07C173.786 105.99 173.846 111.92 173.386 117.81C173.246 119.68 172.786 121.97 170.616 123.1C168.426 124.24 166.356 125.61 164.116 126.64C158.896 129.04 153.646 131.39 148.326 133.57C143.416 135.58 138.386 137.29 133.446 139.21C131.476 139.97 129.636 141.06 127.676 141.83C124.676 143.02 121.636 144.12 118.566 145.12C117.836 145.36 116.856 145.22 116.106 144.94C110.576 142.86 104.996 140.88 99.586 138.52C91.426 134.97 82.916 132.59 74.386 130.23C71.426 129.41 68.376 128.91 65.366 128.31C64.746 128.18 64.096 128.24 63.456 128.17C63.026 128.13 62.576 128.09 62.176 127.94C61.136 127.56 60.116 127.1 58.826 126.56Z" fill="white"/>
<path d="M120.916 189.33C120.136 189.33 119.466 189.33 118.636 189.33C118.796 186.83 118.966 184.38 119.116 181.93C119.166 181.09 119.216 180.25 119.166 179.42C119.146 179.13 118.796 178.61 118.666 178.63C118.326 178.68 117.876 178.91 117.746 179.19C117.526 179.68 117.446 180.26 117.416 180.81C117.276 182.96 117.236 185.13 117.036 187.28C116.976 187.94 116.676 188.7 116.236 189.16C115.906 189.5 115.086 189.64 114.616 189.48C114.276 189.37 113.986 188.62 113.966 188.15C113.906 185.71 113.966 183.27 113.906 180.83C113.896 180.38 113.616 179.58 113.366 179.55C112.496 179.42 112.226 180.12 112.216 180.87C112.186 182.59 112.196 184.31 112.186 186.03C112.176 186.95 112.186 187.87 112.156 188.79C112.136 189.62 111.896 190.31 110.896 190.36C109.876 190.4 108.826 190.45 108.386 189.25C108.236 188.85 108.196 188.39 108.196 187.96C108.176 185.68 108.206 183.4 108.176 181.12C108.156 179.49 107.706 179.19 106.246 179.61C106.316 182.72 106.376 185.78 106.436 188.84C106.446 189.24 106.556 189.71 106.386 190.02C106.136 190.49 105.686 190.85 105.316 191.25C104.996 190.9 104.486 190.6 104.396 190.2C103.776 187.48 103.266 184.73 102.666 182C102.516 181.32 102.236 180.63 101.856 180.06C101.636 179.73 101.086 179.62 100.686 179.41C100.546 179.83 100.256 180.27 100.306 180.67C100.416 181.7 100.646 182.72 100.876 183.73C101.486 186.37 102.116 189.01 102.736 191.65C102.776 191.83 102.746 192.02 102.746 192.37C101.196 191.26 100.206 189.86 99.6757 188.24C98.7557 185.4 98.0057 182.51 97.1757 179.64C96.9257 178.77 97.0557 178.02 97.6757 177.31C98.4657 176.4 98.6857 175.33 98.3057 174.17C97.4557 171.59 96.6757 168.99 95.7157 166.45C95.2857 165.32 94.5157 164.32 93.9057 163.26C93.4757 162.52 93.0557 161.76 92.6057 161.03C92.4057 160.69 92.2157 160.32 91.9157 160.08C90.2857 158.73 87.4057 158.8 85.8357 160.19C84.7257 161.17 83.3057 161.27 82.2457 160.27C79.9257 158.07 77.6457 155.83 75.4257 153.53C74.9957 153.08 74.7657 152.26 74.7757 151.61C74.7957 149.25 74.8657 146.89 75.0957 144.54C75.3257 142.24 75.7857 139.97 76.1257 137.68C76.2457 136.85 76.2657 136 76.4157 135.18C76.6957 133.73 77.6957 133.15 79.0657 133.7C80.9357 134.45 82.9657 134.92 84.4457 136.46C84.3857 136.61 84.3757 136.75 84.3057 136.82C81.6857 139.53 81.5457 143.22 84.0757 146.04C84.6357 146.66 85.4457 147.23 86.2357 147.44C89.3157 148.27 92.4057 149.09 95.5457 149.64C97.9357 150.07 100.386 150.16 102.816 150.28C104.996 150.39 106.666 149.04 108.296 147.86C108.736 147.55 108.616 146.46 108.756 145.73C110.836 145.6 112.766 146.18 114.706 147C115.586 147.37 116.736 147.38 117.716 147.22C119.126 146.98 120.476 146.42 121.856 146.02C123.306 145.6 123.906 145.88 124.516 147.23C125.416 149.2 126.836 149.79 128.916 149.08C129.246 148.97 129.626 148.83 129.956 148.87C134.226 149.33 138.276 148.07 142.396 147.34C144.006 147.05 145.626 146.77 147.206 146.36C147.686 146.24 148.246 145.76 148.436 145.31C149.376 143.1 149.566 140.75 149.496 138.37C149.486 138.06 149.446 137.68 149.256 137.47C148.436 136.51 148.896 136.01 149.816 135.58C151.616 134.73 153.396 133.84 155.196 133C155.926 132.67 156.426 132.92 156.576 133.87C155.406 134.17 155.366 135.15 155.366 136.13C155.376 140.71 154.706 145.2 153.846 149.69C153.486 151.58 152.606 152.74 150.826 153.47C149.886 153.86 149.076 154.7 148.356 155.48C147.436 156.47 146.656 157.6 145.826 158.67C144.436 160.45 142.766 160.7 140.936 159.36C140.166 158.79 139.446 158.16 138.716 157.53C137.766 156.72 136.896 156.83 135.766 157.35C130.896 159.57 129.326 163.93 128.186 168.61C127.866 169.93 127.586 171.25 127.256 172.56C127.046 173.38 127.186 174.03 128.106 174.2C129.646 174.49 129.706 175.76 129.056 176.77C127.806 178.74 127.086 180.81 127.016 183.17C126.966 184.78 126.546 186.37 126.256 187.97C125.866 190.2 124.096 191.27 122.276 192.4C122.406 191.68 122.546 190.97 122.646 190.24C122.896 188.51 123.116 186.77 123.356 185.03C123.626 183.06 123.946 181.09 124.146 179.11C124.196 178.63 123.966 177.84 123.626 177.67C122.916 177.31 122.686 178.04 122.586 178.59C122.096 181.42 121.636 184.25 121.176 187.09C121.066 187.79 121.016 188.5 120.916 189.33ZM119.526 164.87C119.576 163.66 119.676 162.76 119.646 161.86C119.566 159.43 119.416 157 119.306 154.57C119.246 153.24 117.936 151.91 116.396 151.67C114.896 151.44 113.516 152.21 113.066 153.59C112.826 154.35 112.726 155.15 112.506 155.91C111.976 157.78 111.466 159.67 110.836 161.51C110.616 162.14 109.666 162.73 109.756 163.21C109.866 163.79 110.726 164.23 111.236 164.75C112.366 165.87 112.776 165.89 113.996 164.73C114.916 163.85 115.906 163.71 117.066 164.17C117.776 164.44 118.506 164.58 119.526 164.87ZM102.606 166.44C102.446 165.49 102.426 164.84 102.216 164.26C102.116 163.99 101.606 163.64 101.376 163.7C101.106 163.78 100.786 164.23 100.766 164.54C100.726 165.08 100.836 165.66 100.996 166.18C101.186 166.77 100.766 167.86 101.886 167.75C102.206 167.72 102.436 166.77 102.606 166.44Z" fill="white"/>
<path d="M43.716 195.46C42.446 193.5 41.286 191.7 39.916 189.59C40.166 189.21 40.546 188.42 41.116 187.81C44.846 183.85 48.606 179.93 52.366 176.02C54.106 174.21 57.026 174.42 58.346 176.54C59.046 177.66 59.396 178.99 59.926 180.22C60.046 180.5 60.186 180.79 60.386 181.01C60.886 181.58 61.466 182.08 61.926 182.68C62.846 183.88 63.926 184.38 65.516 184.32C68.276 184.21 70.096 187.39 68.706 189.79C67.926 191.13 67.386 192.74 65.666 193.33C65.366 193.43 65.126 193.81 64.946 194.11C63.036 197.28 61.136 200.47 59.236 203.64C58.846 204.29 58.496 204.97 58.026 205.56C57.346 206.42 56.486 206.52 55.626 205.83C54.446 204.88 53.326 203.85 52.166 202.87C50.656 201.61 49.926 201.77 49.266 203.59C48.926 204.52 48.356 205.08 47.396 205.21C46.406 205.34 45.656 204.94 45.006 204.15C43.616 202.47 42.176 200.82 40.696 199.23C39.946 198.42 39.906 197.52 40.086 196.56C40.126 196.37 40.526 196.18 40.796 196.11C41.656 195.88 42.516 195.72 43.716 195.46Z" fill="white"/>
<path d="M26.4543 172.98C26.1943 171.36 25.4643 170.24 24.4243 169.34C23.5843 168.62 23.5443 167.83 23.8943 166.87C24.3943 165.49 25.2543 164.39 26.5243 163.71C30.6443 161.5 34.2843 158.67 37.6443 155.44C38.3143 154.8 38.9843 154.72 39.8243 155.05C41.9043 155.87 42.8643 157.43 42.5843 159.66C42.4043 161.14 43.7943 163.97 45.0843 164.7C45.2543 164.8 45.4643 164.85 45.6543 164.86C48.7443 165.05 50.0243 167.38 51.2343 169.69C51.8143 170.8 51.4043 172.16 50.1443 172.78C46.3643 174.63 44.2643 178.22 41.3243 180.93C39.7843 182.35 37.9743 183.48 36.2443 184.69C36.0343 184.84 35.5643 184.75 35.2643 184.64C33.4643 184.02 32.8043 182.37 31.8743 180.93C31.6143 180.53 31.1243 180.27 30.7443 179.95C30.4743 180.49 30.0843 180.99 29.9543 181.56C29.7743 182.33 29.8443 183.17 29.6743 183.94C29.6143 184.2 29.1943 184.49 28.8843 184.58C28.4743 184.69 28.0043 184.57 27.5743 184.63C26.7243 184.76 26.3343 184.41 26.2043 183.58C26.0343 182.5 25.7843 181.54 24.4143 181.26C23.9343 181.16 23.4043 180.36 23.2543 179.79C22.7943 178.04 22.1043 176.48 20.6743 175.31C19.9543 174.72 19.9143 174.13 20.5743 173.39C21.9143 171.87 22.8243 171.63 24.6843 172.42C25.2043 172.67 25.7743 172.78 26.4543 172.98Z" fill="white"/>
<path d="M73.8045 215.33C73.3145 216.44 73.5345 217.17 74.4845 217.68C75.3545 218.15 76.0445 218.71 75.4745 219.86C74.7245 221.37 73.6945 222.03 72.4645 221.54C70.7245 220.85 69.0345 220.02 67.3145 219.26C66.6945 218.99 66.0645 218.76 65.4045 218.49C64.9945 216.6 65.7945 215.5 67.7445 215.57C68.9945 215.62 69.1745 214.71 69.4345 213.91C69.7045 213.07 68.9745 212.81 68.3845 212.59C66.9645 212.05 65.5345 211.57 64.1145 211.02C62.4945 210.39 61.9845 208.95 62.8845 207.45C63.7245 206.05 64.6345 204.68 65.5145 203.3C65.5945 203.17 65.6945 202.95 65.8045 202.94C67.4445 202.7 67.6045 201.27 68.2245 200.13C69.1245 198.46 70.2445 196.91 71.2645 195.3C71.4545 195 71.6845 194.7 71.7945 194.37C72.2345 193.1 73.1745 192.36 74.3345 191.8C75.7545 191.11 76.2445 191.15 77.2545 192.37C78.4845 193.86 79.7245 195.38 81.6045 196.03C83.0245 196.52 84.5245 196.83 86.0145 197.03C87.8245 197.28 89.3645 198.57 89.8145 200.34C90.2945 202.23 90.1245 204.02 89.5345 205.87C88.6345 208.72 87.8745 211.62 87.0945 214.5C86.6145 216.27 86.0145 217.94 84.4445 219.06C82.7645 220.26 81.7045 220 80.1745 218.65C79.1045 217.7 77.6845 217.12 76.3845 216.44C75.5745 216.01 74.7045 215.71 73.8045 215.33Z" fill="white"/>
<path d="M174.004 204.68C170.854 206.35 167.774 208.02 164.654 209.62C163.704 210.11 163.084 209.57 162.674 208.68C161.644 206.46 160.164 206.15 158.294 207.73C157.024 208.8 156.274 208.54 155.534 206.96C154.534 204.84 153.264 202.83 152.394 200.67C151.564 198.6 150.784 196.42 150.534 194.23C150.254 191.75 153.564 187.92 157.034 188.95C158.264 189.32 159.294 189.11 160.274 188.31C160.704 187.96 161.214 187.71 161.714 187.45C162.644 186.97 163.284 186.32 163.564 185.24C163.744 184.53 164.184 183.85 164.634 183.25C166.334 180.95 169.024 181.02 170.674 183.4C171.014 183.89 171.254 184.45 171.564 184.96C173.384 188.05 175.194 191.15 177.054 194.22C177.454 194.88 177.484 195.38 176.814 195.82C174.924 197.07 173.034 198.3 171.144 199.55C170.814 199.77 170.244 200.12 170.284 200.28C170.404 200.77 170.724 201.53 171.054 201.58C172.874 201.86 173.194 203.43 174.004 204.68Z" fill="white"/>
<path d="M188.544 190.78C188.544 189.67 188.544 188.64 188.544 187.17C187.644 187.58 186.874 187.76 186.354 188.22C184.984 189.44 183.714 190.78 182.424 192.09C181.784 192.74 181.124 193.32 180.124 192.96C179.164 192.61 179.144 191.71 178.774 190.92C178.204 189.68 177.144 188.66 176.294 187.54C175.894 187.01 175.344 186.53 175.134 185.94C174.424 183.95 173.334 182.23 171.904 180.68C170.674 179.35 170.714 179.2 171.884 177.77C172.394 177.15 172.954 176.58 173.424 175.93C174.304 174.74 175.624 174.36 176.874 173.73C178.944 172.69 180.944 171.37 182.644 169.82C183.374 169.15 183.394 167.61 183.554 166.44C183.924 163.72 184.084 163.61 186.714 164.43C190.484 165.6 194.094 167.01 196.924 169.94C197.544 170.58 197.744 171.15 197.464 171.96C196.664 174.26 195.814 176.54 195.114 178.87C194.914 179.55 194.954 180.46 195.244 181.09C195.744 182.19 195.784 183.11 195.074 184.11C193.804 185.9 192.604 187.74 191.344 189.54C190.614 190.63 190.094 190.84 188.544 190.78Z" fill="white"/>
<path d="M144.655 196.53C146.435 197.88 147.505 199.6 148.295 201.5C149.325 203.97 150.335 206.45 151.295 208.94C152.175 211.22 151.425 212.93 149.155 213.89C148.385 214.21 147.565 214.41 146.765 214.64C144.955 215.16 144.105 216.73 144.685 218.54C145.045 219.67 144.455 220.71 143.175 221.06C141.485 221.52 139.775 221.95 138.065 222.36C136.825 222.66 135.465 221.65 135.325 220.38C135.125 218.67 134.675 218.39 133.045 218.95C132.475 219.14 131.915 219.36 131.355 219.55C129.055 220.32 126.775 219.1 125.975 216.8C124.735 213.21 124.255 209.51 124.285 205.73C124.305 202.53 126.825 200.97 129.695 202.41C129.835 202.48 130.005 202.54 130.115 202.64C132.185 204.58 134.235 203.96 136.255 202.58C138.655 200.94 141.025 199.24 143.395 197.56C143.795 197.24 144.185 196.9 144.655 196.53Z" fill="white"/>
<path d="M32.1151 146.24C33.4651 146.54 34.7751 146.73 36.0151 147.12C38.0851 147.78 38.7251 149.13 37.8751 151.13C36.6151 154.11 33.9851 155.59 31.1151 156.39C28.4951 157.12 26.2951 158.45 24.1551 159.98C23.2451 160.63 22.3651 161.27 21.2151 160.73C20.0651 160.19 19.9351 159.1 19.6551 157.97C19.2551 156.37 18.4751 154.87 17.8251 153.35C17.7551 153.2 17.3851 153.05 17.2151 153.1C16.9951 153.16 16.7051 153.41 16.6751 153.61C16.5851 154.16 16.6251 154.72 16.5751 155.28C16.5251 155.94 16.8751 156.79 15.7551 156.96C14.2651 157.19 13.3551 156.81 13.0651 155.64C12.5351 153.51 12.1051 151.36 11.6151 149.22C11.3251 148 11.4151 146.89 12.1851 145.82C12.7151 145.09 13.0451 145.15 13.6951 145.64C14.6551 146.35 15.7251 146.91 16.7551 147.54C16.9051 147.42 17.0551 147.3 17.2051 147.18C16.7151 145.87 16.3251 144.51 15.6951 143.28C14.5751 141.07 14.6151 140.45 16.7151 139.19C18.1151 138.36 19.6251 137.71 21.1151 137.04C23.4451 136 25.7951 135.01 28.1551 134.03C29.8851 133.32 31.5151 133.59 33.0251 134.67C34.1851 135.49 34.4651 136.29 34.0951 137.67C33.4251 140.15 32.7551 142.63 32.1251 145.11C32.0351 145.48 32.1151 145.88 32.1151 146.24Z" fill="white"/>
<path d="M209.276 153.57C210.556 153.7 211.665 153.72 212.745 153.94C213.835 154.17 213.945 154.56 213.325 155.55C212.055 157.58 210.785 159.61 209.495 161.63C208.865 162.62 207.976 162.82 206.945 162.24C205.435 161.38 204.856 161.59 204.056 163.17C203.516 164.24 202.926 165.28 202.276 166.29C201.506 167.47 201.125 167.56 199.965 166.81C197.305 165.07 194.685 163.24 192.015 161.52C191.295 161.05 190.445 160.73 189.615 160.5C188.565 160.21 188.105 159.77 188.485 158.63C188.655 158.12 188.545 157.53 188.595 156.97C188.685 156.02 188.745 155.06 188.925 154.14C189.215 152.68 190.085 151.71 191.465 151.05C192.205 150.7 192.855 150.02 193.355 149.35C194.245 148.13 195.045 146.83 195.765 145.5C196.135 144.82 196.295 144.01 196.505 143.25C196.635 142.79 196.645 142.3 196.785 141.84C197.585 139.13 198.405 138.73 201.135 139.36C203.345 139.88 205.585 140.27 207.825 140.66C208.685 140.81 209.045 141.22 209.345 142.06C210.565 145.51 209.585 148.93 209.395 152.37C209.365 152.79 209.306 153.22 209.276 153.57Z" fill="white"/>
<path d="M56.7141 43.8802C55.7741 44.9902 54.8641 46.1402 53.8941 47.2102C49.8141 51.7202 45.6441 56.1402 41.6641 60.7302C39.7641 62.9202 38.2241 65.4302 36.5241 67.8002C34.5441 70.5602 32.5441 73.3002 30.6441 76.1202C30.2141 76.7502 30.0641 77.6402 29.9841 78.4302C29.9041 79.2102 30.1141 80.0202 30.1441 80.8202C30.1841 81.9102 29.1941 83.1602 28.1241 83.3102C27.8141 83.3502 27.3641 83.2302 27.1641 83.0202C25.8441 81.5602 24.3041 81.5902 22.6741 82.2902C21.1441 82.9502 19.5841 83.0002 17.9741 82.6502C16.4441 82.3202 15.9141 81.8102 15.7341 80.2802C15.6441 79.5302 15.6841 78.7602 15.7541 78.0102C15.8441 77.0202 15.6041 76.2602 14.5941 75.9202C13.6841 75.6102 13.6641 74.9602 14.0941 74.3102C14.6641 73.4502 15.3641 72.6802 15.9641 71.8402C16.8641 70.5802 17.7241 69.3002 18.5941 68.0202C18.7241 67.8202 18.8041 67.5902 18.9441 67.3902C20.2041 65.6402 20.5841 65.6702 21.5441 67.5602C21.8141 68.0902 22.0841 68.6202 22.4641 69.3502C23.1541 68.8402 23.7841 68.4602 24.3241 67.9602C32.1741 60.6502 40.3841 53.7702 49.1041 47.5202C50.5641 46.4702 52.0341 45.4202 53.5841 44.5302C54.4641 44.0202 55.5241 43.8202 56.5041 43.4902C56.5541 43.6202 56.6341 43.7502 56.7141 43.8802Z" fill="white"/>
<path d="M175.235 37.04C175.875 37.33 176.545 37.57 177.145 37.93C182.815 41.23 188.335 44.73 193.105 49.3C195.305 51.41 196.955 53.86 198.415 56.49C199.305 58.09 200.265 59.66 201.295 61.18C201.655 61.7 202.335 61.99 202.865 62.39C203.015 62.28 203.165 62.17 203.315 62.06C203.065 61.35 202.855 60.62 202.545 59.94C202.295 59.37 202.105 58.88 202.885 58.61C202.925 58.6 202.965 58.58 202.985 58.55C203.545 57.87 204.045 57.08 205.135 57.41C206.295 57.76 206.905 58.66 207.445 59.69C208.775 62.23 210.135 64.76 211.565 67.24C212.095 68.15 212.045 68.65 211.025 69.06C210.005 69.47 209.105 69.84 207.945 69.33C207.485 69.13 206.705 69.65 206.065 69.85C206.285 70.33 206.435 70.87 206.745 71.28C207.045 71.68 207.515 71.95 208.065 72.4C204.805 74.61 201.655 76.75 198.355 78.99C197.525 76.39 196.675 74.04 196.015 71.64C193.815 63.61 189.025 56.99 184.395 50.29C181.445 46.02 178.315 41.88 175.265 37.68C175.175 37.56 175.125 37.42 175.055 37.28C175.125 37.19 175.185 37.11 175.235 37.04Z" fill="white"/>
<path d="M206.485 115.5C207.925 115.79 209.525 116.13 211.135 116.42C212.235 116.62 213.345 116.78 214.455 116.88C215.575 116.99 216.155 117.54 216.375 118.65C216.655 120.08 217.005 121.49 217.435 122.88C217.495 123.07 218.385 123.26 218.465 123.14C219.335 121.95 220.235 122.9 220.885 123.25C221.345 123.5 221.695 124.5 221.605 125.08C221.315 126.85 220.825 128.58 220.345 130.31C220.035 131.42 219.355 131.71 218.225 131.35C216.115 130.67 215.775 130.93 215.495 133.16C215.375 134.14 215.125 135.12 214.825 136.07C214.275 137.83 212.985 138.5 211.225 137.88C210.025 137.45 208.865 136.9 207.735 136.32C205.955 135.4 204.145 135.11 202.185 135.69C200.245 136.26 198.865 135.16 198.915 133.12C198.965 131.29 199.055 129.46 199.245 127.64C199.305 127.05 199.685 126.46 200.005 125.93C200.435 125.22 200.975 124.57 201.425 123.86C202.015 122.94 201.915 122.13 201.185 121.25C200.835 120.82 200.685 119.97 200.855 119.44C201.555 117.15 203.935 115.51 206.485 115.5Z" fill="white"/>
<path d="M13.7858 101.29C13.0658 101.58 12.7158 101.81 12.3358 101.85C11.7758 101.91 11.0658 102.02 10.6758 101.75C10.3558 101.53 10.1958 100.67 10.3658 100.26C10.9258 98.9196 10.6858 97.6196 10.5858 96.2596C10.4858 94.9196 10.6958 93.5596 10.8058 92.2096C10.8658 91.4196 11.3558 90.8096 12.1058 90.9896C12.6458 91.1196 13.1858 91.6996 13.4958 92.2196C13.7258 92.6096 13.5858 93.2196 13.6358 94.1396C14.1358 93.7196 14.5558 93.5296 14.6858 93.2296C15.1058 92.2396 15.5058 91.2296 15.7458 90.1796C16.1958 88.2096 17.6058 87.3396 19.3658 87.2496C22.3658 87.0996 25.3658 87.3196 28.0758 88.8796C29.8758 89.9196 29.9158 90.4996 28.6458 92.0796C26.9058 94.2396 27.2158 96.6696 27.9058 99.1296C28.2758 100.46 28.6458 101.81 28.8158 103.17C29.0058 104.73 28.0558 105.76 26.4658 105.83C22.9158 105.99 19.3758 106.12 15.8258 106.25C14.5358 106.29 14.0258 105.73 13.9458 104.32C13.8858 103.38 13.8358 102.45 13.7858 101.29Z" fill="white"/>
<path d="M215.126 89.3203C215.266 92.0503 214.756 93.0403 212.176 93.9903C209.826 94.8503 207.376 95.4503 204.976 96.1603C204.136 96.4103 203.686 96.0203 203.536 95.2003C203.286 93.8303 203.116 92.4303 202.756 91.0903C202.456 89.9503 201.936 88.8603 201.506 87.7503C201.306 87.2303 201.106 86.7203 200.876 86.2103C200.656 85.7403 200.496 85.1903 200.146 84.8303C199.496 84.1603 199.386 83.5503 200.226 83.0803C203.146 81.4403 206.066 79.7903 209.076 78.3103C209.786 77.9603 210.846 78.1603 211.706 78.3303C212.556 78.5003 213.316 79.0403 214.156 79.2503C215.516 79.5903 216.276 80.4503 216.626 81.7403C216.996 83.0903 217.376 84.4303 217.696 85.7903C217.856 86.4803 217.686 87.0503 216.836 87.2103C215.036 87.5603 215.036 87.5703 215.126 89.3203Z" fill="white"/>
</g>
<defs>
<clipPath id="clip0_183_15161">
<rect width="229.25" height="229.25" fill="white" transform="translate(0.205078)"/>
</clipPath>
</defs>
</svg>
