<svg width="225" height="225" viewBox="0 0 225 225" fill="none" xmlns="http://www.w3.org/2000/svg">
<g clip-path="url(#clip0_183_15022)">
<path d="M212.862 3.91016C213.812 5.96016 214.752 8.00016 215.672 10.0502C215.762 10.2402 215.762 10.4802 215.752 10.6902C215.562 14.8102 215.422 18.9202 215.172 23.0402C214.942 26.7102 214.062 30.2602 212.962 33.7702C211.222 39.3302 207.822 43.9202 204.612 48.6502C203.902 49.6902 203.642 51.0202 202.962 52.0902C202.442 52.9002 201.652 53.5602 200.882 54.1702C198.192 56.3102 195.512 58.4902 192.702 60.4702C191.022 61.6502 189.132 62.5502 187.272 63.4502C185.762 64.1802 184.182 64.7802 182.602 65.3302C181.732 65.6302 180.782 65.6702 179.882 65.8902C179.342 66.0202 178.822 66.2302 178.322 66.4502C177.762 66.7002 177.242 67.0802 176.662 67.2702C174.822 67.8702 172.982 68.7602 171.112 68.8702C169.542 68.9602 168.342 69.4102 167.092 70.1802C166.472 70.5602 165.732 70.8402 165.012 70.9402C164.482 71.0202 163.702 70.9402 163.362 70.6002C162.342 69.5802 161.742 69.5602 160.592 70.6302C158.872 72.2302 157.892 73.9902 158.272 76.2702C158.492 77.5502 159.112 78.7902 159.672 79.9902C160.262 81.2702 161.062 82.4602 161.642 83.7402C162.082 84.7102 162.342 85.7702 161.442 86.7102C161.342 86.8202 161.302 87.0302 161.312 87.2002C161.362 90.1102 161.472 93.0201 161.472 95.9302C161.472 98.0102 161.382 100.09 161.202 102.15C161.142 102.83 160.642 103.46 160.372 104.12C160.152 104.68 159.802 105.27 159.812 105.84C159.822 107.45 159.282 108.78 158.202 109.95C157.942 110.23 157.822 110.65 157.562 110.93C157.222 111.29 156.832 111.6 156.422 111.88C156.212 112.02 155.862 111.97 155.672 112.12C153.472 113.86 151.252 115.59 149.392 117.73C148.942 118.25 148.382 118.71 147.782 119.05C146.512 119.77 145.622 120.7 145.452 122.23C145.332 123.33 145.102 124.42 144.912 125.51C144.642 127.09 145.062 128.08 146.182 128.51C147.262 128.92 148.162 128.51 149.032 127.21C149.142 127.04 149.292 126.89 149.452 126.69C149.592 126.85 149.732 126.93 149.752 127.03C150.672 130.96 153.692 133.83 155.072 137.53C155.912 139.78 157.542 141.46 159.322 142.91C161.442 144.65 163.622 146.42 166.052 147.64C168.112 148.68 170.532 149.22 172.842 149.53C175.242 149.85 177.722 149.56 180.162 149.65C181.202 149.69 182.222 150.01 183.252 150.2C183.552 150.26 183.872 150.38 184.162 150.35C185.942 150.13 187.722 149.93 189.492 149.63C192.772 149.06 195.232 146.9 197.852 145.12C200.552 143.28 203.312 141.43 205.622 139.15C208.282 136.53 210.602 133.53 212.812 130.51C213.432 129.66 213.272 128.15 213.262 126.94C213.252 126.18 213.412 125.78 214.012 125.29C214.642 124.78 215.212 124.02 215.452 123.26C216.152 121.1 216.702 118.89 217.272 116.69C217.442 116.05 217.482 115.38 217.592 114.73C217.832 113.31 218.122 111.89 218.302 110.46C218.462 109.19 218.602 107.9 218.592 106.62C218.582 105.11 219.562 104.17 220.352 102.7C221.232 105.76 222.012 108.44 222.782 111.12C223.332 113.03 224.032 114.92 224.392 116.87C224.652 118.28 224.532 119.78 224.482 121.24C224.422 123.28 224.272 125.32 224.162 127.36C223.972 130.9 223.962 134.46 223.522 137.97C223.182 140.66 222.282 143.27 221.672 145.92C221.222 147.85 220.912 149.81 220.392 151.72C220.042 153.03 219.652 154.4 218.922 155.51C217.652 157.44 216.102 159.17 214.692 161.01C214.372 161.42 213.992 161.88 213.912 162.36C213.382 165.55 211.382 167.74 209.122 169.82C204.312 174.26 198.562 177.11 192.642 179.66C189.592 180.97 186.382 181.5 183.022 181.07C182.162 180.96 181.242 181.35 180.352 181.52C179.792 181.62 179.242 181.79 178.682 181.84C177.532 181.93 176.372 182.06 175.222 181.97C174.102 181.88 172.922 181.72 171.902 181.29C170.252 180.58 168.662 179.92 166.862 179.52C165.042 179.11 163.032 178.79 161.392 177.44C159.842 176.15 158.022 175.13 156.212 174.21C153.602 172.9 151.352 171.21 149.342 169.1C148.082 167.78 146.682 166.38 145.052 165.68C143.522 165.02 141.602 164.99 139.882 165.1C138.172 165.21 137.462 166.79 137.992 168.47C138.242 169.24 138.292 169.89 137.702 170.68C137.332 171.18 137.582 172.18 137.672 172.95C137.742 173.53 138.102 174.09 138.122 174.66C138.192 177.33 137.902 180.04 138.332 182.64C138.592 184.21 139.092 185.79 138.872 187.34C138.502 189.96 137.802 192.54 137.182 195.12C137.122 195.39 136.632 195.53 136.422 195.8C136.042 196.27 135.602 196.74 135.392 197.29C134.452 199.81 134.452 202.58 132.762 204.96C131.332 206.98 130.642 209.52 129.612 211.83C129.142 212.88 128.552 213.57 127.232 213.83C126.542 213.96 126.062 215.28 125.532 216.09C125.122 216.71 124.872 217.48 124.352 217.96C124.032 218.25 123.172 218.33 122.822 218.1C122.462 217.87 122.242 217.12 122.282 216.63C122.342 215.9 122.602 215.14 122.952 214.49C123.522 213.44 123.352 212.55 123.112 211.41C122.882 210.3 123.492 208.95 123.942 207.79C124.432 206.49 124.832 205.39 123.742 204.12C123.302 203.61 123.362 202.6 123.352 201.81C123.322 197.76 123.332 193.72 123.352 189.67C123.362 188.62 123.112 187.79 122.122 187.22C121.752 187.01 121.412 186.48 121.352 186.05C121.082 184.13 120.812 182.2 120.732 180.26C120.632 177.82 120.612 175.37 120.742 172.93C120.872 170.36 119.832 168.05 119.432 165.6C119.212 164.29 119.022 162.98 118.812 161.67C118.742 161.2 118.652 160.73 118.582 160.26C118.452 160.24 118.312 160.21 118.182 160.19C117.962 160.98 117.602 161.77 117.552 162.57C117.342 166.21 117.212 169.85 117.082 173.49C117.062 174.13 117.112 174.64 116.252 174.88C115.872 174.99 115.482 175.8 115.472 176.3C115.392 178.79 115.452 181.28 115.442 183.77C115.432 186.01 114.502 186.68 112.452 185.92C111.762 189.78 113.272 193.87 111.532 197.37C111.762 199.07 112.222 200.6 112.112 202.09C111.902 204.94 112.602 207.62 113.292 210.3C113.662 211.76 114.312 213.17 114.942 214.55C115.682 216.15 115.192 218.93 113.662 220.55C113.312 220.1 112.912 219.71 112.652 219.23C111.822 217.68 111.072 216.08 110.222 214.53C109.802 213.77 109.332 212.99 108.732 212.38C106.842 210.48 106.162 207.95 105.132 205.61C103.872 202.73 102.712 199.81 101.582 196.88C101.172 195.82 100.472 194.41 100.862 193.62C101.512 192.26 101.182 190.97 101.332 189.67C101.382 189.19 101.022 188.67 100.882 188.16C100.772 187.75 100.662 187.32 100.662 186.89C100.642 180.89 100.642 174.89 100.632 168.89C100.632 168.5 100.632 168.12 100.632 167.84C97.7224 167.31 96.3824 165.19 94.9224 163.08C94.5825 164.09 94.0624 164.41 92.8224 164.18C91.9224 164.01 90.6625 164.68 89.8624 165.34C86.0624 168.45 82.3624 171.69 78.6224 174.89C78.4224 175.06 78.1924 175.34 77.9824 175.33C75.6324 175.27 74.0424 176.83 72.3224 178.03C70.9425 178.99 69.5324 179.42 67.8424 179.36C63.8024 179.2 60.2524 180.93 56.7425 182.6C54.8325 183.51 53.1024 184.38 51.0024 183.12C50.4725 182.8 49.6325 182.93 48.9425 182.99C47.9125 183.09 46.9025 183.34 45.8825 183.48C44.8325 183.62 43.7725 183.79 42.7125 183.8C39.8825 183.83 37.0524 183.8 34.5724 182.08C34.1724 181.8 33.5825 181.69 33.0825 181.7C30.1325 181.77 28.0125 180.21 26.0625 178.26C24.7724 176.98 23.7225 175.43 21.6625 175.11C20.8925 174.99 20.2125 174.2 19.5324 173.66C15.8724 170.73 13.5324 166.84 11.6124 162.66C10.9324 161.18 10.0824 159.88 8.90245 158.66C6.86245 156.55 6.06245 153.71 5.42245 150.85C4.86245 148.35 4.06245 145.9 3.39245 143.43C3.08245 142.28 2.78245 141.13 2.52245 139.97C2.12245 138.15 1.63245 136.34 1.42245 134.5C1.19245 132.4 1.19245 130.27 1.15245 128.16C1.12245 126.74 1.25245 125.31 1.17245 123.89C1.11245 122.76 0.99245 121.59 0.642449 120.52C-0.23755 117.84 0.15245 115.1 0.37245 112.45C0.75245 107.91 1.57245 103.4 2.18245 98.8702C2.32245 97.8102 2.53245 96.9202 3.68245 96.4502C4.21245 96.2402 4.57245 95.6102 5.07245 95.1102C5.32245 95.3102 5.65245 95.4502 5.76245 95.6902C6.74245 97.8202 7.24245 100 6.48245 102.34C6.21245 103.17 6.01245 104.04 5.92245 104.9C5.84245 105.68 6.02245 106.38 7.05245 106.56C7.36245 106.61 7.74245 107.1 7.83245 107.45C8.41245 109.69 8.93245 111.95 9.45245 114.21C9.65245 115.06 9.76245 115.93 9.95245 116.78C10.5524 119.42 11.1624 122.05 11.7824 124.68C11.8324 124.89 11.9724 125.1 11.9624 125.31C11.8724 127.88 13.2024 130.05 13.8724 132.41C14.7824 135.62 16.5825 138.31 18.6425 140.84C19.6325 142.06 20.9025 143.06 21.9524 144.24C22.4625 144.82 22.6325 145.74 23.1924 146.24C24.0625 147.02 25.1425 147.55 26.1024 148.24C27.4024 149.17 28.6325 150.19 29.9524 151.09C32.1424 152.59 34.3125 154.01 37.2225 153.83C40.2324 153.64 43.2625 153.79 46.2825 153.79C46.5925 153.79 47.0025 153.9 47.1925 153.75C49.0424 152.23 51.7125 153.14 53.6025 151.37C55.0025 150.06 57.0125 149.42 58.6925 148.4C59.6225 147.83 60.4124 147.02 61.3224 146.42C62.4324 145.7 63.6824 145.18 64.7424 144.4C66.3724 143.2 67.8824 141.84 69.4624 140.57C70.3524 139.85 71.3824 139.26 72.1524 138.43C73.1624 137.33 73.8824 135.95 74.9024 134.86C76.4324 133.22 78.1324 131.74 79.7324 130.17C80.3624 129.55 80.9224 128.87 81.5024 128.22C81.5324 128.4 81.5624 128.58 81.5924 128.76C82.8824 129.01 84.1724 129.32 85.4824 129.51C87.4624 129.79 88.3425 127.83 87.6824 126.38C87.0724 125.03 87.0924 123.79 87.2624 122.75C86.5024 122.22 85.9424 121.83 85.3724 121.44C83.9124 120.45 82.4324 119.49 81.0024 118.48C80.5424 118.16 80.2424 117.62 79.7924 117.28C79.3025 116.91 78.7225 116.65 78.1824 116.35C78.0324 116.27 77.7824 116.2 77.7524 116.09C77.1525 113.73 74.9024 112.77 73.5224 111.07C73.4124 110.94 73.2324 110.82 73.2124 110.67C72.9324 109.13 72.5524 107.59 72.4424 106.04C72.3724 105.06 72.1824 104.26 71.5424 103.51C70.0624 101.76 69.9924 100 71.1224 98.0402C71.4324 97.5002 71.6225 96.8102 71.6424 96.1902C71.7424 92.7302 71.8024 89.2602 71.8124 85.8002C71.8124 85.2502 71.5224 84.7102 71.3924 84.1602C71.3224 83.8602 71.2624 83.5302 71.3124 83.2302C71.8324 80.0902 70.9224 76.9602 71.3124 73.8202C71.4324 72.8802 70.9924 72.6202 70.1024 72.5502C69.1024 72.4702 68.1124 72.2102 67.1324 71.9702C66.1724 71.7402 65.3524 71.6102 65.2224 72.9602C65.1124 74.0802 64.2025 74.0702 63.5125 73.8302C61.4025 73.1002 59.3325 72.2302 57.2425 71.4202C56.9625 71.3102 56.6424 71.1602 56.3624 71.2002C55.0524 71.3802 53.9025 71.1902 52.9725 70.1302C52.7924 69.9302 52.2525 69.8202 52.0325 69.9402C50.5424 70.7402 49.1725 70.0102 47.7825 69.6802C46.3425 69.3402 44.8825 68.9802 43.5024 68.4502C39.9624 67.0802 36.4425 65.6502 32.9425 64.1802C26.8925 61.6302 22.6425 56.8302 18.1425 52.3102C12.8225 46.9602 9.06245 40.7302 6.61245 33.6302C5.62245 30.7402 4.35245 27.9502 3.44245 25.0402C2.61245 22.3802 2.30245 19.6402 4.06245 17.0402C5.55245 18.8302 7.22245 20.4802 8.47245 22.4202C10.5224 25.5902 13.2625 27.8702 16.5424 29.6002C19.9925 31.4302 23.4925 33.1802 26.9225 35.0402C29.2125 36.2802 31.3525 37.8002 33.6925 38.9102C36.0225 40.0202 38.5125 40.7902 40.9324 41.6802C41.9424 42.0502 42.9725 42.3902 44.0024 42.7102C44.2024 42.7702 44.4925 42.8102 44.6624 42.7202C47.3624 41.1402 49.7524 42.8402 52.2425 43.4402C52.4524 43.4902 52.7024 43.6102 52.8924 43.5502C55.5624 42.6202 58.1325 43.9302 60.7825 43.8902C62.8624 43.8602 64.8424 43.7802 66.7224 42.8602C67.6424 42.4202 68.3224 42.6902 68.5624 43.6702C68.7424 44.3802 68.7424 45.1402 68.8324 45.9402C68.8324 45.9402 68.9224 46.0502 68.9624 46.0402C71.7424 45.1802 72.5224 47.5702 73.5324 49.1402C74.6624 50.9002 77.4224 51.4802 79.1224 49.3002C79.6924 48.5802 80.6824 48.1802 81.2424 47.4602C82.4524 45.9002 84.1624 46.2902 85.7224 45.8902C87.0724 45.5502 88.6624 45.3502 89.6924 43.9002C90.6324 42.5702 92.3324 42.1702 93.8424 41.6402C94.4624 41.4202 95.0925 41.2002 95.6824 40.9002C96.9025 40.2802 98.0624 39.5602 99.3024 39.0002C99.8824 38.7402 100.572 38.7402 101.222 38.6602C103.222 38.4302 105.222 38.0702 107.222 38.0402C108.912 38.0102 110.612 38.4302 112.302 38.5102C113.062 38.5502 113.852 38.2702 114.622 38.1202C115.652 37.9202 116.682 37.6202 117.722 37.5002C118.642 37.3902 119.602 37.5602 120.522 37.4402C123.182 37.1002 125.692 37.8202 128.242 38.3702C129.442 38.6302 130.722 38.5102 131.962 38.6302C134.282 38.8702 136.602 39.1302 138.912 39.4602C139.432 39.5302 139.872 40.0202 140.392 40.1702C142.762 40.8502 145.052 41.7002 147.242 42.8502C147.812 43.1502 148.722 42.8902 149.452 42.7502C149.972 42.6502 150.452 42.3402 151.282 41.9702C151.282 42.9802 151.112 43.7302 151.322 44.3402C151.552 45.0202 152.022 45.9102 152.592 46.0902C153.162 46.2702 154.132 45.8702 154.642 45.4102C155.612 44.5402 156.312 43.3602 157.272 42.4802C157.882 41.9202 158.742 41.6002 159.542 41.2802C164.072 39.4902 168.802 40.7002 173.432 40.3402C174.272 40.2702 175.092 39.8802 175.912 39.6402C176.592 39.4402 177.262 39.2102 177.942 39.0302C181.002 38.2102 184.102 37.5302 187.122 36.5802C194.812 34.1402 199.802 28.5102 203.932 21.9702C205.492 19.5002 206.832 16.8902 208.032 14.2302C208.772 12.5902 208.992 10.7302 209.562 9.01016C210.282 6.97016 211.092 5.09016 212.862 3.91016ZM79.4124 101.13C79.3124 101.17 79.2024 101.2 79.0924 101.24C79.6624 103.21 80.1724 105.2 80.8124 107.15C81.2424 108.45 83.4224 110.19 84.4224 109.92C85.5924 109.61 86.0924 110.11 86.6324 110.95C87.1724 111.8 88.1324 112.18 88.9424 111.7C89.6424 111.28 90.2824 110.43 90.5524 109.64C91.2424 107.6 90.8824 105.75 88.9624 104.43C88.7424 104.28 88.7024 103.88 88.5324 103.63C87.7124 102.42 87.2524 100.95 85.4424 100.59C84.7024 100.44 84.1824 99.3801 83.4624 98.8602C82.7924 98.3801 82.0224 97.8002 81.2624 97.7602C80.2524 97.6902 79.6024 98.5202 79.4324 99.5502C79.3425 100.06 79.4124 100.6 79.4124 101.13ZM157.932 96.7702C157.692 96.9002 157.322 97.1802 156.912 97.2902C154.592 97.9002 152.932 99.3702 151.262 101.04C149.572 102.73 148.102 104.76 145.732 105.73C144.542 106.21 144.342 107.4 145.022 108.53C146.382 110.81 150.452 110.92 152.122 108.81C152.942 107.77 153.822 106.55 154.962 106.03C156.262 105.43 157.052 104.68 157.232 103.38C157.542 101.17 157.712 98.9602 157.932 96.7702Z" fill="white"/>
</g>
<defs>
<clipPath id="clip0_183_15022">
<rect width="224.46" height="224.46" fill="white" transform="translate(0.09375)"/>
</clipPath>
</defs>
</svg>
