<svg width="828" height="800" viewBox="0 0 828 800" fill="none" xmlns="http://www.w3.org/2000/svg">
<g clip-path="url(#clip0_130_10923)">
<path d="M372.961 330.469C362.947 320.992 341.381 315.56 308.66 314.021C229.185 386.368 144.451 470.433 91.834 491.966C133.254 486.384 168.787 490.188 199.498 497.944C174.079 453.084 284.423 377.239 372.961 330.469Z" fill="white"/>
<path d="M127.73 381.308C166.612 258.692 352.031 275.14 470.156 366.357C471.975 336.555 489.63 314.509 512.023 300.559C483.61 267.664 471.653 210.839 531.464 188.413C481.196 131.091 486.967 66.9967 519.498 0C519.498 0 399.868 125.609 372.952 136.077C346.036 146.546 272.763 157.015 272.763 157.015C272.763 157.015 148.66 290.09 132.212 299.062C115.765 308.035 72.4013 306.538 72.4013 306.538C58.8234 345.957 35.4299 384.334 0.625 421.686L9.59704 444.112C30.3609 426.019 48.5365 411.432 69.4079 412.714C80.0999 384.127 100.781 375.676 127.73 381.308ZM329.597 194.391L319.128 230.28L262.303 234.762L329.597 194.391Z" fill="white"/>
<path d="M812.59 405.23C752.78 375.321 758.254 305.785 827.541 273.643C752.771 269.161 731.247 205.472 782.681 143.553C695.954 183.923 639.128 140.559 673.52 41.8667L546.944 97.3362C545.348 97.6505 543.843 98.188 542.445 98.9983C541.966 99.2795 541.503 99.5854 541.064 99.9162L540.436 100.189C540.461 100.247 540.494 100.305 540.519 100.354C528.743 110.071 531.761 138.996 547.969 167.062C554.435 178.258 562.068 187.702 569.808 194.681C551.641 197.633 537.442 223.152 537.442 254.202C537.442 280.953 547.977 303.594 562.514 311.243C550.351 319.14 541.933 336.158 541.933 355.88C541.933 372.823 548.143 387.774 557.611 396.655C544.016 426.027 524.278 452.943 497.072 475.502C356.265 570.936 217.418 667.057 181.562 800H667.541C624.178 765.608 598.758 699.811 725.855 640C673.52 604.112 691.464 526.357 779.687 533.832C737.821 482.993 754.268 430.658 812.59 405.23Z" fill="white"/>
</g>
<defs>
<clipPath id="clip0_130_10923">
<rect width="826.916" height="800" fill="white" transform="translate(0.625)"/>
</clipPath>
</defs>
</svg>
