<svg width="871" height="800" viewBox="0 0 871 800" fill="none" xmlns="http://www.w3.org/2000/svg">
<g clip-path="url(#clip0_130_11563)">
<path d="M435.329 795.046C653.507 795.046 830.375 618.178 830.375 400C830.375 181.822 653.507 4.9541 435.329 4.9541C217.151 4.9541 40.2832 181.822 40.2832 400C40.2832 618.178 217.151 795.046 435.329 795.046Z" stroke="white" stroke-width="9.90784" stroke-linecap="square"/>
<path d="M542.25 192.031L415.046 383.444C415.42 383.723 415.702 383.914 416.086 384.201C422.348 388.897 409.191 398.933 402.958 403.668C402.237 404.216 401.457 404.686 400.65 405.109L259.729 617.162C256.287 622.273 251.504 626.038 246.215 629.304C256.967 638.65 263.356 654.285 274.392 663.83C289.895 677.238 308.813 686.003 325.007 698.732C326.067 695.925 327.138 693.274 328.132 691.185C354.103 636.637 395.467 566.311 438.573 497.376L435.33 494.672L408.162 519.121L416.314 464.791L426.277 444.869L435.33 427.666L444.382 444.869L454.345 464.791L455.281 470.818C469.465 448.473 483.49 426.855 497.206 405.891C491.585 407.463 485.681 408.214 479.928 407.744C475.647 407.394 471.122 406.266 467.701 403.668C461.468 398.933 448.311 388.897 454.573 384.201C467.743 374.326 474.996 369.647 486.212 364.968C501.152 358.734 508.872 357.385 532.395 352.617C576.149 287.104 609.103 240.069 610.489 238.095C609.043 238.145 607.549 237.867 606.191 237.437C601.773 236.035 594.474 229.939 594.474 229.939L574.562 216.594L554.981 205.56C554.981 205.56 546.122 200.179 543.691 195.849C542.993 194.606 542.535 193.332 542.25 192.031Z" stroke="white" stroke-width="4.95392"/>
<path d="M328.408 192.031C328.122 193.332 327.665 194.606 326.966 195.849C324.535 200.179 315.676 205.56 315.676 205.56L296.095 216.594L276.183 229.939C276.183 229.939 268.885 236.035 264.466 237.437C263.109 237.867 261.614 238.145 260.168 238.095C261.554 240.07 294.525 287.099 338.297 352.622C361.789 357.383 369.513 358.737 384.445 364.968C395.662 369.647 402.915 374.326 416.084 384.201C422.346 388.897 409.189 398.933 402.956 403.668C399.536 406.266 395.01 407.394 390.729 407.744C385.012 408.211 379.145 407.473 373.556 405.921C387.194 426.766 401.304 448.66 415.401 470.868L416.312 464.791L426.275 444.869L435.328 427.666L444.38 444.869L454.344 464.791L462.495 517.313L435.328 494.672L432.163 497.52C475.24 566.407 516.568 636.665 542.525 691.185C543.52 693.274 544.59 695.925 545.65 698.732C561.845 686.003 580.763 677.238 596.265 663.83C607.301 654.285 613.69 638.65 624.442 629.304C619.153 626.038 614.37 622.273 610.928 617.162L470.007 405.109C469.2 404.686 468.421 404.216 467.699 403.668C461.466 398.933 448.309 388.897 454.571 384.201C454.955 383.914 455.238 383.723 455.611 383.444L328.408 192.031Z" stroke="white" stroke-width="4.95392"/>
<path d="M168.509 684.439L282.824 777.203C285.503 779.377 289.681 780.974 293.131 781.027C298.964 781.116 305.538 781.096 309.06 777.203C321.242 762.198 336.238 744.719 339.044 728.479C339.872 722.924 339.912 718.264 337.769 713.487C335.533 708.502 330.192 702.846 325.926 699.432C309.535 686.31 290.184 677.484 274.391 663.825C260.517 651.826 254.009 630.174 236.91 623.534C233.55 622.229 230.721 621.83 227.54 621.66C224.095 621.475 220.689 621.133 217.233 622.597C198.524 630.522 185.704 648.999 174.131 665.699C171.981 668.801 169.135 672.368 168.133 676.006C167.146 679.094 166.902 681.394 168.509 684.439Z" fill="white" stroke="white" stroke-width="2.62776" stroke-linecap="round" stroke-linejoin="round"/>
<path d="M710.529 96.7344C686.884 129.521 668.038 166.577 644.682 199.737C646.632 203.235 658.449 224.752 660.767 237.673C662.975 249.985 661.306 262.877 658.896 275.151C650.544 317.705 615.791 397.904 615.791 397.904L723.549 513.154C723.549 513.154 758.483 395.586 783.519 339.805C807.853 285.585 870.657 184.262 870.657 184.262L710.529 96.7344Z" fill="white"/>
<path d="M606.188 237.438C601.77 236.036 594.475 229.942 594.475 229.942L574.564 216.59L554.984 205.556C554.984 205.556 546.117 200.178 543.685 195.848C541.043 191.143 541.748 185.98 542.823 180.691C554.278 155.821 570.673 132.993 585.34 109.771L642.966 29.6562C642.966 29.6562 670.032 44.6899 682.32 54.0185C695.173 63.775 717.927 86.8139 717.927 86.8139C682.252 132.723 658.618 189.323 618.896 231.933C616.947 233.997 615.324 236.753 612.659 237.731C610.632 238.476 608.246 238.091 606.188 237.438Z" fill="white"/>
<path d="M485.549 30.124L581.122 96.1862L584.401 105.553L583.669 112.42L585.339 109.771L634.763 41.0643L485.549 30.124Z" fill="white"/>
<path d="M702.15 684.439L587.835 777.203C585.156 779.377 580.977 780.974 577.528 781.027C571.694 781.116 565.121 781.096 561.599 777.203C549.417 762.198 534.421 744.719 531.614 728.479C530.786 722.924 530.747 718.264 532.889 713.487C535.125 708.502 540.467 702.846 544.732 699.432C561.124 686.31 580.475 677.484 596.268 663.825C610.142 651.826 616.649 630.174 633.748 623.534C637.109 622.229 639.938 621.83 643.118 621.66C646.563 621.475 649.97 621.133 653.426 622.597C672.135 630.522 684.955 648.999 696.528 665.699C698.678 668.801 701.524 672.368 702.525 676.006C703.513 679.094 703.756 681.394 702.15 684.439Z" fill="white" stroke="white" stroke-width="2.62776" stroke-linecap="round" stroke-linejoin="round"/>
<path d="M160.129 96.7344C183.773 129.521 202.619 166.577 225.976 199.737C224.025 203.235 212.208 224.752 209.89 237.673C207.682 249.985 209.351 262.877 211.761 275.151C220.114 317.705 254.866 397.904 254.866 397.904L147.108 513.154C147.108 513.154 112.174 395.586 87.1384 339.804C62.8039 285.585 0 184.262 0 184.262L160.129 96.7344Z" fill="white"/>
<path d="M264.469 237.438C268.887 236.036 276.182 229.942 276.182 229.942L296.093 216.59L315.674 205.556C315.674 205.556 324.54 200.178 326.972 195.848C329.615 191.143 328.909 185.98 327.834 180.691C316.379 155.821 299.984 132.993 285.318 109.771L227.691 29.6562C227.691 29.6562 200.625 44.6899 188.337 54.0185C175.485 63.775 152.73 86.8139 152.73 86.8139C188.405 132.723 212.039 189.323 251.761 231.933C253.71 233.997 255.333 236.753 257.998 237.731C260.025 238.476 262.411 238.091 264.469 237.438Z" fill="white"/>
<path d="M385.11 30.124L289.537 96.1862L286.258 105.553L286.991 112.42L285.32 109.771L235.896 41.0643L385.11 30.124Z" fill="white"/>
<path d="M435.329 228.414L352.927 236.6L291.348 309.039L265.993 372.425L264.186 430.379L284.103 434.004L295.027 426.551L342.963 439.437L361.979 459.359L353.828 477.469H337.531L325.76 469.317L330.286 612.393L349.302 700.228L380.995 626.878L409.975 703.848L435.329 624.164L460.679 703.848L489.658 626.878L521.352 700.228L540.368 612.393L544.894 469.317L533.123 477.469H516.82L508.674 459.359L527.69 439.437L575.621 426.551L586.546 434.004L606.468 430.379L604.66 372.425L579.306 309.039L517.727 236.6L435.329 228.414ZM334.371 351.983C334.712 351.948 335.085 351.968 335.495 352.052C361.586 357.367 368.851 358.46 384.447 364.967C395.663 369.647 402.916 374.326 416.085 384.201C422.348 388.897 409.191 398.933 402.958 403.668C399.537 406.266 395.012 407.394 390.731 407.743C383.114 408.366 375.231 406.852 368.095 404.118C357.696 400.135 347.507 394.253 340.022 386.009C336.483 382.111 333.67 377.163 332.777 371.975C331.711 365.783 329.262 352.515 334.371 351.983ZM536.287 351.983C541.396 352.515 538.943 365.783 537.877 371.975C536.984 377.163 534.176 382.111 530.637 386.009C523.152 394.253 512.962 400.135 502.563 404.119C495.427 406.852 487.544 408.366 479.928 407.743C475.647 407.394 471.121 406.266 467.701 403.668C461.468 398.933 448.311 388.897 454.573 384.201C467.742 374.326 474.995 369.647 486.212 364.967C501.808 358.46 509.072 357.368 535.163 352.052C535.573 351.969 535.947 351.948 536.287 351.983ZM435.329 427.666L444.382 444.869L454.345 464.791L462.496 517.313L435.329 494.672L408.162 519.121L416.313 464.791L426.277 444.869L435.329 427.666Z" fill="white"/>
</g>
<defs>
<clipPath id="clip0_130_11563">
<rect width="870.658" height="800" fill="white"/>
</clipPath>
</defs>
</svg>
