<svg width="1001" height="1000" viewBox="0 0 1001 1000" fill="none" xmlns="http://www.w3.org/2000/svg">
<path d="M452.945 474C406.305 476.54 360.535 484.58 315.945 500C301.345 538.99 294.105 582.69 290.945 629C322.515 670.22 386.575 731.01 455.945 795C510.615 801.33 569.985 794.91 633.945 776C640.235 730.26 640.455 685.23 633.945 641C567.405 573.76 503.305 511.08 452.945 474Z" fill="white"/>
<path d="M310.945 495C339.875 483.42 373.085 475.26 417.945 471C416.395 457.85 412.675 446.02 405.945 436C372.725 424.17 333.395 411.56 299.945 409C254.185 458.97 215.835 511.17 201.945 570C225.595 590.71 255.035 605.62 285.945 616C287.535 584.85 299.445 540.54 310.945 495Z" fill="white"/>
<path d="M202.945 555C205.945 545 206.355 538.13 212.945 524L197.945 512C189.075 519.32 184.375 529.8 184.945 542C188.645 549.2 194.255 554.9 201.945 559L202.945 555Z" fill="white"/>
<path d="M214.945 521C214.945 518 231.945 489 234.945 485L208.945 466C195.495 470.54 187.785 481.89 192.945 502L214.945 521Z" fill="white"/>
<path d="M236.946 482L259.946 449L231.946 421C209.946 418 199.946 437 204.946 456L236.946 482Z" fill="white"/>
<path d="M261.946 446L291.946 411L268.946 390C267.366 389.61 265.766 389.41 264.176 389.39C264.076 389.39 263.966 389.38 263.866 389.38C263.676 389.38 263.486 389.39 263.296 389.4C249.006 389.77 235.066 404.1 235.946 420L261.946 446Z" fill="white"/>
<path d="M606.945 440.02C600.215 450.04 596.495 461.87 594.945 475.02C639.805 479.28 673.015 487.44 701.945 499.02C713.445 544.56 725.355 588.87 726.945 620.02C757.855 609.64 787.295 594.73 810.945 574.02C797.055 515.19 758.705 462.99 712.945 413.02C679.495 415.58 640.165 428.19 606.945 440.02Z" fill="white"/>
<path d="M675.945 398.02C675.535 398.01 675.125 398 674.715 398C674.685 398 674.665 398 674.635 398C659.155 398.03 640.815 407.51 620.945 422.02V432.02C645.975 422.3 670.685 415.23 694.945 412.02C690.245 404.98 683.795 401.12 675.945 398.02Z" fill="white"/>
<path d="M814.945 516.02L799.945 528.02C806.535 542.15 806.945 549.02 809.945 559.02L810.945 563.02C818.635 558.92 824.245 553.22 827.945 546.02C828.515 533.82 823.815 523.34 814.945 516.02Z" fill="white"/>
<path d="M777.945 489.02C780.945 493.02 797.945 522.02 797.945 525.02L819.945 506.02C825.105 485.91 817.395 474.56 803.945 470.02L777.945 489.02Z" fill="white"/>
<path d="M775.945 486.02L807.945 460.02C812.945 441.02 802.945 422.02 780.945 425.02L752.945 453.02L775.945 486.02Z" fill="white"/>
<path d="M743.945 394.02L720.945 415.02L750.945 450.02L776.945 424.02C777.825 408.12 763.885 393.79 749.595 393.42C749.405 393.41 749.215 393.4 749.025 393.4C748.925 393.4 748.815 393.41 748.715 393.41C747.115 393.43 745.525 393.62 743.945 394.02Z" fill="white"/>
<path d="M378.946 780.02C402.526 786.99 425.476 792.26 447.796 795.82C420.766 770.86 396.186 747.85 374.406 726.83C374.976 744.44 376.496 762.18 378.946 780.02Z" fill="white"/>
<path d="M721.946 633.02C718.786 586.71 711.546 543.01 696.946 504.02C652.356 488.6 606.586 480.56 559.946 478.02C545.406 488.73 529.716 501.58 513.156 516.04C522.056 523.99 531.426 532.56 541.306 541.83C574.836 573.25 610.616 609.09 638.036 636.8L639.416 638.2L639.706 640.15C643.356 664.99 644.936 690.51 644.456 716.49C677.146 684.54 704.506 655.79 721.946 633.02Z" fill="white"/>
<path d="M838.085 384.6C805.025 268.02 713.415 176.07 597.055 142.5L563.835 42H434.725L401.505 142.5C285.095 176.08 193.465 268.1 160.435 384.74L49.7754 421.32V491H49.2754V560.68L159.935 597.26C190.945 706.79 273.635 794.6 379.995 832.71C380.175 841.38 380.785 853.34 381.505 861.32C362.405 851.04 346.405 836.18 332.945 817.58C327.845 827.29 323.985 839.38 321.005 853.18C303.495 832.61 290.065 812.89 280.945 793.58C272.035 800.76 264.085 814.42 256.605 831.24C243.225 813.63 234.615 789.86 227.945 764.58C218.325 774.72 210.215 786.64 203.635 799.28C198.905 772.79 197.245 748.46 201.945 728.58C188.945 729.58 182.225 755.83 173.945 753.58C168.485 752.1 171.945 695.58 174.945 673.58C165.265 677.47 156.915 683.3 149.235 690.12C145.075 651.3 133.205 618.08 107.945 594.58C99.3054 609.83 85.8354 678.71 87.6754 709.88C76.4354 705.08 65.1954 702.08 53.9454 701.58C48.0654 707.34 54.8554 751.66 63.5754 769.53C60.3254 770.37 57.1054 771.37 53.9454 772.58C63.6854 793.43 79.0754 811.73 97.5554 828.63C93.5454 830.09 89.6654 831.74 85.9454 833.58C110.345 849.95 136.465 863.33 163.965 874.33C145.315 881.68 130.855 888.16 124.945 888.58C146.775 897.52 183.995 901.22 232.705 901C222.985 907.49 213.385 914.67 203.945 922.58C226.135 925.05 253.405 925.01 279.415 923.35C269.595 932.02 261.415 941.21 255.945 950.58C284.565 940.04 329.955 931.53 365.165 927.61C355.575 938.47 347.065 950.36 339.945 962.58C372.095 950.74 402.335 942.93 433.945 940L433.005 936.29L434.235 940H562.945C594.835 942.86 625.125 950.65 657.525 962.58C650.405 950.36 641.895 938.47 632.305 927.61C667.515 931.53 712.905 940.05 741.525 950.58C736.065 941.2 727.885 932.02 718.055 923.35C744.055 925.01 771.335 925.05 793.525 922.58C784.085 914.67 774.495 907.49 764.765 901C813.475 901.21 850.685 897.52 872.525 888.58C866.615 888.16 852.155 881.68 833.505 874.33C860.995 863.33 887.125 849.95 911.525 833.58C907.805 831.74 903.935 830.09 899.915 828.63C918.395 811.73 933.785 793.44 943.525 772.58C940.365 771.37 937.155 770.37 933.895 769.53C942.605 751.66 949.405 707.34 943.525 701.58C932.285 702.08 921.035 705.08 909.795 709.88C911.635 678.71 898.165 609.83 889.525 594.58C864.275 618.09 852.395 651.31 848.235 690.12C840.555 683.3 832.195 677.46 822.525 673.58C825.525 695.58 828.985 752.1 823.525 753.58C815.245 755.83 808.525 729.58 795.525 728.58C800.225 748.45 798.565 772.79 793.835 799.28C787.255 786.64 779.155 774.73 769.525 764.58C762.855 789.87 754.245 813.63 740.865 831.24C733.385 814.42 725.435 800.76 716.525 793.58C707.405 812.89 693.975 832.62 676.465 853.18C673.485 839.38 669.625 827.29 664.525 817.58C651.065 836.18 635.075 851.04 615.965 861.32C616.875 851.14 617.365 841.14 617.275 832.81C723.725 794.78 806.505 706.97 837.575 597.4L948.275 560.81V491H948.775V421.19L838.085 384.6ZM112.945 521C96.3754 521 82.9454 507.57 82.9454 491C82.9454 474.43 96.3754 461 112.945 461C129.515 461 142.945 474.43 142.945 491C142.945 507.57 129.515 521 112.945 521ZM498.945 57C515.515 57 528.945 70.43 528.945 87C528.945 103.57 515.515 117 498.945 117C482.375 117 468.945 103.57 468.945 87C468.945 70.43 482.375 57 498.945 57ZM499.025 901C482.455 901 469.025 887.57 469.025 871C469.025 854.43 482.455 841 499.025 841C515.595 841 529.025 854.43 529.025 871C529.025 887.57 515.595 901 499.025 901ZM833.935 546.3L833.875 547.6L833.275 548.76C829.265 556.57 823.255 562.79 815.445 567.34C815.905 569.1 816.355 570.87 816.775 572.64L817.605 576.15L814.885 578.53C794.715 596.19 769.325 610.77 739.315 621.98C717.605 665.11 684.655 701.6 644.285 727.59C643.615 743.85 642.135 760.38 639.875 776.82L639.345 780.66L635.635 781.76C612.395 788.63 589.455 793.93 567.415 797.51C565.285 799.48 563.145 801.45 561.005 803.43L559.565 804.76L557.625 804.98C543.865 806.57 529.605 807.38 515.245 807.38C472.165 807.38 425.735 800.11 377.235 785.77L373.525 784.67L372.995 780.83C370.975 766.14 369.585 751.42 368.825 736.87C317.205 708.36 275.955 663.38 252.135 609.03C231.295 599.35 213.155 587.8 197.985 574.51L195.265 572.13L196.095 568.62C196.515 566.85 196.955 565.08 197.415 563.31C189.605 558.76 183.605 552.54 179.595 544.74L178.995 543.58L178.935 542.28C178.335 529.32 182.975 517.68 192.065 509.18L189.015 506.54L187.595 505.31L187.125 503.49C182.095 483.9 187.815 469.04 202.815 462L201.155 460.65L199.635 459.41L199.135 457.52C196.035 445.73 197.965 433.78 204.315 425.55C209.715 418.54 217.935 414.68 227.455 414.68C228.335 414.68 229.225 414.71 230.135 414.78C231.015 407.39 234.415 400.18 239.885 394.4C241.825 392.35 243.945 390.56 246.195 389.05C269.295 325.38 315.745 272.92 375.185 241.98C374.755 229.09 376.085 215.77 380.505 202.86C401.925 140.22 465.375 130.43 492.775 129.16C492.775 129.16 495.075 129.01 499.095 129.01C499.145 129.01 499.145 129.01 499.195 129.01C499.245 129.01 499.245 129.01 499.295 129.01C503.275 129.01 505.615 129.16 505.615 129.16C533.055 130.44 596.455 140.23 617.935 202.86C622.345 215.75 623.665 229.05 623.235 241.92C682.265 272.61 728.485 324.52 751.785 387.55C759.465 388.31 767.065 392.17 772.975 398.43C778.445 404.21 781.845 411.42 782.725 418.81C783.635 418.75 784.525 418.71 785.405 418.71C794.925 418.71 803.145 422.57 808.545 429.58C814.895 437.81 816.825 449.76 813.725 461.55L813.225 463.44L811.705 464.68L810.045 466.03C825.045 473.06 830.765 487.93 825.735 507.52L825.265 509.34L823.845 510.57L820.795 513.21C829.895 521.69 834.545 533.34 833.935 546.3ZM875.945 521C859.375 521 845.945 507.57 845.945 491C845.945 474.43 859.375 461 875.945 461C892.515 461 905.945 474.43 905.945 491C905.945 507.57 892.515 521 875.945 521Z" fill="white"/>
<path d="M601.844 137.63C658.744 154.6 710.994 185.87 753.134 228.19C795.284 270.52 826.324 322.91 843.044 379.9L915.454 403.84C910.274 374.13 901.994 345.48 890.954 318.24L927.944 239H848.514C822.714 201.16 790.934 167.72 754.524 140.05L743.944 54L677.354 93.43C645.694 78.66 611.894 67.71 576.564 61.14L601.844 137.63Z" fill="white"/>
<path d="M82.3453 404.26L155.625 380.03C172.325 323.02 203.365 270.59 245.525 228.23C287.675 185.88 339.945 154.6 396.865 137.62L422.205 60.97C386.545 67.52 352.455 78.54 320.525 93.43L253.945 54L243.365 140.05C206.965 167.72 175.185 201.16 149.375 239H69.9453L106.925 318.24C95.8353 345.6 87.5253 374.4 82.3453 404.26Z" fill="white"/>
<path d="M651.124 825.32C642.014 829.61 632.734 833.52 623.284 837.02C623.244 841.7 623.054 846.4 622.814 850.64C633.014 843.86 642.484 835.39 651.124 825.32Z" fill="white"/>
<path d="M711.116 791.44L712.466 788.57C698.976 798.6 684.816 807.67 670.096 815.7C673.716 822.68 676.816 830.88 679.476 840.56C693.296 823.3 703.696 807.15 711.116 791.44Z" fill="white"/>
<path d="M817.025 740.46C817.865 741.7 818.965 743.33 820.035 744.78C820.435 739.82 820.615 731.33 820.065 717.93C819.455 703.06 818.025 685.33 816.595 674.81L815.695 668.18C799.115 699.55 777.875 728.49 752.655 753.82C741.165 765.36 728.925 776.06 716.045 785.89L720.315 789.33C727.655 795.25 734.605 804.98 741.855 819.6C750.305 805.81 757.365 787.65 763.745 763.47L766.495 753.06L773.905 760.87C779.865 767.15 785.425 774.24 790.505 782.04C793.185 760.92 792.905 743.91 789.715 730.38L787.825 722.39L796.015 723.02C805.765 723.77 812.005 733.02 817.025 740.46Z" fill="white"/>
<path d="M900.956 608.42C903.996 599.12 906.726 589.68 909.116 580.11L891.326 585.99L894.756 592.05C896.706 595.48 898.826 601.21 900.956 608.42Z" fill="white"/>
<path d="M843.666 679.1C849.446 640.37 863.166 611.35 885.456 590.6L889.926 586.44L842.566 602.1C836.146 623.97 827.616 645.16 817.166 665.36L824.786 668.42C831.186 671.01 837.426 674.53 843.666 679.1Z" fill="white"/>
<path d="M327.445 815.59C312.655 807.51 298.435 798.39 284.895 788.29L286.375 791.43C293.795 807.15 304.185 823.3 318.015 840.55C320.695 830.83 323.815 822.6 327.445 815.59Z" fill="white"/>
<path d="M374.675 850.65C374.425 846.38 374.235 841.65 374.195 836.94C364.695 833.41 355.365 829.47 346.205 825.15C354.895 835.29 364.405 843.82 374.675 850.65Z" fill="white"/>
<path d="M107.236 586.13L112.046 590.61C134.326 611.35 148.056 640.38 153.836 679.11C160.066 674.54 166.306 671.01 172.726 668.44L180.546 665.3C170.086 645.07 161.556 623.86 155.146 601.97L107.236 586.13Z" fill="white"/>
<path d="M106.266 585.81L88.7559 580.02C91.1059 589.4 93.7659 598.65 96.7359 607.76C98.7959 600.86 100.846 595.37 102.736 592.04L106.266 585.81Z" fill="white"/>
<path d="M206.995 782.04C212.085 774.23 217.635 767.15 223.595 760.87L231.005 753.06L233.755 763.47C240.135 787.65 247.195 805.8 255.645 819.6C262.895 804.98 269.845 795.25 277.185 789.33L281.575 785.79C268.725 775.97 256.495 765.28 245.035 753.76C219.735 728.34 198.455 699.3 181.855 667.82L180.905 674.81C179.475 685.33 178.045 703.06 177.435 717.93C176.885 731.33 177.065 739.82 177.465 744.78C178.535 743.33 179.635 741.7 180.475 740.46C185.495 733.02 191.735 723.77 201.505 723.02L209.695 722.39L207.805 730.38C204.595 743.92 204.325 760.92 206.995 782.04Z" fill="white"/>
<path d="M484.645 414.58C486.285 412.48 488.535 410.07 491.565 407.87C494.795 405.51 497.915 404.03 500.275 403.16C502.685 404.03 505.755 405.52 508.985 407.87C512.005 410.07 514.265 412.48 515.905 414.58C516.575 415.4 517.905 414.99 517.955 413.91C518.465 406.02 518.105 389.73 506.175 377.94C504.635 376.4 502.585 375.07 500.285 373.79C497.925 375.07 495.935 376.4 494.395 377.94C482.455 389.72 482.095 405.97 482.615 413.91C482.655 414.99 483.985 415.4 484.645 414.58Z" fill="white"/>
<path d="M422.506 377.18C422.866 377.44 423.326 377.59 423.786 377.64C430.756 378.61 447.966 380 465.336 370.21C472.556 366.16 477.886 361.24 481.576 357.09C482.956 355.5 482.546 353.04 480.706 352.07C473.226 348.18 464.106 344.13 453.396 340.8C440.176 336.65 428.236 334.75 418.606 333.88C418.146 333.88 417.686 333.93 417.226 334.08C409.236 337 406.676 341.71 406.006 343.15C401.496 352.54 407.286 367.55 422.506 377.18Z" fill="white"/>
<path d="M533.326 370.22C550.746 380.01 567.906 378.62 574.876 377.65C575.336 377.6 575.746 377.45 576.156 377.19C591.376 367.61 597.166 352.55 592.706 343.17C591.986 341.79 589.426 337.02 581.486 334.1C581.026 333.9 580.566 333.84 580.106 333.9C570.526 334.77 558.586 336.67 545.316 340.82C534.606 344.15 525.486 348.2 518.006 352.09C516.106 353.06 515.696 355.52 517.086 357.11C520.766 361.25 526.096 366.17 533.326 370.22Z" fill="white"/>
<path d="M727.455 626.18C727.615 628.32 727.785 630.44 727.935 632.61L728.055 634.35C730.055 630.94 731.985 627.48 733.835 623.98C732.185 624.56 730.535 625.14 728.865 625.71L727.455 626.18Z" fill="white"/>
<path d="M270.405 384.18L271.875 384.55L272.995 385.57L294.935 405.6C295.135 405.38 295.325 405.17 295.525 404.95L297.495 402.8L300.405 403.02C304.155 403.31 308.345 403.72 313.155 404.38C319.255 395.43 327.475 391.28 334.735 388.42L335.705 388.04L336.745 388.01C337.225 387.99 337.695 387.99 338.175 387.99C353.755 387.99 371.965 395.99 395.485 413.16L397.945 414.96V418V426.84C401.185 427.96 404.515 429.12 407.955 430.35L409.815 431.01L410.915 432.65C417.885 443.01 422.125 455.32 423.895 470.28C433.305 469.3 442.865 468.54 452.615 468.01L454.765 467.89L456.495 469.17C471.965 480.56 489.085 494.58 508.725 511.94C526.485 496.4 542.115 483.7 556.385 473.19L558.115 471.91L560.265 472.03C570.005 472.56 579.565 473.32 588.985 474.3C590.745 459.34 594.995 447.03 601.965 436.67L603.065 435.03L604.925 434.37C608.175 433.21 611.515 432.04 614.935 430.85V422.02V418.97L617.395 417.17C640.925 400 659.135 392 674.715 392C675.195 392 675.675 392.01 676.145 392.02L677.185 392.05L678.155 392.43C685.425 395.3 693.665 399.45 699.765 408.43C704.075 407.83 708.335 407.35 712.495 407.03L715.405 406.81L717.375 408.96C717.575 409.17 717.775 409.39 717.965 409.61L739.905 389.58L741.025 388.56L742.495 388.19C744.165 387.77 745.885 387.52 747.635 387.43C746.485 384.42 745.305 381.41 744.045 378.43C730.795 347.09 711.815 318.95 687.645 294.78C668.535 275.67 646.935 259.83 623.255 247.47C620.105 284.97 603.985 317.34 609.005 323.16C637.335 355.95 598.865 407.9 593.585 412.21C584.105 419.9 553.985 404.27 558.745 412.36C562.335 418.51 565.665 464.98 565.665 464.98H553.265L550.855 448.79L542.865 448.69L542.335 465H529.115L527.575 448.45L519.065 448.71L518.315 465H505.095L504.485 448.3H493.775L493.165 465H479.945L479.175 448.71L471.185 448.45L469.635 465H455.905L455.395 448.71L447.405 448.81L444.995 465H432.595C432.595 465 435.925 418.53 439.515 412.38C444.275 404.28 414.155 419.96 404.675 412.23C399.445 407.98 360.925 355.97 389.255 323.18C394.175 317.51 378.825 286.44 375.205 249.98C353.345 261.95 333.325 276.95 315.485 294.8C291.315 318.97 272.345 347.11 259.085 378.45C258.265 380.4 257.465 382.35 256.695 384.31C259.065 383.71 261.475 383.39 263.875 383.39C266.085 383.38 268.285 383.65 270.405 384.18Z" fill="white"/>
<path d="M286.185 632.65L284.805 630.85L284.955 628.59C285.105 626.42 285.275 624.29 285.435 622.16L284.035 621.69C276.845 619.28 269.915 616.67 263.225 613.89C276.125 641.1 293.495 665.72 314.975 687.2C331.105 703.33 349.015 717.14 368.465 728.48C368.375 725.87 368.295 723.26 368.245 720.66C329.575 683.05 302.725 654.24 286.185 632.65Z" fill="white"/>
<path d="M654.826 714.71C666.246 706.47 677.046 697.29 687.136 687.2C702.416 671.92 715.616 655.05 726.606 636.79C711.556 656.42 688.006 682 654.826 714.71Z" fill="white"/>
<path d="M338.175 393.98C337.765 393.98 337.355 393.99 336.945 394C329.095 397.1 322.645 400.96 317.945 408C342.205 411.21 366.915 418.28 391.945 428V418C372.075 403.49 353.735 394.02 338.255 393.98C338.235 393.98 338.205 393.98 338.175 393.98Z" fill="white"/>
</svg>
