<svg width="219" height="218" viewBox="0 0 219 218" fill="none" xmlns="http://www.w3.org/2000/svg">
<g clip-path="url(#clip0_183_15041)">
<path d="M216.504 9.81629C216.504 13.1963 216.504 16.5763 216.504 19.9563C216.274 20.4163 215.864 20.8763 215.854 21.3463C215.804 23.8863 215.804 26.4363 215.884 28.9763C215.914 29.7063 216.284 30.4363 216.504 31.1563C216.504 33.2063 216.504 35.2463 216.504 37.2963C215.984 38.1163 215.324 38.8763 214.984 39.7563C214.494 41.0363 213.674 41.5263 212.364 41.5163C210.234 41.4963 208.104 41.4963 205.984 41.5463C205.014 41.5663 203.754 42.1263 203.144 41.6963C201.584 40.6063 200.004 41.5463 198.464 41.3463C196.704 41.1163 194.824 42.0863 192.914 41.5763C192.684 41.5163 192.364 41.5863 192.144 41.7163C190.724 42.4963 189.374 42.7663 188.104 41.4163C187.934 41.2363 187.554 41.1963 187.264 41.2063C185.064 41.2263 182.874 41.2863 180.674 41.3163C178.404 41.3463 176.144 41.3463 173.874 41.3663C171.644 41.3863 170.064 42.4163 168.774 44.2363C167.424 46.1363 165.864 47.8863 164.284 49.6063C160.014 54.2963 155.674 58.9263 151.394 63.6063C149.984 65.1463 148.654 66.7563 147.174 68.4563C147.664 68.6463 147.884 68.7063 148.064 68.8063C150.054 69.9163 151.964 69.9363 153.994 68.7763C154.494 68.4863 155.934 68.7863 156.144 69.2063C156.924 70.7663 158.224 71.2763 159.714 71.3963C165.414 71.8863 171.134 72.3063 176.844 72.7063C177.714 72.7663 178.604 72.6363 179.484 72.5263C180.744 72.3763 182.004 72.1063 183.264 72.0063C187.644 71.6663 192.104 73.1063 196.444 71.4563C196.604 71.3963 196.794 71.4563 196.974 71.4463C200.094 71.1563 203.224 70.8763 206.344 70.5863C206.434 70.5763 206.514 70.5363 206.604 70.5263C208.354 70.3463 210.134 69.9063 211.854 70.0663C213.004 70.1763 214.504 70.8563 215.064 71.7563C215.804 72.9463 215.894 74.6063 216.034 76.0863C216.124 77.0663 215.724 78.0863 215.714 79.0963C215.644 83.4063 215.614 87.7063 215.654 92.0163C215.664 92.5463 216.204 93.0563 216.504 93.5863C216.504 94.4763 216.504 95.3663 216.504 96.2563C213.734 100.426 210.944 104.586 208.214 108.786C207.714 109.556 207.164 109.846 206.264 109.856C203.284 109.886 200.314 109.976 197.344 110.086C191.494 110.296 185.654 110.526 179.804 110.736C178.624 110.776 177.444 110.746 175.794 110.746C176.594 111.716 177.494 112.326 177.644 113.086C178.144 115.636 180.164 116.856 181.804 118.456C182.754 119.386 183.574 120.446 184.474 121.426C184.664 121.636 184.984 121.926 185.204 121.896C186.354 121.746 186.604 122.476 186.874 123.336C187.034 123.856 187.354 124.376 187.724 124.786C188.824 126.036 190.284 126.866 191.544 127.896C193.334 129.366 194.704 131.366 196.254 133.136C196.724 133.666 197.154 134.236 197.684 134.706C198.764 135.666 199.974 136.496 201.004 137.506C202.124 138.606 203.064 139.896 204.144 141.046C207.284 144.356 210.474 147.616 213.614 150.926C213.924 151.246 214.194 151.766 214.194 152.196C214.254 158.766 214.264 165.326 214.294 171.896C214.314 175.706 214.264 179.526 214.424 183.326C214.504 185.296 215.084 187.246 215.234 189.226C215.404 191.476 215.334 193.736 215.394 195.996C215.484 199.186 215.644 202.376 215.654 205.566C215.654 206.206 215.304 207.086 214.814 207.456C212.254 209.366 209.604 211.156 206.964 212.936C206.634 213.156 206.124 213.176 205.704 213.156C202.654 212.956 199.614 212.596 196.564 212.536C193.154 212.466 189.724 212.476 186.324 212.796C183.164 213.096 180.054 213.966 176.894 214.356C173.784 214.736 170.624 214.786 167.924 216.716C167.674 216.896 167.234 216.816 166.884 216.816C156.864 216.786 146.854 216.656 136.864 217.726C133.364 218.096 129.774 217.916 126.254 217.686C122.094 217.426 117.964 216.826 113.814 216.406C112.404 216.266 110.984 216.116 109.574 216.126C104.514 216.136 99.4541 216.206 94.3941 216.266C86.8541 216.356 79.3041 216.476 71.7641 216.546C69.8541 216.566 67.9341 216.636 66.0441 216.426C62.6541 216.046 59.3041 215.236 55.9141 215.046C51.6641 214.806 47.3941 214.946 43.1341 215.056C39.5941 215.146 36.0641 215.546 32.5341 215.606C26.6341 215.716 20.7341 215.616 14.8441 215.716C12.4441 215.756 9.89409 215.276 7.70409 217.306C6.56409 215.456 4.58409 214.486 4.74409 211.736C5.00409 207.366 4.67409 202.956 4.50409 198.556C4.46409 197.566 3.95409 196.606 3.87409 195.616C3.64409 192.756 3.55409 189.876 3.36409 187.016C3.25409 185.296 3.01409 183.586 2.93409 181.866C2.85409 180.226 3.28409 178.446 2.77409 176.966C1.86409 174.336 2.13409 171.706 2.09409 169.066C2.08409 168.066 2.31409 167.056 2.46409 166.046C2.58409 165.226 2.86409 164.406 2.87409 163.586C2.92409 160.846 2.89409 158.106 2.89409 155.416C5.91409 154.606 7.79409 152.266 10.0541 150.546C11.6641 149.316 12.8741 147.546 14.2341 145.996C16.4541 143.466 18.6941 140.956 20.8341 138.376C23.4341 135.236 25.9541 132.036 28.4941 128.856C30.6441 126.166 32.6841 123.386 34.9441 120.786C36.3841 119.136 38.1641 117.776 39.7341 116.236C41.0441 114.956 42.2741 113.596 43.5441 112.276C41.8841 112.426 41.2041 111.476 40.4941 110.316C39.6941 109.006 38.2741 108.616 36.7841 108.576C36.0341 108.556 35.2741 108.606 34.5241 108.606C27.5941 108.606 20.6641 108.596 13.7341 108.586C11.3341 108.586 8.93409 108.596 6.53409 108.556C5.91409 108.546 5.13409 108.676 5.00409 107.686C4.84409 106.416 4.52409 105.146 4.49409 103.876C4.35409 98.7763 4.26409 93.6663 4.22409 88.5563C4.18409 82.5763 4.21409 76.5963 4.21409 70.3763C4.48409 70.3163 5.06409 70.0763 5.65409 70.0563C7.82409 69.9863 9.99409 69.9863 12.1741 69.9763C14.7841 69.9763 17.3941 69.9563 20.0041 70.0063C22.2541 70.0463 24.5041 70.2463 26.7641 70.2463C29.1041 70.2463 31.4341 70.0763 33.7741 69.9863C39.1441 69.7763 44.5041 70.5063 49.8741 70.0063C51.7541 69.8263 53.6841 70.0563 55.5841 70.1563C57.5441 70.2563 59.4941 70.4563 61.4441 70.5563C62.0041 70.5863 62.5741 70.4163 63.1341 70.3363C63.4741 70.2863 63.8141 70.1663 64.1441 70.1863C65.2841 70.2663 66.4341 70.5063 67.5641 70.4663C69.6641 70.3963 71.7541 70.1863 73.8441 70.0263C74.0841 70.0063 74.3241 69.9263 74.9341 69.7863C66.4741 60.0563 58.1941 50.5163 49.8941 40.9663C49.5141 41.2063 49.2041 41.4063 48.8441 41.6363C47.7541 39.9563 46.3041 38.7763 44.3841 38.7163C41.9641 38.6563 39.5141 38.3363 37.1241 39.2363C36.2741 39.5563 35.2941 39.6163 34.3641 39.6263C31.1641 39.6763 27.9741 39.7363 24.7741 39.6363C21.3141 39.5363 17.7741 40.4063 14.3941 38.9063C14.0541 38.7563 13.6041 38.8463 13.2041 38.8463C11.1141 38.8463 9.02409 38.8863 6.94409 38.8463C5.09409 38.8163 4.48409 38.1963 4.47409 36.4263C4.46409 33.7663 4.53409 31.0963 4.48409 28.4363C4.31409 21.7463 4.90409 15.0363 3.87409 8.36629C3.67409 7.11629 3.64409 5.83629 3.55409 4.75629C5.66409 3.55629 7.71409 3.41629 9.82409 3.56629C10.2541 3.59629 10.7141 3.50629 11.1341 3.39629C13.0941 2.90629 15.0541 2.37629 17.0141 1.89629C17.3041 1.82629 17.6341 1.87629 17.9441 1.86629C21.4541 1.84629 24.9641 1.92629 28.4641 1.79629C31.1841 1.68629 33.8841 1.12629 36.5941 1.09629C45.9241 0.996288 55.2541 1.03629 64.5741 1.07629C65.0441 1.07629 65.6441 1.43629 65.9641 1.81629C67.0141 3.05629 67.8541 4.48629 68.9741 5.65629C71.4941 8.30629 74.1141 10.8763 76.7441 13.4163C77.5941 14.2363 78.5641 15.2563 79.6141 15.4463C80.8341 15.6763 81.7041 16.4763 81.8941 17.1863C82.3941 19.0963 83.9441 19.9763 85.0941 21.2663C86.2541 22.5563 87.9841 23.3063 88.6041 25.1263C88.7741 25.6163 89.3641 26.2663 89.7941 26.2963C91.3341 26.3863 91.8741 27.6663 92.7541 28.5163C93.4441 29.1863 93.9441 30.0363 94.5941 30.7563C96.1541 32.4863 97.7441 34.1963 99.3341 35.8963C100.454 37.0863 101.574 38.2863 102.764 39.4063C103.374 39.9863 104.274 40.2963 104.814 40.9163C106.504 42.8663 106.924 43.0163 109.194 41.9363C109.324 43.4063 109.884 44.1663 111.384 43.1863C111.474 43.1263 111.644 43.1763 111.774 43.1863C114.884 43.3863 116.794 42.2063 118.264 39.4463C119.204 37.6863 120.304 36.0263 122.574 35.6563C123.174 35.5563 123.764 35.0663 124.234 34.6163C126.764 32.1863 129.224 29.6863 131.774 27.2763C133.414 25.7263 135.264 24.3863 136.874 22.7963C139.264 20.4363 141.154 17.5963 144.014 15.6763C145.094 14.9463 145.974 13.8963 146.864 12.9163C147.634 12.0663 148.314 11.1263 148.994 10.1863C150.814 7.68629 152.754 5.25629 154.374 2.63629C156.104 -0.173712 156.844 -0.573712 159.894 0.666288C160.104 0.746288 160.284 0.896288 160.504 0.936288C161.484 1.15629 162.464 1.47629 163.454 1.53629C168.174 1.80629 172.894 1.46629 177.644 2.13629C182.774 2.86629 188.054 3.23629 193.214 1.82629C193.554 1.73629 193.924 1.75629 194.274 1.75629C199.994 1.75629 205.714 1.75629 211.634 1.75629C212.594 3.39629 213.644 5.24629 214.734 7.06629C215.284 8.01629 215.904 8.90629 216.504 9.81629ZM64.7641 153.416C63.9641 154.416 63.2641 155.326 62.5441 156.206C61.7441 157.176 61.4841 158.256 61.9241 159.446C62.3941 160.686 63.3541 161.316 64.6741 161.446C66.5741 161.636 68.4141 161.646 70.3341 161.186C71.8241 160.826 73.4841 161.216 75.0741 161.226C80.7141 161.266 86.3441 161.336 91.9841 161.306C95.5741 161.286 99.2241 161.446 102.744 160.906C106.614 160.316 110.404 160.076 114.214 160.926C119.524 162.106 124.904 161.596 130.254 161.606C132.184 161.616 134.114 161.106 136.044 161.066C142.434 160.916 148.824 160.876 155.214 160.766C157.074 160.736 158.474 159.896 159.154 158.116C159.824 156.346 159.344 154.816 157.984 153.516C157.724 153.266 157.454 152.876 157.444 152.546C157.414 150.386 156.394 148.876 154.634 147.706C153.354 146.856 151.914 146.056 150.994 144.886C148.944 142.296 147.064 139.566 145.324 136.756C143.024 133.036 140.354 129.696 137.014 126.846C133.714 124.026 130.574 121.016 127.394 118.056C126.074 116.826 124.654 115.636 123.644 114.176C121.364 110.906 119.464 107.376 116.624 104.506C114.264 102.126 112.004 101.296 109.314 103.086C107.994 103.966 106.874 104.796 106.484 106.406C106.374 106.856 106.084 107.306 105.764 107.666C104.744 108.806 103.674 109.916 102.614 111.026C98.5641 115.236 94.5141 119.446 90.4541 123.646C87.8741 126.326 85.2541 128.966 82.7141 131.696C81.8241 132.646 81.2041 133.856 80.3341 134.826C79.6941 135.546 78.7841 136.026 78.1241 136.726C76.3041 138.666 74.5741 140.686 72.7641 142.636C71.9341 143.536 70.9441 144.286 70.1241 145.196C68.9141 146.536 67.8141 147.976 66.6341 149.336C65.5041 150.636 64.3141 151.896 63.0141 153.316C63.7141 153.366 64.1741 153.396 64.7641 153.416Z" fill="white"/>
</g>
<defs>
<clipPath id="clip0_183_15041">
<rect width="217.939" height="217.939" fill="white" transform="translate(0.326172)"/>
</clipPath>
</defs>
</svg>
