<svg width="214" height="213" viewBox="0 0 214 213" fill="none" xmlns="http://www.w3.org/2000/svg">
<g clip-path="url(#clip0_183_15045)">
<path d="M23.2469 152.655C24.6969 153.705 25.9169 155.085 27.4269 155.555C29.2469 156.125 30.1469 156.985 30.3869 158.805C30.4569 159.325 30.8869 159.845 31.2769 160.245C31.4769 160.455 32.0869 160.575 32.2869 160.425C33.7669 159.345 35.4869 158.415 36.5769 157.005C39.3569 153.385 42.3669 150.005 45.8269 147.035C47.8769 145.275 49.9969 143.625 51.5169 141.315C52.5169 139.795 53.6869 138.395 54.8569 136.995C55.5069 136.225 56.3569 135.625 57.0269 134.865C57.4969 134.325 57.8869 133.685 58.1269 133.025C58.2069 132.815 57.6869 132.105 57.4069 132.085C52.4669 131.815 48.0269 130.085 43.7369 127.735C42.2869 126.945 40.5069 126.775 39.0069 126.075C37.5469 125.385 35.8569 124.835 35.5169 122.775C35.4169 122.195 34.6469 121.555 34.0369 121.255C31.0969 119.785 28.5969 117.985 27.5369 114.625C27.1169 113.305 26.2169 112.135 25.5269 110.895C23.6569 107.525 21.7369 104.185 19.9669 100.755C19.5469 99.9345 19.6069 98.8645 19.4969 97.8945C19.1869 95.2545 19.7369 92.6445 19.8369 90.0245C19.9669 86.5245 19.8969 83.0245 19.8869 79.5245C19.8869 79.0945 19.8569 78.5545 19.6169 78.2345C18.7969 77.1445 19.3069 76.2645 19.8869 75.3545C21.6669 72.5545 23.4469 69.7545 25.2269 66.9545C25.3469 66.7645 25.5369 66.5945 25.5669 66.3945C26.0369 63.5245 28.2369 61.9045 30.1269 60.0545C31.1369 59.0645 32.0869 58.0045 33.0069 56.9245C34.8769 54.6945 37.2869 53.2845 39.8869 52.0645C42.6869 50.7445 45.3469 49.1245 48.4169 48.4145C49.2069 48.2345 49.9669 47.7245 50.6369 47.2345C51.7669 46.4045 53.0169 46.3945 54.3069 46.4145C55.5469 46.4345 56.7969 46.4245 58.0369 46.4345C59.3969 46.4445 60.7669 46.2745 61.9969 47.1745C62.3969 47.4645 63.0169 47.5845 63.5269 47.5445C66.0469 47.3545 68.4169 48.0845 70.8369 48.5745C71.6069 48.7345 72.4169 48.7645 73.2069 48.8045C74.6069 48.8645 76.0569 48.6245 77.3069 49.5445C77.4769 49.6645 77.7569 49.7745 77.9369 49.7245C80.1169 49.1045 81.8669 50.4145 83.6169 51.2245C85.1769 51.9445 86.4769 53.2745 87.7869 54.4545C89.7969 56.2545 91.7669 58.1145 93.6669 60.0345C95.0469 61.4245 96.7169 62.5945 97.2569 64.6945C97.5569 65.8545 98.8169 66.4945 100.007 66.2945C101.317 66.0745 102.087 65.2045 102.167 63.9445C102.357 61.1045 102.397 58.2645 102.527 55.4245C102.587 54.0045 102.757 52.5845 102.757 51.1645C102.757 50.2545 102.537 49.3445 102.427 48.5045C101.267 48.6445 100.287 48.7645 99.3069 48.8945C99.0969 48.9245 98.8269 48.9645 98.7069 49.1045C97.5769 50.4345 96.0869 50.0745 94.7269 49.8245C94.1169 49.7145 93.3669 49.0445 93.1569 48.4545C92.9669 47.9345 93.3369 47.1345 93.6469 46.5445C94.1869 45.5045 94.8569 44.5445 95.4669 43.5445C95.7469 43.0945 96.0469 42.6545 96.3069 42.1945C97.2469 40.4745 98.1769 38.7445 99.0969 37.0245C99.5769 36.1345 100.057 35.2545 100.507 34.3545C101.707 31.9345 102.877 29.5145 104.077 27.0945C105.987 23.2445 107.917 19.3945 109.827 15.5445C110.587 14.0045 111.307 12.4345 112.067 10.8845C112.217 10.5745 112.467 10.1745 112.747 10.0945C114.037 9.73454 114.007 8.77454 113.927 7.77454C113.797 6.13454 114.387 4.86454 115.627 3.78454C116.347 3.14454 116.847 2.26454 117.517 1.55454C117.737 1.32454 118.297 1.09454 118.487 1.21454C119.977 2.14454 121.447 2.97454 121.907 5.01454C122.397 7.21454 123.277 9.32454 123.057 11.6445C123.037 11.8045 123.097 12.0045 123.187 12.1445C124.677 14.3545 125.117 16.9045 125.687 19.4345C126.337 22.3145 127.247 25.1345 128.177 27.9345C129.167 30.9345 130.277 33.8945 131.417 36.8445C131.977 38.2945 132.867 39.6245 133.377 41.0845C134.037 42.9745 134.577 44.9245 134.957 46.8845C135.177 48.0445 135.007 49.2745 135.007 50.4745C135.007 52.6245 134.217 53.5445 132.067 53.8145C131.677 53.8645 131.267 53.8545 130.867 53.8545C129.767 53.8545 128.657 53.8545 127.267 53.8545C127.417 57.2645 127.557 60.6045 127.687 63.9445C127.717 64.6045 127.647 65.2745 127.647 65.9345C127.647 66.5545 127.597 67.1945 127.737 67.7745C127.977 68.7345 128.857 69.0445 129.557 68.3345C130.607 67.2745 131.717 66.4545 133.207 66.0745C133.747 65.9345 134.287 65.4045 134.617 64.9145C136.677 61.8445 139.867 60.3545 143.067 58.9845C147.277 57.1745 151.837 56.9145 156.307 56.1845C161.907 55.2645 167.177 56.1045 172.417 57.8545C172.707 57.9545 173.017 58.0245 173.317 58.1145C175.127 58.6345 176.757 59.2145 178.327 60.5245C180.957 62.7145 184.147 64.2345 186.987 66.1945C188.147 66.9945 189.107 68.1545 189.997 69.2745C191.147 70.7345 192.057 72.3945 193.227 73.8345C193.997 74.7945 194.557 75.8145 194.377 76.9745C194.087 78.8245 195.127 79.9045 196.437 80.6445C197.997 81.5245 198.407 82.8045 198.647 84.4345C199.167 87.9445 199.887 91.4345 200.517 94.9345C200.587 95.3245 200.727 95.7345 200.677 96.1145C200.117 100.605 199.937 105.195 198.787 109.535C198.017 112.435 195.917 114.995 194.317 117.655C192.917 119.975 191.407 122.225 189.887 124.475C189.417 125.155 188.847 125.855 188.167 126.295C182.117 130.205 175.997 133.995 169.017 136.075C168.937 136.105 168.847 136.125 168.767 136.175C166.497 137.535 164.127 138.365 161.397 138.265C160.067 138.215 159.577 139.655 160.507 140.685C162.727 143.135 165.257 145.135 168.207 146.735C169.887 147.645 171.407 149.175 172.517 150.765C174.147 153.105 176.117 154.735 178.807 155.565C178.937 155.605 179.097 155.585 179.197 155.655C181.317 157.285 182.687 155.745 184.147 154.505C184.607 154.115 185.127 153.785 185.567 153.375C185.757 153.195 185.877 152.875 185.907 152.605C185.967 152.165 185.897 151.715 185.927 151.275C186.047 149.475 186.887 148.415 188.237 148.335C189.957 148.235 191.087 149.235 191.667 150.835C192.367 152.735 193.377 154.515 194.217 156.375C194.687 157.415 195.097 158.485 195.497 159.555C196.137 161.295 196.697 163.075 197.407 164.795C197.667 165.415 198.167 166.025 198.717 166.415C201.247 168.205 202.337 170.925 203.557 173.595C204.587 175.865 205.667 178.125 206.817 180.345C207.357 181.385 208.227 182.255 208.747 183.305C209.167 184.155 209.327 185.145 209.497 186.085C210.077 189.325 211.457 192.235 212.987 195.105C213.207 195.505 213.357 196.325 213.157 196.485C212.777 196.795 211.947 197.055 211.627 196.845C210.137 195.875 208.487 195.615 206.787 195.435C206.547 195.415 206.267 195.225 206.117 195.025C204.967 193.425 203.357 193.145 201.537 193.255C200.887 193.295 200.187 193.195 199.587 192.965C196.977 191.995 194.277 191.705 191.517 191.635C188.047 191.555 184.587 191.475 181.127 191.245C175.997 190.915 170.857 190.525 165.747 190.005C164.727 189.905 163.777 189.105 162.827 188.635C163.207 187.235 163.517 185.955 163.927 184.715C164.057 184.335 164.477 184.045 164.807 183.755C165.737 182.935 166.707 182.155 167.617 181.305C168.377 180.605 168.567 179.755 167.747 178.985C166.857 178.155 165.907 177.365 164.917 176.645C162.127 174.605 159.317 172.575 156.467 170.605C155.717 170.085 154.807 169.815 154.017 169.345C153.697 169.155 153.557 168.705 153.277 168.425C152.897 168.055 152.427 167.445 152.067 167.495C151.667 167.545 151.057 168.225 151.057 168.635C151.007 173.575 149.367 178.145 147.917 182.755C147.437 184.265 146.697 185.705 145.997 187.135C145.867 187.415 145.377 187.565 145.027 187.675C144.347 187.885 143.627 187.965 142.967 188.205C140.207 189.225 139.817 189.905 139.667 192.815C139.617 193.705 138.857 194.555 138.757 195.465C138.607 196.875 137.797 197.805 136.987 198.805C135.517 200.635 133.377 201.365 131.337 202.125C129.807 202.695 128.307 203.045 127.427 204.605C127.187 205.015 126.637 205.325 126.167 205.515C120.937 207.685 115.587 209.375 109.917 209.975C107.097 210.275 104.307 210.795 101.497 211.185C100.847 211.275 100.167 211.305 99.5169 211.235C98.2769 211.095 97.0569 210.695 95.8269 210.695C91.1669 210.695 87.4169 208.175 83.3869 206.385C82.0669 205.795 80.5669 205.585 79.2569 204.995C77.7269 204.305 76.0369 203.745 75.6669 201.645C75.5669 201.065 74.7769 200.455 74.1669 200.145C71.2269 198.665 68.7569 196.845 67.6669 193.505C67.2069 192.105 66.2869 190.835 65.4869 189.565C63.2569 186.045 61.0569 182.505 59.8269 178.475C59.6269 177.825 59.7469 177.075 59.6769 176.375C59.5769 175.415 59.5169 174.435 59.2869 173.495C59.2069 173.175 58.6769 172.765 58.3369 172.755C57.9869 172.745 57.5769 173.115 57.2869 173.415C56.7169 173.985 56.2469 174.645 55.6869 175.225C54.7469 176.195 53.7969 177.165 52.7969 178.075C52.4569 178.385 51.9569 178.705 51.5269 178.725C49.1069 178.795 47.9669 179.815 48.0269 182.215C48.0569 183.245 48.4369 184.265 48.5969 185.295C48.7369 186.175 48.6769 187.105 48.8969 187.955C49.0569 188.555 49.4469 189.165 49.8869 189.615C50.8269 190.565 51.2469 191.605 50.7369 192.865C50.2469 194.095 49.2469 194.485 47.9669 194.535C47.1569 194.565 46.3569 194.875 45.5569 195.045C44.6569 195.245 43.7569 195.435 42.8569 195.645C42.2669 195.785 41.6869 195.965 41.1069 196.105C40.0869 196.355 39.0469 196.565 38.0369 196.855C36.9869 197.145 35.9169 197.425 34.9069 197.845C33.4469 198.455 32.0669 199.285 30.5769 199.835C29.6469 200.175 28.5869 200.305 27.5869 200.305C23.2769 200.315 18.9569 200.315 14.6569 200.145C12.5669 200.065 10.7269 200.515 8.98687 201.615C8.02687 202.215 7.13688 202.485 5.90688 201.945C4.82688 201.475 3.47688 201.615 2.24688 201.455C1.75688 201.395 1.27687 201.275 0.796875 201.185C0.916875 200.555 0.916875 199.855 1.20687 199.325C1.59687 198.605 2.35688 198.075 2.72688 197.345C5.62687 191.655 8.53687 185.975 11.3069 180.215C13.6669 175.305 15.9769 170.355 18.0469 165.305C18.8369 163.365 20.1469 161.835 21.0569 160.045C21.8869 158.415 22.2069 156.525 22.7269 154.745C22.9169 154.015 23.0869 153.285 23.2469 152.655ZM181.787 96.3745C181.937 83.8145 172.027 73.1945 159.537 72.8545C149.577 72.5845 142.307 77.4645 137.087 85.6445C136.087 87.2145 135.247 89.0545 134.937 90.8645C134.537 93.2445 134.747 95.7245 134.657 98.1645C134.637 98.8145 134.637 99.5345 134.367 100.105C133.527 101.895 133.397 103.765 134.107 105.525C134.977 107.685 135.967 109.855 137.267 111.775C138.767 113.985 140.437 116.195 143.367 116.775C143.677 116.835 143.967 117.135 144.217 117.365C145.057 118.145 145.807 119.055 146.737 119.715C148.287 120.815 149.887 121.855 151.957 121.725C153.017 121.655 154.087 121.895 155.147 121.825C156.937 121.705 158.977 122.085 160.337 120.665C161.697 119.235 163.367 118.755 165.097 118.235C175.277 115.225 181.507 106.265 181.787 96.3745ZM81.4269 161.345C81.6069 163.195 81.6269 165.075 82.0269 166.875C82.6169 169.535 83.4669 172.135 84.2469 174.755C84.8869 176.935 85.5869 179.085 87.3369 180.685C88.1869 181.465 89.0869 182.185 89.9169 182.985C93.3069 186.265 97.3269 188.215 101.957 189.095C114.517 191.455 127.937 181.385 127.937 167.965C127.937 164.735 127.897 161.475 126.217 158.525C125.477 157.215 124.667 155.885 124.227 154.465C123.007 150.475 120.587 147.515 116.997 145.485C116.167 145.015 115.277 144.545 114.357 144.355C111.757 143.805 109.107 143.945 106.437 143.345C103.417 142.675 99.9169 142.255 96.8569 144.125C96.5469 144.315 96.0669 144.355 95.6969 144.305C93.6769 144.035 92.0669 145.045 90.2869 145.765C86.1069 147.455 84.2769 151.005 82.4269 154.685C81.3269 156.855 81.6769 159.095 81.4269 161.345ZM42.3669 91.3645C41.4569 95.2345 43.3569 98.7345 45.7769 101.995C47.1369 103.825 49.0369 105.255 50.3769 107.095C51.7169 108.945 53.4769 110.095 55.3769 111.145C56.1469 111.575 56.9369 112.215 57.7469 112.245C61.2269 112.385 64.7269 112.835 68.1869 111.855C69.5269 111.475 70.9669 111.455 72.3569 111.305C74.0469 111.125 75.9669 111.685 77.3469 110.375C79.8669 107.965 82.4069 105.535 84.6069 102.845C85.9069 101.255 86.8769 99.3145 86.5769 96.9445C86.3369 95.0745 86.6569 93.1445 86.5969 91.2445C86.4969 88.3045 86.6569 85.3145 84.8869 82.6545C84.0869 81.4545 83.6769 80.0145 82.9469 78.7545C81.8469 76.8345 80.8069 74.8445 79.4169 73.1445C76.8669 70.0345 73.7269 67.6245 69.6769 66.7845C56.5869 64.0645 44.3869 73.8845 42.3869 86.9245C42.1969 88.2245 42.3669 89.5845 42.3669 91.3645Z" fill="white"/>
</g>
<defs>
<clipPath id="clip0_183_15045">
<rect width="212.454" height="212.454" fill="white" transform="translate(0.796875)"/>
</clipPath>
</defs>
</svg>
