<svg width="216" height="215" viewBox="0 0 216 215" fill="none" xmlns="http://www.w3.org/2000/svg">
<g clip-path="url(#clip0_183_15145)">
<path d="M102.259 2.36186C86.0598 12.2937 31.8124 50.0126 68.5283 58.6863C61.5059 48.0051 63.1621 45.1821 74.9477 42.3572C86.7334 39.5322 95.6204 52.6757 78.2976 57.4121C81.5122 60.006 87.0387 63.8564 92.1115 57.634C97.1842 51.4117 89.7954 38.7113 97.2366 32.9482C104.678 27.1851 134.068 20.9109 136.533 31.961C138.998 43.0111 22.3115 107.234 51.0875 138.82C79.8635 170.407 120.391 93.0241 132.635 106.095C144.879 119.167 36.1819 178.763 62.6328 206.643C89.0838 234.523 122.171 185.216 124.931 167.117C113.749 181.514 100.741 193.225 100.741 193.225C100.741 193.225 98.4569 192.414 98.5696 186.452C92.1966 197.016 79.3363 202.592 75.9258 194.452C72.5153 186.313 115.463 148.988 125.319 137.498C125.319 137.498 126.896 140.035 127.415 143.672C143.108 134.284 147.062 111.015 147.062 111.015C147.062 111.015 150.087 111.058 153.065 112.966C153.263 100.178 153.806 89.4892 136.363 87.0724C136.363 87.0724 136.02 84.2964 141.335 79.7741C123.016 82.8 108.658 97.6737 108.658 97.6737C108.658 97.6737 107.322 92.476 107.514 88.5128C100.523 96.3415 74.5981 135.712 64.6618 126.464C54.7256 117.215 101.393 82.3671 118.821 69.1319C118.821 69.1319 121.512 71.7576 121.058 76.4212C133.521 66.0005 139.361 58.6763 148.178 48.0788C148.178 48.0788 151.317 48.6809 153.906 54.748C158.039 40.2534 159.393 33.3749 160.482 22.5178C160.482 22.5178 164.509 23.4362 168.664 25.609C164.459 8.40845 136.298 10.6786 136.298 10.6786C136.298 10.6786 138.857 5.8526 146.751 0C132.668 1.5984 102.372 12.9278 102.372 12.9278C102.372 12.9278 100.401 11.3143 102.259 2.36186ZM75.947 30.7279C62.3721 37.1958 70.24 46.635 75.947 30.7279V30.7279Z" fill="white"/>
</g>
<defs>
<clipPath id="clip0_183_15145">
<rect width="215" height="215" fill="white" transform="translate(0.09375)"/>
</clipPath>
</defs>
</svg>
