<svg width="221" height="220" viewBox="0 0 221 220" fill="none" xmlns="http://www.w3.org/2000/svg">
<path d="M58.8418 94.9834H160.19V103.924H58.8418V94.9834Z" fill="white"/>
<path d="M110.266 32.2812C101.11 32.2812 82.9068 44.3044 79.0645 54.4248C96.6478 60.2184 94.4904 80.495 90.2771 92.7764H110.266H130.254C126.041 80.495 123.884 60.2184 141.467 54.4248C137.625 44.3044 119.421 32.2812 110.266 32.2812Z" fill="white"/>
<path d="M78.3264 56.4609C72.9522 62.4008 62.4974 77.6064 61.0254 92.7768H87.9137C91.9376 81.3209 94.0517 62.6229 78.3264 56.4609Z" fill="white"/>
<path d="M142.203 56.4609C147.577 62.4008 158.032 77.6064 159.504 92.7768H132.615C128.592 81.3209 126.477 62.6229 142.203 56.4609Z" fill="white"/>
<path d="M49.5448 0C24.8944 19.8799 39.3091 61.2451 62.4815 78.3414C65.1083 71.6278 68.6981 65.4912 72.0062 60.7438C49.0676 54.0793 43.0117 19.6653 49.5448 0Z" fill="white"/>
<path d="M170.985 0C195.635 19.8799 181.221 61.2451 158.048 78.3414C155.421 71.6278 151.832 65.4912 148.523 60.7438C171.462 54.0793 177.518 19.6653 170.985 0Z" fill="white"/>
<path d="M101.434 106.274H117.596V133.879H101.434V106.274Z" fill="white"/>
<path d="M62.7969 106.274L85.1725 123.093L85.1745 123.094L99.1876 133.627V119.591V115.438H93.6627L81.4711 106.274L62.7969 106.274Z" fill="white"/>
<path d="M156.233 106.274L133.857 123.093L133.855 123.094L119.842 133.627V119.591V115.438H125.367L137.558 106.274L156.233 106.274Z" fill="white"/>
<path d="M98.0443 149.209C97.9506 151.003 97.0529 167.268 94.6919 174.649C93.153 179.461 86.8002 190.92 83.291 197.024C91.9094 204.684 100.699 213.127 109.513 219.999C118.328 213.127 127.117 204.684 135.736 197.024C132.227 190.92 125.874 179.461 124.335 174.649C121.974 167.268 121.076 151.003 120.983 149.209H109.513H98.0443Z" fill="white"/>
<path d="M92.3492 149.827C84.8846 161.209 75.1331 169.462 64.1074 177.482L83.1306 192.583C85.8545 187.947 90.6247 179.466 92.3745 173.995C94.8429 166.278 96.0806 149.584 96.1082 149.209L92.3492 149.827Z" fill="white"/>
<path d="M87.7199 127.791C74.2265 140.399 55.3802 147.383 42.9258 159.478L60.4005 174.746C62.7408 174.746 63.6272 173.812 65.5598 173.554C75.1914 166.297 83.719 158.613 90.4073 148.414L98.8341 136.145L87.7219 127.793L87.7199 127.791Z" fill="white"/>
<path d="M61.2253 107.877C64.0669 124.783 54.8551 125.792 39.5723 130.971C43.8603 138.748 45.7167 144.643 46.6125 153.178C57.9908 144.558 74.2843 136.826 85.6701 126.251L61.2253 107.877Z" fill="white"/>
<path d="M126.679 149.827C134.144 161.209 143.895 169.462 154.921 177.482L135.898 192.583C133.174 187.947 128.403 179.466 126.654 173.995C124.185 166.278 122.947 149.584 122.92 149.209L126.679 149.827Z" fill="white"/>
<path d="M131.309 127.791C144.803 140.399 163.649 147.383 176.104 159.478L158.629 174.746C156.289 174.746 155.402 173.812 153.47 173.554C143.838 166.297 135.31 158.613 128.622 148.414L120.195 136.145L131.308 127.793L131.309 127.791Z" fill="white"/>
<path d="M157.802 107.877C154.961 124.783 164.172 125.792 179.455 130.971C175.167 138.748 173.311 144.643 172.415 153.178C161.037 144.558 144.743 136.826 133.357 126.251L157.802 107.877Z" fill="white"/>
</svg>
