<svg width="218" height="217" viewBox="0 0 218 217" fill="none" xmlns="http://www.w3.org/2000/svg">
<g clip-path="url(#clip0_183_15110)">
<path d="M46.9338 0C61.1501 13.8394 72.9721 27.4506 79.7062 41.0301C86.4403 54.6096 85.9932 85.7432 85.9932 85.7432C85.9932 85.7432 54.8596 86.1903 41.2801 79.4562C27.7005 72.7221 14.0894 60.9001 0.25 46.6838C8.07584 72.7033 9.35372 84.8894 9.35372 108.5C9.35372 132.111 8.07584 144.297 0.25 170.316C14.0894 156.1 27.7005 144.278 41.2801 137.544C54.8596 130.81 85.9932 131.257 85.9932 131.257C85.9932 131.257 86.4403 162.39 79.7062 175.97C72.9721 189.549 61.1501 203.161 46.9338 217C72.9533 209.174 85.1394 207.896 108.75 207.896C132.361 207.896 144.547 209.174 170.566 217C156.35 203.161 144.528 189.549 137.794 175.97C131.06 162.39 131.507 131.257 131.507 131.257C131.507 131.257 162.64 130.81 176.22 137.544C189.799 144.278 203.411 156.1 217.25 170.316C209.424 144.297 208.146 132.111 208.146 108.5C208.146 84.8894 209.424 72.7033 217.25 46.6838C203.411 60.9001 189.799 72.7221 176.22 79.4562C162.64 86.1903 131.507 85.7432 131.507 85.7432C131.507 85.7432 131.06 54.6096 137.794 41.0301C144.528 27.4506 156.35 13.8394 170.566 0C144.547 7.82585 132.361 9.10373 108.75 9.10373C85.1394 9.10373 72.9533 7.82585 46.9338 0Z" fill="white"/>
</g>
<defs>
<clipPath id="clip0_183_15110">
<rect width="217" height="217" fill="white" transform="translate(0.25)"/>
</clipPath>
</defs>
</svg>
