<svg width="801" height="800" viewBox="0 0 801 800" fill="none" xmlns="http://www.w3.org/2000/svg">
<g clip-path="url(#clip0_130_11471)">
<path d="M400.238 0C179.278 0 0.238281 179.04 0.238281 400C0.238281 620.96 179.278 800 400.238 800C621.198 800 800.238 620.96 800.238 400C800.238 179.04 621.198 0 400.238 0ZM400.238 776C192.558 776 24.2383 607.68 24.2383 400C24.2383 192.32 192.558 24 400.238 24C607.918 24 776.238 192.32 776.238 400C776.238 607.68 607.918 776 400.238 776Z" fill="white"/>
<path d="M400.238 304C462.094 304 512.238 253.856 512.238 192C512.238 130.144 462.094 80 400.238 80C338.382 80 288.238 130.144 288.238 192C288.238 253.856 338.382 304 400.238 304Z" fill="white"/>
<path d="M672.239 424V376H719.279C709.839 248.64 625.839 141.92 510.639 99.52C531.599 124.48 544.239 156.8 544.239 192C544.239 271.52 479.759 336 400.239 336C320.719 336 256.239 271.52 256.239 192C256.239 156.8 268.879 124.64 289.839 99.52C174.639 141.92 90.6392 248.64 81.1992 376H128.239V424H81.1992C92.7192 578.56 213.839 702.56 367.119 718.24C362.799 711.84 360.399 704.16 360.399 696C360.399 673.92 378.319 656 400.399 656C422.479 656 440.399 673.92 440.399 696C440.399 704.32 437.839 712 433.679 718.24C586.959 702.4 708.079 578.56 719.599 424H672.239Z" fill="white"/>
</g>
<defs>
<clipPath id="clip0_130_11471">
<rect width="800" height="800" fill="white" transform="translate(0.238281)"/>
</clipPath>
</defs>
</svg>
