<svg width="745" height="800" viewBox="0 0 745 800" fill="none" xmlns="http://www.w3.org/2000/svg">
<g clip-path="url(#clip0_130_11678)">
<path d="M99.1756 526.85C93.3103 510.972 88.8421 494.612 85.8216 477.956L46.8223 484.833C50.2623 503.753 55.3456 522.338 62.0145 540.375L99.1756 526.85Z" stroke="white" stroke-width="3.00672" stroke-linecap="round" stroke-linejoin="round"/>
<path d="M150.079 613.904C139.166 601.009 129.396 587.187 120.881 572.597L86.5742 592.405C96.2404 608.993 107.332 624.708 119.724 639.373L150.079 613.904Z" stroke="white" stroke-width="3.00672" stroke-linecap="round" stroke-linejoin="round"/>
<path d="M185.769 649.734L160.453 679.907C175.161 692.221 190.911 703.232 207.527 712.817L223.571 685.028L222.085 675.344C209.345 667.746 197.204 659.184 185.769 649.734Z" stroke="white" stroke-width="3.00672" stroke-linecap="round" stroke-linejoin="round"/>
<path d="M47.4273 370.166C43.7869 389.051 41.8004 408.217 41.4902 427.446H81.3528C81.6073 410.533 83.3364 393.674 86.5205 377.06L47.4273 370.166Z" stroke="white" stroke-width="3.00672" stroke-linecap="round" stroke-linejoin="round"/>
<path d="M86.9197 262.688C77.3064 279.292 69.156 296.701 62.5605 314.718L99.7863 328.266C105.534 312.389 112.653 297.043 121.062 282.401L86.9197 262.688Z" stroke="white" stroke-width="3.00672" stroke-linecap="round" stroke-linejoin="round"/>
<path d="M207.33 141.732L227.138 176.039C241.727 167.488 257.034 160.226 272.885 154.334L259.36 117.173C241.337 123.832 223.927 132.05 207.33 141.732Z" stroke="white" stroke-width="3.00672" stroke-linecap="round" stroke-linejoin="round"/>
<path d="M314.902 101.981L321.779 140.98C338.453 138.023 355.354 136.528 372.288 136.511V96.6484C353.041 96.7529 333.839 98.5371 314.902 101.981Z" stroke="white" stroke-width="3.00672" stroke-linecap="round" stroke-linejoin="round"/>
<path d="M373.826 718.324C373.313 718.345 372.8 718.365 372.287 718.383V726.681L373.826 718.324Z" stroke="white" stroke-width="3.00672" stroke-linecap="round" stroke-linejoin="round"/>
<path d="M525.265 692.415L523.027 710.332L529.857 711.095V717.115C532.336 715.829 534.799 714.511 537.245 713.163L525.265 692.415Z" stroke="white" stroke-width="3.00672" stroke-linecap="round" stroke-linejoin="round"/>
<path d="M624.741 639.285L594.574 613.969C583.69 626.884 571.702 638.827 558.746 649.662L584.215 680.011C598.879 667.637 612.439 654.01 624.741 639.285Z" stroke="white" stroke-width="3.00672" stroke-linecap="round" stroke-linejoin="round"/>
<path d="M682.016 540.175L644.79 526.627C639.042 542.503 631.923 557.849 623.514 572.491L657.656 592.205C667.27 575.601 675.42 558.192 682.016 540.175Z" stroke="white" stroke-width="3.00672" stroke-linecap="round" stroke-linejoin="round"/>
<path d="M703.087 427.446H663.224C662.97 444.36 661.241 461.219 658.057 477.832L697.15 484.727C700.79 465.842 702.777 446.676 703.087 427.446Z" stroke="white" stroke-width="3.00672" stroke-linecap="round" stroke-linejoin="round"/>
<path d="M682.562 314.518L645.4 328.042C651.266 343.921 655.734 360.281 658.754 376.936L697.754 370.06C694.314 351.139 689.23 332.555 682.562 314.518Z" stroke="white" stroke-width="3.00672" stroke-linecap="round" stroke-linejoin="round"/>
<path d="M624.853 215.52L594.504 240.989C605.415 253.884 615.183 267.705 623.696 282.296L658.003 262.488C648.337 245.899 637.245 230.184 624.853 215.52Z" stroke="white" stroke-width="3.00672" stroke-linecap="round" stroke-linejoin="round"/>
<path d="M429.568 102.586L422.674 141.679C439.293 144.677 455.619 149.115 471.468 154.945L485.016 117.719C467.008 111.076 448.455 106.012 429.568 102.586Z" stroke="white" stroke-width="3.00672" stroke-linecap="round" stroke-linejoin="round"/>
<path d="M537.046 142.08L517.332 176.223C518.858 177.185 520.375 178.162 521.883 179.153L536.365 161.647L539.342 143.519C538.579 143.036 537.813 142.557 537.046 142.08Z" stroke="white" stroke-width="3.00672" stroke-linecap="round" stroke-linejoin="round"/>
<path d="M46.8433 484.832C43.3938 465.896 41.6037 446.694 41.4934 427.446H1.625C1.74501 449.014 3.74729 470.53 7.60905 491.75L46.8433 484.832Z" stroke="white" stroke-width="3.00672" stroke-linecap="round" stroke-linejoin="round"/>
<path d="M86.7522 592.299C77.065 575.719 68.8398 558.328 62.1699 540.321L24.6328 553.981C32.089 574.179 41.2908 593.688 52.1338 612.289L86.7522 592.299Z" stroke="white" stroke-width="3.00672" stroke-linecap="round" stroke-linejoin="round"/>
<path d="M160.417 679.946C145.687 667.641 132.057 654.077 119.679 639.408L89.2598 664.936C103.116 681.381 118.378 696.59 134.871 710.389L160.417 679.946Z" stroke="white" stroke-width="3.00672" stroke-linecap="round" stroke-linejoin="round"/>
<path d="M207.556 712.775L187.596 747.347C199.99 754.494 212.788 760.917 225.925 766.585L225.373 755.891L224.927 729.5L229.901 726.364L229.613 724.468C222.117 720.849 214.759 716.949 207.556 712.775Z" stroke="white" stroke-width="3.00672" stroke-linecap="round" stroke-linejoin="round"/>
<path d="M25.239 301.129C17.7938 321.308 12.1192 342.097 8.2793 363.26L47.3666 370.154C50.7759 351.259 55.8238 332.696 62.4531 314.677L25.239 301.129Z" stroke="white" stroke-width="3.00672" stroke-linecap="round" stroke-linejoin="round"/>
<path d="M89.4144 190.082C75.615 206.564 63.2754 224.214 52.5352 242.835L86.6544 262.531C95.4997 247.251 105.554 232.703 116.722 219.028L101.987 200.84L101.823 200.494L89.4144 190.082Z" stroke="white" stroke-width="3.00672" stroke-linecap="round" stroke-linejoin="round"/>
<path d="M190.368 112.348L189 153.179C194.958 149.121 201.047 145.259 207.258 141.599L190.368 112.348Z" stroke="white" stroke-width="3.00672" stroke-linecap="round" stroke-linejoin="round"/>
<path d="M245.75 79.789L259.263 116.921C277.317 110.251 295.919 105.17 314.858 101.735L307.981 62.7646C286.782 66.6199 265.959 72.3163 245.75 79.789Z" stroke="white" stroke-width="3.00672" stroke-linecap="round" stroke-linejoin="round"/>
<path d="M309.151 785.506L307.936 792.412C329.181 796.18 350.715 798.086 372.292 798.108V789.922L369.644 785.506H309.151Z" stroke="white" stroke-width="3.00672" stroke-linecap="round" stroke-linejoin="round"/>
<path d="M436.642 62.4824C415.398 58.7144 393.866 56.8084 372.291 56.7861V96.6487C391.538 96.7532 410.74 98.5374 429.677 101.981L436.642 62.4824Z" stroke="white" stroke-width="3.00672" stroke-linecap="round" stroke-linejoin="round"/>
<path d="M609.752 710.448L584.289 680.099C569.626 692.507 553.911 703.615 537.32 713.296L557.122 747.591C575.71 736.761 593.32 724.333 609.752 710.448Z" stroke="white" stroke-width="3.00672" stroke-linecap="round" stroke-linejoin="round"/>
<path d="M692.042 612.06L657.923 592.363C648.347 609.007 637.339 624.785 625.025 639.519L655.169 664.812C668.966 648.331 681.304 630.68 692.042 612.06Z" stroke="white" stroke-width="3.00672" stroke-linecap="round" stroke-linejoin="round"/>
<path d="M736.299 491.633L697.211 484.738C693.802 503.634 688.754 522.196 682.125 540.216L719.339 553.758C726.784 533.581 732.459 512.794 736.299 491.633Z" stroke="white" stroke-width="3.00672" stroke-linecap="round" stroke-linejoin="round"/>
<path d="M736.968 363.143L697.734 370.06C701.184 388.997 702.974 408.199 703.084 427.446H742.953C742.833 405.879 740.83 384.362 736.968 363.143Z" stroke="white" stroke-width="3.00672" stroke-linecap="round" stroke-linejoin="round"/>
<path d="M692.443 242.604L657.83 262.588C667.518 279.169 675.743 296.563 682.412 314.571L719.944 300.912C712.487 280.714 703.286 261.204 692.443 242.604Z" stroke="white" stroke-width="3.00672" stroke-linecap="round" stroke-linejoin="round"/>
<path d="M627.557 160.59L627.639 164.331L612.054 200.077L611.613 200.863C616.188 205.6 620.619 210.473 624.903 215.474L655.316 189.952C646.604 179.667 637.337 169.865 627.557 160.59Z" stroke="white" stroke-width="3.00672" stroke-linecap="round" stroke-linejoin="round"/>
<path d="M498.71 80.1133L485.039 117.68C503.043 124.302 520.436 132.478 537.022 142.115L540.593 135.931L541.603 122.454L543.386 116.012L538.551 108.495L540.417 98.9816C526.916 91.8389 512.988 85.5375 498.71 80.1133Z" stroke="white" stroke-width="3.00672" stroke-linecap="round" stroke-linejoin="round"/>
<path d="M85.8217 477.956C82.8649 461.281 81.3696 444.381 81.3528 427.446H41.4902C41.5947 446.694 43.3788 465.895 46.8224 484.832L85.8217 477.956Z" fill="white" stroke="white" stroke-width="3.00672" stroke-linecap="round" stroke-linejoin="round"/>
<path d="M120.882 572.597C112.331 558.008 105.068 542.701 99.1767 526.851L62.0156 540.375C68.6752 558.399 76.8926 575.808 86.5744 592.405L120.882 572.597Z" fill="white" stroke="white" stroke-width="3.00672" stroke-linecap="round" stroke-linejoin="round"/>
<path d="M185.773 649.732C172.858 638.848 160.915 626.86 150.08 613.904L119.725 639.373C132.1 654.04 145.729 667.602 160.456 679.905L185.773 649.732Z" fill="white" stroke="white" stroke-width="3.00672" stroke-linecap="round" stroke-linejoin="round"/>
<path d="M223.571 685.027L207.527 712.816C214.728 716.864 222.078 720.641 229.561 724.138L223.571 685.027Z" fill="white" stroke="white" stroke-width="3.00672" stroke-linecap="round" stroke-linejoin="round"/>
<path d="M350.605 716.968L350.946 736.911H370.402L372.287 726.681V718.383C365.045 718.181 357.812 717.709 350.605 716.968Z" fill="white" stroke="white" stroke-width="3.00672" stroke-linecap="round" stroke-linejoin="round"/>
<path d="M62.5612 314.718C55.9175 332.726 50.8539 351.279 47.4277 370.166L86.521 377.06C89.5184 360.441 93.9572 344.115 99.787 328.266L62.5612 314.718Z" fill="white" stroke="white" stroke-width="3.00672" stroke-linecap="round" stroke-linejoin="round"/>
<path d="M116.991 219.368C105.83 232.985 95.7734 247.472 86.918 262.69L121.061 282.404C127.471 271.391 134.598 260.811 142.395 250.733L116.991 219.368Z" fill="white" stroke="white" stroke-width="3.00672" stroke-linecap="round" stroke-linejoin="round"/>
<path d="M207.327 141.733C201.082 145.515 194.963 149.503 188.982 153.69L188.929 155.281L183.232 159.075L205.254 189.829L205.63 190.111C212.588 185.106 219.763 180.411 227.135 176.04L207.327 141.733Z" fill="white" stroke="white" stroke-width="3.00672" stroke-linecap="round" stroke-linejoin="round"/>
<path d="M259.359 117.173L272.884 154.334C288.762 148.468 305.123 144 321.778 140.98L314.901 101.98C295.981 105.42 277.397 110.504 259.359 117.173Z" fill="white" stroke="white" stroke-width="3.00672" stroke-linecap="round" stroke-linejoin="round"/>
<path d="M558.745 649.663C548.932 657.88 538.588 665.441 527.779 672.296L525.266 692.415L537.246 713.162C553.834 703.496 569.549 692.404 584.214 680.012L558.745 649.663Z" fill="white" stroke="white" stroke-width="3.00672" stroke-linecap="round" stroke-linejoin="round"/>
<path d="M657.657 592.205L623.514 572.491C615.09 587.131 605.406 601.009 594.574 613.969L624.741 639.285C637.058 624.576 648.071 608.823 657.657 592.205Z" fill="white" stroke="white" stroke-width="3.00672" stroke-linecap="round" stroke-linejoin="round"/>
<path d="M697.148 484.726L658.055 477.832C655.058 494.451 650.619 510.778 644.789 526.627L682.015 540.174C688.659 522.166 693.722 503.613 697.148 484.726Z" fill="white" stroke="white" stroke-width="3.00672" stroke-linecap="round" stroke-linejoin="round"/>
<path d="M697.753 370.061L658.754 376.937C661.711 393.611 663.206 410.512 663.223 427.447H703.085C702.981 408.199 701.197 388.998 697.753 370.061Z" fill="white" stroke="white" stroke-width="3.00672" stroke-linecap="round" stroke-linejoin="round"/>
<path d="M658.003 262.488L623.695 282.296C632.246 296.885 639.508 312.192 645.4 328.043L682.561 314.518C675.902 296.495 667.684 279.086 658.003 262.488Z" fill="white" stroke="white" stroke-width="3.00672" stroke-linecap="round" stroke-linejoin="round"/>
<path d="M611.45 201.157L591.213 237.338C592.319 238.546 593.416 239.764 594.501 240.99L624.851 215.521C620.527 210.602 616.058 205.812 611.45 201.157Z" fill="white" stroke="white" stroke-width="3.00672" stroke-linecap="round" stroke-linejoin="round"/>
<path d="M429.569 102.586C410.685 98.9452 391.519 96.9586 372.289 96.6484V136.511C389.203 136.765 406.062 138.495 422.675 141.679L429.569 102.586Z" fill="white" stroke="white" stroke-width="3.00672" stroke-linecap="round" stroke-linejoin="round"/>
<path d="M485.015 117.721L471.467 154.946C487.343 160.694 502.689 167.813 517.331 176.223L537.045 142.08C520.441 132.467 503.032 124.316 485.015 117.721Z" fill="white" stroke="white" stroke-width="3.00672" stroke-linecap="round" stroke-linejoin="round"/>
<path d="M62.1708 540.321C55.4589 522.305 50.3305 503.739 46.8436 484.832L7.60938 491.75C11.4646 512.949 17.161 533.771 24.6338 553.981L62.1708 540.321Z" fill="white" stroke="white" stroke-width="3.00672" stroke-linecap="round" stroke-linejoin="round"/>
<path d="M119.68 639.408C107.358 624.69 96.3413 608.927 86.7531 592.299L52.1348 612.289C62.9587 630.882 75.3809 648.498 89.2606 664.936L119.68 639.408Z" fill="white" stroke="white" stroke-width="3.00672" stroke-linecap="round" stroke-linejoin="round"/>
<path d="M207.555 712.773C190.92 703.219 175.148 692.235 160.416 679.946L134.871 710.389C151.34 724.214 168.981 736.579 187.594 747.345L207.555 712.773Z" fill="white" stroke="white" stroke-width="3.00672" stroke-linecap="round" stroke-linejoin="round"/>
<path d="M278.902 785.506C288.484 788.197 298.169 790.501 307.936 792.412L309.152 785.506H278.902Z" fill="white" stroke="white" stroke-width="3.00672" stroke-linecap="round" stroke-linejoin="round"/>
<path d="M8.27855 363.26C4.19896 384.421 1.97267 405.898 1.625 427.446H41.4934C41.7816 408.214 43.7465 389.044 47.3659 370.154L8.27855 363.26Z" fill="white" stroke="white" stroke-width="3.00672" stroke-linecap="round" stroke-linejoin="round"/>
<path d="M52.5336 242.833C41.7619 261.437 32.629 280.943 25.2383 301.129L62.4523 314.677C68.9906 296.625 77.088 279.177 86.6529 262.529L52.5336 242.833Z" fill="white" stroke="white" stroke-width="3.00672" stroke-linecap="round" stroke-linejoin="round"/>
<path d="M94.2706 184.686C92.6342 186.469 91.0153 188.268 89.4141 190.082L101.823 200.494L94.2706 184.686Z" fill="white" stroke="white" stroke-width="3.00672" stroke-linecap="round" stroke-linejoin="round"/>
<path d="M245.751 79.791C225.936 87.126 206.785 96.1418 188.506 106.74L190.444 110.099L190.367 112.348L207.257 141.599C223.842 131.878 241.244 123.621 259.264 116.923L245.751 79.791Z" fill="white" stroke="white" stroke-width="3.00672" stroke-linecap="round" stroke-linejoin="round"/>
<path d="M307.98 62.7644L314.857 101.734C333.817 98.3707 353.034 96.669 372.29 96.6487V56.7861C350.721 56.9039 329.202 58.9042 307.98 62.7644Z" fill="white" stroke="white" stroke-width="3.00672" stroke-linecap="round" stroke-linejoin="round"/>
<path d="M372.293 789.922V798.108C373.879 798.03 375.465 797.942 377.05 797.844L372.293 789.922Z" fill="white" stroke="white" stroke-width="3.00672" stroke-linecap="round" stroke-linejoin="round"/>
<path d="M537.321 713.298C534.849 714.625 532.361 715.921 529.857 717.185V736.911L524.061 764.318C535.353 759.298 546.388 753.716 557.123 747.593L537.321 713.298Z" fill="white" stroke="white" stroke-width="3.00672" stroke-linecap="round" stroke-linejoin="round"/>
<path d="M655.17 664.813L625.026 639.52C612.651 654.203 599.02 667.78 584.289 680.099L609.752 710.448C626.187 696.582 641.383 681.313 655.17 664.813Z" fill="white" stroke="white" stroke-width="3.00672" stroke-linecap="round" stroke-linejoin="round"/>
<path d="M719.338 553.758L682.124 540.216C675.586 558.268 667.489 575.716 657.924 592.364L692.043 612.06C702.815 593.454 711.948 573.947 719.338 553.758Z" fill="white" stroke="white" stroke-width="3.00672" stroke-linecap="round" stroke-linejoin="round"/>
<path d="M742.952 427.446H703.083C702.795 446.678 700.83 465.848 697.211 484.738L736.298 491.633C740.378 470.471 742.604 448.995 742.952 427.446Z" fill="white" stroke="white" stroke-width="3.00672" stroke-linecap="round" stroke-linejoin="round"/>
<path d="M719.943 300.912L682.412 314.572C689.122 332.588 694.249 351.154 697.734 370.061L736.968 363.143C733.112 341.944 727.416 321.121 719.943 300.912Z" fill="white" stroke="white" stroke-width="3.00672" stroke-linecap="round" stroke-linejoin="round"/>
<path d="M655.316 189.951L624.902 215.473C637.224 230.193 648.242 245.957 657.829 262.588L692.442 242.604C681.618 224.009 669.196 206.391 655.316 189.951Z" fill="white" stroke="white" stroke-width="3.00672" stroke-linecap="round" stroke-linejoin="round"/>
<path d="M498.709 80.1117C478.572 72.4424 457.804 66.5436 436.643 62.4824L429.678 101.981C448.552 105.595 467.075 110.848 485.038 117.678L498.709 80.1117Z" fill="white" stroke="white" stroke-width="3.00672" stroke-linecap="round" stroke-linejoin="round"/>
<path d="M540.592 135.932L537.021 142.115C537.793 142.607 538.562 143.103 539.329 143.601L540.592 135.932Z" fill="white" stroke="white" stroke-width="3.00672" stroke-linecap="round" stroke-linejoin="round"/>
<path d="M252.482 758.604C254.721 758.604 256.535 756.789 256.535 754.551C256.535 752.313 254.721 750.498 252.482 750.498C250.244 750.498 248.43 752.313 248.43 754.551C248.43 756.789 250.244 758.604 252.482 758.604Z" fill="white"/>
<path d="M301.16 763.958C303.399 763.958 305.213 762.144 305.213 759.905C305.213 757.667 303.399 755.853 301.16 755.853C298.922 755.853 297.107 757.667 297.107 759.905C297.107 762.144 298.922 763.958 301.16 763.958Z" fill="white"/>
<path d="M388.955 763.958C391.193 763.958 393.008 762.144 393.008 759.905C393.008 757.667 391.193 755.853 388.955 755.853C386.717 755.853 384.902 757.667 384.902 759.905C384.902 762.144 386.717 763.958 388.955 763.958Z" fill="white"/>
<path d="M451.803 773.03C454.041 773.03 455.856 771.216 455.856 768.978C455.856 766.739 454.041 764.925 451.803 764.925C449.565 764.925 447.75 766.739 447.75 768.978C447.75 771.216 449.565 773.03 451.803 773.03Z" fill="white"/>
<path d="M481.035 710.387C483.273 710.387 485.088 708.572 485.088 706.334C485.088 704.096 483.273 702.281 481.035 702.281C478.797 702.281 476.982 704.096 476.982 706.334C476.982 708.572 478.797 710.387 481.035 710.387Z" fill="white"/>
<path d="M489.389 748.353C491.627 748.353 493.441 746.538 493.441 744.3C493.441 742.062 491.627 740.247 489.389 740.247C487.15 740.247 485.336 742.062 485.336 744.3C485.336 746.538 487.15 748.353 489.389 748.353Z" fill="white"/>
<path d="M270.707 708.868C272.945 708.868 274.76 707.054 274.76 704.816C274.76 702.577 272.945 700.763 270.707 700.763C268.469 700.763 266.654 702.577 266.654 704.816C266.654 707.054 268.469 708.868 270.707 708.868Z" fill="white"/>
<path d="M511.803 249.242C516.61 249.242 520.508 245.345 520.508 240.537C520.508 235.729 516.61 231.832 511.803 231.832C506.995 231.832 503.098 235.729 503.098 240.537C503.098 245.345 506.995 249.242 511.803 249.242Z" fill="white"/>
<path d="M585.897 139.712C590.704 139.712 594.602 135.815 594.602 131.007C594.602 126.199 590.704 122.302 585.897 122.302C581.089 122.302 577.191 126.199 577.191 131.007C577.191 135.815 581.089 139.712 585.897 139.712Z" fill="white"/>
<path d="M214.889 256.76C219.697 256.76 223.594 252.863 223.594 248.055C223.594 243.247 219.697 239.35 214.889 239.35C210.081 239.35 206.184 243.247 206.184 248.055C206.184 252.863 210.081 256.76 214.889 256.76Z" fill="white"/>
<path d="M124.15 153.672C128.958 153.672 132.856 149.775 132.856 144.967C132.856 140.159 128.958 136.262 124.15 136.262C119.343 136.262 115.445 140.159 115.445 144.967C115.445 149.775 119.343 153.672 124.15 153.672Z" fill="white"/>
<path d="M569.791 97.7197L547.241 120.27L539.724 163.222L511.8 196.513L489.25 202.955L477.998 219.598V262.52L493.566 275.803H526.211L586.956 235.941L607.375 199.731L621.334 162.147V121.345L600.933 97.7197H569.791ZM585.899 112.924C590.695 112.924 595.293 114.829 598.684 118.22C602.075 121.611 603.98 126.21 603.981 131.005C603.981 133.38 603.514 135.732 602.606 137.926C601.697 140.12 600.365 142.114 598.686 143.794C597.007 145.473 595.014 146.806 592.82 147.715C590.626 148.624 588.274 149.092 585.899 149.092C583.524 149.093 581.172 148.625 578.977 147.717C576.782 146.808 574.788 145.476 573.108 143.796C571.429 142.116 570.097 140.122 569.188 137.927C568.279 135.733 567.812 133.38 567.812 131.005C567.812 128.63 568.28 126.279 569.189 124.085C570.099 121.891 571.431 119.897 573.111 118.218C574.79 116.539 576.784 115.207 578.978 114.299C581.173 113.39 583.524 112.923 585.899 112.924ZM511.8 222.452C514.176 222.451 516.528 222.919 518.722 223.827C520.917 224.736 522.911 226.068 524.591 227.748C526.271 229.428 527.603 231.422 528.512 233.617C529.42 235.811 529.888 238.163 529.887 240.539C529.887 242.914 529.419 245.265 528.51 247.459C527.601 249.653 526.268 251.647 524.589 253.326C522.909 255.005 520.915 256.337 518.721 257.245C516.527 258.154 514.175 258.621 511.8 258.62C507.005 258.62 502.406 256.715 499.015 253.324C495.624 249.933 493.719 245.334 493.719 240.539C493.718 238.164 494.185 235.812 495.094 233.618C496.002 231.424 497.334 229.43 499.013 227.75C500.692 226.071 502.686 224.738 504.88 223.829C507.074 222.92 509.425 222.452 511.8 222.452Z" fill="white"/>
<path d="M110.491 106.481L89.2324 135.333V163.427L107.455 199.114L149.977 250.751L202.366 287.953H232.739L252.482 262.138V227.972L202.366 192.279L167.436 143.684V126.219L139.342 106.481H110.491ZM124.15 126.882C128.946 126.883 133.544 128.788 136.935 132.179C140.326 135.57 142.231 140.169 142.232 144.964C142.232 147.339 141.765 149.691 140.857 151.885C139.948 154.079 138.616 156.073 136.937 157.753C135.258 159.432 133.265 160.765 131.071 161.674C128.877 162.583 126.525 163.051 124.15 163.051C121.775 163.051 119.424 162.583 117.23 161.674C115.036 160.765 113.042 159.432 111.363 157.753C109.684 156.073 108.352 154.079 107.444 151.885C106.536 149.691 106.068 147.339 106.069 144.964C106.069 140.169 107.974 135.57 111.365 132.179C114.756 128.788 119.355 126.883 124.15 126.882ZM214.886 229.968C217.262 229.968 219.614 230.435 221.809 231.344C224.003 232.253 225.997 233.585 227.677 235.265C229.357 236.944 230.689 238.939 231.598 241.133C232.507 243.328 232.974 245.68 232.973 248.056C232.973 250.431 232.505 252.782 231.596 254.976C230.687 257.17 229.355 259.164 227.675 260.843C225.995 262.522 224.001 263.853 221.807 264.762C219.613 265.67 217.261 266.138 214.886 266.137C210.091 266.137 205.492 264.231 202.101 260.841C198.71 257.45 196.805 252.851 196.805 248.056C196.804 245.681 197.272 243.329 198.18 241.135C199.088 238.94 200.42 236.946 202.099 235.267C203.778 233.587 205.772 232.255 207.966 231.346C210.16 230.437 212.511 229.969 214.886 229.968Z" fill="white"/>
<path d="M388.312 655.037L374.353 740.94H346.429V707.655L324.953 671.14L304.341 693.69V723.546L277.709 746.953L230.459 731.92V778.524H373.278L385.088 800H421.597L431.263 777.449L442.004 795.707H472.071L478.601 779.599L447.583 745.239L444.147 723.546H431.48L421.597 697.989L416.23 710.873V736.647L403.345 723.757L407.638 692.621L388.312 655.037ZM252.481 746.131C253.587 746.131 254.682 746.349 255.704 746.772C256.726 747.195 257.654 747.815 258.436 748.597C259.218 749.379 259.838 750.308 260.262 751.33C260.685 752.351 260.902 753.447 260.902 754.553C260.901 756.785 260.013 758.926 258.434 760.504C256.855 762.082 254.713 762.968 252.481 762.968C250.248 762.968 248.107 762.082 246.527 760.504C244.948 758.926 244.061 756.785 244.06 754.553C244.059 753.447 244.277 752.351 244.7 751.33C245.123 750.308 245.743 749.379 246.525 748.597C247.307 747.815 248.236 747.195 249.258 746.772C250.28 746.349 251.375 746.131 252.481 746.131ZM301.158 751.487C303.391 751.487 305.532 752.373 307.111 753.951C308.69 755.529 309.578 757.67 309.579 759.902C309.579 761.008 309.362 762.103 308.939 763.125C308.516 764.147 307.895 765.076 307.113 765.858C306.331 766.64 305.403 767.26 304.381 767.683C303.359 768.106 302.264 768.324 301.158 768.323C298.925 768.323 296.785 767.435 295.206 765.856C293.628 764.276 292.742 762.135 292.743 759.902C292.744 757.671 293.631 755.531 295.208 753.953C296.786 752.375 298.926 751.488 301.158 751.487ZM388.952 751.487C391.184 751.487 393.326 752.373 394.905 753.951C396.484 755.529 397.372 757.67 397.373 759.902C397.373 761.008 397.156 762.103 396.733 763.125C396.309 764.147 395.689 765.076 394.907 765.858C394.125 766.64 393.197 767.26 392.175 767.683C391.153 768.106 390.058 768.324 388.952 768.323C386.719 768.323 384.578 767.435 383 765.856C381.422 764.276 380.536 762.135 380.537 759.902C380.537 757.671 381.424 755.531 383.002 753.953C384.58 752.375 386.72 751.488 388.952 751.487ZM451.799 760.56C454.032 760.559 456.173 761.446 457.753 763.024C459.332 764.602 460.219 766.743 460.22 768.975C460.221 770.081 460.003 771.176 459.58 772.198C459.157 773.22 458.537 774.149 457.755 774.931C456.973 775.713 456.044 776.333 455.022 776.756C454 777.179 452.905 777.397 451.799 777.396C449.567 777.396 447.426 776.508 445.848 774.929C444.27 773.349 443.383 771.208 443.384 768.975C443.385 766.744 444.272 764.604 445.85 763.026C447.428 761.448 449.568 760.561 451.799 760.56Z" fill="white"/>
<path d="M509.125 434.501L512.925 545.362L504.568 561.306V577.25L490.145 581.807L481.789 656.981L446.102 707.096L434.715 708.612L435.473 717.726L447.623 716.962L451.417 731.391L453.695 742.783L485.589 782.264L513.683 774.671L524.312 735.19L525.07 717.726L515.962 719.241L524.312 651.666C524.312 651.666 531.136 650.229 533.426 647.866C537.386 643.783 537.586 637.279 539.499 631.923C542.728 622.877 546.148 613.869 548.613 604.586C550.269 598.349 552.849 592.044 552.406 585.606C551.984 579.457 546.334 568.141 546.334 568.141L542.535 503.597L530.39 492.967L535.705 484.617L509.125 434.501ZM481.031 697.918C483.264 697.917 485.405 698.803 486.984 700.382C488.564 701.96 489.451 704.1 489.452 706.333C489.453 707.439 489.235 708.534 488.812 709.556C488.389 710.578 487.769 711.506 486.987 712.288C486.204 713.07 485.276 713.691 484.254 714.114C483.232 714.537 482.137 714.754 481.031 714.754C478.799 714.753 476.658 713.866 475.08 712.286C473.501 710.707 472.615 708.566 472.616 706.333C472.617 704.101 473.504 701.962 475.082 700.384C476.66 698.806 478.8 697.919 481.031 697.918ZM489.382 735.883C491.614 735.883 493.756 736.769 495.335 738.347C496.914 739.925 497.802 742.066 497.803 744.299C497.803 745.405 497.586 746.5 497.163 747.522C496.74 748.544 496.119 749.472 495.337 750.254C494.555 751.036 493.627 751.656 492.605 752.08C491.583 752.503 490.488 752.72 489.382 752.72C487.149 752.719 485.008 751.831 483.43 750.252C481.852 748.673 480.966 746.531 480.967 744.299C480.968 742.067 481.854 739.927 483.432 738.349C485.01 736.771 487.15 735.884 489.382 735.883Z" fill="white"/>
<path d="M247.923 456.523L225.902 521.82L228.18 537.006L218.308 529.413C218.308 529.413 213.487 560.783 214.515 576.493C215.697 594.574 225.902 629.645 225.902 629.645C225.902 629.645 224.104 654.996 225.144 667.61C226.731 686.856 235.773 724.556 235.773 724.556L278.296 739.742L297.275 715.448V687.354C297.275 687.354 277.182 650.176 269.945 630.402C258.53 599.214 244.887 533.97 244.887 533.97L247.923 456.523ZM270.703 696.397C271.809 696.397 272.904 696.615 273.926 697.038C274.948 697.461 275.876 698.081 276.658 698.863C277.44 699.645 278.06 700.574 278.484 701.596C278.907 702.617 279.124 703.713 279.124 704.819C279.123 707.051 278.235 709.192 276.656 710.77C275.077 712.348 272.935 713.234 270.703 713.234C268.471 713.233 266.331 712.346 264.753 710.768C263.175 709.19 262.288 707.05 262.288 704.819C262.287 702.586 263.173 700.444 264.751 698.865C266.329 697.286 268.47 696.398 270.703 696.397Z" fill="white"/>
<path d="M475.718 193.8L457.495 210.507L448.381 211.265L440.788 203.672L419.53 220.379H394.472L388.4 216.58L377.764 228.73L370.171 224.93L305.633 231.766L252.481 202.151L227.423 206.708L257.795 229.487L258.553 265.175L236.537 292.83H203.128L163.961 265.902L176.549 297.826L189.457 309.218L196.293 338.827L222.866 350.978L199.329 365.406L247.166 397.294H263.867L290.446 428.43V447.41L302.597 461.075L303.354 490.69L276.018 515.748L281.332 541.564L293.482 554.471L314.747 641.795L323.097 600.794L335.248 632.681L333.727 650.904L358.027 693.427L361.821 628.124L385.358 581.808L397.508 599.273L392.951 609.902L416.494 642.553L421.808 596.237L453.696 641.038L461.289 543.085L469.646 535.492L471.161 502.083L437.752 474.746C437.752 474.746 442.569 441.435 449.145 426.151C454.055 414.738 469.646 395.016 469.646 395.016L512.163 360.092L493.183 340.349L492.425 333.513L537.983 300.862L557.721 259.102L529.627 279.603H491.661L475.717 265.175L473.439 219.616L484.832 203.672L475.718 193.8ZM443.067 326.677L460.532 328.198L448.381 338.827C448.381 338.827 450.189 361.598 444.588 370.721C441.723 375.387 430.916 379.829 430.916 379.829L409.658 375.278L425.602 393.5L439.273 395.778L421.808 399.572L405.859 392.742L380.806 365.406L443.067 326.677ZM260.831 338.07L311.705 363.127L343.598 363.885L355.748 348.699L357.264 366.922L310.947 400.336L282.096 387.422L312.468 385.907L270.703 360.849L269.188 347.184L260.831 338.07ZM383.842 476.261L419.53 521.82L408.137 530.177L409.658 542.327L388.4 555.234L383.842 476.261ZM366.378 477.782V562.064L350.434 533.97L349.67 520.305L343.598 511.954L355.748 512.712L366.378 477.782Z" fill="white"/>
<path d="M487.104 389.263L518.782 359.733L496.768 338.793L540.795 305.504L548.312 312.485H568.715L631.533 282.417L583.748 346.848H566.029V367.787L546.164 383.357L533.815 384.431L527.909 416.109L490.325 404.297L487.104 389.263Z" fill="white"/>
<path d="M222.404 422.014L244.418 401.075L193.948 364.564L215.961 352.215L191.263 340.403L185.894 311.41L169.787 318.39L87.6387 305.504L116.095 323.759L175.693 384.967H190.189L222.404 422.014Z" fill="white"/>
<path d="M179.967 155.454L185.661 152.417V111.414L171.235 82.9402L194.014 25.2314H219.831L251.722 6.25H141.242L110.49 48.012L84.6733 66.2354L74.043 154.316L80.8767 162.954H86.1687L85.5675 134.165L109.385 103.196H141.331L170.453 125.036L170.185 143.893L179.967 155.454Z" fill="white"/>
<path d="M626.165 143.893L647.641 139.061L636.903 62.8189L574.084 0L488.715 4.83224L482.809 9.66448L491.936 16.1074L526.299 23.6243L526.835 41.8793L538.647 46.7115V63.8928L547.775 75.7049L542.943 88.0539V107.383L547.775 113.826L567.104 93.4239H603.077L627.238 122.953L626.165 143.893Z" fill="white"/>
</g>
<defs>
<clipPath id="clip0_130_11678">
<rect width="744.333" height="800" fill="white" transform="translate(0.121094)"/>
</clipPath>
</defs>
</svg>
