<svg width="216" height="215" viewBox="0 0 216 215" fill="none" xmlns="http://www.w3.org/2000/svg">
<path d="M176.035 0C174.48 2.62893 172.991 5.08313 171.525 7.47564C172.989 5.08831 174.482 2.62549 176.035 0ZM169.975 9.98344C168.988 11.5727 168.024 13.1005 167.074 14.5862C168.023 13.1031 168.988 11.5707 169.975 9.98344ZM165.563 16.9452C164.354 18.8064 163.178 20.5752 162.025 22.2753C163.175 20.5809 164.357 18.8006 165.563 16.9452ZM95.1738 24.4573C78.4179 50.64 79.0302 57.725 68.557 54.8289C68.6113 62.0747 68.9693 64.3701 54.7571 74.352C59.4163 80.2258 50.7182 80.7172 47.8599 79.5193C50.1368 88.3349 44.9918 85.8761 39.8704 91.5022C46.5598 89.0404 49.1576 89.7035 51.8758 93.3416C52.077 88.2762 56.5771 83.0258 60.6601 80.4404C74.1641 87.1283 25.4052 127.636 36.4218 95.7708C26.2034 108.649 33.78 113.558 37.7698 113.558C41.6339 113.558 59.9161 106.158 68.3154 79.5445C69.8405 80.4747 70.3711 82.1454 70.3711 83.8777C70.3711 86.54 66.758 87.5576 66.758 90.2637C66.758 92.9698 67.3557 93.5039 69.9021 94.6222C67.1208 83.9939 79.1716 81.6293 86.8613 79.6288C81.1356 73.6486 84.5063 68.0502 88.2037 68.0502C91.9012 68.0502 94.337 69.0962 94.337 76.9778C95.0632 95.0264 45.7228 105.954 45.7228 148.325C45.7228 180.529 60.0894 215.656 99.2936 214.991C130.608 214.459 164.524 170.743 178.411 126.892C181.084 129.35 180.853 135.039 180.956 145.028C185.059 128.188 186.062 111.579 184.75 94.4088C178.246 110.479 169.245 123.192 157.947 136.331C166.313 130.353 170.642 125.112 175.185 125.499C153.941 183.877 125.002 202.808 99.2936 202.808C69.4734 202.808 67.1051 169.918 67.1051 148.325C67.1051 129.699 85.838 94.4935 118.407 107.038C146.132 88.4361 151.9 67.539 150.317 38.0269C137.138 53.8969 126.79 59.4871 112.706 66.7051C129.31 71.2573 115.522 87.3617 106.941 85.9053C107.914 81.0689 109.605 78.6523 108.71 73.6359C107.815 68.6195 102.025 66.4609 110.358 58.9964C99.108 60.1786 103.04 58.0855 103.587 51.3494C83.0809 63.6134 97.6463 35.9564 98.3303 27.9592C85.0212 53.2121 84.0716 54.5044 95.1738 24.4573ZM160.009 25.1903C159.458 25.9794 158.91 26.759 158.371 27.5127C158.91 26.7604 159.459 25.9779 160.009 25.1903ZM63.4178 72.0071C63.625 71.997 63.7847 72.0656 63.8756 72.2374C64.6024 73.6112 59.4756 77.0936 58.7701 76.5509C58.1528 76.0759 61.9675 72.0786 63.4178 72.0071Z" fill="white"/>
<path d="M176.036 0C166.622 15.9129 158.933 27.3018 152.05 35.9011C152.409 38.3607 152.646 40.8383 152.809 43.3205C162.684 34.6771 172.008 26.1145 180.973 12.3873C179.695 8.34242 178.078 4.21636 176.036 0ZM182.001 15.9033C175.287 25.3383 164.328 40.1201 152.983 47.4403C153.027 49.7532 153.009 52.0669 152.862 54.3711C164.747 47.2568 174.243 38.0852 184.23 27.6447C183.817 23.8229 183.073 19.9044 182.001 15.9033ZM184.545 31.391C172.816 44.4411 162.64 52.845 152.57 57.7691C152.35 59.8058 152.062 61.8337 151.671 63.8434C161.279 59.3482 176.456 50.1938 184.149 44.1012C184.642 39.993 184.792 35.7538 184.545 31.391ZM183.559 48.0693C172.114 55.5925 162.739 62.0867 150.933 67.2021C150.545 68.77 150.106 70.3269 149.601 71.8667C164.195 70.853 175.776 63.4679 180.467 59.9989C181.797 56.1673 182.835 52.1834 183.559 48.0693ZM178.541 65.0285C172.305 68.4274 158.817 74.9962 148.7 74.4335C148.001 76.2938 147.215 78.1289 146.327 79.9321C157.226 80.9823 160.442 81.0422 171.141 79.1289C173.949 74.7105 176.45 69.9939 178.541 65.0285ZM169.442 81.7238C158.742 83.5534 154.678 83.3358 145.004 82.4539C144.193 83.9209 143.336 85.3728 142.384 86.7899C149.445 90.1678 153.132 91.0261 160.894 92.8698C163.874 89.4028 166.763 85.6825 169.442 81.7238ZM140.994 88.7754C140.078 90.0257 139.121 91.2599 138.085 92.4626C140.535 94.4839 150.029 100.9 152.132 102.191C154.434 99.9425 156.743 97.5093 159.023 94.9648C154.729 94.3869 146.063 91.4113 140.994 88.7754ZM136.616 94.1055C134.942 95.9123 133.128 97.6612 131.154 99.3373L142.522 110.882C144.93 108.86 147.463 106.589 150.023 104.179C147.387 102.795 139.131 96.5553 136.616 94.1055ZM129.469 100.736C126.454 103.13 123.107 105.371 119.398 107.431C124.3 109.447 129.505 112.534 135.004 116.92C136.806 115.548 138.791 113.964 140.84 112.283L129.469 100.736Z" fill="white"/>
</svg>
