<svg width="649" height="800" viewBox="0 0 649 800" fill="none" xmlns="http://www.w3.org/2000/svg">
<g clip-path="url(#clip0_744_104)">
<path d="M324.341 0L291.803 147.978V473.029L143.875 548.797L293.326 625.343V658.858L207.429 716.768V799.998H233.843L277.206 752.384L324.341 799.998L371.477 752.368L414.831 799.998L441.237 800V716.768L355.357 658.858V625.343L504.791 548.797L356.88 473.029V147.978L324.341 0Z" fill="white"/>
<path d="M468.843 276.062L450.654 358.831V510.218L487.049 528.854V358.831L468.843 276.062Z" fill="white"/>
<path d="M398.768 138.362L373.479 253.421V470.696L424.073 496.597V253.421L398.768 138.362Z" fill="white"/>
<path d="M179.838 276.062L161.633 358.831V528.854L198.027 510.218V358.831L179.838 276.062Z" fill="white"/>
<path d="M249.897 138.362L224.607 253.421V496.597L275.202 470.696V253.421L249.897 138.362Z" fill="white"/>
<path d="M439.167 641.461L399.334 661.865L359.5 641.461L399.334 621.057L439.167 641.461Z" fill="white"/>
<path d="M289.167 641.461L249.334 661.865L209.5 641.461L249.334 621.057L289.167 641.461Z" fill="white"/>
</g>
<defs>
<clipPath id="clip0_744_104">
<rect width="360.916" height="800" fill="white" transform="translate(143.875)"/>
</clipPath>
</defs>
</svg>
