<svg width="208" height="208" viewBox="0 0 208 208" fill="none" xmlns="http://www.w3.org/2000/svg">
<g clip-path="url(#clip0_183_15116)">
<path d="M15.5605 122.495C15.8705 122.795 16.1305 122.915 16.1805 123.095C17.8305 128.755 22.2205 132.704 25.2205 137.525C25.5905 138.115 26.4705 138.615 27.1805 138.725C30.6905 139.285 33.5005 138.515 35.2505 134.915C36.7405 131.855 38.7205 129.025 40.5005 126.115C41.1205 125.105 41.7905 124.125 42.6205 122.845C43.2705 123.625 43.7305 124.095 44.1005 124.625C46.9505 128.765 49.8105 132.895 52.6105 137.065C54.4405 139.795 57.1705 140.954 60.2205 140.895C61.4805 140.865 63.1705 139.785 63.8605 138.675C65.6305 135.875 66.9305 132.775 68.4505 129.815C69.5805 127.615 70.7605 125.445 72.2105 122.715C73.2805 124.275 74.0305 125.185 74.5805 126.205C76.6905 130.145 78.6705 134.155 80.8705 138.045C81.3205 138.845 82.4405 139.435 83.3805 139.765C84.3505 140.105 85.5205 139.855 86.5305 140.145C88.6805 140.755 89.7205 139.685 90.2605 137.865C90.6205 136.635 90.9705 135.345 90.9805 134.075C91.0805 125.335 91.0905 116.595 91.1105 107.855C91.1105 107.215 90.8805 106.565 90.6205 105.185C88.8605 106.815 87.3805 107.935 86.2105 109.325C84.3605 111.535 82.7005 113.915 81.0005 116.255C78.6405 119.495 76.0805 119.485 74.1005 116.035C71.9905 112.345 70.0605 108.555 68.0605 104.795C66.9105 102.645 65.4405 102.185 63.7605 103.855C59.5105 108.065 55.3805 112.385 51.3005 116.765C49.8705 118.305 49.2205 118.395 48.0705 116.605C45.3705 112.385 42.6605 108.165 39.9405 103.965C38.3705 101.535 35.5905 101.415 33.9205 103.755C31.0205 107.835 28.1305 111.935 25.3005 116.075C23.5805 118.585 21.1905 118.765 19.7205 116.125C17.1505 111.475 14.7505 106.715 12.5105 101.905C11.4005 99.5245 9.73048 97.8445 7.28048 97.6545C2.93048 97.3145 1.86048 93.9445 1.49048 90.9445C0.710479 84.8445 0.700479 78.6545 0.500479 72.5045C0.310479 66.7245 0.190479 60.9445 0.280479 55.1645C0.300479 54.0145 1.11048 52.6045 1.99048 51.7845C7.43048 46.7045 13.0705 41.8345 18.4905 36.7245C20.1505 35.1645 21.7305 34.2445 24.0905 34.3245C28.8805 34.4945 33.6905 34.3945 38.4905 34.3945C41.8505 34.3945 42.0205 34.1645 42.9405 30.8345C44.8405 23.9445 44.2605 17.1145 42.6905 10.2845C41.9805 7.18451 42.8605 5.93451 46.1105 5.74451C48.6205 5.59451 51.1405 5.63451 53.6505 5.66451C57.0805 5.71451 60.5005 5.80451 63.9305 5.94451C66.6305 6.05451 68.0705 8.54451 67.2705 11.1145C66.3505 14.0745 65.4605 17.0845 65.0405 20.1445C63.9405 28.0645 70.8105 33.7445 76.9905 34.0745C78.4305 34.1545 79.9605 34.3645 81.3105 33.9945C82.9105 33.5645 84.6605 32.8845 85.8305 31.7745C89.1105 28.6645 90.9805 24.8745 90.3905 20.1245C90.1605 18.2445 90.5505 16.2945 90.3005 14.4245C90.0705 12.6845 89.6005 10.9045 88.8405 9.33451C87.6405 6.88451 88.6105 4.37451 91.3605 4.34451C97.0505 4.28451 102.75 4.59451 108.44 4.76451C109.35 4.79451 110.26 4.88451 111.17 4.91451C114.7 5.02451 115.93 7.19451 114.52 10.4745C113.49 12.8745 112.55 15.3545 111.94 17.8845C111.02 21.6845 111.52 25.4345 113.15 29.0145C114.31 31.5645 116.18 33.2845 118.96 33.6145C121.59 33.9245 124.28 34.0945 126.92 33.9545C129.42 33.8245 131.37 32.3745 132.53 30.1345C135.65 24.1245 135.81 18.0645 132.73 11.9645C132.32 11.1545 131.95 10.3045 131.65 9.45451C130.84 7.16451 132.1 5.21451 134.58 5.11451C140.36 4.88451 146.15 4.64451 151.93 4.63451C153.78 4.63451 155.68 5.23451 157.47 5.80451C158.77 6.22451 159.37 7.29451 158.78 8.72451C158.66 9.00451 158.62 9.34451 158.44 9.56451C153.81 15.3945 156.31 22.1645 156.05 28.5445C155.96 30.6945 160.48 34.0945 163.06 34.3545C163.89 34.4345 164.75 34.5245 165.57 34.4145C169.84 33.8445 173.07 35.5445 175.64 38.8245C176.01 39.3045 176.4 39.8045 176.89 40.1545C179.6 42.0645 180.58 44.7145 180.76 47.9445C180.91 50.6845 182.9 52.2645 186.1 52.6045C191.9 53.2145 197.69 53.1045 203.28 51.2545C205.27 50.5945 206.17 51.3545 206.78 52.9645C207.1 53.8045 207.41 54.7245 207.38 55.6045C207.21 61.2345 206.96 66.8545 206.69 72.4845C206.65 73.2345 206.43 73.9845 206.21 74.7145C205.67 76.4845 204.77 76.9745 202.78 76.3445C198.75 75.0545 194.63 73.8745 190.46 73.1945C186.69 72.5745 184.29 75.6645 181.57 77.6345C181.24 77.8745 181.17 78.6245 181.19 79.1345C181.3 83.1645 181.3 87.2145 181.65 91.2245C182.02 95.4645 185.87 96.1545 188.87 97.1045C191.24 97.8545 193.99 97.4445 196.57 97.4745C199.06 97.5145 200.69 95.8145 202.54 94.4945C203.17 94.0445 204.35 93.7945 204.99 94.0845C205.61 94.3645 206.18 95.4445 206.21 96.1945C206.45 102.205 206.64 108.225 206.68 114.235C206.71 118.155 204.79 119.365 201.51 117.415C198.31 115.505 195.07 114.955 191.45 115.645C189.82 115.955 188.1 115.725 186.43 115.855C183.92 116.035 182.64 117.305 182 119.715C180.58 125.135 180.95 130.595 181.59 136.045C181.91 138.755 185.64 141.835 189.21 142.385C193.25 143.005 197.25 142.794 201.17 141.505C204.25 140.484 206.32 141.475 206.52 144.705C206.83 149.695 206.77 154.745 206.42 159.745C206.21 162.715 204.61 163.545 201.68 162.695C195.1 160.785 188.41 159.674 181.62 160.775C178.85 161.225 176.12 162.445 173.62 163.785C172.55 164.355 171.97 166.055 171.41 167.345C167.98 175.225 164.63 183.135 161.25 191.035C160.15 193.605 158.94 196.145 157.92 198.745C156.77 201.665 154.34 202.825 151.61 202.795C142.33 202.705 133.05 202.135 123.77 202.155C119.51 202.165 117.55 200.405 116.02 196.585C114.01 191.594 111.12 186.965 108.67 182.155C107.81 180.475 107.04 178.735 106.39 176.955C105.42 174.315 103.13 172.535 100.11 172.485C81.3005 172.155 62.5005 171.895 43.6905 171.515C39.9805 171.435 36.2905 170.805 32.5805 170.625C28.7105 170.435 24.8305 170.575 20.9605 170.345C19.8205 170.275 18.3805 169.745 17.6705 168.925C13.6505 164.245 9.79048 159.435 5.95048 154.605C5.42048 153.945 5.18048 152.975 5.03048 152.115C4.85048 151.075 5.07048 149.955 4.84048 148.925C2.83048 140.235 7.59048 133.945 12.2405 127.585C13.4205 126.005 14.3905 124.305 15.5605 122.495ZM130.61 56.3545C129.24 56.3545 127.86 56.2345 126.5 56.3745C122.16 56.8145 118.12 58.1145 115.06 61.3845C110.19 66.6045 110.77 73.2645 110.51 79.6745C110.49 80.0945 110.76 80.5445 110.93 80.9645C111.64 82.7245 112.31 84.5145 113.1 86.2345C113.54 87.1845 113.98 88.3645 114.78 88.8845C120.23 92.4045 125.36 96.4645 132.57 96.0745C140.48 95.6445 147.13 91.5445 149.69 84.0645C150.54 81.5745 150.48 78.6945 150.48 75.9945C150.44 63.9745 142.54 56.2245 130.61 56.3545ZM25.3505 76.3045C33.0205 71.8345 40.0305 67.7545 47.0405 63.6745C47.0105 63.3645 46.9905 63.0545 46.9605 62.7445C45.9005 62.3845 44.8605 61.7545 43.7905 61.7045C39.4105 61.4945 35.0205 61.3945 30.6305 61.3745C25.1105 61.3445 24.6405 61.7945 24.7205 67.2245C24.7605 70.1045 25.1105 72.9845 25.3505 76.3045Z" fill="white"/>
<path d="M146.21 77.0542C146.66 87.3342 137.24 92.6742 127.79 90.8242C123.12 89.9042 119.61 87.2342 116.52 83.9142C115.55 82.8742 114.94 81.2842 114.68 79.8542C113.89 75.4342 114.35 71.1242 116.36 67.0042C118.6 62.3942 122.62 60.8442 127.3 60.4042C128.88 60.2542 130.49 60.4042 132.09 60.4142C138.71 60.4442 144.05 64.6842 145.47 71.2042C145.89 73.1142 145.97 75.1042 146.21 77.0542ZM130.55 84.9142C136.89 85.2742 138.42 80.2742 139.06 75.4842C139.54 71.8642 134.36 67.7942 128.22 68.1542C123.71 68.4242 120.12 71.7842 120.17 76.3042C120.21 80.9442 124.97 84.8942 130.55 84.9142Z" fill="white"/>
</g>
<defs>
<clipPath id="clip0_183_15116">
<rect width="207.132" height="207.132" fill="white" transform="translate(0.25)"/>
</clipPath>
</defs>
</svg>
