<svg width="938" height="800" viewBox="0 0 938 800" fill="none" xmlns="http://www.w3.org/2000/svg">
<g clip-path="url(#clip0_130_10561)">
<path d="M937.771 482.898V378.005H768.511C773.547 557.409 663.107 631.54 507.385 633.873V800H610.786V731.867C632.375 727.481 652.933 721.663 672.37 714.373L706.326 774.045L794.336 723.966L760.6 664.675C775.961 652.269 790.05 638.3 802.757 622.708L861.157 657.576L913.078 570.677L853.016 534.819C859.284 518.556 864.642 501.263 869.027 482.918H937.771V482.898Z" fill="white"/>
<path d="M165.564 484.759C174.214 476.109 174.214 462.084 165.564 453.434C156.914 444.784 142.89 444.784 134.24 453.434C125.589 462.084 125.589 476.109 134.24 484.759C142.89 493.409 156.914 493.409 165.564 484.759Z" fill="white"/>
<path d="M395.424 622.265L319.285 754.138L352.125 773.099L428.264 641.226L395.424 622.265Z" fill="white"/>
<path d="M338.684 580.793L225.999 683.215L251.505 711.277L364.19 608.855L338.684 580.793Z" fill="white"/>
<path d="M291.611 533.607C279.545 525.115 241.533 553.824 218.271 555.316C216.008 555.316 210.741 556.088 208.618 553.294C206.495 550.49 210.11 544.942 210.741 543.641C221.886 528.64 245.288 503.155 260.679 483.719C266.086 472.093 250.495 437.206 233.852 460.798C219.092 481.786 161.914 541.227 143.099 575.534C140.585 580.361 145.121 599.657 156.227 603.422C175.913 609.691 294.605 562.987 306.912 562.556C317.576 562.176 299.041 538.914 291.611 533.607Z" fill="white"/>
<path d="M937.772 84.4048H788.058V300.76H937.772V84.4048Z" fill="white"/>
<path d="M777.343 115.868H722.578V268.145H777.343V115.868Z" fill="white"/>
<path d="M322.012 112.533H269.471V275.515H322.012V112.533Z" fill="white"/>
<path d="M54.4178 141.243H0.09375V245.415H54.4178V141.243Z" fill="white"/>
<path d="M65.1826 301.1L153.042 408.407H256.874V7.4502H65.1826V301.1Z" fill="white"/>
<path d="M514.725 128.986C514.034 132.921 512.712 136.716 510.819 140.231V259.404H709.65V129.126H684.176V194.355H600.802V177.091L525.289 176.951V128.996H514.725V128.986Z" fill="white"/>
<path d="M438.871 193.984V233.649C448.494 240.067 468.151 255.158 476.462 259.554C487.467 259.554 495.959 260.085 501.937 259.554V164.114C489.68 183.51 469.653 194.515 438.871 193.984Z" fill="white"/>
<path d="M350.381 154.61C361.376 143.876 374.244 135.244 388.353 129.136H331.365V259.413L350.371 259.553V154.61H350.381Z" fill="white"/>
<path d="M669.937 65.6196H612.568V181.347H669.937V65.6196Z" fill="white"/>
<path d="M590.088 26.6265H535.714V167.879H590.088V26.6265Z" fill="white"/>
<path d="M516.547 0H459.569V112.543H516.547V0Z" fill="white"/>
<path d="M438.921 38.9829H383.866V109.739H438.921V38.9829Z" fill="white"/>
<path d="M604.468 355.564H516.508V377.755H604.468V355.564Z" fill="white"/>
<path d="M497.301 342.737C482.681 362.804 442.106 360.301 407.078 342.737V374.77H497.301V342.737Z" fill="white"/>
<path d="M407.078 387.708L349.029 461.479L497.301 595.562V387.708H407.078Z" fill="white"/>
<path d="M516.508 389.491V595.561L664.97 462.1L604.468 389.491H516.508Z" fill="white"/>
<path d="M639.595 268.146H521.134V342.737H604.457C628.54 332.794 637.132 302.202 639.595 268.146Z" fill="white"/>
<path d="M423.07 126.823C405.697 129.236 381.654 145.008 362.738 162.431L362.548 291.597C373.373 303.874 385.82 314.619 399.558 323.541C487.899 379.948 526.261 308.731 489.251 280.983C476.894 271.72 455.384 259.654 426.956 239.246V181.347C471.486 183.23 497.532 160.338 507.185 124.83L423.07 126.823Z" fill="white"/>
<path d="M452.11 739.658C464.277 739.658 474.14 729.795 474.14 717.628C474.14 705.461 464.277 695.598 452.11 695.598C439.943 695.598 430.08 705.461 430.08 717.628C430.08 729.795 439.943 739.658 452.11 739.658Z" fill="white"/>
</g>
<defs>
<clipPath id="clip0_130_10561">
<rect width="937.678" height="800" fill="white" transform="translate(0.09375)"/>
</clipPath>
</defs>
</svg>
