<svg width="231" height="230" viewBox="0 0 231 230" fill="none" xmlns="http://www.w3.org/2000/svg">
<g clip-path="url(#clip0_183_15336)">
<path d="M22.5723 63.2222C22.5723 62.9022 22.5723 62.5822 22.5723 62.2622C23.5323 61.0422 24.4323 59.7722 25.4723 58.6222C31.7423 51.6622 33.4923 42.8022 35.8123 34.1722C36.2323 32.6022 36.5323 30.9322 37.3223 29.5422C38.5523 27.3722 40.9623 27.6522 42.0923 29.8822C43.5623 32.8022 43.8423 35.8922 43.6623 39.1022C43.4423 43.0222 43.4823 46.9222 44.8923 50.6922C45.5323 52.4122 46.2823 53.9822 47.7223 55.1922C48.8223 56.1122 49.9023 57.0722 50.9123 58.1022C52.3623 59.5722 52.4423 61.4722 51.1423 62.9622C49.9523 64.3322 48.3423 65.1022 46.6423 64.5622C45.1323 64.0922 43.8223 64.4522 42.4323 64.7022C41.1723 64.9322 40.9423 65.3822 41.5223 66.5322C42.4623 68.3822 43.3623 70.2622 44.4323 72.0422C44.8823 72.7922 45.6023 73.5122 46.3823 73.8822C47.4323 74.3822 48.6423 74.6122 49.8123 74.7822C50.2823 74.8522 50.9423 74.5822 51.3123 74.2522C53.0823 72.6622 54.3123 70.7822 54.5223 68.2922C54.6323 67.0422 55.0623 65.8122 55.3623 64.5722C55.6123 63.5722 56.0123 62.6022 56.1323 61.5822C56.3123 59.9322 56.7923 58.4722 58.0023 57.2822C58.7723 56.5222 59.4723 55.6922 60.2923 55.0022C61.3623 54.0922 61.7123 53.0122 61.7223 51.6322C61.7723 46.6422 61.9823 41.6422 62.0223 36.6522C62.0223 36.0822 61.4723 35.4122 61.0023 34.9522C60.6623 34.6222 60.0523 34.5722 59.5623 34.4022C56.5023 33.3622 53.4223 32.3622 50.3823 31.2722C49.9123 31.1022 49.3023 30.5722 49.2323 30.1222C48.8923 28.1522 50.4623 26.4522 52.4323 26.3222C53.4023 26.2622 54.4923 26.2122 55.3023 25.7422C60.0223 23.0222 62.5523 18.5222 64.4923 13.6822C65.7623 10.5022 66.6623 7.17224 67.7023 3.90224C68.1723 2.43224 69.0223 1.32224 70.3323 0.472243C71.2123 -0.0977573 71.6323 -0.0177574 72.0123 0.962243C73.0923 3.76224 73.2223 6.64224 72.8423 9.58224C72.5723 11.6322 72.0723 13.6722 72.7023 15.7622C73.0323 16.8622 73.2123 18.0122 73.4823 19.1322C74.0023 21.2622 74.3323 23.5122 76.8523 24.3922C77.2323 24.5222 77.6523 24.9022 77.7923 25.2722C78.4923 27.0422 79.9223 27.9422 81.5123 28.7922C83.8023 30.0222 83.8723 32.5022 81.7523 33.9722C81.3023 34.2822 80.7823 34.5222 80.2623 34.7222C77.8423 35.6322 75.3523 36.1022 72.7523 35.8922C72.0723 35.8422 71.3923 35.8922 70.7123 35.9022C69.8423 35.9122 69.4923 36.3222 69.6523 37.2022C70.0523 39.3622 70.3823 41.5322 70.8123 43.6822C71.2123 45.7122 72.4123 46.3422 74.2123 45.3222C75.5923 44.5422 76.8323 43.5122 78.0723 42.5022C80.3823 40.6122 82.8023 39.4522 85.8523 40.7222C87.1923 41.2722 87.7723 40.8922 88.0823 39.4622C88.8823 35.7122 89.6523 31.9622 90.4323 28.2022C90.5923 27.4322 90.3623 26.9322 89.4923 26.9122C86.7623 26.8422 84.5123 25.5822 82.3723 24.0622C81.1123 23.1722 81.1923 21.6122 82.5723 20.9022C83.6023 20.3722 84.6523 19.8622 85.7523 19.5122C89.5623 18.2922 91.6923 15.4622 93.3023 12.0222C95.0723 8.23224 96.9423 4.48224 98.7623 0.712243C99.1323 -0.0577573 99.7823 -0.0977573 100.502 0.102243C101.232 0.302243 101.882 0.592243 101.802 1.54224C101.712 2.61224 101.642 3.69224 101.512 4.76224C100.992 8.96224 101.062 13.0522 102.562 17.1522C103.552 19.8622 105.062 21.8222 107.542 23.1122C108.282 23.4922 108.702 24.0422 108.502 24.8322C108.202 26.0522 107.892 27.3122 107.362 28.4422C106.562 30.1422 105.832 30.3922 103.962 29.9722C103.182 29.8022 102.402 29.6222 101.612 29.4922C100.162 29.2422 99.7123 29.5522 99.4223 30.9622C99.2023 32.0622 98.9623 33.1522 98.7523 34.2522C98.2423 36.8922 97.8023 39.5022 99.0923 42.1022C99.7923 43.5222 101.922 44.4122 102.942 43.3422C105.792 40.3522 109.142 37.8222 110.072 33.2822C111.162 27.9222 114.662 24.7522 120.272 24.1622C122.412 23.9422 124.542 23.5522 126.682 23.4822C128.422 23.4322 130.172 23.7422 131.922 23.9022C133.472 24.0422 135.012 24.2322 136.562 24.3022C137.502 24.3422 138.442 24.1722 139.382 24.1222C140.052 24.0822 140.732 24.0022 141.392 24.0922C144.072 24.4622 146.732 25.1122 149.432 25.2622C154.052 25.5222 158.382 27.0222 162.682 28.3922C167.222 29.8422 171.532 32.0522 175.902 34.0222C177.272 34.6422 178.532 35.5122 179.802 36.3322C180.102 36.5222 180.222 36.9622 180.482 37.2422C180.952 37.7722 181.392 38.3622 181.962 38.7722C182.732 39.3122 183.712 39.5822 184.432 40.1822C186.122 41.5822 187.722 43.1022 189.342 44.5922C192.542 47.5122 194.522 51.2622 196.282 55.1222C196.652 55.9322 196.402 57.0422 196.392 58.0122C196.382 58.6622 196.142 59.3622 196.292 59.9622C196.862 62.1622 197.532 64.3322 198.192 66.5122C198.442 67.3422 198.492 68.0822 197.682 68.6422C196.882 69.2022 196.082 69.4922 195.142 68.9122C193.212 67.7222 191.262 66.5522 189.292 65.4122C184.472 62.6122 179.352 60.5922 173.782 60.1322C170.132 59.8322 166.432 59.8822 162.772 60.0522C156.482 60.3422 150.352 61.7722 144.342 63.5322C140.582 64.6322 137.152 66.6122 134.122 69.1722C132.282 70.7122 130.472 72.2922 128.642 73.8422C126.422 75.7222 124.582 77.9122 123.172 80.4622C120.282 85.7122 117.382 90.9522 114.482 96.1922C114.152 96.7822 113.812 97.3722 113.492 97.9722C113.022 98.8522 113.192 99.5622 113.792 100.382C114.372 101.182 114.842 102.182 115.012 103.152C115.382 105.342 115.022 107.432 113.682 109.322C113.362 109.782 113.182 110.592 113.372 111.082C113.482 111.382 114.392 111.422 114.952 111.522C116.362 111.772 117.952 111.652 119.142 112.292C122.242 113.942 125.362 115.482 127.912 118.172C133.172 123.732 137.242 129.912 139.622 137.192C139.942 138.162 140.182 139.202 140.202 140.222C140.242 141.722 139.232 142.612 137.942 143.162C136.732 143.682 135.812 143.222 134.792 142.432C133.502 141.422 132.032 140.542 130.502 139.932C128.772 139.242 126.902 138.912 125.082 138.452C120.722 137.362 116.652 137.712 112.902 140.512C110.222 142.512 107.802 144.752 105.722 147.362C104.652 148.702 104.702 149.152 105.682 150.532C107.052 152.452 108.432 154.362 109.712 156.342C110.932 158.242 111.822 158.592 114.092 158.362C115.652 158.202 117.492 157.612 118.522 159.602C118.582 159.722 118.772 159.802 118.912 159.862C119.772 160.272 120.042 161.002 119.862 161.862C119.612 163.062 119.342 164.272 118.932 165.432C118.442 166.842 118.642 167.212 120.172 167.262C121.092 167.292 122.022 167.252 122.922 167.422C123.892 167.612 124.982 167.782 125.732 168.352C129.662 171.292 133.522 174.332 137.362 177.392C138.502 178.292 139.322 178.412 140.472 177.532C140.792 177.292 141.082 177.012 141.362 176.732C144.112 173.932 147.342 171.812 150.872 170.132C151.252 169.952 151.742 169.782 152.112 169.872C154.222 170.392 156.502 170.312 158.402 171.632C158.772 171.892 159.312 172.062 159.762 172.042C160.252 172.022 160.772 171.812 161.212 171.562C161.882 171.192 162.442 170.522 163.152 170.312C165.172 169.712 167.242 169.252 169.302 168.782C171.312 168.322 173.462 168.242 175.332 167.462C182.752 164.372 188.812 159.452 193.202 152.722C197.822 145.652 201.762 138.212 204.242 130.082C204.362 129.692 204.562 129.322 204.722 128.942C204.842 128.942 204.952 128.932 205.072 128.932C205.462 129.912 205.972 130.872 206.202 131.892C206.682 133.992 206.922 136.152 207.432 138.242C208.282 141.762 208.362 145.282 207.642 148.822C206.982 152.072 206.302 155.312 205.552 158.532C204.882 161.402 204.152 164.252 203.372 167.102C202.612 169.872 201.732 172.612 200.962 175.382C200.472 177.132 200.342 179.042 199.582 180.662C195.832 188.632 191.542 196.302 185.862 203.092C180.812 209.132 174.962 214.282 167.882 217.792C162.382 220.522 156.572 222.542 150.622 224.192C142.562 226.432 134.442 228.252 126.122 229.192C124.102 229.422 122.072 229.592 120.052 229.792C117.092 229.792 114.132 229.792 111.172 229.792C109.192 229.342 107.202 228.902 105.222 228.442C102.042 227.702 98.8323 227.052 95.6923 226.172C92.0823 225.152 88.4323 224.172 84.9923 222.722C80.2023 220.712 75.5323 218.362 70.8923 216.002C66.8223 213.932 62.9523 211.512 59.7223 208.212C57.2923 205.722 54.8023 203.282 52.5023 200.682C50.7823 198.742 49.1223 196.702 47.7923 194.492C42.9223 186.422 39.1923 177.832 36.5223 168.782C36.3923 168.332 36.2423 167.802 35.9123 167.512C33.9423 165.782 33.2723 163.462 32.9323 161.012C32.4223 157.292 32.0223 153.552 31.5023 149.832C31.1123 147.062 29.9023 144.792 27.4023 143.262C25.4323 142.052 24.8423 139.822 25.9423 137.782C28.4123 133.192 29.4823 128.152 30.8523 123.192C30.9723 122.772 30.9823 122.322 31.0223 121.882C31.4223 116.952 31.0823 112.142 28.7823 107.632C27.9423 105.982 28.0823 104.342 28.9223 102.682C29.2823 101.962 29.4723 101.092 29.5123 100.282C29.5823 98.7622 29.6423 98.5522 31.1823 98.4022C34.1223 98.1222 36.6123 96.8822 38.8523 95.0322C39.2823 94.6722 39.7423 94.3522 40.1823 94.0022C42.5223 92.1722 44.0323 89.7822 44.8423 86.9422C45.0923 86.0522 44.8123 85.4722 43.9623 84.9722C42.3823 84.0422 40.8523 83.0122 39.3623 81.9422C38.9523 81.6422 38.4223 81.0622 38.4623 80.6522C38.6423 78.5522 37.5323 76.9922 36.5523 75.3522C35.3823 73.3922 34.3123 71.3822 34.1223 69.0422C33.9523 66.9822 32.9723 66.0022 30.9023 65.9322C30.0823 65.9122 29.1123 65.9022 28.4423 66.2922C26.2723 67.5822 24.9623 66.2422 23.6423 64.9122C23.1523 64.4622 22.9123 63.7922 22.5723 63.2222ZM101.112 160.092C101.002 160.132 100.892 160.182 100.772 160.222C100.402 159.742 99.9423 159.302 99.6723 158.762C98.4423 156.382 97.3723 153.932 96.0323 151.622C95.4223 150.562 94.4423 149.632 93.4423 148.882C91.6923 147.582 89.8023 146.472 87.9723 145.282C86.9023 144.592 85.8823 143.792 84.7423 143.232C82.1623 141.972 79.5223 140.832 76.9023 139.642C74.8523 138.712 72.6923 138.412 70.4723 138.572C69.2823 138.662 68.1723 139.552 68.1423 140.462C68.1023 141.712 69.1523 141.822 69.9923 142.142C70.1423 142.202 70.3023 142.212 70.4523 142.262C73.2623 143.092 75.6623 144.592 77.7923 146.612C82.0823 150.682 85.3223 155.502 88.0323 160.702C88.8423 162.262 89.6023 163.852 90.2723 165.472C90.9523 167.122 90.0623 168.172 88.3123 167.842C87.8123 167.752 87.2923 167.572 86.8523 167.312C84.1623 165.742 81.2723 165.202 78.2123 165.552C77.7423 165.602 77.0523 165.762 76.9023 166.072C76.7423 166.422 77.0123 167.042 77.2223 167.482C77.4023 167.862 77.7623 168.172 78.0523 168.502C79.6723 170.332 81.2923 172.152 82.9023 173.982C83.5023 174.662 83.8923 175.432 83.3123 176.252C82.6123 177.242 82.5023 178.802 80.6423 178.712C77.9823 178.582 75.3023 178.672 72.6423 178.692C71.5723 178.702 70.7723 179.122 70.6123 180.302C70.4523 181.402 71.1023 181.902 71.9823 182.412C73.3123 183.182 74.5823 184.092 75.7923 185.042C77.2823 186.212 77.5223 187.632 76.5423 189.342C75.6223 190.962 75.9023 192.672 76.6323 194.302C77.0423 195.212 78.8423 195.952 79.6023 195.592C80.2523 195.282 80.5923 193.832 80.0823 192.852C79.3223 191.402 79.6823 190.192 80.5023 188.932C81.3423 187.632 82.0723 186.252 82.8523 184.922C83.2123 184.302 83.5723 183.682 83.9923 183.102C86.0523 180.262 88.2323 177.502 90.1823 174.592C92.1123 171.692 94.5723 169.292 97.1723 167.062C98.3323 166.072 99.9523 165.572 101.412 164.972C103.422 164.132 105.542 163.522 107.512 162.592C109.342 161.722 109.682 160.042 108.622 158.282C107.512 156.442 106.442 154.562 105.202 152.802C104.332 151.582 103.282 150.442 102.142 149.472C101.632 149.032 100.692 149.102 99.9423 148.942C99.8623 149.572 99.6223 150.232 99.7123 150.832C100.122 153.432 100.652 156.022 101.102 158.612C101.182 159.082 101.112 159.592 101.112 160.092ZM81.4923 95.3322C81.4223 95.4622 81.3523 95.5922 81.2823 95.7222C82.4923 96.8622 82.7223 98.2822 82.6323 99.8122C82.6223 100.042 82.6523 100.302 82.7523 100.512C83.7923 102.882 84.7623 105.302 85.9523 107.592C86.3223 108.302 87.2523 108.852 88.0523 109.172C89.3823 109.702 90.8323 109.892 92.1723 110.382C93.4823 110.862 94.6723 110.942 95.9823 110.362C97.1723 109.842 97.3823 109.542 96.7423 108.422C95.5323 106.302 94.2923 104.212 93.0323 102.122C91.2923 99.2322 88.7223 97.2922 85.6223 96.1222C84.3423 95.6222 82.8823 95.5822 81.4923 95.3322ZM109.522 131.052C108.122 131.472 106.422 131.712 104.982 132.462C102.862 133.562 100.902 134.972 98.9423 136.332C97.3823 137.412 97.2023 138.502 98.2123 140.122C98.5923 140.722 99.0323 141.352 99.6023 141.742C101.992 143.422 102.302 143.142 103.842 141.502C106.202 138.982 108.692 136.642 111.782 135.022C112.442 134.672 113.032 134.162 113.582 133.642C114.272 132.982 114.182 132.282 113.292 131.962C112.192 131.562 111.002 131.392 109.522 131.052ZM77.4423 177.312C77.9523 176.732 78.2523 176.392 78.5623 176.062C78.1923 175.742 77.8523 175.292 77.4223 175.152C77.2323 175.092 76.6023 175.672 76.6023 175.962C76.6023 176.332 77.0423 176.702 77.4423 177.312ZM87.4823 43.2022C87.4823 43.4322 87.4923 43.6522 87.4923 43.8822C88.0423 43.9422 88.5823 44.0122 89.1323 44.0722C89.0823 43.7122 89.0423 43.0522 88.9723 43.0422C88.4823 43.0222 87.9823 43.1322 87.4823 43.2022Z" fill="white"/>
</g>
<defs>
<clipPath id="clip0_183_15336">
<rect width="229.792" height="229.792" fill="white" transform="translate(0.455078)"/>
</clipPath>
</defs>
</svg>
