<svg width="224" height="223" viewBox="0 0 224 223" fill="none" xmlns="http://www.w3.org/2000/svg">
<g clip-path="url(#clip0_183_15368)">
<path d="M183.469 195.52C181.559 193.95 179.739 192.51 177.969 191.01C176.899 190.1 175.789 189.81 174.459 190.35C174.219 190.45 173.889 190.44 173.629 190.36C170.919 189.55 168.529 189.76 166.439 192C165.639 192.85 164.409 193.34 163.309 193.85C159.389 195.65 155.419 197.34 151.519 199.17C148.729 200.48 145.799 201.25 142.799 201.89C140.799 202.32 138.809 202.49 136.769 202.52C136.069 202.53 135.109 202.85 134.749 203.36C133.849 204.62 132.559 204.67 131.289 204.97C129.779 205.33 128.269 205.67 126.799 206.17C125.509 206.6 124.919 207.63 124.799 209C124.739 209.63 124.439 210.26 124.189 210.86C123.259 213.17 122.359 215.49 121.329 217.75C120.789 218.95 119.989 220.03 119.339 221.19C119.039 221.73 118.829 222.33 118.609 222.82C116.669 220.52 114.699 218.15 112.699 215.81C112.119 215.13 111.379 214.57 110.849 213.86C110.019 212.75 109.389 211.48 108.489 210.44C107.669 209.48 106.659 208.64 105.629 207.89C104.629 207.16 103.499 206.88 102.159 207.04C99.7985 207.31 97.5585 206.83 95.2985 205.87C93.2085 204.97 90.8285 204.73 88.5885 204.18C88.0485 204.05 87.4585 203.96 86.9985 203.68C84.2185 202.01 82.7485 203.31 81.2385 205.56C80.7185 206.33 80.2585 207.14 79.7585 207.92C79.2585 208.7 78.7585 209.48 78.1485 210.41C77.7985 209.69 77.4885 209.06 77.1685 208.44C75.5785 205.27 74.0485 202.06 72.3485 198.94C71.8985 198.12 70.9385 197.58 70.1785 196.95C67.9785 195.13 65.8185 193.26 63.5485 191.54C61.8085 190.22 59.9385 189.07 58.0885 187.9C56.4085 186.84 54.6485 185.91 53.0085 184.79C51.9885 184.1 51.1285 183.17 50.1885 182.35C48.7685 181.11 47.3685 179.85 45.9085 178.66C44.9785 177.91 43.9685 177.27 42.9885 176.58C42.9585 176.56 42.9385 176.53 42.9085 176.52C41.1985 176.25 40.8285 174.68 39.9885 173.55C38.7385 171.88 37.1785 170.94 35.0185 171.49C34.6585 171.02 34.3585 170.49 33.9285 170.1C33.0285 169.29 31.9685 169.2 30.8485 169.64C29.8585 170.03 28.8685 170.42 27.8885 170.81C27.7385 170.87 27.5385 170.91 27.4485 171.03C26.0985 172.66 24.0485 172.52 22.2885 173.1C21.7085 173.29 21.1085 173.45 20.4085 173.66C20.8485 172.41 21.3585 171.26 21.6685 170.06C22.4585 166.98 23.1585 163.87 23.8885 160.77C24.1985 159.45 24.5785 158.13 24.8185 156.8C24.9785 155.86 25.0185 154.88 24.9885 153.93C24.9085 151.62 23.2185 150.44 20.9685 150.96C20.6185 151.04 20.1685 150.7 19.7385 150.54C21.8685 146.96 22.4585 143.4 21.7485 139.47C21.2785 136.91 21.3585 134.26 21.1985 131.64C21.1985 131.61 21.2085 131.57 21.1985 131.54C20.6885 128.93 20.2085 126.31 19.6285 123.71C19.5285 123.24 19.0985 122.79 18.6985 122.46C17.1385 121.17 15.4085 120.08 14.2885 118.31C14.1085 118.02 13.7585 117.83 13.4785 117.59C14.6185 116.95 15.7085 116.29 16.8385 115.7C18.4785 114.83 19.0185 113.28 19.1385 111.65C19.2885 109.53 19.0985 107.4 19.1685 105.27C19.2185 103.81 19.4385 102.36 19.6185 100.91C19.9785 98.01 20.5985 95.13 20.6785 92.22C20.7785 88.65 22.3085 85.54 23.2385 82.24C23.9085 79.84 24.4185 77.4 25.0185 74.98C25.1185 74.57 25.3285 74.18 25.4785 73.78C25.9085 72.64 26.4285 71.57 26.3585 70.25C26.3085 69.35 26.7285 68.41 26.9985 67.5C27.2885 66.52 27.6585 65.56 27.9885 64.59C28.4485 63.25 28.8185 61.93 30.2885 61.2C31.6385 60.53 32.6085 59.38 33.3885 58.05C34.9985 55.3 36.6885 52.61 38.3485 49.89C38.8985 48.99 38.9285 48.09 38.4485 47.14C38.3185 46.88 38.2985 46.49 38.3785 46.2C38.6485 45.21 40.4585 44.12 41.4985 44.09C42.8685 44.05 44.1685 43.8 45.1185 42.57C46.2085 41.15 47.4585 39.85 48.5885 38.46C49.0185 37.93 49.2985 37.29 49.6685 36.71C49.8085 36.49 49.9485 36.25 50.1485 36.11C51.1485 35.42 51.5385 34.46 51.5185 33.28C51.4885 29.96 51.4585 26.64 51.4385 23.31C51.4385 23.13 51.4585 22.95 51.4585 22.97C53.8785 24.13 56.3185 25.27 58.7285 26.46C60.6585 27.4 62.6285 27.85 64.7685 27.3C65.8485 27.02 66.6885 26.45 66.9985 25.38C67.2385 24.58 67.8185 24.42 68.4685 24.23C69.8985 23.81 71.3485 23.45 72.7285 22.92C77.3085 21.15 81.8285 19.18 86.4585 17.55C88.5985 16.79 90.9485 16.68 93.1885 16.18C95.9685 15.55 98.7185 14.83 101.479 14.14C101.609 14.11 101.729 14 101.849 14.01C104.959 14.26 106.069 11.79 107.479 9.8C109.279 7.27 110.489 4.44 111.529 1.52C111.699 1.02 111.979 0.58 112.269 0C114.319 2.72 116.349 5.24 117.719 8.23C118.549 10.03 119.579 11.75 120.629 13.44C121.629 15.05 123.729 15.37 125.369 14.18C125.919 13.78 126.319 13.83 126.889 14.06C127.899 14.46 128.939 14.83 129.999 15.05C131.789 15.42 133.469 16 135.149 16.77C137.169 17.69 139.569 17.74 140.789 15.37C141.069 14.83 141.729 14.49 142.349 13.94C142.569 15.93 143.049 17.61 144.299 19C145.009 19.78 145.789 20.35 146.849 20.36C148.819 20.39 150.649 21.03 152.389 21.84C154.469 22.81 157.759 22.51 159.389 20.88C160.079 20.18 160.899 19.62 161.679 18.98C161.539 20.88 161.349 22.7 161.299 24.52C161.239 26.65 163.429 28.66 165.499 28.91C169.239 29.36 172.379 27.84 175.529 26.23C176.119 25.93 176.689 25.6 177.359 25.23C177.359 26.29 177.269 27.29 177.379 28.26C177.509 29.4 177.889 30.5 178.019 31.64C178.219 33.41 178.239 35.2 178.449 36.97C178.549 37.82 178.899 38.65 179.169 39.48C179.419 40.23 179.759 40.96 179.979 41.72C180.499 43.53 181.539 44.38 183.389 44.26C184.859 44.16 186.319 43.93 187.869 43.74C187.889 44.14 187.959 44.74 187.939 45.32C187.839 48.24 188.669 50.91 189.909 53.54C191.329 56.54 193.249 59.19 195.169 61.86C195.439 62.23 195.769 62.58 196.119 62.88C197.439 64.01 197.439 65.71 198.059 67.14C198.679 68.57 199.279 70.04 200.129 71.33C202.699 75.19 204.229 79.45 205.109 83.94C205.769 87.33 206.549 90.67 207.499 93.98C208.049 95.9 208.109 97.96 208.429 99.95C208.719 101.81 209.179 103.65 209.349 105.52C209.589 108.16 209.669 110.82 209.739 113.47C209.799 115.96 209.939 118.47 209.709 120.94C209.489 123.37 208.879 125.76 208.379 128.16C207.819 130.82 207.179 133.47 206.589 136.12C206.509 136.47 206.499 136.85 206.499 137.21C206.509 138.8 206.559 140.34 205.879 141.9C205.389 143.01 205.369 144.35 205.249 145.59C205.009 148.04 203.939 150.09 202.379 151.93C202.079 152.28 201.829 152.68 201.619 153.09C200.279 155.76 199.079 158.5 197.599 161.08C195.709 164.39 193.609 167.58 191.559 170.8C190.999 171.68 190.349 172.54 189.609 173.28C188.259 174.64 188.169 176.48 187.669 178.13C186.919 180.6 186.469 183.16 185.809 185.67C185.379 187.31 184.769 188.89 184.329 190.53C184.119 191.31 184.169 192.16 184.029 192.97C183.889 193.79 183.669 194.62 183.469 195.52ZM167.449 131.42C167.499 131.33 167.549 131.24 167.599 131.15C169.529 131.15 171.449 131.22 173.379 131.13C174.939 131.05 176.609 131.27 177.899 129.99C178.079 129.82 178.449 129.82 178.739 129.79C180.149 129.63 181.569 129.51 182.969 129.31C183.379 129.25 183.859 129.09 184.139 128.81C185.539 127.4 186.679 125.78 186.799 123.73C186.899 122.01 186.709 120.26 186.829 118.54C186.949 116.91 186.339 115.74 185.149 114.71C183.319 113.11 181.429 111.57 178.849 111.71C177.069 111.8 175.739 111.37 174.869 109.63C175.829 108.8 176.849 107.97 177.819 107.07C179.729 105.29 181.629 103.48 183.499 101.65C185.199 99.98 186.249 98.5 184.459 96.2C184.199 95.87 184.039 95.45 183.859 95.05C182.899 92.98 181.949 90.9 180.999 88.83C180.359 87.44 179.669 86.08 179.089 84.67C178.389 82.99 177.889 81.22 177.089 79.59C176.519 78.42 175.749 77.25 174.799 76.37C173.679 75.34 172.309 74.55 170.949 73.82C170.299 73.47 169.399 73.32 168.679 73.45C167.759 73.62 166.759 73.98 166.049 74.57C163.849 76.39 161.149 77.1 158.569 77.95C154.129 79.41 149.509 80.32 145.269 82.4C144.709 82.68 144.029 82.71 143.229 82.9C143.329 82.2 143.339 81.69 143.489 81.23C144.369 78.45 145.299 75.68 146.159 72.89C146.599 71.47 146.879 69.99 147.309 68.57C147.909 66.61 148.619 64.67 149.249 62.72C149.889 60.74 150.559 58.76 151.059 56.75C151.199 56.19 150.779 55.49 150.599 54.87C150.449 54.35 150.219 53.85 150.129 53.32C150.039 52.8 150.089 52.26 150.039 51.73C149.889 50.06 148.449 48.89 146.829 49.31C146.009 49.52 145.149 50 144.539 50.59C143.299 51.82 142.219 53.23 141.059 54.55C139.959 55.8 138.839 57.04 137.729 58.29C137.619 58.41 137.599 58.6 137.499 58.73C136.729 59.72 135.949 60.71 135.169 61.7C134.919 61.32 134.879 61.1 134.879 60.87C134.839 56.19 134.779 51.5 134.789 46.82C134.789 44.59 132.619 42.33 130.529 42.17C129.009 42.05 127.459 41.65 126.029 41.1C123.829 40.26 121.739 39.1 119.309 39.05C116.249 38.99 113.189 38.9 110.129 38.91C108.429 38.92 106.639 38.72 105.189 39.99C105.029 40.13 104.759 40.16 104.529 40.18C102.589 40.33 101.579 41.67 100.939 43.24C100.309 44.8 99.9385 46.47 99.4685 48.1C98.7185 50.7 97.9885 53.3 97.2585 55.87C95.5085 52.78 93.7385 49.71 92.0385 46.6C91.1985 45.08 90.0385 44.45 88.4485 44.85C86.8385 45.26 86.0285 46.35 86.0785 48.07C86.1585 50.76 86.3685 53.45 86.3085 56.13C86.2485 59.15 85.9285 62.16 85.7585 65.18C85.6885 66.47 85.7985 67.76 85.1285 68.96C84.9685 69.25 84.9985 69.67 84.9985 70.04C84.9885 72.66 84.9885 75.27 84.9885 77.89C84.9885 78.32 84.9885 78.75 84.9885 79.17C84.8985 79.2 84.7985 79.23 84.7085 79.26C84.1785 78.73 83.6185 78.22 83.1285 77.65C81.8285 76.14 80.6185 74.55 79.2585 73.1C77.5085 71.24 75.6685 69.45 73.7985 67.71C72.3985 66.4 70.9585 65.1 69.4085 63.98C67.9985 62.96 66.4385 62.13 64.8985 61.31C63.1685 60.39 61.4085 60.72 59.8985 61.93C57.8785 63.54 56.4985 65.66 55.2085 67.82C54.6285 68.78 54.5985 70.1 53.9585 70.99C52.6685 72.77 53.2785 74.57 53.5985 76.35C54.0085 78.65 55.3385 80.56 56.4885 82.55C57.7485 84.73 58.9185 86.96 60.1485 89.16C60.5685 89.91 61.0385 90.63 61.5085 91.36C62.2085 92.44 62.9585 93.49 63.6085 94.6C64.0885 95.43 64.3685 96.37 64.8485 97.2C66.0285 99.2 67.2785 101.16 68.4785 103.15C68.7385 103.59 68.9085 104.08 69.1885 104.71C68.8685 104.59 68.7485 104.55 68.6285 104.51C65.5885 103.48 62.5785 102.3 59.4885 101.47C55.5185 100.4 51.4685 99.6 47.4485 98.71C46.5785 98.52 45.6685 98.32 44.7985 98.4C43.0885 98.54 41.5285 100.71 41.6885 102.47C41.7185 102.81 41.6485 103.17 41.5685 103.51C41.4285 104.08 41.1285 104.64 41.0985 105.21C40.9785 107.63 41.0085 110.07 40.8385 112.48C40.7285 114.11 41.2685 115.29 42.5685 116.25C43.2285 116.74 43.7685 117.4 44.3185 118.01C44.4785 118.19 44.6585 118.53 44.5885 118.71C44.1785 119.74 43.6985 120.75 43.2485 121.77C42.9485 122.45 42.3585 123.15 42.3985 123.82C42.5485 126.65 42.6985 129.51 43.2085 132.29C43.5285 134.06 43.8185 135.79 43.8785 137.6C43.9485 139.58 45.2985 141.98 47.5485 141.8C48.5885 141.72 49.6785 141.51 50.6385 141.1C53.6585 139.8 56.6185 138.38 59.6085 137.02C60.2085 136.75 60.8385 136.53 61.5985 136.24C61.3385 137.36 61.0985 138.23 60.9385 139.11C60.4785 141.59 60.0685 144.08 59.5985 146.56C59.2485 148.45 58.6885 150.31 58.5185 152.21C58.3285 154.29 59.1585 156.22 60.6785 157.59C62.5985 159.32 65.0785 160.43 66.4085 162.84C66.8585 163.66 67.5885 164.34 68.0085 165.18C68.6885 166.53 69.9185 167.44 71.3585 167.19C72.7785 166.94 74.1185 166.37 75.0185 165.16C76.5085 163.16 77.9085 161.1 79.4085 159.11C80.0485 158.26 80.8385 157.53 81.6985 156.6C81.7585 157.78 81.7385 158.68 81.8585 159.56C82.3285 162.94 82.7985 166.32 83.3785 169.69C83.6985 171.54 84.2785 173.3 86.3085 174.11C87.3085 174.51 88.2085 175.18 89.1585 175.73C90.8485 176.72 93.9385 176.12 95.2185 174.66C96.5385 173.15 97.3585 171.41 98.0785 169.57C98.5885 168.27 99.2685 167.04 99.9085 165.7C100.359 166.86 100.729 167.85 101.139 168.83C101.559 169.84 102.029 170.83 102.439 171.84C102.579 172.19 102.689 172.6 102.669 172.97C102.519 175.21 103.499 176.84 105.699 177.36C107.189 177.71 108.659 178.14 110.139 178.49C111.609 178.84 113.209 178.66 114.749 178.64C116.369 178.62 117.999 178.54 119.619 178.43C121.689 178.28 123.769 178.11 125.829 177.88C128.049 177.63 129.429 176.48 129.599 174.11C129.639 173.59 129.719 172.97 130.029 172.61C131.059 171.42 131.209 169.96 131.489 168.54C131.819 166.84 132.079 165.13 132.319 163.68C134.109 166.23 135.979 168.92 137.889 171.57C138.209 172.01 138.689 172.45 139.189 172.6C140.159 172.9 141.189 173.15 142.199 173.15C143.749 173.15 145.309 172.75 146.839 172.84C149.339 172.99 151.029 171.36 152.969 170.31C153.529 170.01 153.899 169.1 154.059 168.4C154.239 167.61 154.179 166.74 154.069 165.92C153.639 162.9 153.179 159.89 152.679 156.88C151.829 151.67 150.929 146.47 150.089 141.26C149.899 140.06 149.869 138.83 149.769 137.62C150.239 138 150.459 138.43 150.799 138.74C153.519 141.23 156.249 143.71 158.989 146.18C160.469 147.51 161.989 148.8 163.449 150.15C164.549 151.16 165.549 152.28 166.669 153.26C168.699 155.03 171.849 154.51 173.739 153.27C175.759 151.95 176.489 149.79 177.059 147.55C177.609 145.39 177.399 143.36 176.039 141.6C174.269 139.32 172.389 137.13 170.529 134.92C169.529 133.72 168.479 132.58 167.449 131.42Z" fill="white"/>
</g>
<defs>
<clipPath id="clip0_183_15368">
<rect width="222.82" height="222.82" fill="white" transform="translate(0.248047)"/>
</clipPath>
</defs>
</svg>
