<svg width="205" height="206" viewBox="0 0 205 206" fill="none" xmlns="http://www.w3.org/2000/svg">
<g clip-path="url(#clip0_183_15340)">
<path d="M116.683 205.587C116.583 205.437 116.513 205.227 116.373 205.157C116.123 205.037 115.813 205.057 115.573 204.937C111.873 202.997 108.173 201.067 104.493 199.087C102.083 197.787 99.7732 196.257 97.3032 195.077C94.2432 193.617 91.0332 192.477 87.9432 191.077C86.3232 190.347 84.8632 189.267 83.2632 188.477C81.7332 187.727 80.1032 187.167 78.5232 186.517C77.4532 186.077 76.3832 185.637 75.3132 185.187C73.2132 184.297 71.3132 185.437 71.0832 187.717C70.9632 188.947 70.8432 190.187 70.6332 191.397C70.3932 192.747 69.6732 193.127 68.4032 192.577C62.2932 189.907 56.2332 187.137 50.4832 183.477C51.3432 182.137 50.6832 180.957 50.1332 179.687C49.0732 177.277 48.2232 174.777 47.1232 172.387C46.3432 170.707 45.3832 169.087 44.3132 167.567C43.9532 167.057 43.0332 166.767 42.3332 166.707C40.8632 166.577 39.3732 166.687 37.8932 166.667C35.4132 166.627 34.3532 165.677 34.3532 163.167C34.3532 159.097 34.5432 155.017 34.5932 150.947C34.6932 142.987 34.7732 135.037 34.7932 127.077C34.8032 122.517 34.6832 117.967 34.5932 113.407C34.5732 112.407 34.5032 111.397 34.2632 110.437C34.1032 109.797 33.7432 109.037 33.2332 108.677C32.4432 108.127 32.3732 107.657 32.7932 106.897C35.0032 102.917 37.1032 98.8769 39.4232 94.9569C42.5332 89.6969 45.7332 84.4869 49.0432 79.3469C50.4132 77.2069 52.1332 75.2969 53.7332 73.2969C54.2332 72.6669 55.0232 72.1869 55.7132 72.6969C56.1732 73.0369 56.5332 73.9169 56.4632 74.4969C56.0132 78.3369 55.3532 82.1569 54.9132 85.9969C54.5632 89.0869 53.6632 92.0069 52.5232 94.8769C51.2332 98.1469 51.0632 101.447 52.0632 104.857C53.7032 110.447 55.3032 116.047 56.7732 121.677C58.3632 127.747 59.2632 133.947 60.0532 140.167C60.2332 141.547 61.0632 142.307 62.2332 142.767C63.2732 143.177 63.6032 142.327 63.8232 141.617C64.3632 139.907 64.8132 138.167 65.3032 136.437C66.1732 133.327 67.0032 130.197 67.9432 127.107C68.5032 125.247 69.0732 124.737 70.0532 125.007C71.1632 125.307 71.7132 125.607 71.5632 127.687C71.3532 130.567 72.1032 133.167 73.4332 135.727C74.4332 137.647 74.8932 139.847 75.6632 141.897C75.9032 142.537 76.2932 143.537 76.7332 143.597C78.1232 143.807 78.6832 143.047 78.9432 141.567C79.2732 139.727 79.7232 137.907 80.2132 136.107C80.4032 135.397 80.8432 134.747 81.0432 134.337C82.6732 134.677 84.1332 134.887 85.5332 135.307C86.0932 135.477 86.6932 136.007 86.9832 136.537C88.5232 139.377 89.9732 142.277 91.4432 145.147C91.5932 145.427 91.6432 145.817 91.8632 145.997C92.3632 146.397 92.9332 146.957 93.4732 146.967C93.9532 146.967 94.6232 146.397 94.8732 145.907C95.6732 144.347 96.3632 142.727 97.0232 141.097C97.4632 140.007 97.9532 139.587 99.3332 139.747C101.193 139.957 102.443 140.637 103.403 142.217C103.923 143.087 104.753 143.787 105.483 144.527C107.403 146.447 109.363 148.317 111.283 150.237C112.523 151.477 112.953 151.367 113.853 149.867C116.103 146.127 116.983 142.037 117.143 137.747C117.193 136.497 117.643 135.487 118.833 134.937C120.153 134.327 121.303 134.607 122.053 135.807C122.813 137.007 123.303 138.407 124.773 139.037C125.013 139.137 125.013 139.697 125.223 139.977C125.673 140.587 126.183 141.147 126.673 141.727C127.193 141.177 127.933 140.727 128.203 140.077C129.653 136.577 130.993 133.027 132.353 129.487C133.923 125.387 135.443 121.267 137.023 117.167C138.453 113.447 139.103 109.557 139.713 105.647C139.903 104.437 140.453 103.287 140.663 102.077C141.043 99.9269 141.423 97.7569 141.553 95.5769C141.963 88.6269 142.243 81.6769 142.583 74.7269C142.603 74.3269 142.523 73.8169 142.743 73.5569C143.253 72.9469 143.843 72.1869 144.523 72.0269C145.043 71.9069 145.983 72.4769 146.323 73.0069C147.043 74.1269 147.723 75.0569 149.213 75.1969C149.643 75.2369 150.243 75.8969 150.383 76.3769C152.463 83.7869 154.633 91.1869 156.453 98.6669C157.233 101.857 157.573 105.237 157.523 108.517C157.473 112.127 158.523 115.447 159.233 118.867C159.873 121.917 160.673 124.937 161.103 128.007C161.403 130.167 161.373 132.407 161.183 134.587C161.083 135.697 160.543 136.937 159.823 137.807C155.693 142.797 151.293 147.567 147.283 152.647C143.773 157.097 140.323 161.657 137.493 166.547C135.383 170.187 133.973 174.337 132.853 178.427C130.403 187.367 126.903 195.787 121.723 203.487C121.353 204.027 120.523 204.287 119.863 204.597C119.053 204.967 118.203 205.247 117.373 205.567C117.163 205.587 116.923 205.587 116.683 205.587Z" fill="white"/>
<path d="M2.20312 50.0677C2.41312 49.6977 2.68313 49.3377 2.82313 48.9377C4.51312 43.9977 7.50313 39.8577 10.9231 36.0377C15.2631 31.1977 19.7331 26.4577 24.2231 21.7477C26.7731 19.0677 29.5731 19.2577 31.8631 22.0877C32.8131 23.2677 33.6631 23.1677 34.1431 21.6377C35.3031 17.8877 38.2031 15.9877 41.5531 14.6977C42.8731 14.1877 44.4531 14.2677 45.9131 14.2277C48.3331 14.1577 50.7631 14.2077 53.2831 14.2077C53.2631 14.3077 53.2131 14.7177 53.0531 15.0777C48.6231 24.9777 45.4531 35.3077 42.6631 45.7577C41.9831 48.3177 40.6531 49.1877 38.0131 48.9977C32.3731 48.5777 26.7731 47.2477 21.0731 48.0777C16.9531 48.6677 13.2031 50.1377 11.0331 53.9777C9.68313 56.3677 8.54313 58.8977 7.62313 61.4777C7.17313 62.7277 7.45312 64.2377 7.41313 65.6377C7.40312 65.9477 7.44312 66.2777 7.40312 66.5877C7.27312 67.5677 7.86312 68.9577 6.67312 69.3777C5.30312 69.8677 3.74312 69.8777 2.49312 68.7377C2.41312 68.6577 2.30313 68.6077 2.20312 68.5477C2.20312 67.7477 2.20312 66.9477 2.20312 66.1477C2.32312 66.0577 2.54313 65.9577 2.53313 65.8677C2.50313 63.5177 2.44313 61.1777 2.38313 58.8377C2.38313 58.7977 2.26312 58.7577 2.20312 58.7177C2.20312 55.8277 2.20312 52.9477 2.20312 50.0677Z" fill="white"/>
<path d="M77.5334 123.307C76.8334 122.207 75.9834 121.347 75.6834 120.327C74.4634 116.117 73.4534 111.837 72.2734 107.617C71.3034 104.127 70.1134 100.697 69.1934 97.1973C68.7434 95.4873 68.5434 93.6673 68.5334 91.8973C68.5234 89.9973 68.1034 88.3573 67.1534 86.6773C65.3334 83.4973 66.5234 79.9873 69.9534 78.2273C70.7334 77.8273 71.1834 77.4173 71.2634 76.6073C71.5234 73.7473 71.8334 70.8873 71.9834 68.0173C72.1034 65.6773 72.5034 63.4273 73.4734 61.2773C74.1734 59.7273 73.9234 59.4373 72.3534 58.8573C67.6734 57.1273 62.7834 56.3573 57.9134 55.4673C57.2934 55.3573 56.6334 55.4773 56.0134 55.3873C54.8434 55.2173 53.6034 55.1573 52.5534 54.7073C50.4334 53.7973 50.1334 52.8473 50.7334 50.6273C51.8134 46.6173 52.9234 42.6173 53.9134 38.5873C54.5234 36.1173 54.7634 33.5373 55.4834 31.0973C56.1934 28.6973 57.4034 26.4473 58.2034 24.0773C59.2334 21.0273 60.0934 17.9173 60.9834 14.8173C61.2734 13.8173 61.9234 13.3673 62.8834 13.0473C66.3234 11.8973 69.8634 11.3973 73.4734 11.2073C75.7834 11.0873 78.0734 10.6773 80.3734 10.4673C84.0734 10.1273 87.7734 9.83727 91.4734 9.51727C92.1534 9.45727 92.8234 9.37727 93.4934 9.25727C95.5634 8.89727 95.8734 8.57727 96.0834 6.52727C96.2134 5.22727 96.8934 4.32727 98.1434 4.02727C101.273 3.27727 104.293 2.24727 107.633 2.27727C111.083 2.29727 114.543 1.59727 118.003 1.25727C119.953 1.06727 121.913 1.02727 123.863 0.80727C125.443 0.62727 126.603 1.18727 127.443 2.47727C129.953 6.32727 129.173 5.38727 133.623 5.85727C134.063 5.90727 134.503 5.92727 134.943 5.90727C136.463 5.83727 137.493 6.57727 138.573 7.60727C141.823 10.6773 143.683 14.4773 145.123 18.6073C147.223 24.6373 149.513 30.5973 151.523 36.6573C152.153 38.5573 152.183 40.6573 152.443 42.6673C152.553 43.5173 152.153 44.1273 151.343 44.4573C150.173 44.9273 149.783 45.8573 149.843 47.0473C149.923 48.6873 150.023 50.3373 148.963 51.7773C148.943 51.8073 148.913 51.8473 148.913 51.8873C149.233 54.0373 147.583 54.5073 146.143 55.1973C143.333 56.5373 140.533 57.8973 137.723 59.2373C134.623 60.7173 133.203 63.7973 133.983 67.1473C134.623 69.8673 135.183 72.6073 135.683 75.3573C135.813 76.0973 135.723 76.9573 135.483 77.6773C133.573 83.3073 131.703 88.9373 129.043 94.2873C126.463 99.4873 125.563 105.127 125.343 110.887C125.203 114.537 124.763 118.137 123.423 121.567C123.143 122.267 122.803 122.947 122.473 123.637C122.023 124.567 121.183 124.747 120.253 124.727C119.353 124.717 119.403 123.967 119.173 123.397C118.723 122.287 118.213 121.207 117.673 120.137C117.533 119.857 117.173 119.497 116.943 119.517C116.683 119.537 116.333 119.897 116.223 120.187C115.783 121.337 115.473 122.547 115.003 123.697C114.113 125.877 113.213 128.047 112.203 130.167C111.623 131.397 111.043 131.447 109.923 130.647C109.533 130.367 109.183 130.027 108.773 129.787C107.923 129.297 107.433 129.597 107.353 130.587C107.293 131.337 107.313 132.127 107.083 132.827C106.933 133.297 106.453 133.927 106.053 133.967C105.573 134.027 104.863 133.677 104.553 133.267C103.343 131.697 103.013 129.787 103.393 127.917C104.293 123.457 103.633 118.987 103.703 114.527C103.733 112.677 101.183 110.997 99.3934 111.627C98.8734 111.807 98.3534 112.617 98.2234 113.217C97.3834 117.157 96.6934 121.127 95.8534 125.057C95.4234 127.087 94.7734 129.067 94.2334 131.067C94.0134 131.867 93.6734 132.877 92.8134 132.677C92.2334 132.537 91.6034 131.547 91.4434 130.837C90.8834 128.227 90.6234 125.547 90.0334 122.937C89.5434 120.767 88.7034 118.677 88.1234 116.527C87.0734 112.657 86.9334 108.727 87.5334 104.757C87.6234 104.167 87.6834 103.557 87.6234 102.967C87.5934 102.587 87.3434 101.947 87.1534 101.937C86.7534 101.907 86.1534 102.087 85.9334 102.397C85.2534 103.377 84.5534 104.387 84.1334 105.497C82.6934 109.347 81.3634 113.237 80.0234 117.127C79.7734 117.837 79.5234 118.607 79.5334 119.337C79.5434 120.877 78.6434 121.897 77.5334 123.307ZM125.883 46.6973C125.883 46.7073 125.883 46.7273 125.883 46.7373C126.123 46.7373 126.363 46.7273 126.603 46.7373C128.853 46.7973 129.833 45.6473 129.383 43.4373C128.743 40.3073 128.003 37.1973 127.443 34.0573C126.953 31.3473 126.573 31.2773 124.303 32.9673C119.603 36.4873 114.903 40.0173 110.213 43.5673C109.063 44.4373 107.923 45.3173 106.863 46.2773C106.573 46.5373 106.453 47.1073 106.453 47.5273C106.453 47.6573 107.103 47.9073 107.463 47.9073C108.863 47.9073 110.263 47.8873 111.653 47.7873C116.403 47.4273 121.143 47.0573 125.883 46.6973ZM68.5234 34.4273C68.8934 36.8173 72.0534 41.4973 73.8234 42.4673C74.1634 42.6573 74.5634 42.7673 74.9434 42.8773C79.6634 44.1973 84.5234 44.5173 89.3734 44.8573C89.7934 44.8873 90.5634 44.3573 90.6634 43.9573C91.1234 42.1573 91.4034 40.3073 91.8034 38.2073C90.2234 37.9773 88.7934 37.6473 87.3534 37.5873C84.0534 37.4573 80.7334 37.6773 77.5034 36.6473C75.3034 35.9473 73.0534 35.3873 70.8234 34.8073C70.1234 34.6273 69.3834 34.5673 68.5234 34.4273ZM96.5434 72.7773C96.5434 73.4173 96.4534 74.0773 96.5834 74.6873C96.6434 74.9573 97.1634 75.3173 97.4634 75.2973C98.4134 75.2473 100.453 73.2973 100.693 72.3873C101.303 69.9973 101.983 67.6273 102.523 65.2273C102.653 64.6373 102.603 63.7973 102.263 63.3373C100.903 61.4673 99.4534 59.6573 97.9234 57.9273C97.5534 57.5073 96.7134 57.3173 96.1134 57.3573C95.8234 57.3773 95.4834 58.1573 95.3534 58.6373C94.8634 60.5673 94.4734 62.5173 94.0034 64.4473C93.7134 65.6173 93.8534 66.6973 94.6934 67.5673C96.1134 69.0273 96.8034 70.7173 96.5434 72.7773Z" fill="white"/>
<path d="M148.234 8.67773C148.984 8.73773 149.494 8.68773 149.944 8.82773C150.664 9.04773 151.334 9.42773 152.054 9.66773C153.704 10.2277 155.394 10.6777 157.034 11.2777C161.064 12.7577 165.244 13.8577 168.854 16.3677C170.004 17.1677 171.534 17.4177 172.754 18.1577C177.474 20.9977 182.144 23.9177 186.804 26.8377C188.324 27.7877 189.824 28.7977 191.234 29.9077C194.264 32.2877 197.504 34.4377 199.374 38.0277C199.924 39.0777 201.094 39.7877 201.874 40.7377C202.264 41.2077 202.654 41.8977 202.604 42.4477C202.524 43.3277 201.644 43.2077 200.964 43.2077C198.054 43.1977 195.074 42.7977 192.244 43.2877C188.694 43.8977 185.274 45.2377 181.804 46.2777C180.244 46.7477 178.694 47.2577 177.154 47.7777C176.324 48.0577 175.464 48.3077 174.704 48.7177C172.904 49.6977 170.984 50.3377 169.294 51.6277C166.734 53.5777 164.744 53.4377 162.764 51.7077C162.234 51.2377 161.684 50.5077 161.614 49.8377C161.284 46.5177 161.144 43.1877 160.874 39.8677C160.794 38.8377 160.464 37.8277 160.344 36.7977C160.154 35.1777 159.984 33.5577 159.914 31.9377C159.804 29.4977 159.624 27.0477 159.774 24.6277C159.924 22.1677 158.694 20.5077 156.834 19.5777C153.994 18.1477 152.354 15.8177 150.864 13.2377C150.034 11.8277 149.234 10.4077 148.234 8.67773Z" fill="white"/>
</g>
<defs>
<clipPath id="clip0_183_15340">
<rect width="204.813" height="204.813" fill="white" transform="translate(0 0.774414)"/>
</clipPath>
</defs>
</svg>
