<svg width="951" height="800" viewBox="0 0 951 800" fill="none" xmlns="http://www.w3.org/2000/svg">
<g clip-path="url(#clip0_130_9854)">
<path d="M5.13379 595.469C6.55133 587.065 7.36136 578.458 9.48767 570.257C11.7152 561.65 15.0566 553.348 18.0942 544.944C18.8029 543.02 20.2205 541.4 22.4481 539.78C22.9543 544.032 23.3593 548.184 24.0681 552.436C24.9794 557.803 25.6882 563.27 27.5107 568.333C29.637 574.51 34.5984 575.623 39.4586 571.168C43.3062 567.624 46.9513 563.675 50.0901 559.524C72.467 530.667 95.8565 502.62 123.397 478.42C129.574 472.953 136.054 467.789 142.129 462.321C143.547 461.106 144.964 458.98 144.964 457.259C145.977 418.884 160.962 385.976 184.959 357.018C198.831 340.311 214.221 324.921 228.903 308.923C229.409 309.125 229.915 309.227 230.32 309.429C230.726 312.062 230.827 314.694 231.434 317.327C232.244 321.073 232.953 324.921 234.573 328.363C236.497 332.819 239.838 333.73 243.99 331.401C247.027 329.68 249.964 327.655 252.596 325.427C279.428 302.341 302.413 276.016 320.436 245.539C327.523 233.591 333.7 221.137 332.789 206.455C332.687 204.936 334.712 202.911 336.231 201.696C363.873 178.914 391.414 156.132 419.259 133.553C473.125 89.8114 526.992 46.2726 580.96 2.73383C582.377 1.62005 583.795 0.506265 585.82 0C581.162 9.72029 576.302 19.4406 571.847 29.2621C561.924 51.1328 552.204 73.1047 546.837 96.6966C544.306 107.733 544.61 118.669 548.154 129.401C553.52 145.602 565.974 153.095 582.782 150.361C596.35 148.234 608.602 142.564 620.55 136.185C657.912 116.238 691.325 90.6214 723.524 63.4856C739.421 50.019 754.507 35.5398 769.999 21.4656C770.607 20.8581 771.214 20.3519 772.834 20.2506C771.72 23.7945 770.91 27.4396 769.391 30.7809C759.165 53.2591 748.837 75.7373 738.307 98.1142C718.259 140.438 697.502 182.458 682.82 227.111C677.251 244.02 673.201 261.537 670.265 279.155C668.746 287.964 670.67 297.583 671.885 306.695C672.594 312.467 676.947 316.314 682.719 316.517C695.781 317.023 709.045 318.036 722.005 316.821C775.163 311.758 827.207 299.911 879.352 288.571C901.122 283.812 922.79 278.851 944.559 273.991C946.281 273.586 948.103 273.383 950.331 273.991C948.913 275.206 947.597 276.522 946.078 277.636C905.982 310.34 865.886 343.146 829.131 379.699C818.702 390.027 808.779 401.063 799.869 412.809C788.63 427.591 791.06 436.4 808.88 441.767C826.397 447.032 844.724 449.867 862.747 453.411C871.961 455.234 881.377 456.044 890.794 458.474C888.971 459.284 887.149 460.195 885.326 461.005C832.675 483.787 777.492 498.772 721.701 511.53C685.453 519.732 649.204 528.034 613.158 536.945C598.983 540.387 585.415 545.855 573.467 554.664C563.038 562.359 557.671 572.485 559.899 585.647C560.507 589.09 562.127 592.634 564.05 595.671C567.898 601.443 568.202 605.189 562.532 609.138C556.355 613.391 549.774 617.238 542.787 619.972C523.954 627.161 505.02 634.249 485.883 640.324C407.311 665.536 334.105 702.291 261.81 741.476C245.205 750.487 228.7 759.904 211.892 768.51C190.832 779.344 169.569 789.571 148.306 800C146.179 800 144.053 800 142.028 800C126.536 794.127 111.753 787.04 100.919 772.966C120.967 766.587 141.319 763.65 158.127 752.614C155.09 747.753 152.558 743.703 149.419 738.539C169.164 737.324 186.984 735.704 201.97 724.87C198.527 721.124 195.591 717.884 192.047 714.036C208.754 712.011 225.562 715.049 237.206 701.177C234.776 698.747 232.751 696.722 230.118 694.191C246.622 689.128 259.178 679.813 271.53 670.295C283.478 661.081 295.122 651.462 306.868 642.045C335.826 618.858 366.202 597.798 400.831 583.724C401.337 583.521 401.742 583.319 402.754 582.812C399.312 580.483 396.578 578.458 393.844 576.737C375.922 565.599 356.38 558.613 335.725 554.36C308.589 548.791 285.402 556.082 266.164 575.826C251.179 591.216 241.458 609.746 235.788 630.401C235.282 632.224 234.776 633.945 233.864 637.489C227.789 630.097 222.625 623.82 217.461 617.542C212.702 611.669 210.07 611.568 205.716 617.643C203.59 620.58 201.666 623.82 200.046 627.06C195.287 636.476 190.933 645.994 186.174 655.411C183.643 660.575 180.808 665.536 177.871 671.004C168.556 664.422 169.872 653.386 165.215 643.868C151.444 658.347 147.394 676.775 138.079 693.583C135.041 690.343 132.206 687.609 129.878 684.572C128.257 682.344 127.346 679.61 125.929 677.18C122.689 671.307 118.638 670.396 113.677 675.054C110.639 677.889 107.501 681.129 105.779 684.774C101.324 694.292 97.679 704.113 93.7302 713.834C93.1227 715.352 92.8189 717.074 92.4139 718.694C91.9076 718.998 91.4014 719.301 90.7938 719.605C88.2625 716.77 85.1237 714.34 83.3011 711.1C81.3773 707.657 81.0735 703.405 79.656 699.658C78.9472 697.633 77.3272 696.013 76.2134 694.089C74.5934 695.608 72.2645 696.722 71.5558 698.545C66.4931 711.404 61.7342 724.364 56.8741 737.324C56.2666 738.843 55.9628 740.463 55.4565 742.286C54.5453 741.476 54.1402 741.172 53.8365 740.868C32.1683 712.821 16.5754 681.939 9.48767 647.108C7.76637 638.501 6.65258 629.895 5.23504 621.187C5.13379 612.378 5.13379 603.873 5.13379 595.469ZM185.263 448.348C185.769 448.753 186.275 449.057 186.782 449.462C197.211 440.957 207.842 432.755 217.765 423.744C225.258 416.96 232.042 409.265 238.421 401.468C241.357 397.924 243.281 393.267 244.395 388.812C246.217 381.319 240.547 376.56 233.561 379.8C228.599 382.129 223.739 385.369 219.689 389.115C205.514 402.177 195.186 417.871 188.604 435.995C187.389 439.843 186.478 444.096 185.263 448.348ZM30.447 597.798C20.018 603.67 16.5754 626.655 24.1694 637.691C31.7633 625.237 30.8521 611.872 30.447 597.798Z" fill="white"/>
<path d="M4.1212 546.563C-3.16902 535.932 0.172333 513.859 10.1964 508.188L4.1212 546.563Z" fill="white"/>
</g>
<defs>
<clipPath id="clip0_130_9854">
<rect width="950.135" height="800" fill="white" transform="translate(0.195312)"/>
</clipPath>
</defs>
</svg>
