<svg width="216" height="216" viewBox="0 0 216 216" fill="none" xmlns="http://www.w3.org/2000/svg">
<g clip-path="url(#clip0_183_15347)">
<path d="M161.835 179.486C146.917 175.489 164.934 151.348 169.824 133.098C185.641 74.0699 196.404 111.668 193.018 32.0781C222.211 69.0808 211.282 145.742 192.76 152.942C174.238 160.142 174.724 182.22 161.835 179.486Z" fill="white"/>
<path d="M50.5079 179.423C61.9614 182.171 66.9016 164.086 62.8778 155.519C58.106 146.105 53.1275 134.351 43.8102 112.982C34.4928 91.6132 20.8365 87.4294 23.4488 45.7363C0.134044 70.728 3.18629 111.845 12.7638 137.075C18.5908 153.712 45.6196 178.113 50.5079 179.423Z" fill="white"/>
<path d="M141.327 159.197C143.745 155.009 153.126 137.355 154.721 128.947C159.759 159.663 149.752 180.543 139.327 180.543C135.938 180.543 138.909 163.384 141.327 159.197Z" fill="white"/>
<path d="M135.034 121.76C135.034 143.512 140.116 178.378 121.891 178.378C115.03 178.378 116.085 132.824 135.034 121.76Z" fill="white"/>
<path d="M106.291 179.609C99.2832 179.609 93.1555 161.181 95.0639 154.058C96.9723 146.936 100.65 137.35 99.8733 122.022C112.502 129.477 120.155 179.609 106.291 179.609Z" fill="white"/>
<path d="M83.4445 172.923C75.6246 173.688 72.228 160.895 71.207 143.069C88.3093 158.669 91.2645 172.159 83.4445 172.923Z" fill="white"/>
<path d="M74.6624 138.933C58.2021 127.381 49.9731 87.6182 64.0122 87.6182C86.0929 87.6182 73.7695 124.074 74.6624 138.933Z" fill="white"/>
<path d="M85.4819 119.021C79.9567 109.014 85.4769 92.4562 89.3437 92.9136C94.1708 93.4844 94.4819 109.986 85.4819 119.021Z" fill="white"/>
<path d="M140.301 136.227C154.056 122.471 170.222 81.8457 151.853 81.8457C142.039 81.8457 140.301 100.441 140.301 136.227Z" fill="white"/>
<path d="M120.278 121.975C124.473 113.451 126.567 91.2256 118.842 91.2256C112.095 91.2256 116.49 107.836 120.278 121.975Z" fill="white"/>
<path d="M105.869 122.448C94.9321 108.652 96.1666 89.125 103.598 89.125C111.029 89.125 109.999 112.511 105.869 122.448Z" fill="white"/>
<path d="M129.476 118.007C136.918 110.024 139.373 88.3398 131.648 88.3398C124.901 88.3398 128.033 103.328 129.476 118.007Z" fill="white"/>
<path d="M85.842 203.843H132.127C143.262 203.843 154.431 215.774 162.332 215.774C170.234 215.774 182.495 211.735 186.248 204.524C190.001 197.313 192.433 173.48 186.537 160.396C182.663 169.103 176.122 177.99 168.937 181.427C165.521 182.81 160.367 182.626 157.549 181.927C154.731 181.227 155.214 178.92 151.388 178.877C147.562 178.831 142.894 187.825 138.323 185.983C135.992 184.817 135.954 171.77 135.954 171.77C135.954 171.77 125.782 182.337 121.015 183.614C118.653 184.457 115.109 176.962 115.109 176.962C115.109 176.962 110.801 186.304 106.251 186.304C101.702 186.304 92.0378 167.396 92.0378 167.396C92.0378 167.396 87.3968 179.959 83.6883 179.959C79.925 180.183 77.9457 172.483 70.353 165.938C69.5528 165.938 67.9265 166.361 67.4374 166.85C65.6646 168.623 65.1702 173.389 63.9751 175.779C61.7864 180.157 60.672 186.244 51.4016 184.344C42.1312 182.444 34.7531 172.703 27.9205 163.521C27.2261 184.16 28.0393 212.273 50.2305 212.62C61.0418 212.62 72.5058 203.843 85.842 203.843Z" fill="white"/>
<path d="M80.5509 0.777106C77.987 0.672856 74.9702 2.33749 70.3542 4.34075C62.9687 7.54595 40.786 31.1027 38.0822 33.8066C35.3783 36.5104 37.0617 45.9269 37.0617 49.1135C37.0617 52.3 29.1133 53.2035 29.1133 68.271C29.1133 75.7621 37.2266 74.5348 39.9955 77.3037C44.0238 81.7838 37.1062 91.2803 53.5166 98.2231C53.5166 98.2231 54.5938 85.2123 57.9812 85.2123H74.4361C78.0179 85.2123 77.6862 90.7179 80.1762 94.2689C83.1764 91.5694 86.7818 88.2737 89.743 88.2737C92.7042 88.2737 93.3149 90.0317 95.3555 92.6106C96.7584 89.0666 100.561 85.0847 103.902 85.0847C107.243 85.0847 110.905 87.3943 112.448 92.3555C113.461 89.7086 117.988 85.2123 120.357 85.2123C122.726 85.2123 124.449 87.9148 124.949 91.335C125.636 88.3373 129.933 82.3422 132.252 82.3423C134.57 82.3423 138.215 91.5901 138.215 91.5901C138.215 91.5901 146.117 76.7935 151.608 76.7935C157.1 76.7935 165.257 92.2788 165.257 98.2231C169.017 88.3399 169.518 79.9003 169.084 69.3951C169.084 69.3951 177.745 72.7241 184.518 80.6202C189.378 74.4847 189.528 59.5151 187.452 55.3638C185.377 51.2119 183.131 53.6092 181.84 51.0268C180.548 48.4444 178.523 45.0615 178.523 42.8631C178.523 40.6647 182.594 36.3797 180.054 32.4034C174.748 23.9251 161.261 12.6135 150.46 6.12655C139.66 -0.360377 121.732 6.63678 116.02 6.63678C110.308 6.63678 102.465 6.0101 101.957 7.89642C101.448 9.78319 101.14 9.08543 96.9739 8.61393C92.808 8.14243 90.5343 1.18313 80.5509 0.777106ZM152.597 44.3221C151.122 51.7182 139.101 60.9973 132.562 58.8397C135.259 50.1147 144.046 46.4864 152.597 44.3221ZM62.2065 48.4996C70.0773 48.3135 77.0401 49.5759 82.241 58.473C71.5533 60.9914 62.065 56.7688 58.7864 48.6511C59.9455 48.5833 61.0821 48.5261 62.2065 48.4996ZM104.827 58.1701C106.093 58.1578 107.376 58.3019 109.036 58.6484C109.446 58.7582 109.864 61.1821 110.104 61.4227C110.344 61.6619 111.115 62.4931 111.061 62.5548C110.684 62.9312 110.347 63.0325 109.937 63.6789C109.527 64.3269 109.348 65.2176 109.116 65.2176C109.137 65.654 108.611 63.9193 108.119 63.4637C107.625 63.0055 106.947 62.8382 106.947 62.5867C108.32 61.9322 108.835 60.7435 108.558 59.063C108.08 58.108 103.4 58.4113 102.212 58.8078C101.395 59.6244 101.7 61.2942 102.004 61.5982C102.309 61.9023 103.093 61.9859 103.392 62.2838C103.195 62.4348 101.903 62.6822 101.654 63.4318C101.377 63.8553 101.27 65.1618 101 65.1618C100.73 65.1618 100.42 63.856 99.8519 63.2883C99.2978 62.7298 98.3316 62.2004 98.3531 62.1882C98.8191 61.9551 99.2554 61.7922 99.6766 61.5822C100.323 61.3067 100.105 58.9281 100.729 58.6165C102.311 58.3471 103.56 58.1816 104.827 58.1701Z" fill="white"/>
</g>
<defs>
<clipPath id="clip0_183_15347">
<rect width="215" height="215" fill="white" transform="translate(0.8125 0.774414)"/>
</clipPath>
</defs>
</svg>
