<svg width="219" height="219" viewBox="0 0 219 219" fill="none" xmlns="http://www.w3.org/2000/svg">
<g clip-path="url(#clip0_183_15012)">
<path d="M0 29.3505C2.65 30.1805 5.29 31.0505 7.95 31.8405C11.87 33.0105 15.86 33.7805 19.95 33.9205C24.23 34.0605 28.51 34.1205 32.79 34.2005C34.17 34.2305 35.55 34.2005 37.21 34.2005C36.26 32.2405 35.46 30.3105 34.42 28.5105C33.01 26.0605 31.35 23.7605 29.96 21.3005C29.15 19.8705 28.76 18.2105 28.02 16.7405C26.69 14.1005 25.24 11.5305 23.85 8.93053C23.64 8.54053 23.47 8.12053 23.2 7.52053C24.98 7.52053 26.59 7.44053 28.19 7.54053C31.59 7.74053 35 8.26053 38.4 8.28053C44.15 8.30053 49.9 8.07053 55.65 7.85053C56.94 7.80053 57.48 8.12053 57.75 9.45053C58.95 15.4105 60.17 21.3805 62.38 27.0805C63.32 29.5105 64.17 31.9805 65.15 34.4005C65.26 34.6705 65.89 34.8505 66.29 34.8705C71.57 35.0305 76.86 35.0605 82.13 35.3205C87.75 35.6005 93.34 35.6005 98.95 35.0205C102.17 34.6905 105.45 34.8505 108.7 34.8005C115.66 34.7105 122.63 34.5705 129.59 34.5705C134.75 34.5705 139.91 34.7005 145.07 34.8405C147.51 34.9105 149.94 35.1605 152.37 35.3405C153.22 35.4005 153.69 35.1505 154.06 34.2805C154.5 33.2505 155.41 32.4305 155.86 31.4105C156.31 30.4105 156.34 29.2305 156.72 28.1905C157.53 25.9505 158.55 23.7705 159.3 21.5105C160.67 17.4205 162.32 13.4005 162.46 8.99053C162.47 8.74053 162.93 8.30053 163.19 8.29053C168.44 8.13053 173.69 8.00053 178.94 7.91053C179.46 7.90053 179.99 8.24053 180.52 8.23053C183.08 8.20053 185.63 8.03053 188.18 8.04053C191.25 8.05053 194.32 8.16053 197.38 8.31053C198.33 8.36053 198.36 9.01053 197.76 9.92053C196 12.5905 194.09 15.2005 192.7 18.0605C191.42 20.7005 190.81 23.6505 189.77 26.4105C188.7 29.2505 187.47 32.0205 186.23 35.0405C187.8 34.9305 189.31 34.8905 190.8 34.7205C193.98 34.3405 197.16 33.9405 200.34 33.4705C204.62 32.8405 208.88 32.1305 213.15 31.4505C214.8 31.1905 216.44 30.9205 218.09 30.7005C218.36 30.6605 218.81 30.7805 218.92 30.9705C219.04 31.1805 218.93 31.6005 218.79 31.8605C218.58 32.2605 218.28 32.6205 218 32.9805C217.42 33.7405 217.19 34.4805 217.39 35.5105C217.82 37.7105 216.8 39.5505 215.57 41.2905C215.21 41.7905 214.93 42.3405 214.61 42.8705C213.97 43.9305 213.32 44.9805 212.7 46.0605C212.1 47.1005 211.5 48.1405 210.95 49.2105C209.08 52.8805 207.3 56.5905 205.37 60.2205C204.44 61.9705 201.89 62.6905 199.52 62.0505C195.44 60.9505 191.31 60.0205 187.09 60.0505C183.1 60.0805 179.12 60.6205 175.14 60.6805C173.44 60.7005 173.05 61.6405 172.5 62.8305C171.4 65.2005 170.13 67.4905 169.04 69.8705C168.19 71.7205 167.58 73.6705 166.76 75.5305C166.19 76.8105 165.45 78.0205 164.79 79.2605C163.94 80.8705 163.11 82.5005 162.25 84.1105C160.84 86.7405 159.4 89.3605 157.98 91.9805C156.5 94.7105 155.02 97.4505 153.55 100.181C151.92 103.221 150.27 106.251 148.68 109.311C146.74 113.041 145.27 116.951 144.04 120.971C143.15 123.871 141.68 126.521 139.95 129.051C138.48 131.201 137.33 133.571 136.12 135.891C133.87 140.201 131.68 144.531 129.49 148.871C128.87 150.091 128.18 151.321 127.83 152.631C127.59 153.521 127.64 154.661 128 155.501C130.76 161.941 133.69 168.291 138.82 173.301C140.16 174.611 141.28 176.161 142.68 177.391C144.04 178.581 145.59 179.561 147.14 180.511C148.18 181.151 148.27 181.521 147.35 182.341C146.12 183.441 144.49 184.401 143.87 185.801C142.81 188.171 140.72 189.441 139.16 191.261C137.23 193.521 135.04 195.611 133.47 198.101C132.68 199.361 131.84 200.511 130.86 201.591C130.31 202.201 129.81 202.871 129.22 203.451C127.6 205.081 125.92 206.641 124.33 208.291C122.42 210.281 121.23 210.031 120.35 207.321C118.58 201.911 116.84 196.481 115.06 191.071C114.92 190.651 114.63 190.281 114.43 189.881C114.08 189.171 113.59 188.471 113.46 187.721C113.23 186.311 112.74 185.521 111.66 185.371C110.57 185.221 109.36 185.981 108.87 187.051C107.55 189.911 106.18 192.741 104.89 195.611C104.12 197.321 103.49 199.091 102.73 200.791C101.31 203.981 99.9 207.171 98.34 210.291C98.04 210.891 97.11 211.171 96.66 211.481C95.39 210.271 94.2 209.201 93.09 208.071C92.01 206.971 91 205.811 89.97 204.661C87.05 201.421 84.12 198.181 81.23 194.921C80.77 194.401 80.29 193.781 80.13 193.141C79.63 191.161 78.36 189.761 76.86 188.551C75.38 187.351 73.81 186.251 72.25 185.161C71.33 184.521 70.97 183.631 71.01 182.591C71.05 181.631 71.65 181.131 72.59 180.921C72.92 180.851 73.21 180.531 73.47 180.271C80.44 173.341 86.56 165.711 92.01 157.541C92.75 156.431 93.28 155.191 94.06 154.111C95.33 152.371 95.71 150.651 94.84 148.561C93.21 144.671 91.94 140.611 90.17 136.791C87.85 131.781 85.15 126.941 82.69 121.991C81.8 120.211 81.02 118.361 80.38 116.471C79.3 113.271 77.18 110.671 75.61 107.771C72.73 102.451 70.23 96.9205 67.53 91.4905C66.46 89.3505 65.25 87.2805 64.16 85.1505C60.85 78.7405 57.57 72.3105 54.28 65.8905C53.68 64.7105 53.01 63.5605 52.5 62.3405C51.95 61.0505 50.97 60.6905 49.71 60.7105C47.63 60.7505 45.53 60.6905 43.46 60.8605C41.69 61.0005 39.89 61.2105 38.21 61.7305C33.78 63.1105 29.41 64.7105 25 66.1705C23.15 66.7805 23.32 66.5505 22.04 65.1605C20.1 63.0405 17.79 61.2705 15.79 59.2005C14.84 58.2105 14.14 56.9305 13.52 55.6905C12.63 53.9105 11.9 52.0405 11.13 50.2005C10.08 47.7105 9.13 45.1805 8 42.7305C7.23 41.0805 6.28 39.5105 5.3 37.9705C4.03 35.9905 2.66 34.0605 1.3 32.1405C0.94 31.6605 0.43 31.2805 0 30.8505C0 30.3505 0 29.8505 0 29.3505ZM83.52 58.7205C83.88 59.8605 84.23 60.5905 84.34 61.3605C85.17 66.8005 87.48 71.7205 89.97 76.5005C92.12 80.6205 94.54 84.6105 97.2 88.4705C100 92.5405 102.35 96.9305 104.77 101.251C106.37 104.121 107.8 107.091 109.21 110.061C110.41 112.581 111.47 115.171 112.59 117.731C112.74 117.721 112.89 117.711 113.04 117.701C114.41 114.891 115.79 112.091 117.14 109.281C119.37 104.641 121.52 99.9605 123.83 95.3605C125.37 92.2905 126.66 89.0705 129.03 86.4605C129.76 85.6605 130.13 84.5205 130.57 83.4905C131.46 81.4505 132.29 79.3805 133.13 77.3105C133.49 76.4305 133.78 75.5205 134.14 74.6305C134.47 73.8205 134.75 72.9805 135.21 72.2505C137.56 68.6005 139.59 64.8205 140.58 60.5405C140.89 59.2105 140.88 59.0905 139.56 59.0505C135.11 58.9005 130.66 58.7105 126.2 58.6405C120.87 58.5505 115.57 58.1205 110.21 58.5205C104.48 58.9505 98.71 58.7405 92.95 58.7905C91.25 58.8005 89.54 58.7405 87.83 58.7205C86.48 58.7105 85.13 58.7205 83.52 58.7205Z" fill="white"/>
</g>
<defs>
<clipPath id="clip0_183_15012">
<rect width="218.971" height="218.971" fill="white"/>
</clipPath>
</defs>
</svg>
