<svg width="197" height="197" viewBox="0 0 197 197" fill="none" xmlns="http://www.w3.org/2000/svg">
<g clip-path="url(#clip0_183_15032)">
<path d="M124.717 54.5678C125.067 54.5078 125.327 54.3778 125.447 54.4578C128.697 56.6678 130.677 54.5578 132.557 52.3178C133.787 50.8578 134.937 49.3178 136.057 47.7778C138.337 44.6278 136.967 41.2078 136.147 38.1778C133.327 27.7678 135.647 18.3778 140.937 9.42779C143.027 5.89779 146.667 4.25779 150.117 2.55779C154.077 0.59779 158.407 -0.0822093 162.827 0.00779066C163.707 0.0277907 164.587 0.277791 165.477 0.417791C165.497 0.627791 165.527 0.847791 165.547 1.05779C164.917 1.34779 164.297 1.68779 163.647 1.90779C159.697 3.27779 156.227 5.64779 154.167 9.09779C150.127 15.8778 149.167 22.9278 154.507 30.8478C159.697 38.5578 169.697 41.1978 178.107 37.2478C180.387 36.1778 182.687 35.1078 184.827 33.7978C186.977 32.4778 188.897 30.8878 189.867 28.3378C190.297 27.1978 191.357 26.2978 192.437 24.8978C194.297 30.3378 194.537 35.2678 192.957 40.3178C189.097 52.6678 176.927 60.2378 164.757 59.3078C160.727 58.9978 156.817 58.6978 153.037 57.0478C150.027 55.7378 147.857 57.1378 147.027 60.3778C146.867 60.9978 146.207 61.5978 145.637 61.9878C141.947 64.4978 138.017 66.7378 136.307 71.2678C136.137 71.7178 135.407 72.2278 134.937 72.2278C133.247 72.2578 132.647 73.5378 131.967 74.6478C131.197 75.8978 131.297 77.0978 132.667 78.0078C133.967 78.8778 135.207 79.8478 136.497 80.7478C136.757 80.9278 137.137 81.1778 137.387 81.1078C139.947 80.4578 139.867 82.5978 140.437 83.9778C141.027 85.4078 141.517 86.8878 142.057 88.3378C142.227 88.7878 142.487 89.1978 142.637 89.6478C145.307 97.5778 148.037 105.448 147.677 114.048C147.517 117.988 148.527 121.978 148.257 125.898C147.677 134.428 146.367 142.868 143.427 150.968C143.377 151.098 143.357 151.248 143.277 151.348C142.647 152.038 141.997 152.718 141.357 153.408C141.087 152.568 140.667 151.748 140.567 150.888C139.847 144.998 139.257 139.088 138.467 133.208C138.317 132.068 137.427 131.038 137.037 129.908C136.797 129.208 136.687 128.368 136.817 127.638C137.587 123.448 137.477 119.338 135.927 115.338C135.487 114.198 135.057 112.828 134.177 112.138C131.517 110.048 132.117 107.588 132.887 104.988C132.937 104.808 132.897 104.598 132.897 104.288C132.407 104.098 131.897 103.708 131.417 103.738C129.027 103.908 128.287 102.238 127.347 100.508C125.187 96.5278 121.797 94.3578 117.177 94.3378C115.337 94.3278 114.467 95.6378 113.557 96.9578C113.077 97.6578 112.487 98.3778 111.787 98.8178C110.437 99.6678 110.197 100.698 111.037 102.048C112.357 104.178 113.547 106.388 114.787 108.568C114.917 108.808 114.927 109.218 115.107 109.308C119.417 111.448 117.387 115.738 118.267 118.988C119.217 122.488 119.427 126.198 119.777 129.838C120.317 135.398 120.727 140.938 118.757 146.418C118.327 147.598 118.957 149.468 119.677 150.678C120.377 151.848 120.217 152.308 119.437 153.258C118.577 154.298 117.607 155.618 117.527 156.878C117.297 160.578 115.157 163.138 112.897 165.658C111.997 166.658 111.897 167.448 112.697 168.518C113.617 169.738 113.127 171.628 111.727 171.638C107.687 171.658 106.277 175.098 103.857 177.198C101.657 179.108 99.4372 181.008 97.3072 182.998C96.8272 183.448 96.7572 184.298 96.3472 184.858C95.8172 185.598 95.2472 186.428 94.4972 186.878C93.4872 187.488 92.2272 187.678 91.1672 188.218C84.5472 191.608 77.6172 193.938 70.2072 194.818C68.4472 195.028 66.6872 195.528 64.9372 195.488C62.1672 195.428 59.3972 195.058 56.6372 194.758C53.0272 194.368 49.4072 193.878 46.0072 195.698C44.6872 196.398 43.9972 196.248 43.8472 194.598C43.7072 193.058 42.7972 192.148 41.3372 191.458C37.5772 189.688 33.7572 187.948 30.2572 185.728C28.2072 184.428 26.7772 182.188 24.9572 180.488C23.3972 179.028 21.7072 177.708 20.0172 176.388C19.6972 176.138 19.1372 176.108 18.6872 176.138C17.0272 176.238 16.0172 175.288 15.6772 173.708C15.2972 171.958 14.6072 170.278 14.0272 168.568C13.9472 168.318 13.7572 168.028 13.5372 167.928C9.73722 166.088 8.67722 162.098 7.32722 158.818C5.14722 153.498 3.61722 147.798 2.67722 142.118C1.47722 134.878 2.27722 127.538 3.72722 120.358C5.04722 113.788 8.30722 108.208 13.2772 103.648C15.0672 102.008 15.0572 99.9078 14.3872 97.7578C13.5872 95.1678 13.6472 95.1778 16.2372 95.0578C17.1672 95.0178 18.2272 94.5478 18.9472 93.9378C21.5372 91.7378 23.9072 89.2678 26.5572 87.1378C28.3972 85.6578 30.4972 84.4578 32.6072 83.3778C34.8272 82.2378 35.9372 80.5378 36.2872 78.1478C36.3772 77.5178 36.9572 76.9678 37.3172 76.3778C37.8272 76.7678 38.4572 77.0578 38.8372 77.5478C40.5672 79.7678 41.0272 79.7678 43.6972 78.9478C46.6972 78.0178 49.6772 76.5378 53.0072 78.0578C53.7472 78.3978 54.9772 78.2078 55.7572 77.8178C59.0772 76.1778 62.5672 76.6478 66.0172 76.8478C67.4272 76.9278 68.8272 77.2778 70.2072 77.6178C71.7572 77.9978 73.1272 78.6278 74.4372 76.8178C75.4372 75.4378 76.9272 75.6678 78.0672 77.0878C78.3472 77.4278 78.7472 77.7078 79.1472 77.9178C82.7372 79.8378 86.3872 81.6478 89.9172 83.6578C93.0872 85.4578 94.7272 85.0978 96.5972 81.9478C96.9672 81.3278 97.6072 80.6478 98.2572 80.4678C101.217 79.6178 102.807 76.5378 101.877 73.6978C100.487 69.4878 97.8572 66.4878 93.7172 64.9478C91.9372 64.2878 90.0272 63.9778 88.1572 63.6178C86.6272 63.3178 85.3572 63.1478 84.0572 61.7078C82.7972 60.3078 80.3372 59.8278 78.3072 59.3478C75.7372 58.7278 73.0272 58.6878 70.4572 58.0578C69.0572 57.7178 67.8172 56.6778 66.5072 55.9578C62.9572 53.9978 59.0972 53.2578 55.0872 53.2078C49.5472 53.1378 44.0072 53.1278 38.4672 53.0878C37.9372 53.0878 37.3972 52.9978 36.1972 52.8978C37.0572 51.9478 37.4972 51.0078 38.1772 50.7678C42.4272 49.3078 46.6472 47.3278 51.0372 46.8178C57.6772 46.0378 64.4472 46.2278 71.1572 46.1878C75.6372 46.1678 80.1272 46.4478 84.6072 46.6378C85.8272 46.6878 87.1172 46.6978 88.2572 47.0678C93.5572 48.8078 98.8372 50.6278 104.087 52.5278C105.727 53.1178 107.287 53.9678 108.817 54.8378C109.267 55.0978 109.787 55.8378 109.727 56.2878C109.437 58.5778 110.987 59.8178 112.397 61.0478C115.187 63.4678 120.957 63.0978 123.507 60.4578C124.657 59.2578 125.307 57.9078 124.847 56.1878C124.757 55.6478 124.767 55.1078 124.717 54.5678Z" fill="white"/>
</g>
<defs>
<clipPath id="clip0_183_15032">
<rect width="196.093" height="196.093" fill="white"/>
</clipPath>
</defs>
</svg>
