<svg width="214" height="213" viewBox="0 0 214 213" fill="none" xmlns="http://www.w3.org/2000/svg">
<g clip-path="url(#clip0_183_15016)">
<path d="M132.758 -0.00585938C133.948 1.49414 134.108 5.84414 133.198 7.73414C131.148 11.9641 128.298 15.6341 125.188 19.0941C123.778 20.6641 122.148 22.2041 119.828 22.4841C119.618 22.5141 119.388 22.5941 119.208 22.7241C115.678 25.2141 111.768 27.2841 109.588 31.2841C109.438 31.5541 109.248 31.8241 109.188 32.1141C108.568 35.1241 107.568 38.0541 107.728 41.2141C107.848 43.4241 107.698 45.6541 107.568 47.8741C107.398 50.7441 108.238 53.3841 109.158 56.0441C109.928 58.2641 110.918 60.5441 110.998 62.8141C111.088 65.4041 110.758 68.2341 109.748 70.5941C108.118 74.4441 105.778 78.0041 103.758 81.6941C102.828 83.4041 101.418 84.5941 99.9381 85.8341C97.2981 88.0541 94.8481 90.5241 92.5181 93.0841C90.4881 95.3141 89.5281 98.1341 89.4581 101.154C89.4081 103.454 89.3181 105.814 89.7681 108.044C90.6381 112.344 93.7581 115.154 97.0381 117.754C97.3081 117.974 97.5981 118.164 97.8781 118.364C96.3381 120.474 94.2281 121.394 91.7981 122.034C89.9581 122.514 88.3081 123.694 86.5681 124.544C86.1781 124.734 85.7681 124.984 85.3481 125.014C83.0981 125.164 81.8781 126.594 80.9481 128.414C80.8281 128.654 80.7981 128.984 80.6081 129.134C77.9481 131.164 77.1381 134.844 74.0481 136.494C73.8281 136.614 73.6581 136.864 73.5081 137.074C71.3681 140.014 69.0881 142.864 67.1581 145.934C66.0681 147.664 65.3881 149.714 64.8281 151.704C63.6681 155.794 62.3081 159.894 61.7781 164.074C61.3081 167.804 61.6181 171.684 61.9881 175.464C62.3681 179.384 63.1681 183.264 63.8981 187.144C64.1081 188.244 64.6881 189.284 65.1881 190.314C66.1281 192.254 67.2081 194.144 68.0881 196.114C68.7981 197.714 69.4081 199.394 69.8481 201.084C70.2581 202.674 70.3781 204.334 70.6181 205.934C67.8581 206.624 65.7781 205.634 63.6981 204.624C61.7181 203.664 59.7281 202.724 57.7581 201.734C57.2981 201.504 56.9281 201.094 56.5181 200.774C56.1081 200.444 55.7281 199.944 55.2681 199.834C53.7281 199.474 53.0681 198.324 52.4081 197.084C52.1081 196.514 51.6881 195.924 51.1581 195.584C48.7581 194.044 46.2581 192.664 43.8781 191.094C42.8981 190.444 41.9381 189.594 41.2881 188.624C39.9481 186.614 37.9281 185.394 36.2181 183.814C35.5881 183.234 35.1181 182.474 34.5881 181.794C34.4781 181.654 34.4281 181.464 34.2981 181.344C30.7181 178.244 29.2781 173.664 26.5381 169.964C23.9681 166.484 22.3281 162.324 20.2281 158.484C19.5581 157.264 18.6381 156.174 17.9881 154.944C17.5981 154.184 17.5281 153.264 17.2881 152.414C17.0581 151.574 16.7981 150.744 16.5481 149.914C16.5081 149.784 16.3881 149.684 16.3681 149.564C15.9481 147.354 15.5281 145.134 15.1081 142.914C15.0881 142.824 15.1381 142.724 15.1081 142.654C13.8681 140.054 14.5481 136.974 13.0481 134.434C12.8881 134.154 12.8981 133.754 12.8981 133.404C12.8681 127.804 12.8481 122.204 12.8581 116.604C12.8581 116.144 13.0881 115.684 13.2581 115.244C13.3881 114.874 13.6981 114.534 13.7281 114.164C13.9281 111.504 14.8981 109.084 15.8581 106.634C16.8181 104.204 17.5081 101.664 18.4081 99.2041C20.0081 94.8641 22.8281 91.3441 26.1481 88.2241C32.7181 82.0541 40.4181 77.7241 48.7781 74.4741C52.7581 72.9241 56.7881 71.4141 59.9781 68.4541C63.9381 64.7841 66.4381 60.3541 66.4681 54.7841C66.4881 52.1141 66.4881 49.4441 66.5481 46.7841C66.6481 42.3841 67.8181 38.2541 69.7581 34.3041C70.4881 32.8141 70.7381 31.0541 71.6281 29.6841C72.7381 27.9741 74.3281 26.5741 75.6281 24.9741C77.0181 23.2641 78.1581 21.3041 79.7281 19.8041C81.1581 18.4341 82.3981 16.5341 84.7581 16.5041C84.8481 16.5041 84.9381 16.4841 85.0181 16.4641C87.5681 15.7941 90.1181 15.1341 92.6581 14.4541C94.2381 14.0341 95.8281 13.6641 97.3781 13.1441C98.3681 12.8141 99.2581 12.1841 100.248 11.8141C101.148 11.4741 102.098 11.1241 103.038 11.0941C105.438 11.0041 107.838 11.0841 110.238 11.1041C110.678 11.1041 111.158 11.1941 111.568 11.0741C113.948 10.4141 116.358 9.84414 118.658 8.97414C120.368 8.33414 121.988 7.39414 123.528 6.39414C125.378 5.19414 126.998 3.60414 128.908 2.52414C130.158 1.82414 131.408 1.26414 132.228 0.0441406C132.408 -0.00585938 132.578 -0.00585938 132.758 -0.00585938Z" fill="white"/>
<path d="M110.509 126.274C115.739 126.314 120.289 127.364 124.629 129.324C124.869 129.434 125.119 129.574 125.369 129.604C130.589 130.304 134.689 133.444 138.539 136.504C142.959 140.024 146.789 144.354 149.299 149.584C150.169 151.404 151.049 153.214 150.879 155.404C150.789 156.624 151.439 157.884 151.619 159.154C151.809 160.494 151.899 161.864 151.909 163.224C151.939 169.004 152.019 174.774 151.839 180.544C151.789 182.174 150.919 183.784 150.399 185.394C150.239 185.894 149.769 186.364 149.779 186.844C149.809 189.814 148.039 191.944 146.379 194.034C141.329 200.414 135.399 205.854 127.809 209.034C121.459 211.684 114.829 213.384 107.809 212.644C103.779 212.224 99.7686 211.644 96.0186 210.054C95.0386 209.644 94.3886 208.494 93.5386 207.744C91.8886 206.294 90.2086 204.864 88.5086 203.464C88.1786 203.194 87.7086 203.094 87.2986 202.924C85.9586 202.384 84.5786 201.934 83.2986 201.304C80.2186 199.784 78.3686 197.094 76.7586 194.194C76.3686 193.494 76.0586 192.754 75.6186 192.094C73.7086 189.194 72.3886 186.024 71.2486 182.764C71.1486 182.474 71.0486 182.154 70.8586 181.924C68.4786 179.164 68.0486 175.844 67.9886 172.364C67.9486 170.104 67.6286 167.854 67.5486 165.594C67.5186 164.794 67.8786 163.984 67.9986 163.164C69.3986 153.694 73.6486 145.734 80.6086 139.204C87.4986 132.734 95.7086 128.834 104.899 126.894C105.589 126.744 106.279 126.514 106.979 126.454C108.299 126.344 109.639 126.314 110.509 126.274Z" fill="white"/>
<path d="M195.139 133.424C198.009 133.034 200.449 135.054 200.579 138.224C200.589 138.574 200.609 138.944 200.739 139.264C202.339 143.074 202.239 146.884 200.869 150.734C200.639 151.374 200.629 152.154 200.729 152.834C201.129 155.544 200.059 157.984 199.269 160.434C198.429 163.044 197.259 165.544 196.239 168.094C194.049 173.584 190.819 178.434 187.329 183.174C183.609 188.224 178.819 192.064 173.949 195.854C172.519 196.964 171.229 198.274 169.779 199.354C168.759 200.114 167.609 200.724 166.459 201.294C163.159 202.914 159.799 204.424 156.539 206.104C154.949 206.924 154.349 205.684 153.659 204.874C153.389 204.554 153.709 203.654 153.879 203.054C154.279 201.654 154.759 200.284 155.179 198.894C155.669 197.304 156.059 195.684 156.619 194.114C157.379 191.994 158.459 189.974 159.029 187.804C159.509 185.994 159.439 184.034 159.639 182.144C159.729 181.274 159.909 180.414 160.029 179.554C160.159 178.684 160.379 177.804 160.379 176.924C160.409 170.084 160.209 163.234 160.509 156.404C160.589 154.514 162.109 152.674 163.029 150.844C163.099 150.704 163.669 150.794 164.009 150.824C167.369 151.074 170.729 151.544 174.089 151.534C176.589 151.524 179.089 150.884 181.589 150.524C181.719 150.504 181.859 150.484 181.979 150.424C183.939 149.524 185.779 148.394 187.999 148.024C188.809 147.884 189.709 146.874 190.119 146.044C191.519 143.264 193.189 140.594 193.619 137.374C193.769 136.074 194.559 134.844 195.139 133.424Z" fill="white"/>
</g>
<defs>
<clipPath id="clip0_183_15016">
<rect width="212.824" height="212.824" fill="white" transform="translate(0.972656)"/>
</clipPath>
</defs>
</svg>
