<svg width="799" height="800" viewBox="0 0 799 800" fill="none" xmlns="http://www.w3.org/2000/svg">
<g clip-path="url(#clip0_130_9827)">
<path d="M0.429688 189.758C0.429688 126.535 0.429688 63.3119 0.429688 0C118.098 0 235.677 0 353.345 0C353.522 1.41875 353.788 2.92618 353.788 4.34493C353.788 58.701 353.788 113.057 353.877 167.502C353.877 170.783 352.724 171.935 349.709 172.822C270.525 195.788 218.918 247.129 200.651 327.2C182.208 407.892 205.883 477.588 269.106 531.589C315.482 571.226 369.926 587.808 430.844 577.788C542.748 559.344 618.031 455.42 601.804 342.806C590.099 261.405 529.359 193.483 449.731 172.999C445.83 172.024 445.12 170.25 445.12 166.704C445.209 112.88 445.209 59.1443 445.209 5.32033C445.209 3.54689 445.475 1.77344 445.652 0.0886721C563.32 0.0886721 680.9 0.0886721 798.568 0.0886721C798.568 63.3119 798.568 126.624 798.568 189.847C749.532 189.847 700.496 189.758 651.461 189.758C650.928 189.758 650.485 190.113 650.13 190.202C658.998 200.044 668.131 209.266 676.289 219.375C748.379 308.668 773.119 409.931 749.621 522.013C718.408 670.716 596.306 780.492 442.372 797.428C433.77 798.404 425.081 799.113 416.391 800C405.129 800 393.957 800 382.695 800C381.277 799.734 379.858 799.379 378.35 799.291C356.803 798.049 335.433 795.123 314.418 790.246C133.704 748.393 20.3809 580.093 44.4111 397.428C54.8744 317.978 89.9886 250.321 146.384 193.571C147.359 192.596 148.246 191.532 149.754 189.847C147.448 189.847 145.941 189.847 144.522 189.847C127.231 189.847 109.94 189.847 92.6487 189.847C61.8795 189.67 31.1102 189.758 0.429688 189.758Z" fill="white"/>
</g>
<defs>
<clipPath id="clip0_130_9827">
<rect width="798.138" height="800" fill="white" transform="translate(0.429688)"/>
</clipPath>
</defs>
</svg>
