<svg width="230" height="229" viewBox="0 0 230 229" fill="none" xmlns="http://www.w3.org/2000/svg">
<g clip-path="url(#clip0_183_15153)">
<path d="M229.204 128.126C228.894 128.666 228.584 129.216 228.294 129.726C228.134 129.726 228.054 129.746 227.984 129.726C227.314 129.536 226.644 129.336 225.964 129.136C225.844 129.776 225.614 130.416 225.614 131.056C225.614 134.696 225.814 138.336 225.664 141.966C225.384 148.526 223.374 154.746 221.574 161.006C219.454 168.386 217.084 175.656 213.824 182.626C212.804 184.796 211.604 186.776 209.864 188.426C207.314 190.846 204.764 193.276 202.204 195.686C201.924 195.946 201.604 196.156 201.304 196.396C201.194 196.336 201.074 196.276 200.964 196.216C201.924 192.776 202.634 189.236 203.934 185.926C205.224 182.626 205.674 179.286 205.614 175.846C205.504 169.566 204.004 163.586 201.344 157.916C200.794 156.736 200.024 155.626 199.164 154.656C198.724 154.166 197.834 153.816 197.174 153.856C195.914 153.916 194.664 154.266 193.424 154.556C191.954 154.896 190.474 155.216 189.054 155.686C187.994 156.036 186.884 156.476 186.004 157.146C184.514 158.276 183.164 159.596 181.794 160.886C181.224 161.426 180.674 162.036 180.254 162.696C178.614 165.296 177.054 167.956 175.394 170.546C174.924 171.276 174.224 171.846 173.624 172.486C173.434 172.436 173.244 172.386 173.054 172.326C172.974 171.646 172.694 170.896 172.864 170.286C173.244 168.916 173.734 167.536 174.384 166.276C176.634 161.916 178.964 157.586 181.294 153.266C181.884 152.176 181.824 151.196 181.254 150.096C180.344 148.326 179.504 146.506 178.734 144.666C177.004 140.576 173.814 137.956 170.054 135.886C169.074 135.346 168.034 134.926 167.044 134.396C163.994 132.766 161.044 133.076 158.174 134.836C156.814 135.666 155.464 135.896 153.984 135.106C153.144 134.656 152.994 134.086 153.244 133.236C153.424 132.636 153.614 131.986 153.574 131.376C153.394 128.506 153.244 125.626 152.854 122.786C152.544 120.546 151.974 118.326 151.384 116.136C151.164 115.316 150.684 114.486 150.094 113.876C148.054 111.736 147.414 109.156 147.344 106.316C147.254 102.766 147.024 99.216 146.894 95.666C146.844 94.186 146.454 93.006 145.104 92.136C143.834 91.316 143.444 89.966 143.604 88.766C144.584 88.516 145.364 88.226 146.164 88.136C146.674 88.076 147.224 88.296 147.754 88.406C148.744 88.616 149.734 88.996 150.734 89.026C154.124 89.126 157.524 89.116 160.914 89.146C161.354 89.146 161.804 89.096 162.234 89.186C164.534 89.646 165.684 88.516 166.544 86.496C167.834 83.476 168.684 80.416 168.714 77.116C168.754 72.716 168.934 68.326 168.964 63.926C169.004 57.906 167.884 52.186 164.624 46.986C163.334 44.926 162.354 42.676 161.204 40.526C160.344 38.906 160.394 37.306 161.194 35.706C162.304 33.476 163.974 31.816 166.234 30.766C167.504 30.166 168.444 30.516 168.884 31.836C169.114 32.546 169.134 33.326 169.194 34.076C169.384 36.756 170.604 38.216 173.154 38.926C173.864 39.126 174.554 39.516 175.164 39.936C179.414 42.846 183.514 45.996 187.904 48.666C194.474 52.656 200.144 57.676 205.144 63.406C208.044 66.726 210.364 70.566 212.764 74.286C214.534 77.036 215.994 79.986 217.644 82.816C220.204 87.206 221.554 92.076 223.204 96.816C226.234 105.556 228.294 114.526 228.974 123.776C229.004 124.206 229.124 124.636 229.204 125.056C229.204 126.046 229.204 127.086 229.204 128.126ZM211.074 83.786C210.944 83.846 210.814 83.916 210.674 83.976C210.814 84.476 210.934 84.986 211.084 85.486C212.284 89.326 213.714 93.116 214.624 97.016C216.074 103.206 216.414 109.646 218.904 115.596C218.964 115.736 218.934 115.916 218.934 116.076C218.914 125.956 218.884 135.826 218.854 145.706C218.854 146.056 218.854 146.406 218.854 146.766C219.194 146.526 219.314 146.286 219.354 146.026C219.874 142.716 220.374 139.406 220.914 136.096C221.104 134.966 221.684 133.846 221.634 132.736C221.324 126.716 221.114 120.666 220.424 114.676C219.274 104.696 216.324 95.166 212.424 85.926C212.104 85.156 211.524 84.496 211.074 83.786ZM187.384 70.956C187.544 71.756 187.654 72.486 187.844 73.186C188.494 75.526 189.364 77.836 189.824 80.216C191.644 89.666 192.264 99.236 192.224 108.836C192.204 112.506 191.894 116.186 191.784 119.856C191.754 120.746 191.984 121.646 192.094 122.536C193.534 121.036 193.894 119.306 193.884 117.556C193.874 111.126 193.964 104.686 193.644 98.276C193.314 91.616 192.514 84.976 191.984 78.326C191.734 75.256 189.574 73.296 187.924 71.036C187.864 70.976 187.694 70.996 187.384 70.956Z" fill="white"/>
<path d="M30.005 198.446C27.255 195.776 24.605 192.996 21.725 190.476C19.085 188.166 16.995 185.546 15.515 182.366C12.785 176.496 10.005 170.646 8.37504 164.356C6.88504 158.566 5.53504 152.726 4.29504 146.876C3.87504 144.866 3.86504 142.746 3.86504 140.666C3.86504 137.276 4.02504 133.876 4.12504 130.486C4.16504 129.046 3.91504 128.836 2.53504 129.236C1.02504 129.676 0.16504 129.056 0.27504 127.366C0.39504 125.376 0.70504 123.396 0.99504 121.426C2.72504 109.536 5.98504 98.0759 11.045 87.1859C14.205 80.3859 18.325 74.1659 23.135 68.3859C28.115 62.3959 33.545 56.9059 39.935 52.3959C45.125 48.7259 50.205 44.9059 55.355 41.1959C56.255 40.5459 57.255 40.0259 58.255 39.5259C59.145 39.0759 59.585 38.4259 59.555 37.4359C59.545 37.1959 59.525 36.9559 59.545 36.7159C59.725 35.1459 60.255 34.8259 61.775 35.2359C64.225 35.8959 65.615 37.6359 66.745 39.7659C67.595 41.3559 67.935 42.8359 66.995 44.5059C65.855 46.5159 64.875 48.6159 63.685 50.5959C61.795 53.7359 60.085 56.9559 59.835 60.6859C59.485 65.8259 59.245 70.9759 59.025 76.1259C58.955 77.7159 59.155 79.3159 59.165 80.9159C59.195 84.6059 60.665 87.8259 62.385 90.9659C62.585 91.3259 63.185 91.6959 63.585 91.6759C66.135 91.5859 68.675 91.3559 71.225 91.2559C72.575 91.2059 73.965 91.1459 75.265 91.4159C76.975 91.7759 78.495 91.7959 79.895 90.6359C80.045 90.5059 80.235 90.4259 80.415 90.3359C80.485 90.3059 80.565 90.3059 80.725 90.2859C81.115 91.2259 80.995 92.0259 80.165 92.6859C79.915 92.8859 79.655 93.0659 79.395 93.2559C77.795 94.4459 77.825 94.6659 79.145 96.0659C79.585 96.5359 79.935 97.3159 79.905 97.9459C79.725 102.416 79.455 106.886 79.155 111.356C79.115 111.996 78.885 112.796 78.455 113.206C75.765 115.746 74.745 119.056 74.195 122.516C73.705 125.626 73.495 128.786 73.205 131.926C73.145 132.556 73.185 133.216 73.325 133.826C73.475 134.516 73.735 135.216 73.005 135.656C72.265 136.096 71.445 136.546 70.545 135.986C67.705 134.256 64.625 133.956 61.405 134.386C61.135 134.426 60.845 134.466 60.595 134.586C56.985 136.246 53.545 138.166 50.815 141.136C50.385 141.606 49.995 142.136 49.725 142.706C48.495 145.306 47.255 147.896 46.175 150.556C45.905 151.226 46.015 152.256 46.345 152.916C48.305 156.886 50.465 160.776 52.395 164.756C53.145 166.316 53.575 168.046 53.995 169.736C54.135 170.296 53.785 170.986 53.655 171.616C53.505 171.666 53.365 171.716 53.215 171.756C52.765 171.266 52.195 170.836 51.875 170.266C50.205 167.356 48.635 164.386 46.945 161.486C46.615 160.926 45.945 160.556 45.425 160.106C44.595 159.386 43.605 158.776 42.945 157.926C41.675 156.276 40.105 155.326 38.075 154.926C36.155 154.546 34.285 153.976 32.385 153.476C30.395 152.956 28.545 153.626 27.635 155.476C23.825 163.176 21.545 171.236 22.835 179.896C23.435 183.906 25.065 187.626 27.875 190.696C28.025 190.866 28.265 191.106 28.235 191.276C27.925 192.826 29.015 193.606 29.925 194.486C30.265 194.826 30.615 195.146 30.955 195.496C32.145 196.726 32.125 197.006 30.795 198.016C30.605 198.156 30.425 198.316 30.235 198.456C30.165 198.446 30.085 198.446 30.005 198.446ZM18.815 85.3359C18.185 85.9159 17.595 86.2159 17.375 86.6959C16.335 88.9759 15.185 91.2259 14.445 93.6059C11.965 101.556 9.80504 109.606 8.42504 117.826C7.91504 120.886 7.72504 124.026 7.75504 127.136C7.79504 130.926 8.15504 134.716 8.50504 138.496C8.77504 141.436 9.22504 144.356 9.63504 147.286C9.68504 147.666 9.98504 148.016 10.175 148.376C10.295 148.326 10.415 148.266 10.545 148.216C10.565 147.866 10.625 147.506 10.595 147.156C10.425 145.176 10.045 143.186 10.075 141.206C10.185 133.976 10.435 126.756 10.615 119.526C10.635 118.936 10.475 118.336 10.525 117.746C10.585 117.046 10.765 116.346 10.955 115.656C11.045 115.326 11.375 115.046 11.455 114.716C12.065 112.276 12.805 109.856 13.185 107.386C14.065 101.696 15.235 96.0759 17.025 90.6059C17.205 90.0559 17.525 89.5459 17.815 89.0359C18.405 87.9959 19.115 87.0059 18.815 85.3359ZM35.845 123.746C35.995 123.746 36.145 123.756 36.285 123.756C36.385 123.236 36.555 122.716 36.555 122.186C36.555 118.556 36.495 114.926 36.495 111.296C36.495 103.296 36.875 95.3259 38.255 87.4359C38.945 83.4759 39.995 79.5759 40.885 75.6559C40.975 75.2659 41.015 74.8659 41.075 74.4759C40.935 74.4059 40.795 74.3359 40.665 74.2659C39.445 75.8959 38.195 77.5059 37.025 79.1759C36.775 79.5359 36.715 80.1059 36.745 80.5659C36.945 83.3859 36.505 86.1259 36.045 88.8859C35.695 90.9959 35.795 93.1859 35.625 95.3259C35.295 99.3859 34.845 103.426 34.595 107.486C34.445 110.026 34.475 112.586 34.595 115.126C34.705 117.546 35.015 119.956 35.295 122.366C35.345 122.846 35.655 123.286 35.845 123.746Z" fill="white"/>
<path d="M114.535 59.9063C119.825 58.2763 124.075 61.1363 128.545 63.1363C132.575 64.9363 134.845 68.1663 136.215 72.1763C137.375 75.5663 138.715 78.9363 139.505 82.4163C140.495 86.7963 141.215 91.2763 141.665 95.7463C142.015 99.1763 141.815 102.666 141.785 106.136C141.785 106.656 141.515 107.276 141.175 107.676C140.425 108.536 140.075 109.316 140.615 110.466C141.305 111.926 142.155 113.186 143.265 114.396C144.065 115.266 144.275 116.676 144.725 117.846C145.055 118.726 145.405 119.596 145.665 120.506C145.935 121.456 146.145 122.426 146.275 123.396C146.395 124.226 146.355 125.066 146.415 125.906C146.475 126.876 146.855 127.616 147.725 128.186C148.975 128.996 149.065 129.536 148.505 130.926C147.905 132.416 147.095 133.666 145.515 134.336C144.915 134.596 144.415 135.126 143.935 135.596C142.425 137.056 140.965 138.586 139.435 140.026C138.375 141.026 137.525 141.076 136.285 140.346C134.465 139.286 133.885 139.566 133.365 141.556C132.745 143.906 132.345 146.406 131.235 148.516C130.315 150.256 130.705 151.286 131.685 152.576C132.035 153.036 132.655 153.546 132.015 154.246C131.335 154.986 129.905 155.346 129.295 154.726C128.215 153.626 127.105 153.336 125.625 153.796C123.945 154.316 122.685 155.266 121.975 156.846C120.535 160.056 119.295 163.336 119.085 166.896C119.035 167.696 117.935 168.586 117.115 168.466C116.065 168.306 115.875 167.476 116.085 166.646C116.795 163.896 115.895 161.256 115.605 158.576C115.505 157.646 114.935 157.056 113.895 157.106C112.865 157.156 112.605 157.786 112.495 158.696C112.135 161.886 111.855 165.066 112.445 168.256C112.615 169.186 112.255 169.846 111.375 170.136C110.395 170.446 110.005 169.786 109.755 168.996C108.845 166.106 107.945 163.206 107.025 160.316C106.515 158.716 105.595 157.396 104.305 156.306C103.775 155.856 103.355 155.686 102.735 156.126C101.355 157.126 99.9354 156.836 98.5554 156.106C97.2254 155.406 96.7754 154.236 96.9254 152.786C96.9854 152.146 96.9754 151.506 97.0854 150.876C97.3154 149.506 97.0754 148.236 96.2554 147.126C95.7654 146.466 95.7654 145.976 96.3854 145.366C97.5854 144.196 97.4954 143.466 96.1754 142.446C93.6954 140.526 91.9354 140.776 90.0054 143.336C88.7854 144.956 86.3554 144.996 84.9754 143.496C84.1154 142.566 83.1954 141.676 82.2154 140.876C80.1054 139.166 79.0054 136.966 78.7154 134.286C78.5054 132.296 78.2454 130.316 77.9254 128.346C77.8454 127.866 77.5454 127.396 77.2454 126.986C76.2054 125.566 76.1954 124.556 77.3354 123.216C77.6454 122.856 77.9754 122.476 78.3654 122.216C80.0454 121.096 80.9554 119.476 81.6854 117.646C82.1654 116.456 82.0354 115.416 81.5454 114.306C81.3854 113.936 81.2754 113.386 81.4254 113.046C82.3454 110.926 83.2854 108.806 84.3254 106.746C84.8854 105.646 84.7654 104.776 84.3354 103.606C83.5854 101.566 83.2054 99.3863 82.8154 97.2363C82.1454 93.5763 83.5154 90.2463 84.6154 86.8563C85.1454 85.2063 85.3554 83.4563 85.7154 81.7463C85.8254 81.2463 85.8654 80.7163 86.0754 80.2563C87.2354 77.6263 88.4054 75.0063 89.6354 72.4063C90.9154 69.7063 92.7954 67.6163 95.4454 66.0763C99.4454 63.7663 103.605 61.8663 107.975 60.4263C108.385 60.2863 108.825 60.2063 109.255 60.1763C111.025 60.0663 112.785 59.9963 114.535 59.9063ZM95.4754 135.416C99.3654 135.136 103.215 134.796 106.185 131.736C107.255 130.626 107.575 130.056 106.775 128.736C106.345 128.016 105.685 127.236 104.955 126.936C101.115 125.396 97.2754 123.816 93.0554 123.466C91.4554 123.336 89.8754 122.796 88.3254 122.326C87.5154 122.076 86.9254 122.126 86.4554 122.836C85.8354 123.766 85.1754 124.666 84.6354 125.636C84.4554 125.956 84.4054 126.576 84.5954 126.856C85.9054 128.846 87.1454 130.926 88.7054 132.706C90.4354 134.676 92.7954 135.576 95.4754 135.416ZM139.105 119.526C138.925 119.466 138.835 119.406 138.775 119.416C133.615 120.726 128.175 121.046 123.355 123.616C123.215 123.686 123.045 123.796 122.915 123.776C120.995 123.406 119.915 124.796 118.655 125.796C118.015 126.306 117.965 126.756 118.625 127.356C119.075 127.766 119.465 128.336 119.665 128.906C120.695 131.966 124.475 134.056 127.615 133.206C129.655 132.656 131.735 132.176 133.705 131.436C134.895 130.986 136.145 130.306 136.985 129.376C138.125 128.126 138.965 126.576 139.785 125.076C140.115 124.456 140.225 123.586 140.105 122.886C139.895 121.716 139.435 120.596 139.105 119.526ZM120.485 146.396C119.865 145.596 119.125 144.846 118.615 143.956C118.105 143.066 117.825 142.046 117.445 141.086C117.415 141.016 117.375 140.936 117.315 140.886C116.075 139.886 115.935 138.426 115.685 137.016C115.495 135.956 115.355 134.876 115.075 133.846C114.965 133.436 114.435 132.746 114.285 132.796C113.735 132.966 113.055 133.286 112.825 133.746C112.505 134.386 112.475 135.216 112.465 135.966C112.445 137.446 111.955 138.706 111.285 140.026C110.385 141.786 109.785 143.716 109.245 145.616C108.885 146.866 109.245 147.216 110.515 147.326C111.535 147.406 112.465 147.466 113.385 148.166C114.335 148.896 119.535 147.456 120.485 146.396Z" fill="white"/>
<path d="M124.505 187.566C123.585 187.136 123.075 186.906 122.665 186.706C122.665 183.076 122.695 179.496 122.645 175.926C122.635 175.126 122.315 174.316 122.135 173.516C122.095 173.326 121.975 173.136 121.975 172.946C122.035 169.536 121.955 166.106 122.255 162.706C122.375 161.266 123.165 159.826 123.875 158.506C124.885 156.646 125.875 156.466 128.375 157.336C129.895 157.866 130.785 159.266 130.555 160.906C130.185 163.506 129.785 166.096 129.385 168.696C129.375 168.736 129.375 168.776 129.365 168.816C127.765 175.026 126.155 181.216 124.505 187.566Z" fill="white"/>
<path d="M104.905 162.876C104.705 164.456 104.555 165.646 104.405 166.826C103.625 172.866 103.905 178.936 103.685 184.996C103.675 185.356 103.805 185.816 103.625 186.046C103.295 186.476 102.805 187.016 102.345 187.056C101.935 187.086 101.215 186.596 101.065 186.186C98.2148 178.346 97.8348 170.136 97.6548 161.916C97.6248 160.556 98.9348 159.276 100.585 158.836C102.055 158.446 102.935 158.786 103.765 160.256C104.295 161.176 104.625 162.206 104.905 162.876Z" fill="white"/>
</g>
<defs>
<clipPath id="clip0_183_15153">
<rect width="228.939" height="228.939" fill="white" transform="translate(0.265625)"/>
</clipPath>
</defs>
</svg>
