<svg width="741" height="800" viewBox="0 0 741 800" fill="none" xmlns="http://www.w3.org/2000/svg">
<g clip-path="url(#clip0_130_12261)">
<path d="M633.61 412.12L556.768 567.102H629.498L740.319 347.19H406.548V321.218H665.858L510.011 23.3748H437.281L559.149 256.273H406.548V0H333.818V256.281H181.217L303.085 23.3748H230.355L74.5156 321.21H333.826V347.182H0.0546875L110.876 567.094H183.606L106.764 412.112H333.826V440.681H169.754L256.752 596.97C184.936 614.645 131.662 679.447 131.662 756.713C131.662 763.158 132.047 769.507 132.768 775.76H187.854C186.772 769.571 186.203 763.206 186.203 756.713C186.203 699.832 229.401 653.05 284.784 647.351L369.754 800L454.724 647.351C510.107 653.042 553.305 699.824 553.305 756.713C553.305 763.206 552.736 769.571 551.654 775.76H606.74C607.461 769.507 607.846 763.158 607.846 756.713C607.846 679.447 554.572 614.645 482.756 596.986L569.754 440.697H406.548V412.128H633.61V412.12ZM467.59 499.567L369.754 684.85L271.918 499.567H467.59Z" fill="white"/>
</g>
<defs>
<clipPath id="clip0_130_12261">
<rect width="740.265" height="800" fill="white" transform="translate(0.0546875)"/>
</clipPath>
</defs>
</svg>
