<svg width="233" height="233" viewBox="0 0 233 233" fill="none" xmlns="http://www.w3.org/2000/svg">
<g clip-path="url(#clip0_183_15049)">
<path d="M160.163 219.611C158.363 217.391 157.143 215.881 155.273 213.581C154.163 215.281 152.753 216.611 152.373 218.191C150.943 224.111 151.073 224.151 145.493 227.761C145.293 225.781 145.463 223.981 144.863 222.481C144.183 220.791 142.823 219.371 141.753 217.841C140.523 219.281 138.893 220.541 138.143 222.201C137.003 224.711 136.913 227.761 135.503 230.041C134.683 231.351 131.863 232.521 130.463 232.081C128.833 231.581 127.543 229.381 126.563 227.661C125.953 226.601 126.643 224.701 125.943 223.811C124.983 222.601 123.283 221.421 121.843 221.351C120.893 221.301 119.663 223.101 118.893 224.291C118.473 224.941 118.763 226.031 118.673 226.921C118.483 228.701 119.253 231.271 116.043 230.911C113.443 230.611 109.953 231.581 109.503 227.331C109.323 225.561 109.773 223.621 109.193 222.041C108.633 220.511 107.103 219.341 106.003 218.021C104.743 219.241 102.863 220.251 102.383 221.721C101.693 223.851 102.023 226.311 101.903 228.851C97.9728 228.511 96.4328 226.201 95.6228 223.221C95.2728 221.941 95.5428 220.441 95.0128 219.281C94.5328 218.241 93.4428 217.121 92.3928 216.831C91.7528 216.651 90.4328 217.771 89.8728 218.621C88.2828 221.031 86.9228 223.591 84.9028 227.071C81.1128 219.741 78.5328 213.771 79.2928 207.021C80.0428 200.431 79.1028 194.341 75.3628 188.761C74.8028 187.931 74.5228 186.881 74.2728 185.891C71.7828 176.221 63.1228 170.681 53.4228 172.711C49.4828 173.531 46.2528 173.971 44.1628 169.091C42.6928 165.661 39.3928 163.071 37.4228 159.781C35.4228 156.451 33.6528 152.851 32.5228 149.151C30.2928 141.851 28.5428 134.411 26.6628 127.011C25.5828 122.761 24.9428 118.911 29.1428 115.351C34.0828 111.171 34.4728 103.981 32.1528 97.8408C30.7728 94.2008 30.4928 90.0208 30.3528 86.0608C30.2128 82.2408 30.6428 78.3508 31.2628 74.5608C32.7728 65.2508 32.6628 55.0708 36.6228 46.9008C42.5928 34.6008 49.3528 21.7808 61.7528 14.3808C68.6228 10.2908 76.5028 7.56084 84.2428 5.35084C101.643 0.390836 119.383 -1.02916 137.533 0.710836C148.083 1.72084 157.303 5.47084 166.203 10.5008C172.043 13.8008 177.973 17.2608 182.943 21.6808C187.373 25.6208 191.143 30.6308 194.083 35.8108C196.563 40.1708 197.743 45.3808 198.923 50.3508C201.403 60.8608 204.553 71.3708 205.473 82.0408C206.373 92.5708 204.743 103.301 204.423 113.951C204.153 122.861 204.133 131.771 204.043 140.681C204.033 141.561 203.993 142.691 204.473 143.291C208.533 148.331 205.303 152.301 202.333 155.871C196.183 163.251 189.943 170.661 180.963 174.861C179.623 175.491 177.693 175.841 176.373 175.381C170.083 173.201 168.113 173.811 166.443 180.471C164.953 186.421 164.283 192.591 163.473 198.691C163.033 202.061 163.293 205.531 162.803 208.891C162.333 212.061 161.283 215.171 160.163 219.611ZM84.3428 101.401C90.3828 97.7508 90.3828 97.7508 92.4828 104.211C95.4128 113.201 106.453 121.391 115.823 121.511C128.263 121.671 140.293 113.551 144.433 102.021C145.243 99.7508 145.453 97.2508 145.923 94.8908C151.953 95.8408 155.773 98.5608 154.843 101.571C153.763 105.071 155.793 105.601 158.013 105.931C162.123 106.531 166.273 107.021 170.413 107.131C178.393 107.341 178.763 107.071 175.903 99.8108C173.913 94.7508 170.733 90.1508 168.123 85.4108C161.563 88.4208 160.573 87.9308 154.333 78.8708C172.623 71.3808 180.163 58.2208 168.923 40.8308C159.583 26.3808 145.403 27.5608 131.263 36.9308C131.263 34.0408 130.353 31.0808 131.433 29.8508C135.073 25.6708 133.333 21.9808 131.603 17.9708C130.433 15.2708 129.653 12.4008 128.463 9.70084C128.003 8.64084 127.003 7.25084 126.103 7.13084C125.223 7.01084 123.733 8.12084 123.253 9.07084C121.403 12.7208 120.133 16.6908 118.093 20.2108C116.263 23.3908 115.613 25.7608 118.323 28.9708C119.303 30.1308 117.973 33.2308 117.693 35.4508C116.023 34.7908 113.853 34.5908 112.753 33.4108C105.813 25.9608 91.1128 23.0308 81.8928 27.4308C76.3828 30.0608 73.0428 34.6208 70.5028 39.9008C67.4528 46.2408 67.6028 53.1708 69.9228 59.2508C72.8628 66.9608 78.3928 73.0008 87.1828 75.0408C88.4028 75.3208 90.0828 77.0608 90.1728 78.2208C90.4628 82.2208 80.7628 89.4508 76.7028 88.4508C74.1728 87.8308 72.3628 88.2008 71.3428 90.8508C69.1228 96.6308 66.7428 102.351 64.6028 108.151C63.5528 111.001 64.2828 113.031 67.8628 112.261C71.9228 111.381 76.0028 110.501 79.9228 109.171C83.4928 107.951 86.3128 105.811 84.3428 101.401ZM77.8728 154.441C85.4628 154.371 94.3328 152.541 101.263 145.571C102.663 144.161 104.423 141.731 104.073 140.231C103.033 135.801 100.333 132.351 95.6528 130.671C90.6728 128.891 85.8428 126.701 80.9528 124.681C75.3828 122.381 69.9828 119.501 64.2228 117.911C57.8728 116.161 52.2928 116.731 47.8928 122.511C43.8328 127.841 45.0928 132.681 48.9428 137.421C49.4028 137.981 49.5628 138.771 49.9528 139.391C55.9328 149.121 63.8928 155.441 77.8728 154.441ZM175.633 117.621C170.603 118.271 166.673 118.371 162.983 119.341C155.273 121.361 147.693 123.911 140.023 126.081C136.213 127.161 132.533 130.871 133.083 134.231C135.003 145.961 142.443 154.161 155.203 153.061C159.013 152.731 162.703 150.821 166.493 150.641C176.453 150.171 182.333 144.341 187.073 136.471C190.063 131.511 189.613 123.101 184.983 119.991C182.183 118.131 178.103 118.191 175.633 117.621ZM136.753 185.121C136.503 184.831 136.253 184.551 136.003 184.261C135.893 183.381 136.003 182.401 135.653 181.631C131.283 172.051 130.583 161.011 124.033 152.331C123.103 151.101 121.463 149.621 120.183 149.661C118.863 149.701 117.263 151.211 116.363 152.491C110.453 160.911 110.043 171.321 106.453 180.601C105.123 184.041 105.383 186.881 109.213 188.731C113.213 190.661 116.363 189.111 118.543 186.141C120.823 183.031 121.803 182.051 123.633 186.431C124.933 189.541 128.183 191.081 131.353 189.941C133.473 189.171 134.983 186.771 136.753 185.121Z" fill="white"/>
<path d="M161.212 54.5013C161.102 61.3513 153.912 67.6313 146.032 67.7713C141.322 67.8513 135.772 61.9113 135.852 56.8513C135.982 48.3313 141.852 41.5113 149.172 41.8113C155.762 42.0813 162.092 48.1213 161.212 54.5013Z" fill="white"/>
<path d="M106.802 52.4006C106.802 58.8006 102.442 62.4106 94.5622 62.5606C89.2222 62.6706 83.4222 56.6106 83.4122 50.8906C83.3922 44.0106 88.8922 38.3606 95.6322 38.3506C101.832 38.3506 106.812 44.6006 106.802 52.4006Z" fill="white"/>
<path d="M119.653 83.7712C126.363 82.9112 129.443 86.8412 129.943 94.0412C130.443 101.221 125.013 106.761 118.283 106.841C112.513 106.911 107.063 101.121 106.943 94.7612C106.803 87.1812 110.663 83.8312 119.653 83.7712Z" fill="white"/>
</g>
<defs>
<clipPath id="clip0_183_15049">
<rect width="232.175" height="232.175" fill="white" transform="translate(0.0332031)"/>
</clipPath>
</defs>
</svg>
