<svg width="216" height="215" viewBox="0 0 216 215" fill="none" xmlns="http://www.w3.org/2000/svg">
<g clip-path="url(#clip0_183_15027)">
<path d="M102.69 214.894C101.954 214.46 101.511 212.999 101.103 209.657C100.919 208.147 100.484 206.346 100.136 205.654C99.1594 203.709 98.4841 201.274 98.2489 198.849C98.131 197.633 97.5005 195.156 96.8479 193.345C96.1952 191.535 95.3237 188.552 94.9112 186.718C94.4986 184.883 93.8845 182.379 93.5464 181.152C93.0829 179.47 93.0142 178.691 93.2669 177.983C93.6141 177.01 93.9675 176.922 96.2442 177.239C97.1625 177.367 97.2778 177.269 97.6482 176.044C97.8701 175.31 98.2282 173.421 98.444 171.847C98.8593 168.815 98.9036 169.035 97.3149 166.236C96.7736 165.283 96.7646 165.099 97.2195 164.276C98.5186 161.927 98.7646 161.138 98.5518 160.004C98.4005 159.197 98.0522 158.697 97.4125 158.366C96.9058 158.104 96.0129 157.487 95.4284 156.995L94.3657 156.101L95.8014 154.638C97.2005 153.212 97.2242 153.152 96.7302 152.268C96.3292 151.55 95.9409 151.34 94.8731 151.261C93.5899 151.166 93.3548 151.313 90.1305 154.226C88.2646 155.912 86.738 157.42 86.738 157.577C86.738 157.734 86.2331 158.426 85.616 159.115C84.9989 159.803 84.2469 160.85 83.9448 161.441C83.6427 162.032 83.1016 162.672 82.7423 162.865C82.3831 163.057 81.7044 163.871 81.2343 164.673C80.3493 166.183 79.2534 166.775 78.4998 166.149C77.8729 165.629 77.9792 163.257 78.7007 161.669C79.042 160.917 79.4327 159.041 79.5689 157.499C79.7051 155.958 80.1565 153.645 80.5719 152.361C80.9873 151.077 81.4313 149.251 81.5585 148.303C81.7576 146.818 81.6934 146.483 81.095 145.884C80.713 145.502 80.0627 145.19 79.6499 145.191C78.4591 145.194 76.7733 146.402 76.5275 147.431C76.2326 148.664 75.7818 149.192 75.024 149.192C74.6803 149.192 73.3103 150.18 71.9795 151.388C70.2113 152.992 69.4161 153.987 69.0261 155.081C68.2973 157.126 67.5117 157.81 65.1976 158.413C64.1111 158.696 63.0721 159.044 62.8886 159.186C62.7052 159.329 61.9547 159.635 61.2208 159.866C60.487 160.098 59.7365 160.401 59.553 160.542C59.3696 160.682 58.3939 161.021 57.3849 161.296C56.3759 161.571 54.1415 162.337 52.4195 162.999C50.6976 163.661 48.966 164.203 48.5715 164.203C48.1771 164.203 47.1843 164.801 46.3654 165.531C45.5465 166.262 42.7379 167.928 40.1241 169.232C35.4674 171.556 33.0165 172.32 32.564 171.588C32.2772 171.124 33.6618 168.289 35.4656 165.646C36.2386 164.514 37.5465 162.501 38.3721 161.174C41.8379 155.6 44.6566 151.318 45.2698 150.694C46.1455 149.802 47.7894 147.349 48.6592 145.635C49.0471 144.871 49.8136 143.925 50.3626 143.535C51.3182 142.854 51.3815 142.849 51.848 143.423C52.116 143.753 52.7434 144.521 53.2423 145.131L54.1493 146.239L54.8498 145.538C55.4504 144.938 55.5368 144.505 55.4556 142.506C55.3462 139.811 55.6331 139.515 57.7919 140.091C58.9379 140.397 59.2068 140.351 59.9924 139.715C60.4846 139.316 61.3069 138.726 61.8197 138.403C62.3326 138.08 62.9213 137.445 63.1279 136.992C63.3344 136.538 63.9962 135.863 64.5984 135.491C65.575 134.887 65.6544 134.728 65.3332 134.023C64.8915 133.054 63.8511 132.764 61.7912 133.036C60.4865 133.209 60.0641 133.121 59.2994 132.519L58.3786 131.793L59.0552 130.843C59.4273 130.321 60.2544 129.57 60.8932 129.175C61.5321 128.78 62.0556 128.282 62.0568 128.068C62.0578 127.853 62.2969 127.228 62.5879 126.677C63.0146 125.87 63.0727 125.096 62.8883 122.675C62.5062 117.655 61.882 116.91 58.3426 117.25C56.043 117.471 54.8719 118.398 54.9203 119.958C54.9536 121.031 54.8433 121.19 53.8351 121.523C52.3542 122.011 51.0292 121.685 49.4802 120.451C47.7187 119.048 47.2229 118.827 41.3741 116.848C38.5305 115.885 35.731 114.888 35.1529 114.633C34.5748 114.378 33.0738 114.154 31.8173 114.136C28.7592 114.091 27.9868 113.832 27.1979 112.589C26.1915 111.004 25.1588 110.728 20.0763 110.692C17.5722 110.673 15.3357 110.54 15.1064 110.393C14.8771 110.246 14.6895 109.777 14.6895 109.349C14.6895 108.338 16.1312 107.752 20.4126 107.024C22.1844 106.723 24.5109 106.239 25.5827 105.948C26.6545 105.657 28.1715 105.291 28.9538 105.134C30.982 104.726 31.7009 104.258 31.7009 103.348C31.7009 102.584 33.5233 100.053 34.2026 99.8744C34.3861 99.826 34.6177 100.132 34.7174 100.554C34.9934 101.723 36.24 102.151 39.3728 102.151C42.9836 102.15 45.5669 101.539 47.5734 100.21C48.4462 99.6317 49.3306 99.1587 49.5387 99.1587C49.7468 99.1587 50.434 98.7769 51.0659 98.3104C52.5399 97.222 55.6445 96.2842 56.1385 96.7782C56.3336 96.9732 56.4723 97.6902 56.4467 98.3714C56.389 99.9059 56.7909 100.414 58.2845 100.694C61.3719 101.273 63.408 99.4416 63.9786 95.5719C64.4041 92.6856 64.0946 91.2431 62.7641 89.9126C62.25 89.3986 61.7508 88.5668 61.6547 88.0643C61.507 87.2911 61.5936 87.1506 62.2179 87.1506C63.4156 87.1506 65.046 86.4597 65.3973 85.8032C66.0963 84.4971 65.7412 83.5486 63.6541 81.1476C62.2301 79.5092 61.0495 78.5134 59.8694 77.9551C57.7494 76.9522 57.2616 76.9431 56.6289 77.8943C56.3543 78.3072 55.673 78.9092 55.1149 79.2323C54.1044 79.8174 54.0975 79.8161 53.4514 78.8986C53.0946 78.392 52.6886 77.6022 52.5492 77.1436C52.4099 76.6849 51.9844 75.7093 51.6038 74.9755C51.2231 74.2417 50.5815 72.8479 50.1779 71.8781C49.7744 70.9084 48.9114 69.3323 48.2603 68.3757C47.6091 67.4192 46.6564 65.8175 46.1432 64.8166C45.4532 63.4711 44.8622 62.8178 43.8758 62.31L42.5416 61.6237L42.5383 58.7168L42.535 55.81L40.8625 54.2147C39.9426 53.3373 38.7433 51.9934 38.1973 51.2281C37.6514 50.4629 36.1915 48.6781 34.9532 47.2619C33.7149 45.8457 32.7017 44.5567 32.7017 44.3973C32.7017 44.2378 33.0684 43.9404 33.5166 43.7362C34.2218 43.415 34.794 43.5899 37.7694 45.0384C39.9239 46.0871 41.8807 46.7957 43.0108 46.9363C45.1135 47.1978 46.2223 47.7126 47.3782 48.9636C48.3213 49.9844 50.952 51.2709 52.7525 51.5918C53.4151 51.7097 54.766 52.3708 55.7545 53.0603C56.743 53.7498 58.3773 54.7386 59.3863 55.2575C61.1732 56.1765 62.9241 57.3054 66.1227 59.6006C66.9841 60.2187 68.4851 60.9105 69.4583 61.138C72.0461 61.743 72.3086 62.0774 72.2019 64.6318C72.1524 65.8166 72.0318 66.9155 71.9339 67.074C71.5414 67.709 72.7955 68.8079 74.1624 69.0265C75.5504 69.2484 76.5415 70.0291 77.8101 71.8996C78.9348 73.5579 82.0371 73.231 82.5181 71.4036C82.7979 70.3406 82.3969 67.0749 81.9124 66.4702C81.2466 65.6392 80.1288 61.7371 79.9009 59.4483C79.7831 58.2653 79.368 55.7405 78.9785 53.8376C78.2809 50.429 78.2799 50.3709 78.912 49.9086C79.8422 49.2285 80.4913 49.4755 81.1293 50.7522C81.4385 51.3709 82.2081 52.7214 82.8395 53.7533C83.471 54.7852 84.0956 55.981 84.2276 56.4105C84.4526 57.1429 86.1352 58.1312 87.157 58.1312C87.8807 58.1312 91.0609 61.3287 91.4514 62.4489C91.8953 63.7222 93.1236 64.3954 95.4653 64.6488C96.8989 64.8038 97.453 64.7109 98.3131 64.1696C100.285 62.9288 100.46 62.1642 100.605 54.1251C100.755 45.8316 100.832 46.1024 97.749 44.1241C95.9926 42.9969 95.4458 41.967 96.0272 40.8806C96.2141 40.5313 96.8261 38.9206 97.3873 37.301C97.9485 35.6814 98.5478 34.1873 98.719 33.981C98.8903 33.7746 99.2102 32.8573 99.43 31.9425C99.6499 31.0277 100.177 29.6683 100.601 28.9218C101.025 28.1752 101.609 26.5242 101.898 25.2527C102.187 23.9812 102.791 21.8151 103.24 20.4392C104.081 17.8596 105.965 10.5394 107.144 5.26226C107.513 3.61118 108.128 1.69852 108.511 1.01197C109.153 -0.14007 109.251 -0.196062 109.783 0.285601C110.634 1.05557 110.944 2.06109 112.087 7.7563C112.721 10.9146 113.343 13.1619 113.69 13.5448C114.13 14.0306 114.271 14.8915 114.319 17.3884C114.401 21.6214 114.655 23.4918 115.406 25.3968C115.747 26.261 116.131 27.8632 116.259 28.9572C116.458 30.6423 116.67 31.1122 117.647 32.0325C118.58 32.9102 118.782 33.3265 118.697 34.2006C118.612 35.085 118.398 35.3456 117.522 35.6285C116.934 35.819 116.055 36.3442 115.57 36.796L114.688 37.6174L114.857 47.2906C114.976 54.1061 115.184 57.8014 115.559 59.799C116.195 63.1863 116.736 63.8017 119.075 63.8017C120.48 63.8017 120.829 63.6381 122.29 62.2927C125.405 59.4258 127.783 56.9545 129.855 54.4323C132.154 51.6352 133.695 50.4735 134.152 51.1943C134.72 52.0886 134.41 54.4782 133.398 57.022C132.827 58.4576 132.222 59.8028 132.055 60.0114C131.887 60.22 131.546 61.4598 131.297 62.7666C131.048 64.0734 130.652 65.3742 130.417 65.6574C130.182 65.9405 129.989 66.8665 129.989 67.7152C129.989 69.0601 130.134 69.379 131.117 70.1991C132.006 70.9419 132.578 71.14 133.833 71.14C135.952 71.14 136.611 70.2379 136.348 67.6962C136.095 65.2412 136.4 64.8202 138.182 65.1647C140.485 65.6101 141.982 65.5238 142.485 64.9164C142.737 64.6122 143.468 64.1218 144.11 63.8268C145.76 63.0687 147.025 62.1748 147.24 61.6156C147.348 61.3328 146.863 60.5819 146.054 59.781C145.106 58.8424 144.791 58.3181 145.031 58.0781C145.221 57.8872 146.631 57.5995 148.163 57.4384C149.695 57.2774 151.774 56.9189 152.783 56.6419C153.792 56.3649 155.238 55.9853 155.996 55.7982C156.754 55.6111 157.561 55.234 157.788 54.9601C158.015 54.6861 158.588 54.4623 159.061 54.4623C159.829 54.4623 163.719 52.7213 170.628 49.2857C171.912 48.6471 173.588 47.9105 174.353 47.6488C175.117 47.3873 176.523 46.6367 177.476 45.9811C178.429 45.3254 179.379 44.787 179.588 44.7845C179.797 44.782 180.293 44.6927 180.691 44.5861C181.265 44.4323 181.438 44.5521 181.53 45.1744C181.613 45.7335 180.883 47.0029 178.97 49.6258C177.498 51.6438 175.694 54.2398 174.962 55.3946C174.229 56.5495 173.171 58.211 172.609 59.0869C172.048 59.9627 171.016 61.7947 170.316 63.1579C169.616 64.5211 168.567 66.2369 167.984 66.9708C166.489 68.8529 163.79 72.7915 163.79 73.0904C163.79 73.2279 163.2 73.9547 162.479 74.705L161.168 76.0694L160.532 75.356C160.182 74.9636 159.562 74.0852 159.155 73.404L158.414 72.1653L156.603 73.6402C155.607 74.4514 154.453 75.2927 154.038 75.5098C153.025 76.0394 146.882 80.8804 145.516 82.2256C144.335 83.3878 143.339 84.9605 143.077 86.0759C142.819 87.1781 142.881 87.4023 143.633 88.0683C144.1 88.4811 144.745 88.8189 145.069 88.8189C146.312 88.8189 150.426 87.5455 151.382 86.8646C152.581 86.0108 153.965 85.938 154.395 86.7059C154.839 87.5 154.342 88.9228 153.046 90.5681C150.305 94.0483 149.337 95.8143 149.393 97.2354C149.487 99.6424 150.783 100.827 153.321 100.827C154.926 100.827 155.915 99.6537 156.636 96.8951C157.364 94.1052 157.807 93.6824 159.331 94.3194C159.949 94.5775 160.943 95.1613 161.54 95.6169C162.137 96.0724 163.676 96.9175 164.959 97.4949C167.195 98.5008 167.414 98.535 170.217 98.3155C173.546 98.0548 174.127 98.2967 174.135 99.9504C174.146 101.896 174.852 102.302 179.435 102.99C181.287 103.268 183.665 103.78 184.72 104.127C187.889 105.17 190.775 105.82 194.644 106.362C199.479 107.04 201.684 108.27 199.577 109.112C198.688 109.468 195.69 110.188 192.476 110.819C191.65 110.98 189.849 111.592 188.473 112.176C184.39 113.912 180.728 115.17 179.759 115.17C179.105 115.17 178.515 115.564 177.64 116.585C175.673 118.884 174.961 119.035 171.909 117.806C171.023 117.449 170.474 117.473 168.465 117.958C167.151 118.275 165.34 118.824 164.44 119.179C163.54 119.534 161.415 119.993 159.717 120.2L156.63 120.575L155.788 119.566C155.132 118.781 154.432 118.438 152.625 118.019C150.409 117.505 150.267 117.509 149.459 118.11C147.708 119.412 148.159 120.308 152.032 123.212C153.908 124.618 154.198 125.437 153.282 126.744C153.006 127.138 152.218 127.644 151.531 127.868C149.993 128.371 147.163 129.939 146.237 130.802C144.709 132.225 146.75 135.12 149.548 135.499C150.852 135.676 150.941 135.766 151.702 137.685C152.669 140.122 153.932 141.474 155.593 141.849C156.798 142.12 156.861 142.089 157.315 141.002C157.574 140.382 157.786 139.73 157.786 139.554C157.786 139.026 158.792 138.185 159.424 138.185C160.143 138.185 160.655 139.238 160.975 141.373C161.124 142.363 161.511 143.275 161.984 143.747L162.752 144.515L164.318 143.844C166.998 142.695 167.153 142.913 166.907 147.487C166.791 149.645 166.798 151.957 166.924 152.624C167.254 154.386 170.021 157.508 171.85 158.183L173.297 158.718L173.348 161.377C173.409 164.529 174.321 167.309 176.022 169.531C176.912 170.695 177.142 171.282 177.065 172.199C176.976 173.259 176.858 173.386 175.876 173.48C175.039 173.561 174.263 173.24 172.54 172.103C171.305 171.288 169.619 170.284 168.794 169.873C166.888 168.924 164.089 166.947 163.52 166.148C162.778 165.105 161.198 164.512 158.52 164.269C156.016 164.042 155.949 164.012 155.844 163.097C155.785 162.581 155.957 161.821 156.227 161.41C156.826 160.496 156.479 159.737 155.15 159.049C154.173 158.544 149.637 157.865 147.24 157.865C145.351 157.865 144.969 156.778 145.922 154.109C146.488 152.522 146.261 152.361 143.454 152.361C141.346 152.361 141.29 152.339 140.997 151.361C140.499 149.7 140.304 149.457 138.364 148.085C136.027 146.433 133.866 146.112 132.186 147.168C131.589 147.542 131.102 148.118 131.102 148.449C131.102 148.779 130.801 149.903 130.434 150.947C129.976 152.25 129.766 153.71 129.763 155.605C129.756 159.21 129.569 159.866 128.544 159.866C128.098 159.866 127.312 159.649 126.797 159.383C125.743 158.837 122.76 155.683 121.503 153.784C120.774 152.681 120.511 152.528 119.344 152.528C118.185 152.528 117.814 152.74 116.433 154.187C115.079 155.607 114.82 156.1 114.637 157.606C114.519 158.574 114.122 160.318 113.756 161.481C113.389 162.643 113.089 164.449 113.089 165.492C113.089 168.101 112.455 172.934 112.049 173.424C111.865 173.645 111.761 174.475 111.818 175.269C111.916 176.622 111.988 176.717 112.991 176.814C113.578 176.871 114.384 176.744 114.781 176.532C115.359 176.222 115.605 176.248 116.022 176.666C116.493 177.136 116.457 177.399 115.649 179.45C115.158 180.695 114.546 182.54 114.289 183.549C114.032 184.558 113.447 186.059 112.99 186.885C112.533 187.71 111.992 189.384 111.787 190.604C111.582 191.824 110.752 194.751 109.943 197.108C109.135 199.466 108.371 201.92 108.247 202.562C108.122 203.204 107.812 204.059 107.557 204.463C106.699 205.817 105.515 209.383 105.271 211.343C104.985 213.648 103.663 215.466 102.69 214.894ZM116.17 142.723C117.136 142.286 118.421 141.823 119.026 141.694C119.757 141.539 120.373 141.085 120.858 140.345C121.341 139.609 121.943 139.163 122.63 139.034C124.75 138.637 125.562 136.473 124.626 133.716C124.329 132.842 123.949 131.156 123.78 129.969C123.612 128.781 123.152 127.262 122.757 126.593C122.074 125.436 122.068 125.354 122.631 124.942C123.56 124.263 124.851 124.428 126.816 125.477C127.813 126.009 129.424 126.68 130.396 126.969C132.056 127.462 132.237 127.456 133.383 126.871C135.063 126.014 135.446 125.482 137.045 121.787C138.178 119.169 138.473 118.059 138.615 115.868C138.755 113.711 138.68 113.003 138.24 112.332C137.312 110.914 133.766 108.806 130.684 107.839C129.996 107.623 129.433 107.328 129.433 107.183C129.433 106.66 130.802 105.197 131.497 104.976C132.77 104.572 137.09 100.763 137.867 99.3594L138.625 97.9913L137.846 95.8232C136.855 93.0641 136.241 92.4623 134.071 92.1193C132.596 91.8861 132.145 91.9454 131.266 92.4893C129.773 93.4119 126.294 94.4342 125.297 94.2435C124.831 94.1543 124.309 93.9109 124.137 93.7017C123.664 93.129 124.549 90.9063 125.739 89.6783C126.303 89.0963 126.765 88.3043 126.765 87.9184C126.765 87.4701 127.186 86.9681 127.932 86.5279C128.942 85.9324 129.099 85.6681 129.095 84.577C129.092 83.8829 128.905 82.99 128.678 82.5929C126.352 78.5171 126.08 78.1932 124.502 77.6113C123.637 77.2923 122.669 76.8101 122.35 76.54C122.032 76.2698 120.696 75.7963 119.382 75.4874C115.217 74.5088 112.057 75.4311 109.382 78.4047C107.739 80.2325 106.42 80.7808 105.706 79.9335C105.455 79.6368 105.025 78.7 104.75 77.852L104.25 76.3102L102.082 76.046C98.5297 75.6134 96.2679 75.984 93.0832 77.5202C91.5197 78.2744 89.6217 79.1844 88.8655 79.5424C88.1093 79.9003 87.3213 80.5649 87.1143 81.0192C86.3525 82.6914 86.8431 87.1976 88.0789 89.8779C88.6444 91.1045 88.2685 92.366 87.2622 92.6186C86.8135 92.7312 85.3142 92.6564 83.9304 92.4492C82.5051 92.2372 80.4699 92.1764 79.236 92.3083C77.2754 92.5184 76.9716 92.6545 76.1961 93.6712C75.1083 95.0974 73.975 99.3521 73.9539 102.089C73.9312 105.021 74.3582 105.379 78.348 105.776C83.3602 106.273 83.7028 107.356 79.5428 109.551C75.4354 111.719 72.8082 115.168 73.1684 117.921C73.2725 118.716 73.8072 119.747 74.6378 120.756C75.3561 121.628 76.1387 122.828 76.3771 123.423C77.0106 125.005 78.5915 125.355 82.094 124.691C85.1577 124.11 86.0709 124.343 86.0709 125.705C86.0709 126.241 85.6417 126.938 84.8851 127.631L83.6993 128.717L83.7042 131.78C83.7068 133.465 83.8735 135.15 84.0744 135.526C84.2754 135.901 85.2196 136.557 86.1727 136.982C87.1257 137.407 88.2057 138.093 88.5726 138.506C90.0271 140.143 94.3325 141.573 99.1649 142.025C102.153 142.304 102.511 142.131 103.445 139.951C104.63 137.186 107.173 137.684 108.082 140.859C108.514 142.369 108.807 142.793 109.763 143.291C111.236 144.058 113.701 143.84 116.17 142.723Z" fill="white"/>
<path d="M100.313 134.003C99.9826 133.549 99.082 132.859 98.3117 132.469C97.5413 132.079 96.761 131.517 96.5775 131.22C96.2201 130.641 95.9165 128.79 95.5463 124.933C95.2809 122.168 95.0527 121.977 92.4437 122.336C90.8949 122.549 90.8075 122.513 89.3244 121.072C87.0609 118.872 86.6811 117.923 86.6438 114.375C86.6265 112.702 86.7903 110.525 87.0083 109.537C87.2263 108.548 87.4047 105.729 87.4047 103.272C87.4047 98.0632 87.6154 97.3662 90.0834 94.4126C91.012 93.3012 91.9781 91.898 92.2304 91.2943C92.4826 90.6905 93.1136 89.9744 93.6326 89.7028C94.1515 89.4311 95.066 88.726 95.6646 88.1358C96.4002 87.4104 97.259 86.968 98.3136 86.771C99.1718 86.6108 100.233 86.1425 100.672 85.7308C101.388 85.0579 101.762 84.9904 104.36 85.0632C108.027 85.166 111.814 86.0002 113.75 87.1319C114.579 87.6165 116.324 88.5318 117.628 89.166C119.817 90.2307 120.064 90.4598 120.85 92.1537C123.192 97.2009 123.531 98.8269 123.766 106.163C123.94 111.612 124.097 113.204 124.539 114.002C125.413 115.581 125.184 117.993 124.128 118.328C123.818 118.426 122.956 119.069 122.214 119.757C121.471 120.444 119.869 121.512 118.653 122.129C117.437 122.746 116.316 123.422 116.162 123.63C116.008 123.838 115.69 124.834 115.455 125.843C114.463 130.103 114.436 130.162 113.126 130.99C112.145 131.609 111.76 132.138 111.429 133.32C111.193 134.161 110.952 134.849 110.894 134.849C110.115 134.849 106.949 133.947 105.945 133.439L104.639 132.778L104.034 133.563C103.702 133.995 103.427 134.461 103.423 134.599C103.419 134.736 102.853 134.844 102.165 134.839C101.225 134.831 100.764 134.622 100.313 134.003ZM108.315 124.835C108.587 124.263 108.621 123.62 108.42 122.833C108.256 122.195 107.978 121.1 107.8 120.398C107.623 119.697 107.221 118.839 106.907 118.493C106.392 117.923 106.248 117.908 105.418 118.337C104.465 118.83 103.415 120.897 103.415 122.281C103.415 122.699 103.228 123.231 102.999 123.464C102.664 123.803 102.801 124.083 103.69 124.882C104.64 125.735 105.022 125.863 106.356 125.777C107.641 125.694 107.983 125.529 108.315 124.835ZM100.951 117.2C101.927 116.757 102.37 116.328 102.488 115.715C102.709 114.555 102.079 114.074 99.2212 113.221C97.9234 112.834 96.2828 112.124 95.5754 111.644C94.868 111.164 93.8284 110.705 93.2652 110.624C89.5321 110.086 89.139 115.239 92.7725 117.083C94.7187 118.07 98.9033 118.13 100.951 117.2ZM115.358 117.328C117.215 116.905 117.859 116.562 119.176 115.298C120.445 114.08 120.76 113.556 120.76 112.666C120.76 110.731 120.53 110.499 118.606 110.499C116.209 110.499 114.906 111.024 114.158 112.292C113.72 113.035 113.104 113.491 112.157 113.775C110.798 114.182 109.299 115.62 109.514 116.31C109.659 116.777 111.746 117.836 112.522 117.837C112.853 117.837 114.129 117.608 115.358 117.328Z" fill="white"/>
</g>
<defs>
<clipPath id="clip0_183_15027">
<rect width="215" height="215" fill="white" transform="translate(0.0332031)"/>
</clipPath>
</defs>
</svg>
