<svg width="246" height="245" viewBox="0 0 246 245" fill="none" xmlns="http://www.w3.org/2000/svg">
<g clip-path="url(#clip0_183_15036)">
<path d="M131.493 244.774C131.333 244.774 131.183 244.774 131.023 244.774C127.183 243.934 126.663 241.164 126.623 237.784C126.593 235.184 125.923 232.584 125.513 229.984C125.153 227.674 123.653 226.014 121.813 226.294C119.723 226.614 119.593 228.434 119.303 230.184C118.833 232.994 118.363 235.844 117.423 238.514C116.133 242.174 115.523 242.364 111.623 242.254C110.773 242.234 109.913 242.284 109.063 242.234C106.223 242.074 104.253 240.384 103.953 237.544C103.603 234.284 102.613 231.354 100.293 228.984C99.7329 228.414 99.0029 228.004 98.3529 227.524C97.9129 228.364 97.1829 229.164 97.0829 230.044C96.8929 231.644 97.3629 233.364 96.9929 234.904C96.6829 236.174 95.7529 238.004 94.7629 238.254C93.3329 238.614 91.3729 238.364 90.5729 236.284C89.7429 234.124 88.7829 232.014 87.7329 229.954C87.2029 228.914 86.5229 227.594 85.5829 227.234C84.9929 227.004 83.8629 228.414 82.8629 228.874C81.6929 229.414 80.4329 229.924 79.1829 229.974C78.8029 229.984 78.0829 228.444 78.0129 227.564C77.7729 224.714 78.3629 221.654 77.5329 219.024C76.1629 214.684 76.4029 210.504 76.9929 206.184C77.5029 202.434 77.3729 198.804 75.2529 195.414C74.6029 194.364 74.3629 192.894 74.3929 191.634C74.4529 189.234 73.4829 187.494 71.7729 185.964C70.3329 184.674 68.9329 183.314 67.6829 181.844C65.3429 179.094 63.9329 178.954 61.1329 181.444C59.7429 182.684 58.4829 184.084 57.0029 185.184C54.2729 187.194 51.6329 188.584 47.7329 185.614C45.9929 184.294 44.6129 182.524 43.0429 180.984C40.5029 178.504 37.7329 176.224 35.4229 173.554C30.9529 168.404 29.6429 162.034 29.1729 155.444C28.8329 150.654 28.6229 145.844 28.1629 141.064C28.0129 139.504 27.6229 137.744 26.7329 136.504C23.7229 132.324 23.7629 126.804 27.6229 123.294C31.6929 119.594 32.7529 114.834 33.4229 109.804C33.5129 109.134 33.4129 108.414 33.2829 107.734C31.9229 100.764 30.0829 93.8542 29.2829 86.8142C28.5629 80.4542 28.9429 73.9442 30.8229 67.7142C32.1829 63.2142 33.7629 58.7742 35.3229 54.3342C36.3929 51.2742 37.2529 48.0742 38.8029 45.2742C41.1329 41.0342 43.9029 36.9942 46.6629 32.9942C48.8929 29.7642 51.4629 26.7742 53.7729 23.5842C57.2729 18.7442 61.8629 15.1842 67.3329 13.0842C73.7329 10.6242 80.2729 8.44421 86.9029 6.68421C93.5229 4.92421 100.333 3.83421 107.043 2.42421C108.553 2.10421 110.003 1.55421 111.513 1.25421C114.063 0.754206 116.653 -0.0657941 119.193 0.00420592C129.863 0.304206 140.543 0.744206 151.193 1.43421C154.223 1.63421 157.343 2.47421 160.143 3.68421C165.583 6.04421 170.743 9.0442 176.153 11.4742C182.413 14.2842 188.513 17.3442 192.913 22.7342C195.923 26.4142 198.813 30.3442 200.893 34.5842C202.773 38.4142 203.483 42.8242 204.723 46.9742C205.123 48.3042 205.503 49.6542 205.983 50.9542C208.393 57.4642 211.533 63.8142 213.093 70.5242C215.263 79.8442 216.383 89.4642 214.843 99.0642C213.773 105.774 214.913 112.524 214.163 119.194C213.183 127.954 215.803 136.064 218.013 144.274C218.233 145.084 218.563 145.954 219.103 146.564C221.473 149.214 221.713 152.194 220.803 155.454C220.513 156.494 220.493 157.604 220.223 158.654C219.023 163.304 216.803 167.114 211.773 168.504C210.963 168.734 210.043 168.974 209.443 169.504C205.583 172.924 201.793 176.434 197.973 179.904C196.543 181.204 195.163 182.584 193.613 183.714C191.513 185.254 188.693 184.814 186.103 182.774C182.663 180.074 179.763 181.054 178.323 185.134C176.843 189.354 174.843 193.404 173.463 197.644C171.753 202.914 169.453 208.064 169.593 213.814C169.673 217.294 169.563 220.784 169.393 224.274C169.293 226.374 166.233 229.914 164.283 230.054C161.923 230.234 161.743 228.004 160.953 226.504C160.843 226.294 160.773 226.004 160.603 225.914C159.583 225.424 158.553 224.734 157.493 224.654C157.143 224.624 156.493 226.164 156.293 227.054C156.063 228.094 156.073 229.224 156.153 230.294C156.423 234.144 154.613 237.094 151.763 239.284C150.873 239.974 149.003 239.654 147.683 239.334C147.323 239.244 147.163 237.514 147.233 236.554C147.483 233.484 148.083 230.434 148.163 227.364C148.223 225.094 146.713 223.834 144.623 224.094C142.823 224.314 142.793 225.884 142.633 227.274C142.503 228.344 142.473 229.474 142.103 230.474C140.723 234.144 139.423 237.884 137.643 241.354C136.983 242.644 135.093 243.354 133.683 244.194C133.073 244.564 132.233 244.594 131.493 244.774ZM90.6729 72.0242C89.8729 73.1042 89.4629 73.8542 88.8729 74.4342C85.5729 77.6742 82.1729 80.8142 78.9329 84.1042C76.7729 86.3042 73.9729 88.0842 73.9129 91.7742C73.8029 98.2842 73.3829 104.794 73.3429 111.304C73.3229 115.044 75.3729 116.634 79.4429 116.634C81.6129 116.634 83.7929 116.434 85.9429 116.664C91.6929 117.284 97.4129 118.544 103.163 118.714C113.063 119.004 122.993 118.724 132.903 118.544C141.483 118.384 150.053 118.004 158.633 117.784C161.883 117.704 165.143 117.864 168.393 117.804C171.003 117.764 171.943 116.764 172.053 114.154C172.153 111.984 172.263 109.824 172.303 107.654C172.403 102.864 172.543 98.0842 172.463 93.2942C172.443 92.2742 171.693 91.1242 170.983 90.2942C166.973 85.5942 162.883 80.9542 158.803 76.3142C157.643 74.9942 156.433 73.7242 154.733 71.8742C156.393 71.1942 157.623 70.3242 158.903 70.2242C162.143 69.9742 165.403 69.9742 168.653 70.0542C170.693 70.1042 171.853 69.1642 171.943 67.2942C172.123 63.3742 172.223 59.4242 172.033 55.5042C171.933 53.4742 170.683 52.3542 168.273 52.4042C160.603 52.5342 152.933 52.4542 145.263 52.3142C144.383 52.2942 143.183 51.5642 142.753 50.8142C142.423 50.2342 142.803 48.8842 143.323 48.2442C145.023 46.1442 146.893 44.1742 148.773 42.2342C150.943 39.9842 153.413 38.6142 156.773 38.7642C160.943 38.9642 165.143 38.8142 169.303 38.4942C170.293 38.4142 171.923 37.1442 172.003 36.2942C172.363 32.6842 172.323 29.0342 172.303 25.3942C172.293 23.2642 171.113 22.1542 168.943 22.0942C161.043 21.8542 153.143 21.5842 145.243 21.3742C144.593 21.3542 143.783 21.5642 143.313 21.9842C140.653 24.3242 138.033 26.7142 135.483 29.1742C132.043 32.4942 128.733 35.9542 125.253 39.2342C123.603 40.7842 121.563 40.5842 119.933 39.1242C118.223 37.5942 116.383 36.1842 114.733 34.5842C111.203 31.1642 107.353 27.9442 104.413 24.0642C102.563 21.6242 100.613 20.8142 98.0029 20.8942C91.1929 21.1242 84.3929 21.5542 77.5929 21.8042C75.3329 21.8842 73.6629 22.7842 73.4729 25.0342C73.1629 28.9342 72.9529 32.8842 73.2629 36.7742C73.3529 37.9342 75.2329 39.7442 76.4629 39.8842C80.4329 40.3442 84.4929 40.3842 88.5029 40.1842C92.1329 40.0042 95.1529 40.5642 97.4129 43.7742C98.5429 45.3842 100.133 46.7042 101.633 48.0142C103.443 49.5942 103.473 50.8242 101.223 51.7642C99.2629 52.5842 97.0629 53.3442 94.9929 53.2942C89.2029 53.1642 83.4029 52.7242 77.6429 52.1442C75.3429 51.9142 74.1029 52.8142 73.7629 54.7542C73.3529 57.0942 73.3829 59.5042 73.2629 61.8942C73.0329 66.6142 76.7029 71.3442 81.9229 70.8642C83.7629 70.6942 85.6529 70.7642 87.4929 70.9342C88.4729 71.0442 89.4029 71.5742 90.6729 72.0242ZM78.0429 162.514C82.2729 162.244 85.5229 161.874 88.7629 161.894C92.2229 161.914 95.0629 160.454 97.8329 158.744C99.9229 157.454 102.003 156.094 103.873 154.504C108.493 150.594 108.353 145.664 103.333 142.074C100.863 140.314 98.0029 138.994 95.1729 137.864C88.5129 135.204 81.9229 132.144 75.0129 130.444C68.9829 128.954 62.6629 128.704 56.8929 125.934C55.0229 125.034 52.4929 126.364 51.3529 128.174C50.6529 129.284 49.9229 130.394 49.0529 131.354C46.9829 133.614 46.5829 136.174 47.7629 138.874C50.1429 144.324 52.9329 149.504 57.0629 153.924C60.9729 158.114 65.3729 161.304 71.1529 162.094C73.7429 162.454 76.3929 162.424 78.0429 162.514ZM160.703 162.094C162.013 161.964 163.343 161.954 164.613 161.674C169.663 160.554 174.763 159.584 179.713 158.094C182.613 157.224 185.543 155.874 187.923 154.054C190.113 152.374 191.783 149.894 193.333 147.534C195.213 144.674 198.523 142.564 198.673 138.774C198.783 136.034 198.563 133.244 198.123 130.534C197.453 126.434 196.133 125.634 192.043 126.324C186.783 127.214 181.513 128.054 176.283 129.064C170.143 130.254 164.013 131.514 157.923 132.924C156.013 133.364 154.263 134.934 152.393 135.054C148.283 135.304 144.773 136.404 141.603 139.134C139.593 140.864 139.173 142.804 140.803 144.944C141.693 146.114 142.183 147.604 142.773 148.984C143.103 149.754 143.113 150.694 143.543 151.404C147.453 157.834 153.283 161.214 160.703 162.094ZM127.063 202.074C130.173 201.314 133.933 200.674 137.483 199.444C140.313 198.464 140.743 196.624 139.093 194.244C137.293 191.654 136.003 188.924 135.373 185.834C135.133 184.654 134.483 183.534 133.913 182.454C131.943 178.704 129.843 175.084 129.993 170.554C130.083 167.794 129.503 165.004 129.183 162.234C129.013 160.724 128.453 159.644 126.623 159.514C124.823 159.374 123.563 159.804 123.133 161.684C122.613 163.944 122.043 166.194 121.623 168.474C120.953 172.154 119.573 175.444 117.723 178.764C115.113 183.444 113.283 188.604 111.483 193.684C110.663 195.994 111.863 198.044 114.363 198.274C117.753 198.594 120.373 200.554 123.443 201.444C124.403 201.704 125.403 201.784 127.063 202.074Z" fill="white"/>
<path d="M145.364 92.5142C143.204 92.8642 141.644 93.3342 140.084 93.3242C134.814 93.3042 129.554 93.0342 124.284 93.0042C118.324 92.9642 112.364 93.0742 106.414 93.1042C105.404 93.1142 104.374 93.2142 103.404 93.0242C102.504 92.8442 100.954 92.3642 100.934 91.9642C100.874 90.6742 100.984 89.0142 101.754 88.0942C104.414 84.9142 107.364 81.9942 110.214 78.9742C113.484 75.5142 116.724 72.0242 120.084 68.6642C120.584 68.1642 121.764 68.0042 122.524 68.1642C123.374 68.3442 124.234 68.9542 124.864 69.5942C130.644 75.4242 136.414 81.2542 142.064 87.2042C143.294 88.5042 144.014 90.2942 145.364 92.5142Z" fill="white"/>
</g>
<defs>
<clipPath id="clip0_183_15036">
<rect width="244.774" height="244.774" fill="white" transform="translate(0.554688)"/>
</clipPath>
</defs>
</svg>
