<svg width="223" height="222" viewBox="0 0 223 222" fill="none" xmlns="http://www.w3.org/2000/svg">
<g clip-path="url(#clip0_130_9490)">
<path d="M101.071 110.555C99.7206 112.645 97.7606 111.865 95.9605 111.345C94.3905 110.895 92.9106 110.185 91.2206 110.125C90.4106 110.105 89.6205 109.685 88.8105 109.495C85.9005 108.805 83.0005 108.125 80.0805 107.465C78.0305 107.005 75.9905 106.455 73.9105 106.215C72.6205 106.065 71.2705 106.445 69.8605 106.595C70.3705 107.705 70.2805 108.835 70.9705 109.865C71.5405 110.715 71.5705 111.945 71.7705 113.015C72.2605 115.615 72.6005 118.245 73.1905 120.825C73.9505 124.135 74.9405 127.385 75.7305 130.685C76.2805 133.015 76.3205 135.405 75.2705 137.615C74.5905 139.055 73.2005 139.915 71.7405 140.355C69.7405 140.965 67.6605 141.325 65.6105 141.765C63.9505 142.125 62.2605 142.375 60.6305 142.815C59.0405 143.245 57.5205 143.805 56.0605 144.715C53.7805 146.135 51.2405 147.145 48.8205 148.335C48.7905 148.345 48.7705 148.355 48.7405 148.365C46.9305 149.095 46.8405 149.415 47.9705 151.025C48.5905 151.905 49.1605 152.825 49.7905 153.705C50.0705 154.105 50.3805 154.505 50.7505 154.805C52.8405 156.545 54.9305 158.295 57.0805 159.965C58.6905 161.215 60.3805 162.355 62.0305 163.545C63.5405 164.635 65.1105 165.665 66.5405 166.845C67.4605 167.605 68.1805 168.595 69.0105 169.505C69.9605 169.385 70.9005 170.135 71.2305 171.305C71.7605 173.215 72.3005 175.125 72.8405 177.035C72.8705 177.145 72.9205 177.255 72.9205 177.375C72.9505 178.365 72.9705 179.355 72.9905 180.345C71.7005 181.185 70.5505 182.355 68.9005 182.405C68.3805 182.415 67.8205 182.095 67.3305 181.835C66.5705 181.415 65.8505 180.905 65.1205 180.435C64.7605 180.205 64.4105 179.965 64.0405 179.745C63.6205 179.495 63.2205 179.095 62.7805 179.045C61.0605 178.875 59.8905 177.665 58.5105 176.895C56.5805 175.815 54.7105 174.645 52.8205 173.505C52.1305 173.085 51.4305 172.685 50.7805 172.215C49.0505 170.975 47.3205 169.745 45.6405 168.445C44.3705 167.465 43.1705 166.385 41.9205 165.365C41.2605 164.815 40.5605 164.315 39.9105 163.755C37.8105 161.975 35.7005 160.205 34.3305 157.715C33.5605 156.315 32.5505 155.035 31.1705 154.115C30.8405 153.895 30.5805 153.515 30.3905 153.155C29.7205 151.885 28.9505 150.645 28.4805 149.305C28.0405 148.055 27.0905 147.225 26.4805 146.165C25.7505 144.915 25.1105 143.505 25.2205 141.925C25.2505 141.515 25.1705 140.995 24.9305 140.695C24.2005 139.795 24.3105 138.775 24.2505 137.745C24.2105 137.085 23.9405 136.435 23.7605 135.785C23.5905 135.165 23.3705 134.565 23.2305 133.935C23.0505 133.105 23.1005 132.175 22.7405 131.435C22.1505 130.225 22.2605 128.975 22.1005 127.735C22.0105 127.035 21.6305 126.365 21.3905 125.685C21.2805 125.375 21.1405 125.045 21.1305 124.725C21.0805 119.365 21.0605 114.005 21.0605 108.645C21.0605 108.315 21.0905 107.905 21.2805 107.665C22.0205 106.735 21.9805 105.635 22.1005 104.545C22.1505 104.055 22.3705 103.585 22.5405 103.115C22.6105 102.925 22.8105 102.775 22.8305 102.595C23.0105 101.345 23.6505 100.215 23.9105 99.0349C24.2705 97.4249 24.9105 96.0149 25.7505 94.6549C25.8405 94.5149 25.9605 94.3349 25.9505 94.1849C25.9105 92.7149 26.6905 91.4749 27.2605 90.2249C27.9305 88.7549 28.8305 87.3449 29.8305 86.0749C32.9405 82.1249 36.6605 78.8149 40.9505 76.2049C44.1605 74.2449 47.4505 72.3849 50.8205 70.7149C53.4405 69.4149 56.2605 68.5149 58.9405 67.3249C62.0105 65.9649 64.9105 64.3149 67.1005 61.6749C69.7005 58.5349 71.4905 55.0649 71.5505 50.8849C71.5905 48.4049 71.5505 45.9249 71.6405 43.4549C71.7006 41.7149 71.7905 39.9549 72.0805 38.2349C72.2905 36.9749 72.8005 35.7549 73.2605 34.5449C73.7305 33.3149 74.3305 32.1349 74.8205 30.9149C75.2605 29.8049 75.6105 28.6649 76.0605 27.5649C76.4905 26.5149 77.0605 25.5949 77.9605 24.7849C79.3405 23.5449 80.4805 22.0349 81.7105 20.6349C82.1805 20.0949 82.6505 19.5449 83.0805 18.9749C83.3905 18.5749 83.6405 18.1249 83.9205 17.6949C84.0605 17.4849 84.1805 17.2449 84.3505 17.0749C84.5705 16.8549 84.8805 16.7049 85.0905 16.4749C87.4805 13.8849 90.8105 13.8249 93.9205 13.3349C98.0705 12.6849 102.271 12.6149 106.481 12.6249C109.121 12.6349 111.771 12.4649 114.401 12.2249C115.761 12.1049 117.121 11.7749 118.431 11.3549C120.671 10.6349 123.041 10.1949 124.971 8.77492C126.231 7.84492 127.471 6.84492 128.551 5.70492C130.181 3.97492 131.631 2.06492 133.231 0.304917C133.501 0.014917 134.151 -0.0150831 134.621 0.00491694C134.751 0.0149169 134.951 0.614917 134.961 0.944917C135.011 1.92492 134.961 2.90492 134.981 3.88492C135.001 5.50492 134.061 6.76492 133.401 8.11492C132.601 9.78492 131.481 11.2249 130.221 12.5949C128.971 13.9549 128.071 15.6549 126.791 16.9949C125.711 18.1249 124.321 18.9449 123.051 19.8849C122.931 19.9749 122.721 19.9649 122.551 19.9649C121.331 20.0249 120.381 20.6649 119.491 21.4049C119.001 21.8049 118.591 22.3549 118.041 22.6149C115.461 23.8549 113.751 25.9449 112.251 28.2649C112.141 28.4349 111.961 28.6049 111.951 28.7849C111.841 30.9149 110.541 32.7449 110.581 34.9349C110.631 37.9549 110.461 40.9749 110.301 43.9949C110.151 46.7749 111.011 49.3149 111.901 51.8849C112.651 54.0549 113.351 56.2849 113.641 58.5449C113.841 60.1149 113.421 61.8049 113.041 63.3949C111.891 68.1949 109.001 72.1149 106.511 76.2549C105.271 78.3149 103.231 79.2449 101.681 80.8249C99.6705 82.8749 97.5705 84.8749 95.7305 87.0649C94.1705 88.9249 93.4205 91.2549 93.2705 93.6849C93.1205 96.1249 92.9505 98.5649 93.5705 100.995C94.1105 103.105 95.2606 104.845 96.7206 106.375C98.0806 107.835 99.6005 109.155 101.071 110.555Z" fill="white"/>
<path d="M56.4414 151.745C57.5214 150.285 59.3114 149.755 61.1214 149.225C63.2714 148.595 65.4014 147.915 67.5314 147.215C70.2414 146.335 72.9314 145.405 75.6314 144.505C76.6014 144.185 77.6314 143.975 78.5414 143.535C79.0614 143.285 79.4714 142.705 79.8114 142.205C80.3714 141.375 80.8714 140.495 81.3114 139.595C81.8314 138.545 82.3814 137.475 82.6714 136.355C82.8114 135.795 82.3714 135.105 82.2514 134.455C82.1814 134.075 82.2314 133.685 82.2314 133.295C82.2214 132.755 82.3414 132.185 82.1914 131.685C81.3714 128.925 80.5114 126.175 79.6014 123.445C78.5314 120.225 77.3814 117.025 76.3114 113.815C76.1814 113.435 76.1314 112.785 76.3414 112.585C76.7514 112.195 77.2514 111.715 78.0114 112.065C79.1314 112.585 80.3514 112.905 81.4214 113.515C84.1014 115.055 87.0114 115.655 90.0314 116.005C90.6214 116.075 91.2014 116.435 91.7314 116.745C92.7214 117.315 93.6214 118.065 94.6614 118.525C95.5014 118.895 96.4814 119.045 97.4014 119.075C98.6914 119.115 99.8714 119.305 100.991 120.045C102.391 120.965 104.021 120.285 104.671 118.625C105.591 116.245 106.481 113.835 107.421 111.465C107.711 110.725 108.191 110.055 108.511 109.315C109.541 106.945 110.551 104.565 111.551 102.185C112.461 100.015 113.351 97.8247 114.271 95.6547C114.741 94.5447 115.241 93.4447 115.811 92.3847C115.961 92.1047 116.401 91.8347 116.711 91.8247C117.211 91.8147 117.701 91.9547 117.871 92.6247C118.991 96.9247 120.711 101.005 122.431 105.095C122.641 105.595 122.731 106.145 122.901 106.665C123.741 109.175 124.601 111.675 125.421 114.185C125.821 115.405 126.031 116.715 126.581 117.875C127.571 119.945 129.021 121.615 131.301 122.425C132.191 122.745 133.061 123.195 133.811 123.765C134.721 124.465 135.551 124.205 136.491 123.945C137.891 123.545 139.311 123.225 140.741 122.915C144.941 122.005 149.331 121.835 153.241 119.755C153.541 119.595 153.901 119.365 154.201 119.405C154.661 119.465 155.151 119.665 155.521 119.945C155.661 120.045 155.601 120.565 155.491 120.845C154.561 123.135 153.541 125.395 152.661 127.705C152.151 129.035 151.871 130.445 151.421 131.805C150.701 133.975 149.781 136.095 149.201 138.315C148.631 140.535 148.961 142.705 150.741 144.375C151.221 144.825 151.931 145.045 152.531 145.375C153.351 145.835 154.181 146.295 154.991 146.755C155.741 147.185 156.501 147.585 157.211 148.065C158.571 148.975 159.871 149.985 161.261 150.855C163.331 152.155 165.451 153.365 167.551 154.625C168.071 154.935 168.581 155.255 169.061 155.625C169.801 156.205 169.661 157.155 168.881 157.685C167.431 158.665 166.011 159.705 164.581 160.715C164.491 160.785 164.421 160.895 164.321 160.945C162.341 161.995 160.371 163.075 158.361 164.065C157.311 164.585 156.171 164.955 155.071 165.375C153.921 165.815 153.261 166.685 152.971 167.835C152.681 168.985 152.361 170.115 151.441 170.955C151.341 171.045 151.271 171.205 151.261 171.345C151.241 172.515 150.711 173.485 150.161 174.465C149.991 174.775 149.901 175.185 149.911 175.545C149.941 176.715 149.581 177.725 148.931 178.695C148.771 178.935 148.881 179.525 149.071 179.825C149.631 180.745 150.401 181.545 150.881 182.505C152.401 185.505 153.821 188.565 155.291 191.595C156.121 193.295 157.001 194.965 157.821 196.665C158.021 197.095 158.141 197.605 158.141 198.075C158.141 199.515 157.611 199.915 156.221 199.595C153.191 198.905 150.221 198.065 147.371 196.735C145.221 195.725 142.851 195.215 140.601 194.405C139.441 193.985 138.321 193.445 137.221 192.875C135.861 192.165 134.501 191.925 133.101 192.665C132.141 193.175 131.211 193.755 130.271 194.315C130.101 194.415 129.951 194.615 129.771 194.645C127.981 194.985 126.711 196.175 125.411 197.295C125.041 197.615 124.701 198.075 124.561 198.535C123.551 201.955 122.601 205.395 121.631 208.825C121.581 208.985 121.511 209.145 121.431 209.305C119.821 212.515 118.261 215.755 116.571 218.925C116.041 219.915 115.201 220.755 114.431 221.595C114.311 221.725 113.681 221.615 113.511 221.415C112.741 220.505 111.801 219.615 111.381 218.545C110.741 216.905 110.541 215.105 110.011 213.415C109.681 212.365 109.111 211.385 108.641 210.375C108.181 209.385 107.631 208.425 107.271 207.405C106.251 204.505 105.311 201.565 104.331 198.645C104.251 198.405 104.091 198.185 104.011 197.935C103.161 195.335 101.021 194.845 98.7114 194.705C96.5714 194.575 94.5114 195.105 92.4314 195.505C91.2814 195.725 90.0614 195.595 88.9114 195.835C85.9314 196.465 82.9914 197.355 79.9914 197.845C77.6114 198.235 75.5514 199.395 73.3214 200.115C72.4214 200.405 71.4914 200.585 70.5714 200.805C70.3214 200.865 70.0614 200.875 69.8014 200.865C69.0814 200.845 68.3514 200.795 67.5414 200.755C67.4314 200.255 67.2514 199.545 67.1214 198.825C67.0914 198.665 67.2314 198.455 67.3514 198.305C69.2214 195.975 70.6314 193.375 71.9414 190.705C72.1714 190.235 72.6814 189.905 72.9514 189.455C73.9814 187.755 74.9714 186.035 75.9714 184.325C76.4314 183.525 76.8614 182.715 77.3014 181.905C77.9314 180.765 78.5614 179.635 79.1714 178.485C79.2314 178.365 79.1914 178.125 79.1014 178.005C78.0814 176.615 78.0514 174.865 77.3914 173.335C76.8714 172.115 76.4814 170.845 76.0314 169.605C75.9714 169.445 75.8614 169.275 75.8614 169.115C75.8714 167.055 74.4314 165.935 73.0514 164.815C69.8114 162.175 66.3914 159.805 62.7214 157.795C61.9114 157.355 61.2514 156.625 60.5814 155.975C59.2014 154.605 57.8614 153.195 56.4414 151.745ZM115.081 174.425C118.001 174.625 120.521 173.715 122.671 171.735C123.151 171.295 123.701 170.915 124.271 170.605C127.671 168.765 129.601 165.955 130.011 162.105C130.071 161.545 130.201 160.965 130.411 160.445C131.551 157.525 131.511 154.655 130.211 151.795C130.011 151.355 129.881 150.865 129.831 150.395C129.481 146.995 127.871 144.375 125.031 142.485C124.491 142.125 123.981 141.685 123.541 141.195C121.421 138.865 118.801 137.715 115.651 137.695C114.371 137.685 113.071 137.705 111.801 137.585C108.101 137.235 105.171 138.895 102.391 141.035C101.921 141.395 101.411 141.735 100.871 141.995C97.0114 143.865 94.9914 146.925 94.7814 151.205C94.7514 151.825 94.6514 152.465 94.4814 153.065C94.0114 154.755 93.8114 156.435 94.2714 158.175C94.5414 159.175 94.8114 160.195 94.8614 161.215C95.0114 164.355 96.1514 166.995 98.5914 168.995C100.211 170.325 101.871 171.635 103.641 172.765C106.331 174.475 109.261 175.405 112.521 174.775C113.371 174.595 114.231 174.535 115.081 174.425Z" fill="white"/>
<path d="M192.09 117.465C192.94 117.475 193.7 117.715 194.2 118.405C196.32 121.345 198.39 124.325 199.56 127.815C199.82 128.605 200.06 129.405 200.37 130.185C200.98 131.695 201.31 133.225 201.27 134.885C201.21 137.385 201.32 139.895 201.35 142.395C201.35 142.735 201.38 143.115 201.25 143.415C200.26 145.735 200.28 148.215 199.93 150.645C199.62 152.785 198.94 154.915 198.14 156.945C196.64 160.755 194.63 164.315 192.32 167.705C191.51 168.895 190.37 169.635 189.32 170.525C187.7 171.895 186.07 173.275 184.55 174.745C182.28 176.935 180.05 179.145 177.01 180.255C174.85 181.045 172.69 181.825 170.51 182.575C169.37 182.965 168.19 183.215 167.07 183.645C166.22 183.975 165.46 184.515 164.63 184.905C162.79 185.765 160.86 186.265 158.82 186.405C158.3 186.435 158.01 186.225 157.73 185.765C156.6 183.885 156.04 181.815 155.52 179.715C155.42 179.325 155.34 178.925 155.19 178.555C154.46 176.655 154.95 175.355 156.34 173.955C157.85 172.435 159.7 171.725 161.59 170.975C162.21 170.725 162.81 170.285 163.27 169.795C164.69 168.295 166.01 166.705 167.44 165.215C168.21 164.405 169.05 163.645 169.96 162.995C171.58 161.835 172.38 160.105 173.36 158.495C173.52 158.235 173.56 157.755 173.43 157.505C172.87 156.495 173.06 155.425 173.12 154.375C173.16 153.665 172.92 153.305 172.3 152.965C169.96 151.665 167.64 150.345 165.37 148.935C163.49 147.775 161.72 146.425 159.84 145.265C157.82 144.025 155.73 142.885 153.65 141.755C152.74 141.255 152.58 140.515 153.39 139.865C154.17 139.245 154.99 138.895 156.08 138.945C158.57 139.065 161.06 139.155 163.54 138.515C164.57 138.255 165.72 138.385 166.81 138.485C170.73 138.845 174.63 139.465 178.55 139.625C181.96 139.765 185.06 138.575 187.23 135.785C188.15 134.605 188.75 133.145 189.34 131.755C190.08 130.005 190.9 128.235 191.22 126.395C191.6 124.225 192.81 122.215 192.55 119.935C192.46 119.125 192.25 118.325 192.09 117.465Z" fill="white"/>
</g>
<defs>
<clipPath id="clip0_130_9490">
<rect width="221.651" height="221.651" fill="white" transform="translate(0.380859)"/>
</clipPath>
</defs>
</svg>
