<svg width="590" height="800" viewBox="0 0 590 800" fill="none" xmlns="http://www.w3.org/2000/svg">
<g clip-path="url(#clip0_130_9846)">
<path d="M587.942 184C588.25 182.359 588.865 180.821 589.275 179.282C589.275 178.769 589.275 178.256 589.275 177.744C566.711 184.308 544.352 191.077 521.686 197.128C507.942 200.821 493.891 203.385 480.045 206.462C479.327 206.667 478.609 206.667 476.763 206.974C489.993 189.436 502.711 172.718 515.327 155.897C515.122 155.692 514.917 155.385 514.814 155.18C478.814 172.41 442.917 189.641 406.917 206.769C406.711 206.564 406.506 206.359 406.301 206.154C407.019 205.026 407.737 203.897 408.455 202.872C452.968 137.231 497.583 71.4872 542.096 5.84615C543.327 4 544.352 1.94872 545.583 0C477.481 0 409.481 0 341.583 0C341.07 1.02564 340.66 2.05128 340.045 3.07692C296.865 74.4615 253.686 145.846 210.609 217.333C208.865 220.205 207.122 221.128 203.84 220.615C186.711 218.256 169.481 216.41 152.352 213.846C101.686 206.051 51.8396 194.974 3.32675 178.462C2.71136 178.256 1.99341 178.154 1.07034 177.949C1.1729 178.872 1.1729 179.282 1.27547 179.795C10.7114 229.641 20.2498 279.487 29.6857 329.333C30.096 331.385 30.096 333.744 29.7883 335.795C22.4037 375.18 14.8139 414.564 7.32675 454.051C5.27547 465.128 3.12162 476.103 0.967773 487.795C30.6088 477.538 60.2498 469.744 90.3011 463.18C120.352 456.615 150.711 451.282 182.096 447.487C167.327 475.897 153.07 503.385 138.814 530.872C139.019 531.077 139.327 531.18 139.532 531.385C169.481 517.333 199.429 503.18 229.378 489.128C229.583 489.333 229.788 489.538 229.993 489.846C175.122 593.231 120.352 696.615 65.5832 800C67.2242 799.282 68.2498 798.154 69.1729 797.026C165.788 680 262.506 562.974 359.122 445.949C360.968 443.692 362.814 442.667 365.891 442.974C424.66 448 482.609 457.538 539.532 472.821C556.25 477.333 572.66 482.667 589.275 487.692C589.275 487.18 589.275 486.667 589.275 486.154C587.532 477.641 585.583 469.231 583.942 460.615C576.045 419.282 568.147 377.846 560.352 336.41C559.942 333.949 559.942 331.282 560.352 328.821C569.583 280.615 578.711 232.308 587.942 184ZM263.737 290.154C241.993 332 220.25 373.846 198.609 415.692C197.378 418.154 195.84 419.18 193.07 419.487C141.686 425.128 90.8139 433.538 40.5575 445.949C39.8396 446.154 39.0191 446.154 37.7883 446.359C38.096 443.897 38.4037 441.641 38.7114 439.487C44.1473 405.641 49.5832 371.692 55.2242 337.846C56.5575 329.436 53.9934 321.538 52.7626 313.538C48.0447 283.077 43.0191 252.513 38.096 222.051C37.9934 221.333 37.9934 220.513 37.8909 219.795C63.737 224.923 89.2755 230.564 115.019 234.974C140.763 239.487 166.609 242.769 192.865 246.769C182.609 263.692 172.352 280.718 162.096 297.641C151.84 314.667 141.583 331.59 131.84 349.333C176.66 327.385 221.481 305.333 266.404 283.385C266.609 283.59 266.814 283.795 267.019 284C265.891 285.949 264.763 288.103 263.737 290.154ZM537.378 352.513C542.096 382.872 547.122 413.231 552.045 443.59C552.147 444.308 552.147 445.026 552.25 446.462C496.352 432.821 440.147 423.59 382.301 417.949C410.199 384.205 437.481 351.077 464.865 317.949C464.66 317.744 464.558 317.436 464.352 317.231C429.686 332.308 394.917 347.385 359.327 362.872C360.25 361.333 360.558 360.513 361.173 359.795C391.019 320.205 420.968 280.615 450.917 241.128C452.045 239.692 454.096 238.564 455.84 238.154C487.122 231.795 518.404 225.538 549.686 219.385C550.404 219.282 551.122 219.18 552.25 219.077C552.045 220.615 551.942 221.846 551.737 223.077C546.096 257.949 540.455 292.923 534.814 327.795C533.481 336.41 536.147 344.41 537.378 352.513Z" fill="white"/>
</g>
<defs>
<clipPath id="clip0_130_9846">
<rect width="588.308" height="800" fill="white" transform="translate(0.967773)"/>
</clipPath>
</defs>
</svg>
