<svg width="237" height="236" viewBox="0 0 237 236" fill="none" xmlns="http://www.w3.org/2000/svg">
<path d="M116.991 0.0195312C122.301 4.75953 123.451 7.57953 121.361 10.7795C126.211 15.7295 122.291 21.9795 123.581 27.5195C128.441 24.7395 133.061 22.0495 137.751 19.4995C138.221 19.2495 139.171 19.8895 140.491 20.2995C132.191 36.5195 128.441 53.5295 129.581 71.7595C130.461 69.8695 131.431 68.0195 132.191 66.0795C136.001 56.3695 142.141 48.1195 148.981 40.4695C153.981 34.8895 159.601 29.8295 165.241 24.8795C166.641 23.6495 169.201 23.7395 171.221 23.2195C170.581 25.0895 170.401 27.3295 169.241 28.7795C161.991 37.7895 156.581 47.8095 151.811 58.2795C150.111 62.0095 146.981 65.1095 145.431 68.8795C140.891 79.8895 138.041 91.1295 139.211 103.4C140.341 115.16 142.121 126.65 146.531 137.61C149.451 144.87 153.761 151.24 160.051 156.09C168.721 162.77 184.151 159.23 190.651 149.16C194.851 142.66 194.531 135.43 194.121 128.24C193.471 116.66 190.251 106 180.601 98.6595C173.641 93.3595 161.941 93.7295 158.761 106.04C156.721 113.93 157.951 121.35 160.671 128.62C161.661 131.26 163.701 133.66 165.751 135.69C168.001 137.92 170.631 137.48 172.781 135.11C176.371 131.16 176.941 123.6 174.201 118.95C172.791 116.55 171.161 117.74 169.391 118.2C168.111 118.53 166.711 118.39 165.371 118.47C165.541 117.05 165.301 115.4 165.951 114.26C167.471 111.61 169.301 109.31 172.981 109.15C177.381 108.95 180.661 110.7 182.641 114.29C186.321 120.96 187.461 137.44 179.371 144.59C175.691 147.85 167.101 149.46 162.061 146.87C154.891 143.18 149.501 137.74 147.461 129.76C144.781 119.32 142.931 108.62 148.271 98.5495C151.501 92.4495 155.921 86.7695 163.611 85.7795C171.351 84.7795 179.101 83.0295 186.641 87.3295C201.731 95.9395 209.971 108.34 209.171 126.12C208.891 132.23 208.891 138.36 208.351 144.44C206.541 164.81 189.611 176.74 171.171 175.74C164.031 175.36 158.091 171.59 152.141 168.04C151.461 167.63 150.751 167.26 150.021 166.93C149.841 166.85 149.551 167.03 148.711 167.25C150.781 172.04 152.371 176.99 154.931 181.38C160.011 190.11 165.641 198.52 170.971 207.11C171.601 208.13 171.701 209.47 172.041 210.66C170.561 210.59 168.601 211.1 167.671 210.35C162.181 205.92 156.211 201.79 151.781 196.42C145.381 188.68 140.011 180.07 134.501 171.63C132.651 168.8 131.741 165.36 129.881 162.16C129.881 166.77 129.571 171.41 129.971 175.99C130.371 180.58 131.361 185.13 132.291 189.66C133.251 194.33 134.111 199.07 135.641 203.57C137.101 207.88 139.351 211.92 141.471 216.54C133.511 217.61 130.341 210.76 123.971 207.72C123.971 209.4 124.041 210.59 123.961 211.77C123.551 217.83 123.541 223.98 122.461 229.92C122.051 232.18 119.151 233.99 117.391 236C115.571 234.18 113.231 232.66 112.041 230.5C108.581 224.22 109.611 217.31 110.101 210.54C110.161 209.73 110.271 208.93 110.481 206.94C108.581 208.35 107.621 209.11 106.621 209.8C103.441 211.98 100.311 214.27 96.9912 216.2C96.1112 216.71 94.5712 216.1 93.3412 216C93.5212 214.88 93.4012 213.58 93.9312 212.67C95.4112 210.14 97.0512 207.69 98.8212 205.35C104.341 198.05 105.411 189.47 106.121 180.76C106.531 175.72 107.031 170.69 107.421 165.65C107.511 164.42 107.321 163.18 107.211 160.76C103.941 167.28 101.501 172.83 98.4912 178.04C91.2912 190.49 82.5712 201.68 70.5412 209.9C69.7712 210.42 68.5112 210.23 67.4812 210.36C67.6112 209.22 67.3812 207.86 67.9212 206.96C73.9312 196.9 80.1012 186.94 86.1012 176.87C87.4312 174.64 88.2212 172.08 89.2612 169.67C89.0112 169.4 88.7612 169.14 88.5212 168.87C87.3312 169.46 86.1112 169.99 84.9712 170.66C72.8712 177.75 60.0812 177.99 47.6412 172.69C37.8412 168.52 30.5612 160.86 29.1212 149.75C27.8412 139.81 26.9212 129.66 27.4112 119.67C28.1312 104.7 41.5812 88.5095 56.3012 85.3595C65.6312 83.3595 74.9012 84.1995 82.8512 92.1195C92.8212 102.05 93.3212 112.8 90.1612 125.39C88.7412 131.04 86.1312 135.63 83.3512 140.47C78.1212 149.58 60.0412 151.2 53.9012 139.82C51.5012 135.38 52.0012 129.27 51.6212 123.89C51.4712 121.72 52.3612 119.43 52.9812 117.25C54.6812 111.26 62.1712 107.74 67.9012 110.16C70.6812 111.34 71.6512 113.44 71.1912 117.76C67.6412 115.68 64.3412 114.87 61.7212 119.14C59.5012 122.75 60.6712 132.64 63.9112 135.4C67.2812 138.26 70.9012 138.11 73.7512 134.74C78.4912 129.15 81.9312 109.48 75.6512 101.28C70.9412 95.1195 61.5612 94.5795 55.9312 99.0895C48.3912 105.12 44.0912 113.31 42.8512 122.57C41.4812 132.77 41.3912 143.09 48.1812 152.11C55.5012 161.83 71.5312 162.77 79.4012 153.48C87.0712 144.43 91.9612 134.11 94.9912 122.44C98.3812 109.38 98.5112 96.4995 96.0112 83.6195C94.6812 76.7995 91.4612 70.2795 88.5512 63.8695C82.8212 51.2295 76.3912 38.9495 67.7912 27.9395C66.9312 26.8395 66.3312 25.5295 65.6112 24.3195C65.8212 23.9895 66.0412 23.6495 66.2512 23.3195C67.5612 23.7795 69.0712 23.9595 70.1512 24.7295C77.9312 30.2495 85.0012 36.6395 90.0612 44.7395C95.3912 53.2695 99.9812 62.2595 104.891 71.0595C105.151 71.5195 105.361 72.0095 106.211 72.2295C106.461 62.9595 106.901 53.7095 103.921 45.1195C100.871 36.6195 96.4012 28.6195 92.3812 19.9395C99.7112 19.1695 103.481 25.9695 109.781 28.7495C109.611 27.3295 109.481 26.5095 109.421 25.6895C108.771 16.3595 107.661 6.91953 116.181 0.0195312C116.451 0.0195312 116.721 0.0195312 116.991 0.0195312Z" fill="white"/>
</svg>
